<svg width="106" height="106" viewBox="0 0 106 106" fill="none" xmlns="http://www.w3.org/2000/svg">
<g clip-path="url(#clip0_191_2428)">
<path d="M104.939 106H1.06085C0.477382 106 0 105.525 0 104.943C0 104.362 0.477382 103.887 1.06085 103.887H104.939C105.523 103.887 106 104.362 106 104.943C106 105.525 105.523 106 104.939 106Z" fill="#1E0D2D"/>
<path d="M76.4019 1.0564H35.9941V104.943H76.4019V1.0564Z" fill="white"/>
<path d="M76.4022 106H35.9944C35.411 106 34.9336 105.525 34.9336 104.943V1.05651C34.9336 0.475431 35.411 0 35.9944 0H76.4022C76.9856 0 77.463 0.475431 77.463 1.05651V104.943C77.463 105.525 76.9856 106 76.4022 106ZM37.0553 103.887H75.3413V2.11303H37.0553V103.887Z" fill="#1E0D2D"/>
<path d="M52.0137 8.18774H44.5771V17.6118H52.0137V8.18774Z" fill="#D6D6D6"/>
<path d="M52.0033 18.6685H44.5667C43.9832 18.6685 43.5059 18.193 43.5059 17.612V8.18786C43.5059 7.60678 43.9832 7.13135 44.5667 7.13135H52.0033C52.5867 7.13135 53.0641 7.60678 53.0641 8.18786V17.612C53.0641 18.193 52.5867 18.6685 52.0033 18.6685ZM45.6382 16.5554H50.953V9.24437H45.6382V16.5554Z" fill="#1E0D2D"/>
<path d="M64.7334 8.18774H57.2969V17.6118H64.7334V8.18774Z" fill="#D6D6D6"/>
<path d="M64.7337 18.6685H57.2972C56.7137 18.6685 56.2363 18.193 56.2363 17.612V8.18786C56.2363 7.60678 56.7137 7.13135 57.2972 7.13135H64.7337C65.3172 7.13135 65.7946 7.60678 65.7946 8.18786V17.612C65.7946 18.193 65.3172 18.6685 64.7337 18.6685ZM58.358 16.5554H63.6729V9.24437H58.358V16.5554Z" fill="#1E0D2D"/>
<path d="M52.0137 22.6199H44.5771V32.044H52.0137V22.6199Z" fill="#D6D6D6"/>
<path d="M52.0033 33.1006H44.5667C43.9832 33.1006 43.5059 32.6252 43.5059 32.0441V22.62C43.5059 22.0389 43.9832 21.5635 44.5667 21.5635H52.0033C52.5867 21.5635 53.0641 22.0389 53.0641 22.62V32.0441C53.0641 32.6252 52.5867 33.1006 52.0033 33.1006ZM45.6382 30.9876H50.953V23.6765H45.6382V30.9876Z" fill="#1E0D2D"/>
<path d="M64.7334 22.6199H57.2969V32.044H64.7334V22.6199Z" fill="#D6D6D6"/>
<path d="M64.7337 33.1006H57.2972C56.7137 33.1006 56.2363 32.6252 56.2363 32.0441V22.62C56.2363 22.0389 56.7137 21.5635 57.2972 21.5635H64.7337C65.3172 21.5635 65.7946 22.0389 65.7946 22.62V32.0441C65.7946 32.6252 65.3172 33.1006 64.7337 33.1006ZM58.358 30.9876H63.6729V23.6765H58.358V30.9876Z" fill="#1E0D2D"/>
<path d="M52.0137 37.0623H44.5771V46.4864H52.0137V37.0623Z" fill="#D6D6D6"/>
<path d="M52.0033 47.543H44.5667C43.9832 47.543 43.5059 47.0676 43.5059 46.4865V37.0624C43.5059 36.4813 43.9832 36.0059 44.5667 36.0059H52.0033C52.5867 36.0059 53.0641 36.4813 53.0641 37.0624V46.4865C53.0641 47.0676 52.5867 47.543 52.0033 47.543ZM45.6382 45.43H50.953V38.1189H45.6382V45.43Z" fill="#1E0D2D"/>
<path d="M64.7334 37.0623H57.2969V46.4864H64.7334V37.0623Z" fill="#D6D6D6"/>
<path d="M64.7337 47.543H57.2972C56.7137 47.543 56.2363 47.0676 56.2363 46.4865V37.0624C56.2363 36.4813 56.7137 36.0059 57.2972 36.0059H64.7337C65.3172 36.0059 65.7946 36.4813 65.7946 37.0624V46.4865C65.7946 47.0676 65.3172 47.543 64.7337 47.543ZM58.358 45.43H63.6729V38.1189H58.358V45.43Z" fill="#1E0D2D"/>
<path d="M52.0137 51.5049H44.5771V60.929H52.0137V51.5049Z" fill="#D6D6D6"/>
<path d="M52.0033 61.9856H44.5667C43.9832 61.9856 43.5059 61.5102 43.5059 60.9291V51.505C43.5059 50.9239 43.9832 50.4485 44.5667 50.4485H52.0033C52.5867 50.4485 53.0641 50.9239 53.0641 51.505V60.9291C53.0641 61.5102 52.5867 61.9856 52.0033 61.9856ZM45.6382 59.8726H50.953V52.5615H45.6382V59.8726Z" fill="#1E0D2D"/>
<path d="M64.7334 51.5049H57.2969V60.929H64.7334V51.5049Z" fill="#D6D6D6"/>
<path d="M64.7337 61.9856H57.2972C56.7137 61.9856 56.2363 61.5102 56.2363 60.9291V51.505C56.2363 50.9239 56.7137 50.4485 57.2972 50.4485H64.7337C65.3172 50.4485 65.7946 50.9239 65.7946 51.505V60.9291C65.7946 61.5102 65.3172 61.9856 64.7337 61.9856ZM58.358 59.8726H63.6729V52.5615H58.358V59.8726Z" fill="#1E0D2D"/>
<path d="M52.0137 65.9368H44.5771V75.3609H52.0137V65.9368Z" fill="#D6D6D6"/>
<path d="M52.0033 76.4175H44.5667C43.9832 76.4175 43.5059 75.9421 43.5059 75.361V65.9369C43.5059 65.3558 43.9832 64.8804 44.5667 64.8804H52.0033C52.5867 64.8804 53.0641 65.3558 53.0641 65.9369V75.361C53.0641 75.9421 52.5867 76.4175 52.0033 76.4175ZM45.6382 74.3045H50.953V66.9934H45.6382V74.3045Z" fill="#1E0D2D"/>
<path d="M64.7334 65.9368H57.2969V75.3609H64.7334V65.9368Z" fill="#D6D6D6"/>
<path d="M64.7337 76.4175H57.2972C56.7137 76.4175 56.2363 75.9421 56.2363 75.361V65.9369C56.2363 65.3558 56.7137 64.8804 57.2972 64.8804H64.7337C65.3172 64.8804 65.7946 65.3558 65.7946 65.9369V75.361C65.7946 75.9421 65.3172 76.4175 64.7337 76.4175ZM58.358 74.3045H63.6729V66.9934H58.358V74.3045Z" fill="#1E0D2D"/>
<path d="M27.8685 80.0308C22.4476 80.0308 18.0557 84.4047 18.0557 89.8035V104.943H37.6814V89.8035C37.6814 84.4047 33.2895 80.0308 27.8685 80.0308Z" fill="white"/>
<path d="M37.6817 106H18.056C17.4725 106 16.9951 105.525 16.9951 104.943V89.8036C16.9951 83.8343 21.875 78.9744 27.8688 78.9744C33.8626 78.9744 38.7425 83.8343 38.7425 89.8036V104.943C38.7425 105.525 38.2651 106 37.6817 106ZM19.1168 103.887H36.6208V89.8036C36.6208 84.9965 32.6957 81.0874 27.8688 81.0874C23.042 81.0874 19.1168 84.9965 19.1168 89.8036V103.887Z" fill="#1E0D2D"/>
<path d="M42.7207 92.1384C39.9306 92.1384 37.6816 94.3888 37.6816 97.1569V104.943H47.7703V97.1569C47.7703 94.3782 45.5107 92.1384 42.7313 92.1384H42.7207Z" fill="#D6D6D6"/>
<path d="M47.7599 106H37.6712C37.0877 106 36.6104 105.525 36.6104 104.943V97.157C36.6104 93.8078 39.3473 91.082 42.7102 91.082C46.0731 91.082 48.8101 93.8078 48.8101 97.157V104.943C48.8101 105.525 48.3327 106 47.7493 106H47.7599ZM38.7427 103.887H46.7096V97.157C46.7096 94.97 44.9274 93.1951 42.7314 93.1951C40.5355 93.1951 38.7533 94.97 38.7533 97.157V103.887H38.7427Z" fill="#1E0D2D"/>
<path d="M13.0058 92.1384C10.2158 92.1384 7.9668 94.3888 7.9668 97.1569V104.943H18.0555V97.1569C18.0555 94.3782 15.7959 92.1384 13.0164 92.1384H13.0058Z" fill="#D6D6D6"/>
<path d="M18.0558 106H7.9671C7.38363 106 6.90625 105.525 6.90625 104.943V97.157C6.90625 93.8078 9.64324 91.082 13.0061 91.082C16.369 91.082 19.106 93.8078 19.106 97.157V104.943C19.106 105.525 18.6286 106 18.0452 106H18.0558ZM9.02795 103.887H16.9949V97.157C16.9949 94.97 15.2127 93.1951 13.0167 93.1951C10.8208 93.1951 9.03856 94.97 9.03856 97.157V103.887H9.02795Z" fill="#1E0D2D"/>
<path d="M82.7674 1.0564H76.4023V104.943H82.7674V1.0564Z" fill="#D6D6D6"/>
<path d="M82.7677 106H76.4026C75.8192 106 75.3418 105.525 75.3418 104.943V1.05651C75.3418 0.475431 75.8192 0 76.4026 0H82.7677C83.3512 0 83.8286 0.475431 83.8286 1.05651V104.943C83.8286 105.525 83.3512 106 82.7677 106ZM77.4635 103.887H81.7069V2.11303H77.4635V103.887Z" fill="#1E0D2D"/>
<path d="M92.559 83.4751C92.559 81.2036 91.3709 79.2068 89.5886 78.0552C90.0448 76.819 90.31 75.3188 90.31 73.7129C90.31 69.4234 88.4111 65.9475 86.0666 65.9475C83.7221 65.9475 81.8232 69.4234 81.8232 73.7129C81.8232 75.3188 82.0884 76.819 82.5446 78.0552C80.7624 79.2068 79.5742 81.2036 79.5742 83.4751C79.5742 85.9684 80.9958 88.1237 83.075 89.2014C82.3006 89.9621 81.8232 91.0291 81.8232 92.1913C81.8232 94.5262 83.7221 96.4174 86.0666 96.4174C88.4111 96.4174 90.31 94.5262 90.31 92.1913C90.31 91.0186 89.8326 89.9621 89.0582 89.2014C91.1375 88.1237 92.559 85.9684 92.559 83.4751Z" fill="white"/>
<path d="M86.0669 97.4846C83.139 97.4846 80.7627 95.118 80.7627 92.202C80.7627 91.23 81.0279 90.2897 81.5159 89.4762C79.6382 88.071 78.5137 85.8629 78.5137 83.4752C78.5137 81.0875 79.5427 79.0695 81.2931 77.6538C80.943 76.4388 80.7521 75.097 80.7521 73.713C80.7521 68.7685 83.0859 64.8911 86.0563 64.8911C89.0267 64.8911 91.3606 68.7685 91.3606 73.713C91.3606 75.097 91.1802 76.4388 90.8195 77.6538C92.5805 79.0801 93.5989 81.2037 93.5989 83.4752C93.5989 85.7467 92.4744 88.071 90.5967 89.4762C91.0953 90.2897 91.3499 91.23 91.3499 92.202C91.3499 95.118 88.9736 97.4846 86.0457 97.4846H86.0669ZM86.0669 66.9936C84.5605 66.9936 82.8844 69.7511 82.8844 73.7024C82.8844 75.1393 83.1071 76.5128 83.5421 77.6855C83.7118 78.1504 83.5421 78.668 83.1284 78.9322C81.5689 79.9359 80.646 81.6369 80.646 83.4646C80.646 85.4826 81.7705 87.3209 83.5739 88.2612C83.871 88.4197 84.0831 88.7049 84.1362 89.043C84.1892 89.3811 84.0725 89.7086 83.8391 89.9516C83.2344 90.5538 82.9056 91.3462 82.9056 92.202C82.9056 93.9452 84.3377 95.3715 86.0881 95.3715C87.8385 95.3715 89.2707 93.9452 89.2707 92.202C89.2707 91.3568 88.9418 90.5538 88.3371 89.9516C88.0931 89.7086 87.987 89.3811 88.0401 89.043C88.0931 88.7155 88.2947 88.4197 88.6023 88.2612C90.4058 87.3209 91.5303 85.4931 91.5303 83.4646C91.5303 81.6263 90.5967 79.9359 89.0479 78.9322C88.6342 78.668 88.4538 78.1398 88.6342 77.6855C89.0691 76.5128 89.2919 75.1393 89.2919 73.7024C89.2919 69.7511 87.6157 66.9936 86.1093 66.9936H86.0669Z" fill="#1E0D2D"/>
<path d="M86.0667 106C85.4832 106 85.0059 105.525 85.0059 104.943V92.1385C85.0059 91.5575 85.4832 91.082 86.0667 91.082C86.6502 91.082 87.1276 91.5575 87.1276 92.1385V104.943C87.1276 105.525 86.6502 106 86.0667 106Z" fill="#1E0D2D"/>
</g>
<defs>
<clipPath id="clip0_191_2428">
<rect width="106" height="106" fill="white"/>
</clipPath>
</defs>
</svg>
