<svg width="35" height="35" viewBox="0 0 35 35" fill="none" xmlns="http://www.w3.org/2000/svg">
<g clip-path="url(#clip0_191_2513)">
<path d="M17.5025 34.5584C26.9224 34.5584 34.5587 26.9221 34.5587 17.5022C34.5587 8.08237 26.9224 0.446045 17.5025 0.446045C8.08261 0.446045 0.446289 8.08237 0.446289 17.5022C0.446289 26.9221 8.08261 34.5584 17.5025 34.5584Z" fill="white"/>
<path d="M17.5022 35C7.85014 35 0 27.1499 0 17.5022C0 7.8546 7.85014 0 17.5022 0C27.1543 0 35.0045 7.85014 35.0045 17.5022C35.0045 27.1543 27.1543 35.0045 17.5022 35.0045V35ZM17.5022 0.892061C8.34077 0.892061 0.892061 8.34077 0.892061 17.5022C0.892061 26.6637 8.34077 34.1124 17.5022 34.1124C26.6637 34.1124 34.1124 26.6637 34.1124 17.5022C34.1124 8.34077 26.6592 0.892061 17.5022 0.892061Z" fill="#1E0D2D"/>
<path d="M29.8042 9.0811C29.6659 9.0811 29.5277 9.01866 29.4429 8.89377C27.6677 6.43614 25.2235 4.60742 22.3778 3.60831C22.1459 3.52803 22.021 3.27379 22.1057 3.04185C22.186 2.80992 22.4447 2.68503 22.6722 2.76978C25.6918 3.83133 28.2832 5.7671 30.1655 8.37638C30.3082 8.57709 30.2636 8.85363 30.0629 9.00082C29.9826 9.0588 29.8934 9.08556 29.8042 9.08556V9.0811Z" fill="#1E0D2D"/>
<path d="M17.5027 33.1089C8.89428 33.1089 1.8916 26.1062 1.8916 17.4978C1.8916 17.2525 2.09232 17.0518 2.33763 17.0518C2.58295 17.0518 2.78366 17.2525 2.78366 17.4978C2.78366 25.6111 9.38491 32.2168 17.5027 32.2168C17.748 32.2168 17.9487 32.4175 17.9487 32.6628C17.9487 32.9081 17.748 33.1089 17.5027 33.1089Z" fill="#1E0D2D"/>
<path d="M7.50293 17.0784V23.0017C7.50293 23.9205 8.2478 24.6609 9.16216 24.6609H25.8392C26.7581 24.6609 27.4985 23.916 27.4985 23.0017V17.0784H7.50293Z" fill="#D6D6D6"/>
<path d="M25.839 25.1069H9.1619C8.00223 25.1069 7.05664 24.1613 7.05664 23.0016V17.0784C7.05664 16.833 7.25735 16.6323 7.50267 16.6323H27.4982C27.7435 16.6323 27.9442 16.833 27.9442 17.0784V23.0016C27.9442 24.1613 26.9987 25.1069 25.839 25.1069ZM7.9487 17.5244V23.0016C7.9487 23.6707 8.49286 24.2148 9.1619 24.2148H25.839C26.508 24.2148 27.0522 23.6707 27.0522 23.0016V17.5244H7.9487Z" fill="#1E0D2D"/>
<path d="M25.8392 13.9829H9.16216C8.24334 13.9829 7.50293 14.7278 7.50293 15.6421V19.643H27.4985V15.6421C27.4985 14.7233 26.7536 13.9829 25.8392 13.9829Z" fill="white"/>
<path d="M27.4982 20.0891H7.50267C7.25735 20.0891 7.05664 19.8883 7.05664 19.643V15.6421C7.05664 14.4824 8.00223 13.5369 9.1619 13.5369H25.839C26.9987 13.5369 27.9442 14.4824 27.9442 15.6421V19.643C27.9442 19.8883 27.7435 20.0891 27.4982 20.0891ZM7.9487 19.197H27.0522V15.6421C27.0522 14.9731 26.508 14.4289 25.839 14.4289H9.1619C8.49286 14.4289 7.9487 14.9731 7.9487 15.6421V19.197Z" fill="#1E0D2D"/>
<path d="M13.5242 14.4289C13.2788 14.4289 13.0781 14.2282 13.0781 13.9829V10.3389C13.0781 10.0935 13.2788 9.89282 13.5242 9.89282H17.7614C18.0068 9.89282 18.2075 10.0935 18.2075 10.3389C18.2075 10.5842 18.0068 10.7849 17.7614 10.7849H13.9702V13.9829C13.9702 14.2282 13.7695 14.4289 13.5242 14.4289Z" fill="#1E0D2D"/>
<path d="M21.9987 14.4289C21.7534 14.4289 21.5527 14.2282 21.5527 13.9829V10.7849H17.7615C17.5161 10.7849 17.3154 10.5842 17.3154 10.3389C17.3154 10.0935 17.5161 9.89282 17.7615 9.89282H21.9987C22.2441 9.89282 22.4448 10.0935 22.4448 10.3389V13.9829C22.4448 14.2282 22.2441 14.4289 21.9987 14.4289Z" fill="#1E0D2D"/>
<path d="M11.2853 21.8598H9.67064C9.42532 21.8598 9.22461 21.6591 9.22461 21.4138V18.5681C9.22461 18.3228 9.42532 18.1221 9.67064 18.1221H11.2853C11.5306 18.1221 11.7313 18.3228 11.7313 18.5681V21.4138C11.7313 21.6591 11.5306 21.8598 11.2853 21.8598ZM10.1122 20.9677H10.8348V19.0141H10.1122V20.9677Z" fill="#1E0D2D"/>
<path d="M25.3351 21.8598H23.7204C23.4751 21.8598 23.2744 21.6591 23.2744 21.4138V18.5681C23.2744 18.3228 23.4751 18.1221 23.7204 18.1221H25.3351C25.5804 18.1221 25.7811 18.3228 25.7811 18.5681V21.4138C25.7811 21.6591 25.5804 21.8598 25.3351 21.8598ZM24.162 20.9677H24.8846V19.0141H24.162V20.9677Z" fill="#1E0D2D"/>
<path d="M21.999 10.3389H13.5244V11.2666H21.999V10.3389Z" fill="#1E0D2D"/>
<path d="M21.9987 11.7126H13.5242C13.2788 11.7126 13.0781 11.5119 13.0781 11.2666V10.3389C13.0781 10.0935 13.2788 9.89282 13.5242 9.89282H21.9987C22.244 9.89282 22.4448 10.0935 22.4448 10.3389V11.2666C22.4448 11.5119 22.244 11.7126 21.9987 11.7126ZM13.9702 10.8206H21.5527V10.7849H13.9702V10.8206Z" fill="#1E0D2D"/>
</g>
<defs>
<clipPath id="clip0_191_2513">
<rect width="35" height="35" fill="white"/>
</clipPath>
</defs>
</svg>
