<svg width="40" height="9" viewBox="0 0 40 9" fill="none" xmlns="http://www.w3.org/2000/svg">
<g clip-path="url(#clip0_191_2662)">
<path d="M1 7.78989H30.71C30.71 7.78989 15.86 -7.49011 1 7.78989Z" fill="white"/>
<path d="M30.7096 8.79H0.999594C0.599594 8.79 0.239594 8.55 0.0795937 8.18C-0.0804062 7.81 -0.000406235 7.38 0.279594 7.09C4.85959 2.39 9.90959 0 15.3096 0C24.4296 0 31.1496 6.8 31.4296 7.09C31.7096 7.38 31.7896 7.81 31.6296 8.18C31.4696 8.55 31.1096 8.79 30.7096 8.79ZM3.50959 6.79H28.0096C25.4996 4.87 20.8196 2 15.2996 2H15.2796C11.1396 2 7.17959 3.61 3.49959 6.79H3.50959Z" fill="#1E0D2D"/>
<path d="M17.8506 7.78999H38.8506C38.8506 7.78999 28.3506 -3.01001 17.8506 7.78999Z" fill="#D6D6D6"/>
<path d="M38.8502 8.78999H17.8502C17.4502 8.78999 17.0902 8.54999 16.9302 8.17999C16.7702 7.80999 16.8502 7.37999 17.1302 7.08999C20.4202 3.69999 24.0702 1.98999 27.9602 1.98999C34.5302 1.98999 39.3602 6.88999 39.5702 7.08999C39.8502 7.37999 39.9302 7.80999 39.7702 8.17999C39.6102 8.54999 39.2502 8.78999 38.8502 8.78999ZM20.4402 6.78999H36.0402C34.2002 5.51999 31.3002 3.98999 27.9602 3.98999H27.9402C25.3202 3.98999 22.8002 4.92999 20.4402 6.78999Z" fill="#1E0D2D"/>
</g>
<defs>
<clipPath id="clip0_191_2662">
<rect width="39.85" height="8.79" fill="white"/>
</clipPath>
</defs>
</svg>
