<svg width="89" height="1" viewBox="0 0 89 1" fill="none" xmlns="http://www.w3.org/2000/svg">
<g clip-path="url(#clip0_191_2657)">
<path d="M38.6117 1H0.390332C0.175649 1 0 0.775 0 0.5C0 0.225 0.175649 0 0.390332 0H38.6117C38.8263 0 39.002 0.225 39.002 0.5C39.002 0.775 38.8263 1 38.6117 1Z" fill="#1E0D2D"/>
<path d="M57.0784 1H43.5534C43.3387 1 43.1631 0.775 43.1631 0.5C43.1631 0.225 43.3387 0 43.5534 0H57.0784C57.2931 0 57.4688 0.225 57.4688 0.5C57.4688 0.775 57.2931 1 57.0784 1Z" fill="#1E0D2D"/>
<path d="M88.1097 1H74.5847C74.37 1 74.1943 0.775 74.1943 0.5C74.1943 0.225 74.37 0 74.5847 0H88.1097C88.3244 0 88.5 0.225 88.5 0.5C88.5 0.775 88.3244 1 88.1097 1Z" fill="#1E0D2D"/>
<path d="M63.8189 1H61.0866C60.8719 1 60.6963 0.775 60.6963 0.5C60.6963 0.225 60.8719 0 61.0866 0H63.8189C64.0336 0 64.2093 0.225 64.2093 0.5C64.2093 0.775 64.0336 1 63.8189 1Z" fill="#1E0D2D"/>
</g>
<defs>
<clipPath id="clip0_191_2657">
<rect width="88.5" height="1" fill="white"/>
</clipPath>
</defs>
</svg>
