<svg width="16" height="43" viewBox="0 0 16 43" fill="none" xmlns="http://www.w3.org/2000/svg">
<path d="M14.7142 25.3871C14.0968 23.8965 13.1811 22.7196 11.992 21.8816C10.7596 21.016 9.3655 20.5764 7.85521 20.5764C5.90755 20.5764 4.13074 21.3 2.71157 22.6647C1.25367 24.0705 0.481445 25.8955 0.481445 27.9425C0.481445 30.681 1.65231 32.3937 2.69562 33.376C1.35845 34.4545 0.60217 35.9978 0.60217 37.6945C0.60217 39.0294 1.06915 40.2658 1.953 41.271C2.93253 42.3861 4.30842 42.9998 5.82554 42.9998C7.49529 42.9998 9.17187 42.2694 10.812 40.8291C12.1583 39.6453 13.2904 38.0723 14.1743 36.1558C15.065 34.2186 15.5183 32.1258 15.5183 29.93C15.5183 28.2058 15.2472 26.6786 14.7142 25.3871ZM7.95088 28.2928C7.76409 28.2928 7.68208 28.2608 7.60919 28.2058C7.60008 28.1577 7.58868 28.073 7.58868 27.9425C7.58868 27.9036 7.59324 27.8761 7.59552 27.8623C7.60236 27.8532 7.61374 27.8395 7.63196 27.8234C7.73675 27.7227 7.75498 27.7227 7.85521 27.7227H7.89621C7.89621 27.7227 7.9076 27.7295 7.92127 27.7387C7.92127 27.7387 8.0215 27.8188 8.14906 28.1302C8.16957 28.176 8.19007 28.231 8.21057 28.2928H7.95088Z" fill="#1E0D2D"/>
<path d="M13.3169 1.97814C11.9361 0.683068 10.2014 0 8.29902 0C6.39663 0 4.63668 0.669314 3.25583 1.93459C2.23111 2.87438 1.00879 4.57975 1.00879 7.37391C1.00879 8.74234 1.34194 10.0053 1.99675 11.1262H1.99905C2.63318 12.2127 3.49937 13.0929 4.57234 13.7439C5.70045 14.4269 6.95494 14.773 8.29902 14.773C9.64311 14.773 11.58 14.3765 13.3905 12.4809C14.7828 11.0276 15.518 9.26266 15.518 7.37391C15.518 4.6233 14.321 2.92023 13.3169 1.97814ZM8.20482 7.54353C8.20482 7.54353 8.19563 7.53207 8.19333 7.52519C8.18874 7.50915 8.17955 7.45872 8.17955 7.37391C8.17955 7.27993 8.18414 7.20887 8.19103 7.15844C8.21401 7.15615 8.25077 7.15157 8.29902 7.15157H8.33578C8.34037 7.1997 8.34726 7.27077 8.34726 7.36475C8.33348 7.38996 8.29442 7.44956 8.20482 7.54353Z" fill="#1E0D2D"/>
</svg>
