<svg width="35" height="35" viewBox="0 0 35 35" fill="none" xmlns="http://www.w3.org/2000/svg">
<g clip-path="url(#clip0_324_60)">
<path d="M24.7138 32.9595C33.2504 28.9769 36.9422 18.8282 32.9597 10.2916C28.9772 1.75497 18.8285 -1.93687 10.2919 2.04563C1.75525 6.02814 -1.93658 16.1769 2.04592 24.7135C6.02842 33.2501 16.1772 36.942 24.7138 32.9595Z" fill="white"/>
<path d="M17.5022 35C7.85013 35 0 27.1499 0 17.5022C0 7.85459 7.85013 0 17.5022 0C27.1543 0 35.0045 7.85013 35.0045 17.5022C35.0045 27.1543 27.1543 35.0045 17.5022 35.0045V35ZM17.5022 0.892061C8.34077 0.892061 0.892061 8.34077 0.892061 17.5022C0.892061 26.6637 8.34077 34.1124 17.5022 34.1124C26.6637 34.1124 34.1124 26.6637 34.1124 17.5022C34.1124 8.34077 26.6592 0.892061 17.5022 0.892061Z" fill="#1E0D2D"/>
<path d="M32.2998 23.0742C32.1897 23.1579 32.0418 23.1918 31.8988 23.1436C31.6637 23.0702 31.5319 22.823 31.6027 22.5844C32.4858 19.6841 32.4633 16.6315 31.5374 13.7612C31.461 13.528 31.5915 13.272 31.8239 13.2019C32.0571 13.1255 32.3104 13.2524 32.3832 13.4884C33.3646 16.535 33.3909 19.7695 32.4518 22.8467C32.423 22.9415 32.3681 23.0167 32.2971 23.0707L32.2998 23.0742Z" fill="#1E0D2D"/>
<path d="M2.76537 17.9482C2.52005 17.9482 2.31934 17.7475 2.31934 17.5022C2.31934 8.89379 9.31755 1.89111 17.9259 1.89111C18.1713 1.89111 18.372 2.09183 18.372 2.33714C18.372 2.58246 18.1713 2.78317 17.9259 2.78317C9.81264 2.78317 3.2114 9.38442 3.2114 17.5022C3.2114 17.7475 3.01068 17.9482 2.76537 17.9482Z" fill="#1E0D2D"/>
<path d="M11.5678 20.8782C8.9559 20.8782 6.82948 18.7641 6.82948 16.1645C6.82948 15.6134 6.92166 15.0787 7.10603 14.5748C7.12037 14.5379 7.12447 14.5031 7.11832 14.4682C6.87864 14.1814 5.52043 12.4852 6.17803 11.2499L6.31118 11L6.50785 11.2049C7.47068 12.2148 8.87191 12.1431 9.13822 12.1185C9.88186 11.6781 10.7177 11.4507 11.5678 11.4507C14.1798 11.4507 16.3062 13.5648 16.3062 16.1645C16.3062 16.4082 16.2878 16.6438 16.2529 16.8692L16.2345 16.9798L16.13 17.0249C15.667 17.2236 15.2491 17.5083 14.8886 17.8668C14.2474 18.508 13.8438 19.3521 13.7516 20.2411L13.7393 20.3538L13.6369 20.403C12.9916 20.7164 12.2951 20.8762 11.5658 20.8762L11.5678 20.8782Z" fill="#D6D6D6"/>
<path d="M11.5678 20.8782C8.9559 20.8782 6.82948 18.7641 6.82948 16.1645C6.82948 15.6134 6.92166 15.0787 7.10603 14.5748C7.12037 14.5379 7.12447 14.5031 7.11832 14.4682C6.87864 14.1814 5.52043 12.4852 6.17803 11.2499L6.31118 11L6.50785 11.2049C7.47068 12.2148 8.87191 12.1431 9.13822 12.1185C9.88186 11.6781 10.7177 11.4507 11.5678 11.4507C14.1798 11.4507 16.3062 13.5648 16.3062 16.1645C16.3062 16.4082 16.2878 16.6438 16.2529 16.8692L16.2345 16.9798L16.13 17.0249C15.667 17.2236 15.2491 17.5083 14.8886 17.8668C14.2474 18.508 13.8438 19.3521 13.7516 20.2411L13.7393 20.3538L13.6369 20.403C12.9916 20.7164 12.2951 20.8762 11.5658 20.8762L11.5678 20.8782ZM6.44025 11.7068C6.19237 12.7741 7.4461 14.2204 7.46044 14.2368L7.48912 14.2695L7.50141 14.3105C7.54443 14.4437 7.54033 14.583 7.48912 14.7161C7.32318 15.175 7.23714 15.6626 7.23714 16.1645C7.23714 18.5367 9.17919 20.4685 11.5658 20.4685C12.1927 20.4685 12.7949 20.3395 13.3562 20.0834C13.4792 19.1431 13.9176 18.2561 14.5977 17.5759C14.9685 17.2072 15.3925 16.9101 15.8617 16.695C15.8842 16.525 15.8944 16.3468 15.8944 16.1645C15.8944 13.7922 13.9524 11.8604 11.5658 11.8604C10.7853 11.8604 10.0191 12.0694 9.35128 12.4668L9.30621 12.5057L9.23655 12.52C9.1669 12.5303 7.62842 12.729 6.4382 11.7068H6.44025Z" fill="#1E0D2D" stroke="#1E0D2D" stroke-width="0.5" stroke-linejoin="round"/>
<path d="M17.8402 21.8901C17.1662 21.8901 16.6172 21.3411 16.6172 20.6671C16.6172 19.9931 17.1662 19.4441 17.8402 19.4441C18.5142 19.4441 19.0632 19.9931 19.0632 20.6671C19.0632 21.3411 18.5142 21.8901 17.8402 21.8901ZM17.8402 19.8538C17.3915 19.8538 17.0269 20.2185 17.0269 20.6671C17.0269 21.1157 17.3915 21.4804 17.8402 21.4804C18.2888 21.4804 18.6535 21.1157 18.6535 20.6671C18.6535 20.2185 18.2888 19.8538 17.8402 19.8538Z" fill="#1E0D2D" stroke="#1E0D2D" stroke-width="0.3" stroke-linejoin="round"/>
<path d="M21.7923 21.8061C21.1184 21.8061 20.5693 21.2571 20.5693 20.5831C20.5693 19.9091 21.1184 19.3601 21.7923 19.3601C22.4663 19.3601 23.0153 19.9091 23.0153 20.5831C23.0153 21.2571 22.4663 21.8061 21.7923 21.8061ZM21.7923 19.7698C21.3437 19.7698 20.9791 20.1345 20.9791 20.5831C20.9791 21.0317 21.3437 21.3964 21.7923 21.3964C22.241 21.3964 22.6056 21.0317 22.6056 20.5831C22.6056 20.1345 22.241 19.7698 21.7923 19.7698Z" fill="#1E0D2D" stroke="#1E0D2D" stroke-width="0.3" stroke-linejoin="round"/>
<path d="M25.8294 21.8061C25.1555 21.8061 24.6064 21.2571 24.6064 20.5831C24.6064 19.9091 25.1555 19.3601 25.8294 19.3601C26.5034 19.3601 27.0524 19.9091 27.0524 20.5831C27.0524 21.2571 26.5034 21.8061 25.8294 21.8061ZM25.8294 19.7698C25.3808 19.7698 25.0162 20.1345 25.0162 20.5831C25.0162 21.0317 25.3808 21.3964 25.8294 21.3964C26.2781 21.3964 26.6427 21.0317 26.6427 20.5831C26.6427 20.1345 26.2781 19.7698 25.8294 19.7698Z" fill="#1E0D2D" stroke="#1E0D2D" stroke-width="0.3" stroke-linejoin="round"/>
<path d="M25.5844 24.9979H17.7302C15.3292 24.9979 13.377 23.0456 13.377 20.6447C13.377 20.4992 13.3851 20.3476 13.4015 20.194C13.504 19.2107 13.9485 18.2786 14.6573 17.5698C15.0547 17.1744 15.5157 16.861 16.0258 16.6418C16.5666 16.4082 17.1402 16.2915 17.7322 16.2915H22.0158C22.0383 16.2915 22.0588 16.2853 22.0773 16.2751C22.2473 15.8736 23.4252 13.3169 26.1519 12.1431L26.6272 11.9382L26.4203 12.4135C25.312 14.9537 26.1089 16.0723 26.1171 16.0846L26.1621 16.146L26.158 16.2239C26.1539 16.2833 26.1949 16.3365 26.2543 16.3468C28.3541 16.6725 29.9377 18.5203 29.9377 20.6467C29.9377 21.8042 29.4829 22.8961 28.6593 23.7217C27.8338 24.5472 26.7419 25 25.5844 25V24.9979ZM17.7302 16.7012C17.1955 16.7012 16.6752 16.8077 16.1856 17.0187C15.7226 17.2174 15.3047 17.5022 14.9441 17.8607C14.3029 18.5019 13.8993 19.3459 13.8072 20.235C13.7928 20.3743 13.7867 20.5115 13.7867 20.6447C13.7867 22.8182 15.5566 24.5882 17.7302 24.5882H25.5844C26.6333 24.5882 27.6207 24.1764 28.3685 23.4287C29.1162 22.681 29.5279 21.6936 29.5279 20.6447C29.5279 18.719 28.0939 17.0453 26.1908 16.7503C25.945 16.7094 25.7668 16.5107 25.7504 16.271C25.5844 16.0047 25.0477 14.8943 25.8467 12.7454C23.4457 14.0155 22.4481 16.4513 22.4378 16.4779L22.4214 16.5168L22.3907 16.5475C22.2903 16.6479 22.1572 16.7032 22.0138 16.7032H17.7302V16.7012Z" fill="#1E0D2D" stroke="#1E0D2D" stroke-width="0.5" stroke-linejoin="round"/>
</g>
<path d="M11.6686 20C9.64375 20 8 18.3529 8 16.3314C8 16.1491 8.14913 16 8.3314 16C8.51367 16 8.6628 16.1491 8.6628 16.3314C8.6628 17.9884 10.0116 19.3372 11.6686 19.3372C11.8509 19.3372 12 19.4863 12 19.6686C12 19.8509 11.8509 20 11.6686 20Z" fill="#1E0D2D"/>
<defs>
<clipPath id="clip0_324_60">
<rect width="35" height="35" fill="white"/>
</clipPath>
</defs>
</svg>
