<svg width="12" height="12" viewBox="0 0 12 12" fill="none" xmlns="http://www.w3.org/2000/svg">
<g clip-path="url(#clip0_191_2651)">
<path d="M9.73484 9.7373C11.8008 7.67136 11.8008 4.32181 9.73484 2.25587C7.6689 0.189926 4.31935 0.189927 2.25341 2.25587C0.18747 4.32181 0.18747 7.67136 2.25341 9.7373C4.31935 11.8032 7.6689 11.8032 9.73484 9.7373Z" fill="white"/>
<path d="M5.99647 12C2.69099 12 0 9.309 0 5.99647C0 2.68393 2.69099 0 5.99647 0C9.30194 0 11.9929 2.69099 11.9929 5.99647C11.9929 9.30194 9.30194 11.9929 5.99647 11.9929V12ZM5.99647 1.4126C3.46792 1.4126 1.4126 3.46792 1.4126 5.99647C1.4126 8.52501 3.46792 10.5803 5.99647 10.5803C8.52501 10.5803 10.5803 8.52501 10.5803 5.99647C10.5803 3.46792 8.52501 1.4126 5.99647 1.4126Z" fill="#1E0D2D"/>
<path d="M5.69228 8.41212L5.99598 8.8359L6.29969 8.41212C6.29969 8.41212 6.73053 7.81176 7.16137 7.11959C7.76173 6.13784 8.05131 5.45979 8.05131 5.04308C8.05131 4.01188 7.12606 3.17139 5.99598 3.17139C4.86591 3.17139 3.93359 4.01188 3.93359 5.04308C3.93359 5.45979 4.22318 6.13784 4.82353 7.11959C5.24731 7.81176 5.66402 8.39093 5.68521 8.41212H5.69228ZM5.99598 4.05426C6.58221 4.05426 7.06249 4.49216 7.06249 5.02895C7.06249 5.56574 6.58221 6.00364 5.99598 6.00364C5.40976 6.00364 4.92947 5.56574 4.92947 5.02895C4.92947 4.49216 5.40976 4.05426 5.99598 4.05426Z" fill="#1E0D2D"/>
</g>
<defs>
<clipPath id="clip0_191_2651">
<rect width="12" height="12" fill="white"/>
</clipPath>
</defs>
</svg>
