<svg width="12" height="12" viewBox="0 0 12 12" fill="none" xmlns="http://www.w3.org/2000/svg">
<g clip-path="url(#clip0_191_2641)">
<path d="M5.99623 11.2866C8.91791 11.2866 11.2864 8.91815 11.2864 5.99647C11.2864 3.07479 8.91791 0.706299 5.99623 0.706299C3.07454 0.706299 0.706055 3.07479 0.706055 5.99647C0.706055 8.91815 3.07454 11.2866 5.99623 11.2866Z" fill="white"/>
<path d="M5.99647 12C2.69099 12 0 9.309 0 5.99647C0 2.68393 2.69099 0 5.99647 0C9.30194 0 11.9929 2.69099 11.9929 5.99647C11.9929 9.30194 9.30194 11.9929 5.99647 11.9929V12ZM5.99647 1.4126C3.46792 1.4126 1.4126 3.46792 1.4126 5.99647C1.4126 8.52501 3.46792 10.5803 5.99647 10.5803C8.52501 10.5803 10.5803 8.52501 10.5803 5.99647C10.5803 3.46792 8.52501 1.4126 5.99647 1.4126Z" fill="#1E0D2D"/>
<path d="M8.40424 4.97241L7.09052 5.74934C7.09052 5.74934 7.06934 5.76347 7.06934 5.77759C7.06934 5.77759 7.06934 5.79172 7.0764 5.80584L8.39011 7.2255C8.39011 7.2255 8.4113 7.24669 8.41836 7.24669H8.43955C8.43955 7.24669 8.46781 7.21844 8.46781 7.21138V5.01479C8.46781 5.01479 8.46074 4.98654 8.43955 4.97948H8.39718L8.40424 4.97241Z" fill="#1E0D2D"/>
<path d="M6.00974 5.89048H6.03093C6.03093 5.89048 6.05212 5.89048 6.05918 5.89048L8.3829 4.52026C8.3829 4.52026 8.40409 4.5132 8.41115 4.5132C8.41115 4.5132 8.42528 4.5132 8.43941 4.50614C8.46766 4.50614 8.47472 4.49201 8.47472 4.47082V3.97641C8.47472 3.92697 8.4606 3.88459 8.42528 3.85634C8.39703 3.82809 8.35465 3.81396 8.31227 3.81396H3.74253C3.70015 3.81396 3.65777 3.82809 3.62952 3.85634C3.5942 3.88459 3.58008 3.92697 3.58008 3.97641V4.48495C3.58008 4.48495 3.58714 4.52026 3.60833 4.52026L6.00974 5.89048Z" fill="#1E0D2D"/>
<path d="M6.70911 6.01753C6.70911 6.01753 6.68793 5.99635 6.65967 6.01047L6.12995 6.32124C6.06638 6.35656 5.99575 6.35656 5.92512 6.32124L5.46603 6.05991C5.46603 6.05991 5.43072 6.04579 5.41659 6.05991L3.65084 7.69852C3.65084 7.69852 3.63672 7.71971 3.63672 7.73384C3.63672 7.73384 3.63672 7.74796 3.65791 7.76209C3.69322 7.77622 3.72147 7.78328 3.7356 7.78328H8.25591C8.25591 7.78328 8.2771 7.77622 8.29122 7.76209C8.29122 7.73384 8.29122 7.71971 8.28416 7.71265L6.70205 6.01753H6.70911Z" fill="#1E0D2D"/>
<path d="M3.62291 7.15473C3.62291 7.15473 3.6441 7.15473 3.6441 7.14767L5.02844 5.86221C5.02844 5.86221 5.03551 5.84808 5.03551 5.83395C5.03551 5.81277 5.03551 5.8057 5.01432 5.8057L3.63704 5.01465C3.63704 5.01465 3.60172 5.01465 3.58759 5.01465C3.57347 5.01465 3.56641 5.02171 3.56641 5.0429V7.11235C3.56641 7.11235 3.57347 7.14767 3.59466 7.14767H3.61585L3.62291 7.15473Z" fill="#1E0D2D"/>
</g>
<defs>
<clipPath id="clip0_191_2641">
<rect width="12" height="12" fill="white"/>
</clipPath>
</defs>
</svg>
