<svg width="35" height="35" viewBox="0 0 35 35" fill="none" xmlns="http://www.w3.org/2000/svg">
<g clip-path="url(#clip0_191_2587)">
<path d="M17.5025 34.5584C26.9224 34.5584 34.5587 26.9221 34.5587 17.5022C34.5587 8.08237 26.9224 0.446045 17.5025 0.446045C8.08261 0.446045 0.446289 8.08237 0.446289 17.5022C0.446289 26.9221 8.08261 34.5584 17.5025 34.5584Z" fill="white"/>
<path d="M17.5022 35C7.85014 35 0 27.1499 0 17.5022C0 7.8546 7.85014 0 17.5022 0C27.1543 0 35.0045 7.85014 35.0045 17.5022C35.0045 27.1543 27.1543 35.0045 17.5022 35.0045V35ZM17.5022 0.892061C8.34077 0.892061 0.892061 8.34077 0.892061 17.5022C0.892061 26.6637 8.34077 34.1124 17.5022 34.1124C26.6637 34.1124 34.1124 26.6637 34.1124 17.5022C34.1124 8.34077 26.6592 0.892061 17.5022 0.892061Z" fill="#1E0D2D"/>
<path d="M12.4758 32.257C12.4268 32.257 12.3777 32.248 12.3286 32.2302C9.30901 31.1686 6.71757 29.2329 4.83533 26.6236C4.6926 26.4229 4.7372 26.1463 4.93791 25.9991C5.13863 25.8564 5.41517 25.901 5.56236 26.1017C7.33756 28.5594 9.7818 30.3881 12.6275 31.3872C12.8594 31.4675 12.9843 31.7217 12.8996 31.9536C12.8371 32.1365 12.6632 32.2525 12.4803 32.2525L12.4758 32.257Z" fill="#1E0D2D"/>
<path d="M32.6628 17.9482C32.4175 17.9482 32.2168 17.7475 32.2168 17.5022C32.2168 9.38888 25.6155 2.78317 17.4978 2.78317C17.2525 2.78317 17.0518 2.58246 17.0518 2.33714C17.0518 2.09183 17.2525 1.89111 17.4978 1.89111C26.1062 1.89111 33.1089 8.89379 33.1089 17.5022C33.1089 17.7475 32.9081 17.9482 32.6628 17.9482Z" fill="#1E0D2D"/>
<path d="M25.1878 16.4494C25.4643 19.3441 24.1753 22.1006 21.8336 23.8044L17.0076 27.2968L12.1815 23.8044C9.83542 22.105 8.59546 19.2995 8.8274 16.4494L9.10394 11.717C10.5268 11.717 11.6775 10.6153 11.7712 9.23706H22.2038C22.2975 10.6599 23.4438 11.717 24.8711 11.717L25.1922 16.4494H25.1878Z" fill="white"/>
<path d="M17.0075 27.5735L12.0521 23.9874C9.68816 22.2746 8.36791 19.3799 8.6043 16.4361L8.89422 11.4985H9.10386C10.3884 11.4985 11.4634 10.4994 11.5481 9.22379L11.5615 9.01416H22.4134L22.4268 9.22379C22.5115 10.5217 23.5597 11.4985 24.871 11.4985H25.0807L25.4152 16.4361C25.6962 19.3977 24.4072 22.2167 21.9674 23.9874L17.012 27.5735H17.0075ZM9.31349 11.9312L9.05033 16.4629C8.82732 19.2595 10.0762 21.9981 12.3153 23.6217L17.012 27.0204L21.7087 23.6217C24.0191 21.9446 25.2412 19.2729 24.9736 16.4718L24.6659 11.9312C23.2876 11.8375 22.1904 10.8161 22.0075 9.45573H11.9763C11.789 10.7938 10.6739 11.8331 9.32241 11.9312H9.31349Z" fill="black"/>
<path d="M21.2351 15.99L18.6615 17.8723L19.674 20.9053L17.0558 19.023L14.4822 20.9053L15.4457 17.8723L12.8721 15.99H16.0879L17.0558 12.957L18.0639 15.99H21.2351Z" fill="#D6D6D6"/>
<path d="M19.6742 21.3514C19.585 21.3514 19.4913 21.3247 19.4155 21.2667L17.0605 19.5718L14.7456 21.2667C14.5895 21.3827 14.3798 21.3827 14.2237 21.2667C14.0676 21.1552 14.0007 20.9545 14.0587 20.7671L14.9284 18.0374L12.6135 16.3425C12.4574 16.2266 12.395 16.0258 12.453 15.843C12.511 15.6601 12.6849 15.5352 12.8767 15.5352H15.767L16.6323 12.8144C16.6903 12.6315 16.8597 12.5067 17.056 12.5022C17.2567 12.5111 17.4217 12.6226 17.4842 12.8055L18.3941 15.5352H21.2442C21.436 15.5352 21.61 15.6601 21.668 15.843C21.7259 16.0258 21.6635 16.2266 21.5074 16.3425L19.1969 18.033L20.1068 20.7582C20.1693 20.9411 20.1068 21.1418 19.9463 21.2578C19.866 21.3158 19.7768 21.3425 19.6831 21.3425L19.6742 21.3514ZM14.2371 16.4362L15.709 17.5156C15.8651 17.6271 15.9275 17.8278 15.8696 18.0107L15.3209 19.7413L16.7928 18.6663C16.949 18.5504 17.1586 18.5504 17.3147 18.6663L18.8134 19.7457L18.238 18.0196C18.1755 17.8367 18.238 17.6315 18.3986 17.52L19.8705 16.4406H18.064C17.8722 16.4406 17.7027 16.3158 17.6403 16.1373L17.0605 14.4023L16.5118 16.1329C16.4539 16.3202 16.2799 16.4451 16.0881 16.4451H14.2371V16.4362Z" fill="black"/>
<path d="M17.0556 27.5736C17.011 27.5736 16.9173 27.5736 16.8727 27.529L12.0467 24.0366C9.70053 22.2882 8.37136 19.3934 8.64344 16.4095L8.91998 11.6771C8.91998 11.5388 9.05825 11.4006 9.19652 11.4006C10.4365 11.4006 11.4936 10.4371 11.5426 9.14812C11.5426 9.00985 11.6809 8.87158 11.8192 8.87158H22.2518C22.3901 8.87158 22.5284 9.00985 22.5284 9.14812C22.622 10.3881 23.6301 11.4006 24.8745 11.4006C25.0128 11.4006 25.151 11.5388 25.151 11.6771L25.4722 16.4095C25.7487 19.3488 24.4151 22.2926 22.0244 24.0366L17.1983 27.529C17.1983 27.5736 17.1046 27.5736 17.06 27.5736H17.0556ZM9.46859 11.9447L9.19206 16.4496C8.91552 19.2061 10.1555 21.918 12.4079 23.5727L17.0511 26.9269L21.6943 23.5727C23.9467 21.9626 25.1867 19.2061 24.9102 16.4496L24.6336 11.9447C23.3 11.8065 22.1983 10.794 22.0154 9.4648H12.0868C11.9039 10.7984 10.7978 11.8555 9.46859 11.9447Z" fill="#1E0D2D"/>
<path d="M17.0559 27.7966C16.989 27.7966 16.8239 27.7966 16.7124 27.6851L11.9131 24.215C9.47781 22.3997 8.14418 19.4024 8.42071 16.3827L8.69725 11.6548C8.69725 11.405 8.93365 11.1686 9.19681 11.1686C10.3476 11.1686 11.2753 10.2721 11.3199 9.13028C11.3199 8.87604 11.5563 8.63965 11.8195 8.63965H22.2521C22.5153 8.63965 22.7517 8.87604 22.7517 9.1392C22.8364 10.2677 23.7686 11.1686 24.8748 11.1686C25.1379 11.1686 25.3743 11.405 25.3743 11.6682L25.6955 16.3872C25.9809 19.4113 24.625 22.4086 22.1584 24.2106L17.377 27.6718C17.3324 27.7342 17.2387 27.7922 17.0648 27.7922L17.0559 27.7966ZM22.2477 9.09014H11.815C11.815 9.09014 11.7659 9.12582 11.7615 9.14366C11.7124 10.5353 10.584 11.6191 9.19235 11.6191C9.17451 11.6191 9.14328 11.6548 9.13882 11.6727L8.86229 16.4184C8.59913 19.2909 9.86585 22.1365 12.1763 23.8537L16.9979 27.3462C16.9979 27.3462 17.0336 27.3462 17.0514 27.3462H17.0559L21.8819 23.8493C24.2191 22.141 25.5081 19.2953 25.2361 16.4229L24.9149 11.6816C24.9149 11.6504 24.8792 11.6147 24.8614 11.6147C23.5278 11.6147 22.3993 10.5353 22.2967 9.15704C22.2967 9.12136 22.261 9.09014 22.2432 9.08568L22.2477 9.09014ZM17.0559 27.1499C17.0113 27.1499 16.9622 27.1365 16.9265 27.1098L12.2833 23.7556C9.95952 22.0473 8.69279 19.2418 8.97379 16.4273L9.25033 11.9314C9.25925 11.8198 9.344 11.7306 9.45551 11.7217C10.6821 11.637 11.699 10.6735 11.8685 9.43358C11.8819 9.32207 11.98 9.24179 12.0915 9.24179H22.0202C22.1317 9.24179 22.2254 9.32207 22.2432 9.43358C22.4127 10.6512 23.4073 11.5924 24.6651 11.7262C24.7722 11.7396 24.8569 11.8243 24.8659 11.9358L25.1424 16.4407C25.4279 19.2909 24.1611 22.0964 21.8328 23.7601L17.1941 27.1142C17.154 27.141 17.1094 27.1544 17.0648 27.1544L17.0559 27.1499ZM9.68298 12.1499L9.41982 16.463C9.15221 19.1303 10.352 21.7797 12.5465 23.3943L17.0559 26.6548L21.5652 23.3943C23.7642 21.8243 24.9595 19.1749 24.6919 16.4719L24.4243 12.141C23.1174 11.9269 22.0871 10.9545 21.8284 9.68336H12.2789C12.0157 10.9724 10.9675 11.9715 9.68298 12.1454V12.1499Z" fill="#1E0D2D"/>
<path d="M20.7312 11.4852H13.3761C13.2379 11.4852 13.0996 11.3469 13.0996 11.2087C13.0996 11.0704 13.2379 10.9321 13.3761 10.9321H20.7312C20.8695 10.9321 21.0077 11.0704 21.0077 11.2087C21.0077 11.3469 20.9141 11.4852 20.7312 11.4852Z" fill="#1E0D2D"/>
<path d="M20.7315 11.7083H13.3765C13.1133 11.7083 12.877 11.4719 12.877 11.2088C12.877 10.9456 13.1133 10.7092 13.3765 10.7092H20.7315C20.9947 10.7092 21.2311 10.9456 21.2311 11.2088C21.2311 11.4942 21.017 11.7083 20.7315 11.7083ZM20.7315 11.1553H13.381C13.381 11.1553 13.3319 11.1909 13.3274 11.2088C13.3274 11.2266 13.3631 11.2578 13.381 11.2623H20.7315C20.7315 11.2623 20.7851 11.2623 20.7851 11.2088C20.7851 11.1909 20.7494 11.1597 20.7315 11.1553Z" fill="#1E0D2D"/>
<path d="M20.7312 23.2516H13.3761C13.2379 23.2516 13.0996 23.1133 13.0996 22.975C13.0996 22.8368 13.2379 22.6985 13.3761 22.6985H20.7312C20.8695 22.6985 21.0077 22.8368 21.0077 22.975C21.0077 23.1133 20.9141 23.2516 20.7312 23.2516Z" fill="#1E0D2D"/>
<path d="M20.7315 23.4747H13.3765C13.1133 23.4747 12.877 23.2383 12.877 22.9751C12.877 22.712 13.1133 22.4756 13.3765 22.4756H20.7315C20.9947 22.4756 21.2311 22.712 21.2311 22.9751C21.2311 23.2606 21.017 23.4747 20.7315 23.4747ZM20.7315 22.9216H13.381C13.381 22.9216 13.3319 22.9573 13.3274 22.9751C13.3274 22.993 13.3631 23.0242 13.381 23.0287H20.7315C20.7315 23.0287 20.7851 23.0287 20.7851 22.9751C20.7851 22.9573 20.7494 22.9261 20.7315 22.9216Z" fill="#1E0D2D"/>
</g>
<defs>
<clipPath id="clip0_191_2587">
<rect width="35" height="35" fill="white"/>
</clipPath>
</defs>
</svg>
