<svg width="12" height="12" viewBox="0 0 12 12" fill="none" xmlns="http://www.w3.org/2000/svg">
<g clip-path="url(#clip0_191_2635)">
<path d="M11.2202 6.84845C11.6894 3.96468 9.73192 1.24662 6.84815 0.777483C3.96438 0.308348 1.24631 2.2658 0.777179 5.14957C0.308043 8.03334 2.26549 10.7514 5.14926 11.2205C8.03303 11.6897 10.7511 9.73223 11.2202 6.84845Z" fill="white"/>
<path d="M5.99647 12C2.69099 12 0 9.309 0 5.99647C0 2.68393 2.69099 0 5.99647 0C9.30194 0 11.9929 2.69099 11.9929 5.99647C11.9929 9.30194 9.30194 11.9929 5.99647 11.9929V12ZM5.99647 1.4126C3.46792 1.4126 1.4126 3.46792 1.4126 5.99647C1.4126 8.52501 3.46792 10.5803 5.99647 10.5803C8.52501 10.5803 10.5803 8.52501 10.5803 5.99647C10.5803 3.46792 8.52501 1.4126 5.99647 1.4126Z" fill="#1E0D2D"/>
<path d="M7.8749 8.55336C7.8749 8.55336 8.08679 8.51098 8.15742 8.44035L8.53882 8.05895C8.68008 7.91769 8.74364 7.6493 8.68008 7.4586L8.65182 7.37384C8.58826 7.18314 8.37637 6.98538 8.18567 6.93593L7.47231 6.73817C7.27454 6.68873 6.99909 6.75936 6.85783 6.90062L6.5965 7.15489C5.65712 6.90062 4.92963 6.16607 4.67537 5.23376L4.9367 4.97243C5.07796 4.83117 5.14859 4.55571 5.09208 4.36501L4.89432 3.65165C4.84488 3.45389 4.64005 3.24906 4.45641 3.18549L4.37166 3.15724C4.18096 3.09367 3.91257 3.15724 3.77131 3.2985L3.38284 3.68696C3.31221 3.75759 3.26983 3.94829 3.26983 3.95536C3.25571 5.17725 3.73599 6.35677 4.60474 7.22552C5.46642 8.0872 6.64594 8.56748 7.86077 8.56042L7.8749 8.55336Z" fill="#1E0D2D"/>
</g>
<defs>
<clipPath id="clip0_191_2635">
<rect width="12" height="12" fill="white"/>
</clipPath>
</defs>
</svg>
