<svg width="35" height="35" viewBox="0 0 35 35" fill="none" xmlns="http://www.w3.org/2000/svg">
<g clip-path="url(#clip0_191_2554)">
<path d="M17.5025 34.5584C26.9224 34.5584 34.5587 26.9221 34.5587 17.5022C34.5587 8.08237 26.9224 0.446045 17.5025 0.446045C8.08261 0.446045 0.446289 8.08237 0.446289 17.5022C0.446289 26.9221 8.08261 34.5584 17.5025 34.5584Z" fill="white"/>
<path d="M17.5022 35C7.85013 35 0 27.1499 0 17.5022C0 7.85459 7.85013 0 17.5022 0C27.1543 0 35.0045 7.85013 35.0045 17.5022C35.0045 27.1543 27.1543 35.0045 17.5022 35.0045V35ZM17.5022 0.892061C8.34077 0.892061 0.892061 8.34077 0.892061 17.5022C0.892061 26.6637 8.34077 34.1124 17.5022 34.1124C26.6637 34.1124 34.1124 26.6637 34.1124 17.5022C34.1124 8.34077 26.6592 0.892061 17.5022 0.892061Z" fill="#1E0D2D"/>
<path d="M3.18904 12.9216C3.13998 12.9216 3.09092 12.9127 3.04185 12.8948C2.80992 12.8146 2.68503 12.5603 2.76978 12.3284C3.83133 9.30877 5.7671 6.71733 8.37638 4.83508C8.57709 4.69235 8.85363 4.73696 9.00082 4.93767C9.14355 5.13838 9.09895 5.41492 8.89823 5.56211C6.44061 7.33731 4.61188 9.78156 3.61277 12.6272C3.55033 12.8101 3.37638 12.9261 3.1935 12.9261L3.18904 12.9216Z" fill="#1E0D2D"/>
<path d="M17.5017 33.1089C17.2564 33.1089 17.0557 32.9081 17.0557 32.6628C17.0557 32.4175 17.2564 32.2168 17.5017 32.2168C25.615 32.2168 32.2207 25.6155 32.2207 17.4978C32.2207 17.2525 32.4214 17.0518 32.6667 17.0518C32.912 17.0518 33.1128 17.2525 33.1128 17.4978C33.1128 26.1062 26.1101 33.1089 17.5017 33.1089Z" fill="#1E0D2D"/>
<path d="M17.4973 13.3005H7.31445V24.2283H17.4973V13.3005Z" fill="#D6D6D6"/>
<path d="M17.5019 24.6743H7.31908C7.07376 24.6743 6.87305 24.4736 6.87305 24.2283V13.3005C6.87305 13.0552 7.07376 12.8545 7.31908 12.8545H17.5019C17.7473 12.8545 17.948 13.0552 17.948 13.3005V24.2283C17.948 24.4736 17.7473 24.6743 17.5019 24.6743ZM7.76065 23.7822H17.0515V13.7466H7.76065V23.7822Z" fill="#1E0D2D"/>
<path d="M27.6848 13.3005H17.502V24.2283H27.6848V13.3005Z" fill="#D6D6D6"/>
<path d="M27.6846 24.6743H17.5017C17.2564 24.6743 17.0557 24.4736 17.0557 24.2283V13.3005C17.0557 13.0552 17.2564 12.8545 17.5017 12.8545H27.6846C27.9299 12.8545 28.1306 13.0552 28.1306 13.3005V24.2283C28.1306 24.4736 27.9299 24.6743 27.6846 24.6743ZM17.9477 23.7822H27.2385V13.7466H17.9477V23.7822Z" fill="#1E0D2D"/>
<path d="M13.0009 10.7715C9.46831 10.7715 8.50488 12.0427 8.50488 12.0427V22.9793C8.50488 22.9793 9.47277 21.7081 13.0009 21.7081C16.529 21.7081 17.4969 22.9793 17.4969 22.9793V12.0427C17.4969 12.0427 16.529 10.7715 13.0009 10.7715Z" fill="white"/>
<path d="M17.5016 23.4254C17.3633 23.4254 17.234 23.3629 17.1448 23.2514C17.1448 23.2514 16.2081 22.1542 13.0012 22.1542C9.79421 22.1542 8.862 23.2469 8.85308 23.2559C8.73265 23.403 8.53194 23.461 8.35353 23.3941C8.17512 23.3317 8.05469 23.1667 8.05469 22.9793V12.0427C8.05469 11.9445 8.08591 11.8509 8.14389 11.7706C8.2554 11.6234 9.34818 10.3254 12.9967 10.3254C16.6452 10.3254 17.738 11.6234 17.8495 11.7706C17.9075 11.8464 17.9387 11.9445 17.9387 12.0427V22.9793C17.9387 23.1711 17.8183 23.3406 17.6354 23.403C17.5908 23.4209 17.5418 23.4254 17.4927 23.4254H17.5016ZM13.0012 21.2621C15.093 21.2621 16.3464 21.6903 17.0511 22.0828V12.2255C16.7523 11.9668 15.655 11.2175 13.0012 11.2175C10.3473 11.2175 9.25897 11.9624 8.95121 12.2255V22.0783C9.6604 21.6858 10.9093 21.2576 13.0012 21.2576V21.2621Z" fill="#1E0D2D"/>
<path d="M16.2937 14.0318C16.1643 14.0318 16.0305 13.9739 15.9458 13.8624C15.919 13.8311 15.241 13.0996 13.0064 13.0996C10.7718 13.0996 10.0715 13.8534 10.0626 13.8624C9.90651 14.0452 9.62997 14.0765 9.43818 13.9248C9.25085 13.7732 9.2107 13.5055 9.35789 13.3093C9.44264 13.1978 10.2767 12.2031 13.002 12.2031C15.7272 12.2031 16.5613 13.1933 16.646 13.3093C16.7932 13.5055 16.7575 13.7865 16.5613 13.9337C16.481 13.9962 16.3873 14.0229 16.2937 14.0229V14.0318Z" fill="#1E0D2D"/>
<path d="M16.2937 16.0077C16.1643 16.0077 16.0305 15.9497 15.9458 15.8382C15.919 15.807 15.241 15.0755 13.0064 15.0755C10.7718 15.0755 10.0715 15.8293 10.0626 15.8382C9.90651 16.0211 9.62997 16.0523 9.43818 15.9006C9.25085 15.749 9.2107 15.4814 9.35789 15.2851C9.44264 15.1736 10.2767 14.179 13.002 14.179C15.7272 14.179 16.5613 15.1691 16.646 15.2851C16.7932 15.4814 16.7575 15.7624 16.5613 15.9096C16.481 15.972 16.3873 15.9988 16.2937 15.9988V16.0077Z" fill="#1E0D2D"/>
<path d="M16.2937 17.9881C16.1643 17.9881 16.0305 17.9302 15.9458 17.8187C15.919 17.7874 15.241 17.0559 13.0064 17.0559C10.7718 17.0559 10.0715 17.8097 10.0626 17.8187C9.90651 18.0015 9.62997 18.0328 9.43818 17.8811C9.25085 17.7295 9.2107 17.4618 9.35789 17.2656C9.44264 17.1541 10.2767 16.1594 13.002 16.1594C15.7272 16.1594 16.5613 17.1496 16.646 17.2656C16.7932 17.4618 16.7575 17.7428 16.5613 17.89C16.481 17.9525 16.3873 17.9792 16.2937 17.9792V17.9881Z" fill="#1E0D2D"/>
<path d="M16.2937 19.964C16.1643 19.964 16.0305 19.906 15.9458 19.7945C15.919 19.7633 15.241 19.0318 13.0064 19.0318C10.7718 19.0318 10.0715 19.7856 10.0626 19.7945C9.90651 19.9774 9.62997 20.0086 9.43818 19.8569C9.25085 19.7053 9.2107 19.4377 9.35789 19.2414C9.44264 19.1299 10.2767 18.1353 13.002 18.1353C15.7272 18.1353 16.5613 19.1254 16.646 19.2414C16.7932 19.4377 16.7575 19.7187 16.5613 19.8659C16.481 19.9283 16.3873 19.9551 16.2937 19.9551V19.964Z" fill="#1E0D2D"/>
<path d="M21.9979 10.7715C18.4654 10.7715 17.502 12.0427 17.502 12.0427V22.9793C17.502 22.9793 18.4698 21.7081 21.9979 21.7081C25.526 21.7081 26.4939 22.9793 26.4939 22.9793V12.0427C26.4939 12.0427 25.526 10.7715 21.9979 10.7715Z" fill="white"/>
<path d="M26.4938 23.4254C26.3555 23.4254 26.2262 23.3629 26.137 23.2514C26.137 23.2514 25.2003 22.1542 21.9934 22.1542C18.7864 22.1542 17.8542 23.2469 17.8453 23.2559C17.7248 23.403 17.5241 23.461 17.3457 23.3941C17.1673 23.3317 17.0469 23.1667 17.0469 22.9793V12.0427C17.0469 11.9445 17.0781 11.8509 17.1361 11.7706C17.2476 11.6234 18.3404 10.3254 21.9889 10.3254C25.6374 10.3254 26.7302 11.6234 26.8417 11.7706C26.8997 11.8464 26.9309 11.9445 26.9309 12.0427V22.9793C26.9309 23.1711 26.8105 23.3406 26.6276 23.403C26.583 23.4209 26.5339 23.4254 26.4849 23.4254H26.4938ZM17.9479 12.2255V22.0783C18.657 21.6858 19.9059 21.2576 21.9978 21.2576C24.0897 21.2576 25.343 21.6858 26.0478 22.0783V12.2211C25.7489 11.9624 24.6517 11.213 21.9978 11.213C19.3439 11.213 18.2556 11.9579 17.9479 12.2211V12.2255Z" fill="#1E0D2D"/>
<path d="M25.8289 22.9214H9.16966C8.92435 22.9214 8.72363 22.7206 8.72363 22.4753C8.72363 22.23 8.92435 22.0293 9.16966 22.0293H25.8289C26.0742 22.0293 26.2749 22.23 26.2749 22.4753C26.2749 22.7206 26.0742 22.9214 25.8289 22.9214Z" fill="#1E0D2D"/>
<path d="M25.2898 14.0318C25.1604 14.0318 25.0266 13.9739 24.9419 13.8624C24.9151 13.8311 24.2371 13.0996 22.0025 13.0996C19.7679 13.0996 19.0676 13.8534 19.0587 13.8624C18.9026 14.0452 18.6216 14.0765 18.4343 13.9248C18.2469 13.7732 18.2068 13.5055 18.354 13.3093C18.4387 13.1978 19.2728 12.2031 21.9981 12.2031C24.7233 12.2031 25.5574 13.1933 25.6421 13.3093C25.7893 13.5055 25.7536 13.7865 25.5574 13.9337C25.4771 13.9962 25.3834 14.0229 25.2898 14.0229V14.0318Z" fill="#1E0D2D"/>
<path d="M25.2898 16.0077C25.1604 16.0077 25.0266 15.9497 24.9419 15.8382C24.9151 15.807 24.2371 15.0755 22.0025 15.0755C19.7679 15.0755 19.0676 15.8293 19.0587 15.8382C18.9026 16.0211 18.6216 16.0523 18.4343 15.9006C18.2469 15.749 18.2068 15.4814 18.354 15.2851C18.4387 15.1736 19.2728 14.179 21.9981 14.179C24.7233 14.179 25.5574 15.1691 25.6421 15.2851C25.7893 15.4814 25.7536 15.7624 25.5574 15.9096C25.4771 15.972 25.3834 15.9988 25.2898 15.9988V16.0077Z" fill="#1E0D2D"/>
<path d="M25.2898 17.9881C25.1604 17.9881 25.0266 17.9302 24.9419 17.8187C24.9151 17.7874 24.2371 17.0559 22.0025 17.0559C19.7679 17.0559 19.0676 17.8097 19.0587 17.8187C18.9026 18.0015 18.6216 18.0328 18.4343 17.8811C18.2469 17.7295 18.2068 17.4618 18.354 17.2656C18.4387 17.1541 19.2728 16.1594 21.9981 16.1594C24.7233 16.1594 25.5574 17.1496 25.6421 17.2656C25.7893 17.4618 25.7536 17.7428 25.5574 17.89C25.4771 17.9525 25.3834 17.9792 25.2898 17.9792V17.9881Z" fill="#1E0D2D"/>
<path d="M25.2898 19.964C25.1604 19.964 25.0266 19.906 24.9419 19.7945C24.9151 19.7633 24.2371 19.0318 22.0025 19.0318C19.7679 19.0318 19.0676 19.7856 19.0587 19.7945C18.9026 19.9774 18.6216 20.0086 18.4343 19.8569C18.2469 19.7053 18.2068 19.4377 18.354 19.2414C18.4387 19.1299 19.2728 18.1353 21.9981 18.1353C24.7233 18.1353 25.5574 19.1254 25.6421 19.2414C25.7893 19.4377 25.7536 19.7187 25.5574 19.8659C25.4771 19.9283 25.3834 19.9551 25.2898 19.9551V19.964Z" fill="#1E0D2D"/>
</g>
<defs>
<clipPath id="clip0_191_2554">
<rect width="35" height="35" fill="white"/>
</clipPath>
</defs>
</svg>
