<svg width="35" height="35" viewBox="0 0 35 35" fill="none" xmlns="http://www.w3.org/2000/svg">
<g clip-path="url(#clip0_191_2611)">
<path d="M24.7138 32.9595C33.2504 28.9769 36.9422 18.8282 32.9597 10.2916C28.9772 1.75497 18.8285 -1.93687 10.2919 2.04563C1.75525 6.02814 -1.93658 16.1769 2.04592 24.7135C6.02842 33.2501 16.1772 36.942 24.7138 32.9595Z" fill="white"/>
<path d="M17.5022 35C7.85013 35 0 27.1499 0 17.5022C0 7.85459 7.85013 0 17.5022 0C27.1543 0 35.0045 7.85013 35.0045 17.5022C35.0045 27.1543 27.1543 35.0045 17.5022 35.0045V35ZM17.5022 0.892061C8.34077 0.892061 0.892061 8.34077 0.892061 17.5022C0.892061 26.6637 8.34077 34.1124 17.5022 34.1124C26.6637 34.1124 34.1124 26.6637 34.1124 17.5022C34.1124 8.34077 26.6592 0.892061 17.5022 0.892061Z" fill="#1E0D2D"/>
<path d="M26.7884 30.2498C26.6501 30.2498 26.5119 30.1874 26.4271 30.0625C26.2844 29.8618 26.329 29.5852 26.5297 29.438C28.9873 27.6628 30.8161 25.2186 31.8152 22.3729C31.8955 22.141 32.1542 22.0161 32.3816 22.1008C32.6136 22.1811 32.7385 22.4354 32.6537 22.6673C31.5922 25.6869 29.6564 28.2784 27.0471 30.1606C26.9668 30.2186 26.8776 30.2453 26.7884 30.2453V30.2498Z" fill="#1E0D2D"/>
<path d="M2.76537 17.9482C2.52005 17.9482 2.31934 17.7475 2.31934 17.5022C2.31934 8.89379 9.31755 1.89111 17.9259 1.89111C18.1713 1.89111 18.372 2.09183 18.372 2.33714C18.372 2.58246 18.1713 2.78317 17.9259 2.78317C9.81264 2.78317 3.2114 9.38442 3.2114 17.5022C3.2114 17.7475 3.01068 17.9482 2.76537 17.9482Z" fill="#1E0D2D"/>
<path d="M26.9887 22.1988V19.9553H25.4945C25.4053 19.6743 25.2804 19.4066 25.1376 19.1569L26.1724 18.1221L24.589 16.5387L23.5275 17.6002C23.2732 17.4619 22.9967 17.3549 22.7112 17.2746V15.8206H20.4677V17.2746C20.1689 17.3594 19.8834 17.4753 19.6158 17.6225L18.6345 16.6413L17.0511 18.2247L18.0235 19.197C17.8629 19.478 17.738 19.7813 17.6488 20.098H16.333V22.3415H17.6488C17.7425 22.6716 17.8763 22.9883 18.0458 23.2782L17.1492 24.1747L18.7327 25.7581L19.6559 24.8348C19.9548 24.9954 20.2715 25.1114 20.606 25.1961V26.4807H22.8495V25.1203C23.1617 25.0177 23.4561 24.8794 23.7327 24.7099L24.6827 25.66L26.2661 24.0766L25.2492 23.0596C25.3874 22.7875 25.49 22.5021 25.5658 22.2032H26.9887V22.1988ZM19.8165 21.2175C19.8165 20.2407 20.6104 19.4468 21.5872 19.4468C22.5641 19.4468 23.358 20.2407 23.358 21.2175C23.358 22.1943 22.5641 22.9883 21.5872 22.9883C20.6104 22.9883 19.8165 22.1943 19.8165 21.2175Z" fill="#D6D6D6"/>
<path d="M22.8498 26.9268H20.6063C20.361 26.9268 20.1602 26.7261 20.1602 26.4808V25.5352C20.0175 25.4906 19.8792 25.4371 19.7454 25.3791L19.0452 26.0794C18.8712 26.2533 18.5902 26.2533 18.4163 26.0794L16.8329 24.4959C16.6589 24.322 16.6589 24.041 16.8329 23.867L17.4974 23.2025C17.435 23.0686 17.3726 22.9304 17.3235 22.7921H16.3288C16.0835 22.7921 15.8828 22.5914 15.8828 22.3461V20.1025C15.8828 19.8572 16.0835 19.6565 16.3288 19.6565H17.319C17.3636 19.5316 17.4172 19.4067 17.4751 19.2863L16.7303 18.5414C16.5563 18.3675 16.5563 18.0865 16.7303 17.9125L18.3137 16.3291C18.3984 16.2444 18.5099 16.1998 18.6304 16.1998C18.7508 16.1998 18.8623 16.2488 18.947 16.3291L19.7008 17.0874C19.8034 17.0428 19.9105 16.9982 20.0175 16.958V15.8296C20.0175 15.5843 20.2182 15.3835 20.4635 15.3835H22.7071C22.9524 15.3835 23.1531 15.5843 23.1531 15.8296V16.958C23.2468 16.9937 23.3404 17.0294 23.4296 17.0695L24.2682 16.231C24.4421 16.057 24.7231 16.057 24.8971 16.231L26.4805 17.8144C26.6544 17.9884 26.6544 18.2694 26.4805 18.4433L25.6776 19.2462C25.7222 19.3354 25.7624 19.4246 25.7981 19.5182H26.9845C27.2298 19.5182 27.4305 19.719 27.4305 19.9643V22.2078C27.4305 22.4531 27.2298 22.6538 26.9845 22.6538H25.9007C25.865 22.7609 25.8248 22.8679 25.7847 22.9705L26.5831 23.7689C26.6678 23.8537 26.7124 23.9652 26.7124 24.0856C26.7124 24.206 26.6634 24.3175 26.5831 24.4023L24.9997 25.9857C24.8257 26.1596 24.5447 26.1596 24.3708 25.9857L23.6571 25.272C23.5367 25.3345 23.4163 25.388 23.2958 25.4371V26.4852C23.2958 26.7306 23.0951 26.9313 22.8498 26.9313V26.9268ZM21.0568 26.0347H22.4082V25.1204C22.4082 24.9286 22.5331 24.7546 22.716 24.6967C22.9836 24.6119 23.2468 24.487 23.501 24.3309C23.675 24.2239 23.9024 24.2506 24.0496 24.3934L24.6875 25.0312L25.642 24.0767L24.9372 23.3719C24.8034 23.2381 24.7677 23.0285 24.8525 22.8546C24.9729 22.6137 25.071 22.355 25.1335 22.0918C25.1825 21.8911 25.361 21.7529 25.5661 21.7529H26.5429V20.4014H25.4948C25.303 20.4014 25.129 20.2765 25.071 20.0936C24.9952 19.8528 24.8882 19.6119 24.7499 19.38C24.6473 19.206 24.6785 18.983 24.8213 18.8403L25.5438 18.1177L24.5893 17.1632L23.8445 17.9081C23.7062 18.0463 23.4921 18.0776 23.3181 17.9839C23.0951 17.8635 22.8498 17.7653 22.5956 17.694C22.4038 17.6405 22.27 17.4665 22.27 17.2658V16.2578H20.9185V17.2658C20.9185 17.4665 20.7847 17.6405 20.5929 17.694C20.3208 17.7698 20.0666 17.8724 19.8346 18.0017C19.6607 18.0999 19.4466 18.0686 19.3039 17.9259L18.6348 17.2569L17.6803 18.2114L18.336 18.8715C18.4787 19.0142 18.5055 19.2328 18.4073 19.4067C18.2646 19.6565 18.1531 19.9286 18.0728 20.2096C18.0193 20.4014 17.8453 20.5352 17.6446 20.5352H16.7749V21.8867H17.6446C17.8453 21.8867 18.0193 22.0205 18.0728 22.2123C18.1576 22.5022 18.2735 22.7832 18.4296 23.0463C18.5322 23.2203 18.501 23.4433 18.3583 23.586L17.774 24.1703L18.7285 25.1248L19.3395 24.5138C19.4778 24.3755 19.6919 24.3443 19.8659 24.438C20.1246 24.5762 20.41 24.6833 20.7133 24.7591C20.914 24.8082 21.0523 24.9866 21.0523 25.1918V26.0303L21.0568 26.0347ZM21.592 23.4344C20.3699 23.4344 19.3752 22.4397 19.3752 21.2176C19.3752 19.9955 20.3699 19.0008 21.592 19.0008C22.8141 19.0008 23.8088 19.9955 23.8088 21.2176C23.8088 22.4397 22.8141 23.4344 21.592 23.4344ZM21.592 19.8929C20.8605 19.8929 20.2673 20.4861 20.2673 21.2176C20.2673 21.9491 20.8605 22.5423 21.592 22.5423C22.3235 22.5423 22.9167 21.9491 22.9167 21.2176C22.9167 20.4861 22.3235 19.8929 21.592 19.8929Z" fill="#1E0D2D"/>
<path d="M23.9162 18.042V14.6968H21.6816C21.5478 14.2775 21.3649 13.8806 21.1463 13.5059L22.6941 11.9582L20.3301 9.59422L18.7467 11.1776C18.3631 10.9725 17.9572 10.8119 17.529 10.6915V8.51929H14.1838V10.6915C13.7378 10.8163 13.3096 10.9903 12.9126 11.2088L11.4452 9.74141L9.08122 12.1054L10.5353 13.5594C10.2944 13.9787 10.1071 14.4292 9.97328 14.9064H8.01074V18.2517H9.97774C10.1205 18.7468 10.3212 19.2151 10.5754 19.6522L9.23733 20.9903L11.6013 23.3543L12.9795 21.976C13.4211 22.2124 13.8983 22.3908 14.3979 22.5157V24.4292H17.7431V22.3998C18.2115 22.2481 18.653 22.0385 19.0634 21.7887L20.4817 23.2071L22.8457 20.8431L21.3247 19.3221C21.5299 18.9207 21.686 18.4925 21.7975 18.042H23.9162ZM13.2159 16.5746C13.2159 15.1161 14.3979 13.9296 15.8609 13.9296C17.3239 13.9296 18.5058 15.1116 18.5058 16.5746C18.5058 18.0376 17.3239 19.2196 15.8609 19.2196C14.3979 19.2196 13.2159 18.0376 13.2159 16.5746Z" fill="white"/>
<path d="M17.7429 24.8751H14.3976C14.1523 24.8751 13.9516 24.6744 13.9516 24.4291V22.8546C13.6438 22.761 13.3495 22.6494 13.064 22.5201L11.9132 23.6709C11.8285 23.7556 11.717 23.8002 11.5966 23.8002C11.4761 23.8002 11.3646 23.7511 11.2799 23.6709L8.91593 21.3069C8.74197 21.1329 8.74197 20.8519 8.91593 20.678L10.0176 19.5763C9.87489 19.2953 9.75 19.0009 9.64741 18.7021H8.01048C7.76517 18.7021 7.56445 18.5014 7.56445 18.256V14.9108C7.56445 14.6655 7.76517 14.4648 8.01048 14.4648H9.64741C9.74108 14.1838 9.85705 13.9117 9.99086 13.6441L8.7732 12.4264C8.68845 12.3417 8.64385 12.2302 8.64385 12.1098C8.64385 11.9893 8.69291 11.8778 8.7732 11.7931L11.1372 9.42911C11.3111 9.25516 11.5921 9.25516 11.7661 9.42911L13.0016 10.6646C13.238 10.5486 13.4877 10.4505 13.742 10.3658V8.52367C13.742 8.27835 13.9427 8.07764 14.188 8.07764H17.5332C17.7785 8.07764 17.9793 8.27835 17.9793 8.52367V10.3658C18.2157 10.4461 18.4431 10.5353 18.6617 10.6379L20.0176 9.28192C20.1024 9.19717 20.2139 9.15257 20.3343 9.15257C20.4547 9.15257 20.5662 9.20163 20.651 9.28192L23.0149 11.6459C23.1889 11.8198 23.1889 12.1008 23.0149 12.2748L21.7036 13.5861C21.8151 13.8047 21.9177 14.0277 22.0025 14.2552H23.9204C24.1657 14.2552 24.3664 14.4559 24.3664 14.7012V18.0464C24.3664 18.2917 24.1657 18.4924 23.9204 18.4924H22.1407C22.0649 18.7467 21.9712 18.992 21.8642 19.2329L23.1621 20.5308C23.2469 20.6155 23.2915 20.7271 23.2915 20.8475C23.2915 20.9679 23.2424 21.0794 23.1621 21.1642L20.7982 23.5281C20.6242 23.7021 20.3432 23.7021 20.1693 23.5281L18.9918 22.3506C18.7331 22.4933 18.4654 22.6182 18.1934 22.7208V24.4336C18.1934 24.6789 17.9926 24.8796 17.7473 24.8796L17.7429 24.8751ZM14.8437 23.9831H17.2968V22.3997C17.2968 22.2079 17.4217 22.0339 17.6046 21.9759C18.0239 21.8421 18.4342 21.6503 18.8267 21.4095C19.0007 21.3024 19.2281 21.3292 19.3753 21.4719L20.4815 22.5781L22.2166 20.843L21.0123 19.6387C20.8785 19.5049 20.8428 19.2953 20.9275 19.1213C21.1149 18.7467 21.262 18.3497 21.3646 17.9349C21.4137 17.7342 21.5921 17.5959 21.7973 17.5959H23.4699V15.1428H21.6858C21.494 15.1428 21.32 15.0179 21.262 14.835C21.1416 14.4603 20.9721 14.0901 20.767 13.7288C20.6644 13.5549 20.6956 13.3319 20.8383 13.1891L22.0694 11.9581L20.3343 10.223L19.0676 11.4898C18.9293 11.628 18.7152 11.6593 18.5413 11.5656C18.1934 11.3783 17.8142 11.2266 17.4128 11.1151C17.221 11.0616 17.0872 10.8876 17.0872 10.6869V8.96078H14.634V10.6869C14.634 10.8876 14.5002 11.0616 14.3084 11.1151C13.8892 11.2355 13.4922 11.3961 13.1309 11.5924C12.957 11.6905 12.7429 11.6593 12.6001 11.5165L11.4494 10.3658L9.71432 12.1008L10.8517 13.2382C10.9944 13.3809 11.0212 13.5995 10.9231 13.7734C10.7 14.166 10.5261 14.5852 10.4012 15.0223C10.3477 15.2141 10.1737 15.3479 9.97302 15.3479H8.45651V17.8011H9.97748C10.1782 17.8011 10.3521 17.9349 10.4057 18.1267C10.535 18.5772 10.7179 19.0143 10.9587 19.4246C11.0613 19.5986 11.0301 19.8216 10.8874 19.9643L9.86151 20.9902L11.5966 22.7253L12.6626 21.6593C12.8008 21.521 13.0149 21.4898 13.1889 21.5834C13.5903 21.7975 14.0364 21.967 14.5047 22.083C14.7054 22.1321 14.8437 22.3105 14.8437 22.5156V23.9831ZM15.8606 19.6655C14.1568 19.6655 12.7696 18.2784 12.7696 16.5745C12.7696 14.8707 14.1568 13.4835 15.8606 13.4835C17.5645 13.4835 18.9516 14.8707 18.9516 16.5745C18.9516 18.2784 17.5645 19.6655 15.8606 19.6655ZM15.8606 14.38C14.6474 14.38 13.6617 15.3658 13.6617 16.579C13.6617 17.7922 14.6474 18.7779 15.8606 18.7779C17.0738 18.7779 18.0595 17.7922 18.0595 16.579C18.0595 15.3658 17.0738 14.38 15.8606 14.38Z" fill="#1E0D2D"/>
<path d="M15.8604 21.5967C13.1352 21.5967 10.9229 19.38 10.9229 16.6592C10.9229 16.4138 11.1236 16.2131 11.3689 16.2131C11.6142 16.2131 11.8149 16.4138 11.8149 16.6592C11.8149 18.8893 13.6303 20.7047 15.8604 20.7047C16.1057 20.7047 16.3064 20.9054 16.3064 21.1507C16.3064 21.396 16.1057 21.5967 15.8604 21.5967Z" fill="#1E0D2D"/>
<path d="M20.3526 17.1009C20.1073 17.1009 19.9066 16.9002 19.9066 16.6548C19.9066 14.4247 18.0912 12.6093 15.8611 12.6093C15.6158 12.6093 15.415 12.4086 15.415 12.1633C15.415 11.918 15.6158 11.7173 15.8611 11.7173C18.5863 11.7173 20.7986 13.9341 20.7986 16.6548C20.7986 16.9002 20.5979 17.1009 20.3526 17.1009Z" fill="#1E0D2D"/>
</g>
<defs>
<clipPath id="clip0_191_2611">
<rect width="35" height="35" fill="white"/>
</clipPath>
</defs>
</svg>
