<svg width="72" height="205" viewBox="0 0 72 205" fill="none" xmlns="http://www.w3.org/2000/svg">
<path d="M67.87 120.543C64.9262 113.472 60.5594 107.888 54.8891 103.912C49.0124 99.8064 42.3645 97.7207 35.1625 97.7207C25.8749 97.7207 17.402 101.153 10.6345 107.627C3.68243 114.297 0 122.955 0 132.666C0 145.658 5.58339 153.783 10.5585 158.443C4.1821 163.559 0.575688 170.881 0.575688 178.93C0.575688 185.263 2.80253 191.129 7.01725 195.898C11.6882 201.188 18.2493 204.099 25.4838 204.099C33.4462 204.099 41.4411 200.634 49.2622 193.801C55.6821 188.185 61.0809 180.722 65.2956 171.63C69.5429 162.441 71.7046 152.512 71.7046 142.095C71.7046 133.915 70.4119 126.67 67.87 120.543ZM35.6187 134.328C34.728 134.328 34.3369 134.176 33.9893 133.915C33.9459 133.687 33.8915 133.285 33.8915 132.666C33.8915 132.481 33.9133 132.351 33.9241 132.286C33.9567 132.242 34.011 132.177 34.0979 132.101C34.5976 131.623 34.6845 131.623 35.1625 131.623H35.358C35.358 131.623 35.4123 131.656 35.4775 131.699C35.4775 131.699 35.9555 132.079 36.5638 133.557C36.6615 133.774 36.7593 134.035 36.8571 134.328H35.6187Z" fill="#F3F4F1"/>
<path d="M61.0706 9.3745C54.5421 3.23709 46.3408 0 37.3465 0C28.3522 0 20.0314 3.17191 13.5029 9.16811C8.65813 13.6218 2.87915 21.7036 2.87915 34.9452C2.87915 41.4303 4.45423 47.4156 7.55009 52.7275H7.56096C10.5591 57.8764 14.6543 62.0476 19.7272 65.1327C25.0608 68.3697 30.9918 70.01 37.3465 70.01C43.7012 70.01 52.8584 68.1307 61.4182 59.1473C68.001 52.2604 71.477 43.8961 71.477 34.9452C71.477 21.91 65.8176 13.8391 61.0706 9.3745ZM36.9011 35.7491C36.9011 35.7491 36.8576 35.6948 36.8468 35.6622C36.8251 35.5861 36.7816 35.3472 36.7816 34.9452C36.7816 34.4999 36.8033 34.1631 36.8359 33.9241C36.9445 33.9133 37.1184 33.8916 37.3465 33.8916H37.5203C37.542 34.1197 37.5746 34.4564 37.5746 34.9018C37.5094 35.0213 37.3247 35.3037 36.9011 35.7491Z" fill="#F3F4F1"/>
</svg>
