<svg width="96" height="252" viewBox="0 0 96 252" fill="none" xmlns="http://www.w3.org/2000/svg">
<path d="M14.0898 -4.43058e-06L81.9099 -7.39509e-06C91.9543 -7.83415e-06 98.7629 10.26 94.9046 19.5742C87.263 38.026 69.1398 51 47.9998 51C26.8599 51 8.73762 38.026 1.09504 19.5742C-2.76229 10.26 4.04537 -3.99153e-06 14.0898 -4.43058e-06Z" fill="#F3F4F1"/>
<path d="M14.0898 65L81.9099 65C91.9543 65 98.7629 75.4611 94.9046 84.958C87.263 103.772 69.1398 117 47.9998 117C26.8599 117 8.73762 103.772 1.09504 84.958C-2.76229 75.4612 4.04537 65 14.0898 65Z" fill="#F3F4F1"/>
<path d="M14.0898 136L81.9099 136C91.9543 136 98.7629 146.26 94.9046 155.574C87.263 174.026 69.1398 187 47.9998 187C26.8599 187 8.73762 174.026 1.09504 155.574C-2.76229 146.26 4.04537 136 14.0898 136Z" fill="#F3F4F1"/>
<path d="M14.0898 201L81.9099 201C91.9543 201 98.7629 211.26 94.9046 220.574C87.263 239.026 69.1398 252 47.9998 252C26.8599 252 8.73762 239.026 1.09504 220.574C-2.76229 211.26 4.04537 201 14.0898 201Z" fill="#B78BE6"/>
</svg>
