<svg width="367" height="83" viewBox="0 0 367 83" fill="none" xmlns="http://www.w3.org/2000/svg">
<path d="M95.3343 11.7415L95.3343 68.2582C95.3343 76.6286 86.6167 82.3024 78.7026 79.0872C63.0246 72.7191 52.001 57.6165 52.001 39.9999C52.001 22.3832 63.0246 7.28135 78.7026 0.912535C86.6167 -2.30191 95.3343 3.37114 95.3343 11.7415Z" fill="#F3F4F1"/>
<path d="M-0.00032909 68.2585L-0.000334031 11.7418C-0.000334763 3.37144 8.71729 -2.30239 16.6314 0.912837C32.3094 7.28088 43.333 22.3835 43.333 40.0001C43.333 57.6168 32.3094 72.7186 16.6314 79.0875C8.7173 82.3019 -0.000328359 76.6289 -0.00032909 68.2585Z" fill="#F3F4F1"/>
<path d="M126.742 40L183.259 40C191.63 40 197.303 48.55 194.088 56.3119C187.72 71.6884 172.617 82.5 155.001 82.5C137.384 82.5 122.282 71.6884 115.914 56.3119C112.699 48.55 118.372 40 126.742 40Z" fill="#B78BE6"/>
<path d="M212.742 40L269.259 40C277.63 40 283.303 48.55 280.088 56.3119C273.72 71.6884 258.617 82.5 241.001 82.5C223.384 82.5 208.282 71.6884 201.914 56.3119C198.699 48.55 204.372 40 212.742 40Z" fill="#B78BE6"/>
<path d="M298.742 40L355.259 40C363.63 40 369.303 48.55 366.088 56.3119C359.72 71.6884 344.617 82.5 327.001 82.5C309.384 82.5 294.282 71.6884 287.914 56.3119C284.699 48.55 290.372 40 298.742 40Z" fill="#B78BE6"/>
</svg>
