<svg width="71" height="29" viewBox="0 0 71 29" fill="none" xmlns="http://www.w3.org/2000/svg">
<rect x="0.5" y="0.5" width="69.5667" height="28" rx="14" stroke="#4B4553"/>
<path d="M23.5311 9.02876C23.0777 9.59297 22.3856 9.9291 21.6577 9.91709C21.6219 9.19682 21.8605 8.50056 22.3259 7.96036C22.8032 7.40815 23.4714 7.07203 24.1874 7C24.247 7.73227 24.0084 8.46455 23.5311 9.02876ZM24.1874 10.0611C23.1492 10.0011 22.2662 10.6494 21.8009 10.6494C21.3355 10.6494 20.6076 10.0972 19.7247 10.1092C18.6269 10.1332 17.6365 10.7334 17.0995 11.6938C15.9898 13.6265 16.8131 16.4956 17.899 18.0681C18.424 18.8364 19.0922 19.7007 19.8917 19.6647C20.6912 19.6287 20.9895 19.1485 21.9441 19.1485C22.8987 19.1485 23.1373 19.6647 24.0084 19.6527C24.8794 19.6407 25.4164 18.8724 25.9534 18.0921C26.3233 17.5399 26.6096 16.9397 26.8125 16.3035C25.7982 15.8593 25.13 14.8509 25.13 13.7345C25.142 12.7502 25.655 11.8498 26.4903 11.3336C25.9534 10.5773 25.1062 10.1092 24.1874 10.0731M30.1536 7.90034V19.6047H32.015V15.5712H34.5089C36.5374 15.6912 38.2676 14.1307 38.3869 12.0899C38.3869 11.9699 38.3869 11.8498 38.3869 11.7298C38.4824 9.70101 36.9192 7.98437 34.9146 7.88833C34.7953 7.88833 34.6879 7.88833 34.5685 7.88833H30.1536V7.90034ZM32.015 9.42491H34.0435C35.2248 9.25684 36.3226 10.0852 36.4897 11.2736C36.5135 11.4297 36.5135 11.5737 36.5016 11.7298C36.5851 12.9422 35.6783 13.9866 34.4731 14.0706C34.3299 14.0706 34.1748 14.0706 34.0316 14.0586H32.015V9.42491ZM41.6325 19.6047C42.7184 19.6287 43.7326 19.0645 44.2815 18.1162V19.6047H45.952V13.7585C45.952 12.0659 44.6156 10.9855 42.5513 10.9855C40.487 10.9855 39.258 12.0899 39.1744 13.6025H40.7972C40.9882 12.8342 41.716 12.318 42.5036 12.402C43.6014 12.402 44.2218 12.9302 44.2218 13.8786V14.5148L41.9666 14.6589C39.8785 14.7789 38.7449 15.6432 38.7449 17.1438C38.7926 18.5603 39.9739 19.6767 41.3819 19.6287C41.4655 19.6287 41.549 19.6287 41.6325 19.6047ZM42.1098 18.2242C41.1552 18.2242 40.5467 17.756 40.5467 17.0237C40.5467 16.2915 41.1314 15.8233 42.253 15.8233L44.2576 15.6912V16.3515C44.2338 17.4439 43.3388 18.3082 42.2649 18.2842C42.2172 18.2842 42.1575 18.2842 42.1098 18.2842V18.2362V18.2242ZM48.2192 22.6899C49.9733 22.6899 50.7966 22.0176 51.5245 19.9769L54.6866 11.0935H52.8609L50.7369 17.9961L48.613 11.0935H46.6918L49.7465 19.6047L49.5795 20.1209C49.4482 20.8532 48.8039 21.3694 48.0641 21.3214H47.5271V22.7259C47.7538 22.7379 47.9925 22.7499 48.2192 22.7379V22.6899Z" fill="#4B4553"/>
</svg>
