<svg width="232" height="50" viewBox="0 0 232 50" fill="none" xmlns="http://www.w3.org/2000/svg">
<rect width="175" height="50" rx="25" fill="#4856CD"/>
<path d="M65.4102 24.9253V37.3237H62.3667V24.9028C62.3667 23.7424 62.1159 22.9338 61.6143 22.4771C61.1201 22.0129 60.2853 21.7808 59.1099 21.7808H54.438V19.063H59.2896C60.7645 19.063 61.9474 19.2614 62.8384 19.6582C63.7368 20.0475 64.3882 20.6727 64.7925 21.5337C65.2043 22.3872 65.4102 23.5177 65.4102 24.9253ZM80.9868 31.6187C80.3729 31.9631 79.6167 32.2476 78.7183 32.4722C77.8273 32.6893 76.7155 32.8503 75.3828 32.9551C74.0576 33.0599 72.4367 33.1123 70.52 33.1123L67.8921 19.063H71.0703L72.2944 25.7788L73.1143 25.6216C73.6234 25.5243 73.9977 25.3595 74.2373 25.1274C74.4844 24.8879 74.6715 24.5322 74.7988 24.0605C74.8587 23.8285 74.9149 23.5065 74.9673 23.0947C75.0272 22.6755 75.0833 22.1663 75.1357 21.5674L75.3042 19.063H78.4038L78.0669 22.9038C78.022 23.4279 77.9583 23.8996 77.876 24.3188C77.7936 24.7381 77.6888 25.1012 77.5615 25.4082C77.3145 26.0221 76.9663 26.5013 76.5171 26.8457C76.0754 27.1901 75.3716 27.4784 74.4058 27.7104L72.7212 28.1035L73.1816 30.4058H73.4512C74.387 30.4058 75.2144 30.3683 75.9331 30.2935C76.6593 30.2111 77.277 30.0876 77.7861 29.9229C78.4674 29.7132 79.029 29.4212 79.4707 29.0469C79.9124 28.665 80.2606 28.1597 80.5151 27.5308C80.7697 26.8944 80.9494 26.0895 81.0542 25.1162L81.7617 19.063H84.895L84.1763 25.0376C84.0265 26.3254 83.8169 27.3923 83.5474 28.2383C83.2853 29.0843 82.9447 29.7731 82.5254 30.3047C82.1136 30.8288 81.6007 31.2668 80.9868 31.6187ZM94.9463 18.9956C96.8555 18.9956 98.2443 19.5571 99.1128 20.6802C99.9813 21.7957 100.416 23.5402 100.416 25.9136V33H93.1719V30.2822H97.3608V26.1494C97.3608 24.5697 97.1699 23.4391 96.7881 22.7578C96.4137 22.069 95.7511 21.7246 94.8003 21.7246C93.9243 21.7246 93.1868 22.1626 92.5879 23.0386C91.9889 23.937 91.4312 25.4344 90.9146 27.5308L89.5557 33H86.3213L87.8374 27.1826C88.0246 26.4788 88.2043 25.8499 88.3765 25.2959C88.5562 24.7419 88.7284 24.2664 88.8931 23.8696L86.1079 19.2202H89.4658L90.5215 21.1968C90.9707 20.508 91.5846 19.9689 92.3633 19.5796C93.1494 19.1903 94.0104 18.9956 94.9463 18.9956ZM116.206 24.9253V33H113.162V24.9028C113.162 23.7573 112.919 22.9525 112.432 22.4883C111.945 22.0166 111.099 21.7808 109.894 21.7808H104.2V19.063H110.085C111.56 19.063 112.743 19.2614 113.634 19.6582C114.532 20.055 115.184 20.6839 115.588 21.5449C116 22.3984 116.206 23.5252 116.206 24.9253ZM107.457 24.5322V33H104.425V24.5322H107.457Z" fill="white"/>
<rect x="182" width="50" height="50" rx="25" fill="#B88AE6" fill-opacity="0.5"/>
<path d="M214.707 25.7071C215.098 25.3166 215.098 24.6834 214.707 24.2929L208.343 17.9289C207.953 17.5384 207.319 17.5384 206.929 17.9289C206.538 18.3195 206.538 18.9526 206.929 19.3431L212.586 25L206.929 30.6569C206.538 31.0474 206.538 31.6805 206.929 32.0711C207.319 32.4616 207.953 32.4616 208.343 32.0711L214.707 25.7071ZM214 24L200 24L200 26L214 26L214 24Z" fill="white"/>
</svg>
