<svg width="22" height="20" viewBox="0 0 22 20" fill="none" xmlns="http://www.w3.org/2000/svg">
<path d="M21.4076 4.4278L9.8785 18.9831C9.40115 19.5848 8.69122 19.9548 7.93185 19.9959C7.88241 19.9992 7.8346 20 7.78679 20C7.07685 20 6.39285 19.7139 5.88795 19.2017L0.784696 14.025C-0.261565 12.9637 -0.261565 11.2372 0.784696 10.1751C1.29202 9.66046 1.9671 9.37684 2.68352 9.37684C3.39994 9.37684 4.07503 9.66046 4.58154 10.1751L7.56878 13.2045L17.2234 1.01609C18.1505 -0.153752 19.8427 -0.34119 20.9967 0.598469C21.5551 1.05473 21.9069 1.70337 21.9838 2.426C22.0616 3.15026 21.8566 3.85974 21.4084 4.42698L21.4076 4.4278Z" fill="#4754D6"/>
</svg>
