<svg width="156" height="141" viewBox="0 0 156 141" fill="none" xmlns="http://www.w3.org/2000/svg">
<path d="M78.0843 120.306L78.0843 20.6949C78.0843 5.94215 93.6294 -4.05798 107.742 1.60885C135.698 12.8325 155.355 39.4509 155.355 70.5003C155.355 101.55 135.698 128.167 107.742 139.392C93.6294 145.057 78.0843 135.058 78.0843 120.306Z" fill="#B78BE6" fill-opacity="0.3"/>
<path d="M58.2064 141L14.8729 141C8.455 141 4.10467 134.269 6.5699 128.159C11.4525 116.054 23.0323 107.542 36.5396 107.542C50.0469 107.542 61.6261 116.054 66.5093 128.159C68.9739 134.269 64.6242 141 58.2064 141Z" fill="#B78BE6" fill-opacity="0.68"/>
<rect x="10.6807" y="24.7452" width="124.271" height="69.8153" rx="11" transform="rotate(8.55591 10.6807 24.7452)" fill="#3F55D2"/>
<rect x="8.29199" y="38.6241" width="124.271" height="13.2649" transform="rotate(8.55591 8.29199 38.6241)" fill="#1F1B2F"/>
<rect x="29.6514" y="62.8998" width="52.3615" height="5.58522" transform="rotate(8.55591 29.6514 62.8998)" fill="#E4DFD9"/>
<rect x="84.8818" y="71.2091" width="18.8501" height="5.58522" transform="rotate(8.55591 84.8818 71.2091)" fill="#E4DFD9"/>
<circle cx="101.579" cy="96.3135" r="4.88707" transform="rotate(8.55591 101.579 96.3135)" fill="#B78BE6"/>
<circle cx="107.793" cy="97.2484" r="4.88707" transform="rotate(8.55591 107.793 97.2484)" fill="#D9D9D9"/>
</svg>
