<svg width="250" height="172" viewBox="0 0 250 172" fill="none" xmlns="http://www.w3.org/2000/svg">
<g clip-path="url(#clip0_1_1)">
    <!-- מסמך ראשי -->
    <rect x="60" y="20" width="130" height="160" rx="8" fill="#E8E8E5"/>
    
    <!-- קווי טקסט -->
    <rect x="80" y="40" width="90" height="6" rx="3" fill="#4855CE" fill-opacity="0.3"/>
    <rect x="80" y="60" width="70" height="6" rx="3" fill="#4855CE" fill-opacity="0.3"/>
    <rect x="80" y="80" width="80" height="6" rx="3" fill="#4855CE" fill-opacity="0.3"/>
    
    <!-- מסמך מרחף 1 -->
    <g transform="rotate(-15 40 60)">
        <rect x="40" y="60" width="120" height="150" rx="8" fill="#4855CE"/>
        <rect x="60" y="80" width="80" height="6" rx="3" fill="white" fill-opacity="0.6"/>
        <rect x="60" y="100" width="60" height="6" rx="3" fill="white" fill-opacity="0.6"/>
    </g>
    
    <!-- מסמך מרחף 2 -->
    <g transform="rotate(15 180 60)">
        <rect x="180" y="60" width="120" height="150" rx="8" fill="#C78CEA"/>
        <rect x="200" y="80" width="80" height="6" rx="3" fill="white" fill-opacity="0.6"/>
        <rect x="200" y="100" width="60" height="6" rx="3" fill="white" fill-opacity="0.6"/>
    </g>
    
    <!-- סמל V -->
    <path d="M160 30L175 45L200 20" stroke="#4855CE" stroke-width="8" stroke-linecap="round" stroke-linejoin="round"/>
</g>

<defs>
<clipPath id="clip0_1_1">
<rect width="250" height="172" fill="white"/>
</clipPath>
</defs>
</svg> 