<svg width="250" height="172" viewBox="0 0 250 172" fill="none" xmlns="http://www.w3.org/2000/svg">
<g clip-path="url(#clip0_1_2)">
    <!-- זכוכית מגדלת -->
    <circle cx="100" cy="80" r="60" fill="#E8E8E5"/>
    <circle cx="100" cy="80" r="45" fill="#4855CE"/>
    <rect x="140" y="120" width="80" height="20" rx="10" transform="rotate(45 140 120)" fill="#4855CE"/>
    
    <!-- אייקונים של חברות -->
    <g transform="translate(160, 40)">
        <circle cx="0" cy="0" r="20" fill="#C78CEA"/>
        <path d="M-10 0H10 M0 -10V10" stroke="white" stroke-width="4" stroke-linecap="round"/>
    </g>
    
    <g transform="translate(200, 80)">
        <circle cx="0" cy="0" r="20" fill="#C78CEA"/>
        <path d="M-10 0H10 M0 -10V10" stroke="white" stroke-width="4" stroke-linecap="round"/>
    </g>
    
    <g transform="translate(160, 120)">
        <circle cx="0" cy="0" r="20" fill="#C78CEA"/>
        <path d="M-10 0H10 M0 -10V10" stroke="white" stroke-width="4" stroke-linecap="round"/>
    </g>
    
    <!-- קווי חיבור -->
    <path d="M120 80C140 80 160 60 180 60" stroke="#E8E8E5" stroke-width="4" stroke-linecap="round"/>
    <path d="M120 80C140 80 160 100 180 100" stroke="#E8E8E5" stroke-width="4" stroke-linecap="round"/>
    <path d="M120 80C140 80 160 140 180 140" stroke="#E8E8E5" stroke-width="4" stroke-linecap="round"/>
</g>

<defs>
<clipPath id="clip0_1_2">
<rect width="250" height="172" fill="white"/>
</clipPath>
</defs>
</svg> 