<svg width="60" height="60" viewBox="0 0 60 60" fill="none" xmlns="http://www.w3.org/2000/svg">
<circle cx="30" cy="30" r="30" fill="#C78CEA"/>
<g clip-path="url(#clip0_434_346)">
<path d="M41.3252 40.6541H30.3664C30.5345 40.5615 30.6851 40.4515 30.8184 40.3068L38.7405 31.5427C39.2099 31.0217 39.3316 30.2692 39.0477 29.6324C38.7637 28.9899 38.1262 28.5789 37.4192 28.5789H31.9427V18.4428C31.9427 17.0941 30.8474 16 29.4971 16C28.1468 16 27.0515 17.0941 27.0515 18.4428V28.5731H21.575C20.8738 28.5731 20.2363 28.9841 19.9466 29.6266C19.6626 30.2692 19.7785 31.0159 20.2537 31.5369L28.1758 40.301C28.3033 40.4457 28.4598 40.5557 28.6278 40.6483H17.6748C16.7476 40.6483 16 41.3951 16 42.3213C16 43.2475 16.7476 43.9942 17.6748 43.9942H41.3252C42.2524 43.9942 43 43.2475 43 42.3213C43 41.3951 42.2524 40.6483 41.3252 40.6483V40.6541Z" fill="white"/>
</g>
<defs>
<clipPath id="clip0_434_346">
<rect width="27" height="28" fill="white" transform="translate(16 16)"/>
</clipPath>
</defs>
</svg>
