<svg width="248" height="164" viewBox="0 0 248 164" fill="none" xmlns="http://www.w3.org/2000/svg">
<g clip-path="url(#clip0_54_1564)">
<path d="M189.57 144.191H65.8229C55.893 144.191 48.5149 134.877 50.8843 125.215C59.3714 90.6075 90.5435 64.939 127.7 64.939C164.851 64.939 196.024 90.6075 204.509 125.215C206.878 134.877 199.5 144.191 189.57 144.191Z" fill="#4754D6"/>
<path d="M195.325 53.8757H242.176C245.935 53.8757 248.728 57.4014 247.832 61.0605C244.62 74.1634 232.817 83.8814 218.75 83.8814C204.686 83.8814 192.884 74.1634 189.67 61.0605C188.773 57.4032 191.567 53.8757 195.327 53.8757H195.325Z" fill="#E8E8E5" fill-opacity="0.3"/>
<path d="M7.81571 10.2627H70.6816C75.725 10.2627 79.4733 14.9947 78.2695 19.9021C73.9575 37.4829 58.1216 50.5237 39.2469 50.5237C20.3739 50.5237 4.53798 37.4848 0.22605 19.9021C-0.977789 14.9928 2.77053 10.2627 7.81388 10.2627H7.81571Z" fill="#E8E8E5" fill-opacity="0.53"/>
<path d="M126.981 92.2195C152.395 92.2195 172.997 71.5754 172.997 46.1097C172.997 20.644 152.395 0 126.981 0C101.567 0 80.9653 20.644 80.9653 46.1097C80.9653 71.5754 101.567 92.2195 126.981 92.2195Z" fill="#4754D6"/>
<path d="M116.896 151.558H36.2372C29.7657 151.558 24.9558 145.487 26.5007 139.19C32.0329 116.632 52.3504 99.9014 76.5695 99.9014C100.785 99.9014 121.102 116.632 126.635 139.19C128.18 145.488 123.37 151.558 116.898 151.558H116.896Z" fill="#E8E8E5"/>
<path d="M76.1008 117.683C92.6659 117.683 106.095 104.227 106.095 87.6283C106.095 71.0293 92.6659 57.5732 76.1008 57.5732C59.5356 57.5732 46.1069 71.0293 46.1069 87.6283C46.1069 104.227 59.5356 117.683 76.1008 117.683Z" fill="#E8E8E5"/>
<path d="M161.76 163.553C173.375 163.553 182.79 154.118 182.79 142.48C182.79 130.841 173.375 121.406 161.76 121.406C150.145 121.406 140.729 130.841 140.729 142.48C140.729 154.118 150.145 163.553 161.76 163.553Z" fill="#C78CEA"/>
<path d="M173.488 136.277L160.496 152.479C159.957 153.15 159.159 153.561 158.301 153.607C158.247 153.611 158.192 153.611 158.137 153.611C157.338 153.611 156.567 153.293 155.998 152.722L150.247 146.96C149.068 145.779 149.068 143.856 150.247 142.674C150.817 142.102 151.578 141.785 152.386 141.785C153.194 141.785 153.953 142.102 154.524 142.674L157.891 146.046L168.771 132.479C169.816 131.177 171.722 130.967 173.023 132.014C173.652 132.522 174.048 133.244 174.135 134.049C174.223 134.855 173.991 135.644 173.486 136.277H173.488Z" fill="white"/>
</g>
<defs>
<clipPath id="clip0_54_1564">
<rect width="248" height="163.552" fill="white"/>
</clipPath>
</defs>
</svg>
