<svg width="215" height="171" viewBox="0 0 215 171" fill="none" xmlns="http://www.w3.org/2000/svg">
<path d="M153 141.975L153 60.0256C153 47.8886 165.282 39.6615 176.433 44.3236C198.521 53.5572 214.053 75.4561 214.053 101C214.053 126.544 198.521 148.442 176.433 157.677C165.282 162.338 153 154.112 153 141.975Z" fill="#4855CE"/>
<path d="M143 25.0974V145.902C143 163.794 124.894 175.921 108.457 169.049C75.8952 155.437 53 123.155 53 85.4997C53 47.8441 75.8952 15.5639 108.457 1.95054C124.894 -4.92033 143 7.20581 143 25.0974Z" fill="#E8E8E5" fill-opacity="0.36"/>
<path d="M64.3266 38H17.0782C7.64616 38 0 45.6381 0 55.0601V102.259C0 111.681 7.64616 119.319 17.0782 119.319H64.3266C73.7586 119.319 81.4048 111.681 81.4048 102.259V55.0601C81.4048 45.6381 73.7586 38 64.3266 38Z" fill="#C78CEA"/>
<path d="M153.922 55.6812H106.673C97.2414 55.6812 89.5952 63.3192 89.5952 72.7413V119.94C89.5952 129.362 97.2414 137 106.673 137H153.922C163.354 137 171 129.362 171 119.94V72.7413C171 63.3192 163.354 55.6812 153.922 55.6812Z" fill="#E8E8E5"/>
<path d="M40.3857 88.9836C40.3857 89.9823 40.012 90.8522 39.3061 91.4978C38.6279 92.1189 37.6932 92.4337 36.5295 92.4337H22.9902C21.4976 92.4337 20.3531 92.0423 19.5897 91.2702C18.8306 90.5034 18.4463 89.3675 18.4463 87.8945V69.4242C18.4463 68.4798 18.5964 67.7002 18.9062 67.0408C19.2671 66.2729 19.8644 65.6816 20.6342 65.3296C21.29 65.0307 22.0608 64.885 22.9902 64.885H36.1441C37.3184 64.885 38.2521 65.1945 38.9186 65.8028C39.6149 66.4378 39.9832 67.296 39.9832 68.2851C39.9832 69.2742 39.6149 70.1495 38.9186 70.7844C38.2521 71.3928 37.3184 71.7012 36.1441 71.7012H26.4099V74.7567H35.254C36.3943 74.7567 37.3046 75.0598 37.9604 75.6565C38.6471 76.2808 39.0102 77.1273 39.0102 78.1058C39.0102 79.0842 38.6588 79.9159 37.9955 80.5487C37.3408 81.173 36.4188 81.4889 35.254 81.4889H26.4099V85.5005H36.5295C37.6932 85.5005 38.6279 85.8153 39.3061 86.4354C40.012 87.0809 40.3857 87.9626 40.3857 88.9836Z" fill="white"/>
<path d="M64.9984 68.8042V88.1286C64.9984 89.558 64.6577 90.6938 63.9849 91.5053C63.4749 92.12 62.5124 92.8528 60.8239 92.8528C60.2075 92.8528 59.6325 92.7582 59.113 92.572C58.5753 92.3795 58.0718 92.0754 57.6161 91.6702C57.2232 91.3192 56.8559 90.9065 56.5248 90.446C56.2523 90.0653 55.9754 89.6707 55.7018 89.273C55.6954 89.2634 55.689 89.2538 55.6827 89.2442L49.0765 79.1258V88.5147C49.0765 89.8303 48.7262 90.8821 48.0363 91.6436C47.3166 92.4348 46.3552 92.8528 45.2543 92.8528C44.1535 92.8528 43.1453 92.4242 42.4373 91.6138C41.7697 90.8512 41.4312 89.8079 41.4312 88.5147V69.5593C41.4312 68.5585 41.5525 67.762 41.8017 67.1238L41.8176 67.0855C42.1466 66.306 42.6917 65.6657 43.437 65.1839C44.1726 64.7075 44.9807 64.4661 45.841 64.4661C46.5011 64.4661 47.0962 64.5852 47.6094 64.8181C48.0938 65.0393 48.5271 65.3424 48.8955 65.7189C49.2095 66.0401 49.5119 66.4293 49.8217 66.9101C50.073 67.3004 50.3317 67.7077 50.6 68.131L57.4372 78.4653V68.8042C57.4372 67.4939 57.7641 66.4485 58.4092 65.6976C59.1023 64.8925 60.0648 64.4661 61.1923 64.4661C62.3197 64.4661 63.3141 64.8893 64.0115 65.6902C64.6662 66.4421 64.9984 67.4897 64.9984 68.8042Z" fill="white"/>
<path d="M129.992 86.6523V106.011C129.992 107.411 129.621 108.521 128.887 109.306C128.137 110.109 127.134 110.533 125.985 110.533C124.836 110.533 123.8 110.094 123.07 109.264C122.379 108.478 122.029 107.384 122.029 106.011V99.2371H114.255V106.011C114.255 107.411 113.883 108.521 113.15 109.306C112.4 110.109 111.396 110.533 110.248 110.533C109.101 110.533 108.063 110.094 107.332 109.264C106.641 108.478 106.291 107.384 106.291 106.011V86.6523C106.291 85.2783 106.639 84.1871 107.325 83.4075C108.049 82.5833 109.06 82.1472 110.248 82.1472C111.437 82.1472 112.413 82.5684 113.158 83.366C113.886 84.1467 114.255 85.2527 114.255 86.6523V92.2029H122.029V86.6523C122.029 85.2729 122.385 84.1764 123.09 83.3937C123.826 82.5779 124.827 82.1472 125.985 82.1472C127.143 82.1472 128.151 82.5684 128.896 83.366C129.624 84.1467 129.992 85.2517 129.992 86.6523Z" fill="#4754D6"/>
<path d="M154.304 106.664C154.304 107.663 153.93 108.532 153.223 109.179C152.545 109.799 151.611 110.114 150.448 110.114H136.907C135.415 110.114 134.27 109.722 133.507 108.951C132.749 108.186 132.363 107.05 132.363 105.575V87.1053C132.363 86.1598 132.513 85.3803 132.823 84.7209C133.182 83.9551 133.78 83.3638 134.551 83.0107C135.207 82.7108 135.978 82.5662 136.907 82.5662H150.061C151.235 82.5662 152.169 82.8746 152.836 83.4829C153.533 84.1179 153.9 84.9761 153.9 85.9652C153.9 86.9543 153.533 87.8296 152.837 88.4645C152.169 89.0729 151.235 89.3813 150.061 89.3813H140.327V92.4379H149.172C150.311 92.4379 151.222 92.7399 151.877 93.3355C152.565 93.9619 152.927 94.8085 152.927 95.7869C152.927 96.7654 152.577 97.5971 151.913 98.2299C151.259 98.8531 150.337 99.17 149.172 99.17H140.327V103.181H150.448C151.61 103.181 152.544 103.495 153.223 104.115C153.93 104.763 154.304 105.644 154.304 106.664Z" fill="#4754D6"/>
</svg>
