<svg width="195" height="153" viewBox="0 0 195 153" fill="none" xmlns="http://www.w3.org/2000/svg">
<path d="M19.4143 45L175.586 45C188.116 45 197.428 57.6942 194.437 70.8584C183.726 118.02 144.388 153 97.4965 153C50.6118 153 11.2741 118.02 0.562924 70.8584C-2.42829 57.6904 6.88441 45 19.4143 45Z" fill="#E8E8E5" fill-opacity="0.33"/>
<path d="M169.975 0H80.699C77.5515 0 75 2.53177 75 5.65486V13.5143C75 16.6374 77.5515 19.1692 80.699 19.1692H169.975C173.123 19.1692 175.674 16.6374 175.674 13.5143V5.65486C175.674 2.53177 173.123 0 169.975 0Z" fill="#C78CEA"/>
<path d="M169.975 116.831H80.699C77.5515 116.831 75 119.363 75 122.486V130.345C75 133.468 77.5515 136 80.699 136H169.975C173.123 136 175.674 133.468 175.674 130.345V122.486C175.674 119.363 173.123 116.831 169.975 116.831Z" fill="#C78CEA"/>
<path d="M86.8369 19.1692H163.837C170.015 19.1692 174.607 24.9087 173.132 30.8607C167.851 52.1844 148.455 68 125.335 68C102.219 68 82.8233 52.1844 77.5422 30.8607C76.0674 24.907 80.659 19.1692 86.8369 19.1692Z" fill="#E8E8E5"/>
<path d="M163.837 116.831H86.8369C80.659 116.831 76.0674 111.091 77.5422 105.139C82.8233 83.8156 102.219 68 125.339 68C148.455 68 167.851 83.8156 173.132 105.139C174.607 111.093 170.015 116.831 163.837 116.831Z" fill="#E8E8E5"/>
<path d="M154.926 111.179H95.7486C91.0003 111.179 87.4726 106.768 88.6044 102.193C92.6632 85.8059 107.57 73.6514 125.337 73.6514C143.103 73.6514 158.01 85.8059 162.068 102.193C163.202 106.768 159.672 111.179 154.924 111.179H154.926Z" fill="#5158C5"/>
<path d="M101.599 46.2842H149.077C152.887 46.2842 155.718 48.2331 154.807 50.2562C151.551 57.5006 139.591 62.8721 125.335 62.8721C111.082 62.8721 99.1211 57.4989 95.8668 50.2562C94.9579 48.2331 97.7891 46.2842 101.597 46.2842H101.599Z" fill="#5158C5"/>
</svg>
