<svg width="211" height="162" viewBox="0 0 211 162" fill="none" xmlns="http://www.w3.org/2000/svg">
<path d="M180.762 81.0264V32.9736C180.762 29.1183 184.288 26.2528 187.945 27.1732C201.045 30.4689 210.762 42.5729 210.762 57.0011C210.762 71.4271 201.045 83.5311 187.945 86.8268C184.287 87.7472 180.762 84.8817 180.762 81.0264Z" fill="#B78BE6"/>
<rect x="49.7305" width="114.851" height="162" rx="12" fill="#D9D9D9" fill-opacity="0.4"/>
<rect x="88.417" y="27.8062" width="70.1194" height="39.8955" rx="5" fill="#4B4553" fill-opacity="0.14"/>
<rect x="88.417" y="76.1641" width="70.1194" height="21.7612" rx="5" fill="#4B4553" fill-opacity="0.14"/>
<rect x="88.417" y="105.179" width="70.1194" height="43.5224" rx="5" fill="#4B4553" fill-opacity="0.14"/>
<path d="M49.7305 12C49.7305 5.37259 55.1031 0 61.7305 0H82.3723V162H61.7305C55.1031 162 49.7305 156.627 49.7305 150V12Z" fill="#3F55D2"/>
<path d="M59.8725 111.651L6.62 111.651C2.34747 111.651 -0.828013 107.578 0.191951 103.354C3.84432 88.2228 17.258 76.9998 33.2475 76.9998C49.2345 76.9998 62.6482 88.2228 66.3006 103.354C67.3205 107.579 64.145 111.651 59.8725 111.651Z" fill="#F4F4F2"/>
<path d="M6.61968 114.46L59.8722 114.46C64.1447 114.46 67.3202 118.533 66.3002 122.757C62.6479 137.888 49.2342 149.111 33.2447 149.111C17.2576 149.111 3.84396 137.888 0.191605 122.757C-0.828361 118.532 2.34715 114.46 6.61968 114.46Z" fill="#F4F4F2"/>
</svg>
