<svg width="238" height="251" viewBox="0 0 238 251" fill="none" xmlns="http://www.w3.org/2000/svg">
<path d="M67.6829 160.55L211.959 160.55C223.535 160.55 232.138 171.181 229.374 182.206C219.479 221.704 183.138 251 139.818 251C96.5042 251 60.1627 221.704 50.2674 182.206C47.5041 171.178 56.1074 160.55 67.6829 160.55Z" fill="#C78CEA"/>
<rect x="30.9014" y="11.306" width="134.922" height="190.311" rx="12" fill="white"/>
<rect x="57.0508" width="134.922" height="190.311" rx="12" transform="rotate(11.5825 57.0508 0)" fill="white" fill-opacity="0.48"/>
<rect x="81.9414" y="0.930389" width="134.922" height="190.311" rx="12" transform="rotate(20.2357 81.9414 0.930389)" fill="white" fill-opacity="0.19"/>
<rect x="76.3516" y="43.9713" width="82.3734" height="46.8676" rx="5" fill="#4B4553" fill-opacity="0.14"/>
<rect x="76.3516" y="100.781" width="82.3734" height="25.5642" rx="5" fill="#4B4553" fill-opacity="0.14"/>
<rect x="76.3516" y="134.866" width="82.3734" height="51.1283" rx="5" fill="#4B4553" fill-opacity="0.14"/>
<path d="M30.9014 23.306C30.9014 16.6786 36.274 11.306 42.9014 11.306H69.2476V201.617H42.9014C36.274 201.617 30.9014 196.244 30.9014 189.617V23.306Z" fill="#4856CD"/>
<path d="M30.9039 137.183C47.9717 137.183 61.8078 123.347 61.8078 106.279C61.8078 89.2115 47.9717 75.3754 30.9039 75.3754C13.8362 75.3754 0 89.2115 0 106.279C0 123.347 13.8362 137.183 30.9039 137.183Z" fill="#B78BE6"/>
<path d="M48.0195 97.0391L29.0592 121.176C28.2742 122.173 27.1067 122.787 25.8578 122.855C25.7765 122.86 25.6979 122.862 25.6193 122.862C24.4517 122.862 23.3269 122.387 22.4965 121.538L14.104 112.954C12.3833 111.194 12.3833 108.331 14.104 106.57C14.9383 105.716 16.0485 105.246 17.2267 105.246C18.4049 105.246 19.5151 105.716 20.3481 106.57L25.2607 111.593L41.1383 91.3816C42.663 89.4417 45.4459 89.1309 47.3438 90.6891C48.2621 91.4457 48.8405 92.5213 48.9671 93.7196C49.095 94.9206 48.7578 96.0971 48.0208 97.0378L48.0195 97.0391Z" fill="white"/>
<path d="M231.429 153.012L183.135 153.012C179.261 153.012 176.381 149.291 177.306 145.432C180.618 131.608 192.783 121.354 207.283 121.354C221.781 121.354 233.946 131.608 237.258 145.432C238.183 149.292 235.303 153.012 231.429 153.012Z" fill="#F4F4F2"/>
<path d="M42.9629 41.5414V24.0351C42.9629 22.6306 44.2918 21.5867 45.67 21.922C50.6072 23.1226 54.2692 27.5323 54.2692 32.7887C54.2692 38.0443 50.6072 42.4539 45.67 43.6546C44.2914 43.9899 42.9629 42.946 42.9629 41.5414Z" fill="#F4F4F2"/>
</svg>
