<svg width="71" height="29" viewBox="0 0 71 29" fill="none" xmlns="http://www.w3.org/2000/svg">
<rect x="0.866211" y="0.5" width="69.5667" height="28" rx="14" stroke="#4B4553"/>
<path d="M22.2431 12.1133V14.5141H25.7226C25.5806 15.2876 25.1157 15.9726 24.4344 16.4115C23.8531 16.7927 23.1108 17.0098 22.2407 17.0098C20.5588 17.0098 19.1371 15.9092 18.6271 14.4361C18.3602 13.6609 18.3602 12.8251 18.6271 12.0499C19.1371 10.568 20.5588 9.46745 22.2407 9.46745C23.1614 9.45116 24.0511 9.78814 24.7092 10.4033L26.5544 8.6212C25.3923 7.56659 23.8458 6.98516 22.2431 7.00029C19.7971 7.0096 17.568 8.343 16.4918 10.4412C15.5704 12.2035 15.5704 14.2766 16.4918 16.039V16.0477C17.5686 18.1447 19.7977 19.4758 22.2431 19.4816C23.978 19.4816 25.4454 18.927 26.5087 17.9736C27.7275 16.8905 28.4228 15.2876 28.4228 13.3809C28.4234 12.9561 28.388 12.5323 28.3161 12.1133H22.2431ZM45.9728 11.8805C45.3555 11.3346 44.5145 11.0575 43.4506 11.0575C42.0819 11.0575 41.0533 11.5429 40.3732 12.5044L41.6438 13.2762C42.1087 12.6167 42.7437 12.2867 43.5487 12.2867C44.0612 12.2879 44.5548 12.4701 44.935 12.7983C45.3098 13.1091 45.5249 13.5596 45.5255 14.0339V14.3546C44.971 14.0596 44.2732 13.9036 43.4146 13.9036C42.4128 13.9036 41.6078 14.1294 41.0082 14.5886C40.4086 15.0478 40.1051 15.6543 40.1051 16.4255C40.0862 17.1233 40.3982 17.7926 40.9546 18.2454C41.5182 18.7308 42.2343 18.9735 43.0746 18.9735C44.0673 18.9735 44.8546 18.5486 45.4511 17.6995H45.5121V18.7308H46.8899V14.1504C46.8941 13.1871 46.5901 12.4241 45.9728 11.8805ZM44.8009 17.0779C44.3738 17.4929 43.7906 17.7268 43.1818 17.7274C42.7766 17.7338 42.3817 17.6052 42.0648 17.3637C41.765 17.1489 41.5895 16.8119 41.5914 16.454C41.5914 16.0466 41.7876 15.7084 42.1727 15.4401C42.5578 15.1718 43.0581 15.0327 43.6395 15.0327C44.4414 15.0234 45.0691 15.198 45.5163 15.5437C45.5163 16.1333 45.275 16.6443 44.8009 17.0779ZM39.0941 8.81327C38.4409 8.18935 37.5494 7.84654 36.6256 7.86458H32.8066V18.7331H34.2466V14.3308H36.6231C37.5981 14.3308 38.4208 14.0188 39.0917 13.4036C39.1453 13.3518 39.199 13.2994 39.2532 13.2476C40.475 11.9742 40.4037 10.0012 39.0941 8.81094V8.81327ZM38.0838 12.4352C37.7163 12.8094 37.1984 13.0148 36.6615 12.9985H34.2466V9.20322H36.6615C37.177 9.20147 37.6719 9.3947 38.0387 9.74042C38.8144 10.4784 38.8345 11.6715 38.0838 12.4328V12.4352ZM53.2353 11.2985L51.0086 16.6356H50.9812L48.7009 11.2985H47.1355L50.2914 18.2565L48.5029 22H49.9867L54.8008 11.2985H53.2353Z" fill="#4B4553"/>
</svg>
