<svg width="209" height="50" viewBox="0 0 209 50" fill="none" xmlns="http://www.w3.org/2000/svg">
<rect x="0.5" y="0.5" width="208" height="49" rx="24.5" stroke="#4856CD"/>
<path d="M66.4534 24.9253V33H63.41V24.9028C63.41 23.7573 63.1666 22.9525 62.68 22.4883C62.1933 22.0166 61.3473 21.7808 60.1419 21.7808H54.448V19.063H60.3328C61.8077 19.063 62.9907 19.2614 63.8816 19.6582C64.7801 20.055 65.4314 20.6839 65.8357 21.5449C66.2475 22.3984 66.4534 23.5252 66.4534 24.9253ZM57.7049 24.5322V33H54.6726V24.5322H57.7049ZM82.1985 30.2822V33H69.2049V30.2822H77.6726V25.3184C77.6726 24.0081 77.4256 23.091 76.9314 22.5669C76.4448 22.0428 75.61 21.7808 74.427 21.7808H69.7327V19.063H74.472C76.6582 19.063 78.2417 19.5197 79.2225 20.4331C80.2107 21.3465 80.7049 22.8439 80.7049 24.9253V30.2822H82.1985ZM87.533 19.063V26.4639H84.5008V19.063H87.533ZM95.4954 30.7764C95.1959 31.5475 94.7355 32.1128 94.1141 32.4722C93.4926 32.8241 92.5905 33 91.4075 33H90.6438V30.2822H90.8348C91.3514 30.2822 91.7631 30.1849 92.0701 29.9902C92.3696 29.7956 92.583 29.4998 92.7102 29.103C92.8375 28.6987 92.9012 28.0885 92.9012 27.2725V21.7808H90.7674V19.063H98.5838C100.74 19.063 102.286 19.5197 103.222 20.4331C104.165 21.339 104.637 22.8439 104.637 24.9478V33H101.594V24.9927C101.594 23.7948 101.35 22.96 100.864 22.4883C100.377 22.0166 99.5571 21.7808 98.4041 21.7808H95.9334V27.6655C95.9334 28.9608 95.7874 29.9977 95.4954 30.7764ZM117.923 26.3066C117.923 30.7689 115.647 33 111.095 33H107.366V30.2822H110.926C112.266 30.2822 113.258 29.9453 113.902 29.2715C114.546 28.5977 114.868 27.5719 114.868 26.1943V25.8911C114.868 24.491 114.546 23.4578 113.902 22.7915C113.258 22.1177 112.281 21.7808 110.971 21.7808H107.366V19.063H111.252C115.699 19.063 117.923 21.2866 117.923 25.7339V26.3066ZM132.915 24.9253V33H129.872V24.9028C129.872 23.7573 129.629 22.9525 129.142 22.4883C128.655 22.0166 127.809 21.7808 126.604 21.7808H120.91V19.063H126.795C128.27 19.063 129.453 19.2614 130.344 19.6582C131.242 20.055 131.893 20.6839 132.298 21.5449C132.709 22.3984 132.915 23.5252 132.915 24.9253ZM124.167 24.5322V33H121.135V24.5322H124.167ZM145.055 19.063V26.4639H142.023V19.063H145.055ZM155.084 24.5547V33H147.818V30.2822H152.052V25.1387C152.052 24.1279 151.985 23.4054 151.85 22.9712C151.715 22.5444 151.491 22.2412 151.176 22.0615C150.862 21.8743 150.401 21.7808 149.795 21.7808H148.458V19.063H150.367C151.655 19.063 152.617 19.2352 153.254 19.5796C153.89 19.924 154.354 20.4893 154.646 21.2754C154.938 22.0615 155.084 23.1546 155.084 24.5547ZM161.924 19.063V26.4639H158.891V19.063H161.924ZM170.919 14.3013L168.314 21.4326H166.292L167.831 14.3013H170.919ZM176.95 19.063C177.616 19.063 178.17 19.1154 178.612 19.2202C179.061 19.325 179.436 19.5085 179.735 19.7705C180.042 20.0251 180.308 20.377 180.533 20.8262C180.705 21.1631 180.884 21.6348 181.072 22.2412C181.259 22.8402 181.457 23.5739 181.667 24.4424L183.643 33H180.622L179.499 27.9912C178.953 28.1335 178.567 28.3244 178.343 28.564C178.118 28.8035 177.927 29.1816 177.77 29.6982C177.74 29.8031 177.691 29.9865 177.624 30.2485C177.564 30.5031 177.489 30.8325 177.399 31.2368L177.017 33H173.929L174.389 30.9785C174.524 30.3571 174.659 29.8218 174.794 29.3726C174.929 28.9159 175.067 28.5415 175.209 28.2495C175.486 27.6655 175.842 27.2013 176.276 26.8569C176.718 26.505 177.324 26.2131 178.095 25.981L178.994 25.7114C178.889 25.2098 178.784 24.7606 178.679 24.3638C178.575 23.967 178.477 23.6263 178.387 23.3418C178.2 22.7653 177.983 22.361 177.736 22.1289C177.489 21.8968 177.088 21.7808 176.534 21.7808H175.018V19.063H176.95Z" fill="#4754D6"/>
</svg>
