<svg width="1030" height="549" viewBox="0 0 1030 549" fill="none" xmlns="http://www.w3.org/2000/svg">
<rect x="0.5" y="0.5" width="1029" height="548" rx="43.5" fill="white" fill-opacity="0.38" stroke="white"/>
<rect x="53.5" y="51.5" width="208" height="49" rx="24.5" stroke="#4856CD"/>
<path d="M119.453 75.9253V84H116.41V75.9028C116.41 74.7573 116.167 73.9525 115.68 73.4883C115.193 73.0166 114.347 72.7808 113.142 72.7808H107.448V70.063H113.333C114.808 70.063 115.991 70.2614 116.882 70.6582C117.78 71.055 118.431 71.6839 118.836 72.5449C119.248 73.3984 119.453 74.5252 119.453 75.9253ZM110.705 75.5322V84H107.673V75.5322H110.705ZM135.199 81.2822V84H122.205V81.2822H130.673V76.3184C130.673 75.0081 130.426 74.091 129.931 73.5669C129.445 73.0428 128.61 72.7808 127.427 72.7808H122.733V70.063H127.472C129.658 70.063 131.242 70.5197 132.222 71.4331C133.211 72.3465 133.705 73.8439 133.705 75.9253V81.2822H135.199ZM140.533 70.063V77.4639H137.501V70.063H140.533ZM148.495 81.7764C148.196 82.5475 147.735 83.1128 147.114 83.4722C146.493 83.8241 145.59 84 144.408 84H143.644V81.2822H143.835C144.351 81.2822 144.763 81.1849 145.07 80.9902C145.37 80.7956 145.583 80.4998 145.71 80.103C145.838 79.6987 145.901 79.0885 145.901 78.2725V72.7808H143.767V70.063H151.584C153.74 70.063 155.286 70.5197 156.222 71.4331C157.165 72.339 157.637 73.8439 157.637 75.9478V84H154.594V75.9927C154.594 74.7948 154.35 73.96 153.864 73.4883C153.377 73.0166 152.557 72.7808 151.404 72.7808H148.933V78.6655C148.933 79.9608 148.787 80.9977 148.495 81.7764ZM170.923 77.3066C170.923 81.7689 168.647 84 164.095 84H160.366V81.2822H163.926C165.266 81.2822 166.258 80.9453 166.902 80.2715C167.546 79.5977 167.868 78.5719 167.868 77.1943V76.8911C167.868 75.491 167.546 74.4578 166.902 73.7915C166.258 73.1177 165.281 72.7808 163.971 72.7808H160.366V70.063H164.252C168.699 70.063 170.923 72.2866 170.923 76.7339V77.3066ZM185.915 75.9253V84H182.872V75.9028C182.872 74.7573 182.629 73.9525 182.142 73.4883C181.655 73.0166 180.809 72.7808 179.604 72.7808H173.91V70.063H179.795C181.27 70.063 182.453 70.2614 183.344 70.6582C184.242 71.055 184.893 71.6839 185.298 72.5449C185.709 73.3984 185.915 74.5252 185.915 75.9253ZM177.167 75.5322V84H174.135V75.5322H177.167ZM198.055 70.063V77.4639H195.023V70.063H198.055ZM208.084 75.5547V84H200.818V81.2822H205.052V76.1387C205.052 75.1279 204.985 74.4054 204.85 73.9712C204.715 73.5444 204.491 73.2412 204.176 73.0615C203.862 72.8743 203.401 72.7808 202.795 72.7808H201.458V70.063H203.367C204.655 70.063 205.617 70.2352 206.254 70.5796C206.89 70.924 207.354 71.4893 207.646 72.2754C207.938 73.0615 208.084 74.1546 208.084 75.5547ZM214.924 70.063V77.4639H211.891V70.063H214.924ZM223.919 65.3013L221.314 72.4326H219.292L220.831 65.3013H223.919ZM229.95 70.063C230.616 70.063 231.17 70.1154 231.612 70.2202C232.061 70.325 232.436 70.5085 232.735 70.7705C233.042 71.0251 233.308 71.377 233.533 71.8262C233.705 72.1631 233.884 72.6348 234.072 73.2412C234.259 73.8402 234.457 74.5739 234.667 75.4424L236.643 84H233.622L232.499 78.9912C231.953 79.1335 231.567 79.3244 231.343 79.564C231.118 79.8035 230.927 80.1816 230.77 80.6982C230.74 80.8031 230.691 80.9865 230.624 81.2485C230.564 81.5031 230.489 81.8325 230.399 82.2368L230.017 84H226.929L227.389 81.9785C227.524 81.3571 227.659 80.8218 227.794 80.3726C227.929 79.9159 228.067 79.5415 228.209 79.2495C228.486 78.6655 228.842 78.2013 229.276 77.8569C229.718 77.505 230.324 77.2131 231.095 76.981L231.994 76.7114C231.889 76.2098 231.784 75.7606 231.679 75.3638C231.575 74.967 231.477 74.6263 231.387 74.3418C231.2 73.7653 230.983 73.361 230.736 73.1289C230.489 72.8968 230.088 72.7808 229.534 72.7808H228.018V70.063H229.95Z" fill="#4754D6"/>
<path d="M78.041 114.612V123H76.7832V114.612H78.041ZM86.9893 118.085V123H85.7246V118.071C85.7246 117.233 85.5537 116.64 85.2119 116.294C84.8747 115.948 84.2891 115.774 83.4551 115.774H80.2695V114.612H83.4756C84.3141 114.612 84.9909 114.731 85.5059 114.968C86.0208 115.2 86.3968 115.572 86.6338 116.082C86.8708 116.588 86.9893 117.256 86.9893 118.085ZM81.6641 117.552V123H80.4062V117.552H81.6641ZM95.582 122.152C95.2676 122.362 94.8757 122.533 94.4062 122.665C93.9414 122.797 93.3581 122.895 92.6562 122.959C91.9544 123.023 91.0863 123.059 90.0518 123.068L88.4521 114.612H89.7578L90.5986 118.926L91.0977 118.83C91.3711 118.766 91.5967 118.684 91.7744 118.584C91.9521 118.479 92.0934 118.333 92.1982 118.146C92.2848 118.001 92.3509 117.821 92.3965 117.606C92.4421 117.392 92.4762 117.137 92.499 116.841L92.6699 114.612H93.9688L93.7568 116.854C93.7249 117.233 93.6862 117.561 93.6406 117.839C93.5951 118.112 93.5404 118.333 93.4766 118.502C93.3626 118.844 93.1917 119.108 92.9639 119.295C92.736 119.477 92.3577 119.639 91.8291 119.78L90.8037 120.02L91.1387 121.783H91.3027C92.2188 121.783 92.9525 121.731 93.5039 121.626C94.0553 121.517 94.4906 121.348 94.8096 121.12C95.0238 120.965 95.2038 120.774 95.3496 120.546C95.4954 120.318 95.6185 120.017 95.7188 119.644C95.819 119.27 95.9033 118.789 95.9717 118.201L96.4023 114.612H97.7217L97.2842 118.153C97.193 118.946 97.0745 119.6 96.9287 120.115C96.7829 120.626 96.6006 121.04 96.3818 121.359C96.1676 121.674 95.901 121.938 95.582 122.152ZM103.512 114.476C104.615 114.476 105.419 114.813 105.925 115.487C106.435 116.157 106.69 117.224 106.69 118.687V123H102.575V121.838H105.419V118.844C105.419 117.727 105.275 116.916 104.988 116.41C104.701 115.904 104.214 115.651 103.525 115.651C102.91 115.651 102.404 115.929 102.008 116.485C101.607 117.05 101.24 118.033 100.907 119.432L100.053 123H98.6992L99.6357 119.329C99.7406 118.901 99.8477 118.513 99.957 118.167C100.066 117.821 100.174 117.513 100.278 117.244L98.5693 114.612H100.053L100.907 116C101.263 115.462 101.643 115.075 102.049 114.838C102.454 114.596 102.942 114.476 103.512 114.476ZM120.267 118.085V123H113.082V114.612H116.753C118.011 114.612 118.911 114.881 119.453 115.419C119.995 115.957 120.267 116.845 120.267 118.085ZM114.34 121.838H119.002V118.071C119.002 117.242 118.833 116.652 118.496 116.301C118.163 115.95 117.578 115.774 116.739 115.774H114.34V121.838ZM124.218 121.701C124.063 122.161 123.817 122.494 123.479 122.699C123.142 122.9 122.611 123 121.887 123H121.812V121.838H121.928C122.242 121.838 122.493 121.779 122.68 121.66C122.862 121.542 122.992 121.362 123.069 121.12C123.147 120.874 123.186 120.503 123.186 120.006V115.774H121.887V114.612H126.419C127.677 114.612 128.579 114.881 129.126 115.419C129.673 115.952 129.946 116.841 129.946 118.085V123H128.688V118.071C128.688 117.233 128.518 116.64 128.176 116.294C127.839 115.948 127.248 115.774 126.405 115.774H124.443V119.753C124.443 120.591 124.368 121.241 124.218 121.701ZM137.903 118.071C137.903 117.242 137.735 116.652 137.397 116.301C137.065 115.95 136.479 115.774 135.641 115.774H133.521V123H132.264V114.612H135.654C136.912 114.612 137.812 114.881 138.354 115.419C138.897 115.957 139.168 116.845 139.168 118.085V123H137.903V118.071ZM146.872 118.926C146.872 121.642 145.587 123 143.017 123H140.836V121.838H143.044C143.914 121.838 144.557 121.596 144.972 121.113C145.386 120.63 145.594 119.906 145.594 118.939V118.673C145.594 117.702 145.384 116.978 144.965 116.499C144.55 116.016 143.91 115.774 143.044 115.774H140.836V114.612H143.017C145.587 114.612 146.872 115.97 146.872 118.687V118.926ZM155.123 122.152C154.809 122.362 154.417 122.533 153.947 122.665C153.482 122.797 152.899 122.895 152.197 122.959C151.495 123.023 150.627 123.059 149.593 123.068L147.993 114.612H149.299L150.14 118.926L150.639 118.83C150.912 118.766 151.138 118.684 151.315 118.584C151.493 118.479 151.634 118.333 151.739 118.146C151.826 118.001 151.892 117.821 151.938 117.606C151.983 117.392 152.017 117.137 152.04 116.841L152.211 114.612H153.51L153.298 116.854C153.266 117.233 153.227 117.561 153.182 117.839C153.136 118.112 153.081 118.333 153.018 118.502C152.904 118.844 152.733 119.108 152.505 119.295C152.277 119.477 151.899 119.639 151.37 119.78L150.345 120.02L150.68 121.783H150.844C151.76 121.783 152.493 121.731 153.045 121.626C153.596 121.517 154.032 121.348 154.351 121.12C154.565 120.965 154.745 120.774 154.891 120.546C155.036 120.318 155.16 120.017 155.26 119.644C155.36 119.27 155.444 118.789 155.513 118.201L155.943 114.612H157.263L156.825 118.153C156.734 118.946 156.616 119.6 156.47 120.115C156.324 120.626 156.142 121.04 155.923 121.359C155.709 121.674 155.442 121.938 155.123 122.152ZM170.183 118.085V123H162.998V114.612H166.669C167.927 114.612 168.827 114.881 169.369 115.419C169.911 115.957 170.183 116.845 170.183 118.085ZM164.256 121.838H168.918V118.071C168.918 117.242 168.749 116.652 168.412 116.301C168.079 115.95 167.494 115.774 166.655 115.774H164.256V121.838ZM173.635 120.245L173.088 123H171.762L172.336 120.272C172.5 119.489 172.65 118.937 172.787 118.618C172.924 118.295 173.095 118.033 173.3 117.832C173.509 117.632 173.79 117.461 174.141 117.319L172.165 114.612H173.717L176.8 118.857C177.142 118.538 177.413 118.153 177.613 117.702C177.818 117.246 177.953 116.725 178.017 116.137L178.174 114.612H179.473L179.315 116.109C179.265 116.611 179.174 117.05 179.042 117.429C178.951 117.688 178.841 117.937 178.714 118.174C178.586 118.406 178.422 118.648 178.222 118.898C178.026 119.149 177.771 119.429 177.456 119.739L179.924 123H178.324L174.715 118.099C174.35 118.276 174.09 118.584 173.936 119.021C173.89 119.135 173.842 119.295 173.792 119.5C173.746 119.705 173.694 119.953 173.635 120.245ZM186.486 114.612V119.021H185.229V114.612H186.486ZM190.123 114.612V119.021H188.865V114.612H190.123ZM192.632 121.893C193.507 121.569 194.254 121.159 194.874 120.662C195.498 120.17 195.972 119.632 196.296 119.049C196.624 118.465 196.788 117.873 196.788 117.271C196.788 116.273 196.255 115.774 195.188 115.774H191.791V111.618H193.049V114.612H195.318C197.146 114.612 198.06 115.426 198.06 117.053C198.06 117.891 197.859 118.696 197.458 119.466C197.057 120.236 196.492 120.929 195.763 121.544C194.897 122.282 193.853 122.87 192.632 123.308V121.893ZM199.017 121.893C200.279 121.893 201.268 121.776 201.983 121.544L199.447 114.612H200.835L203.077 121.011C203.506 120.705 203.85 120.298 204.109 119.787C204.374 119.272 204.565 118.598 204.684 117.764C204.807 116.93 204.868 115.879 204.868 114.612H206.188C206.188 116.718 205.964 118.368 205.518 119.562C205.217 120.354 204.795 121.011 204.253 121.53C203.711 122.045 203.011 122.442 202.154 122.72C201.302 122.993 200.256 123.162 199.017 123.226V121.893ZM213.27 114.612V123H212.012V114.612H213.27ZM221.486 121.92V123H215.033V121.838H219.921L214.527 114.612H216.1L218.704 118.153C219.055 118.003 219.31 117.782 219.47 117.49C219.629 117.194 219.736 116.743 219.791 116.137L219.948 114.612H221.247L221.11 116.109C221.051 116.738 220.958 117.221 220.83 117.559C220.702 117.891 220.522 118.167 220.29 118.386C220.058 118.604 219.729 118.798 219.306 118.967L221.486 121.92ZM228.917 118.071C228.917 117.242 228.748 116.652 228.411 116.301C228.078 115.95 227.493 115.774 226.654 115.774H224.535V123H223.277V114.612H226.668C227.926 114.612 228.826 114.881 229.368 115.419C229.91 115.957 230.182 116.845 230.182 118.085V123H228.917V118.071ZM232.335 121.893C233.21 121.569 233.957 121.159 234.577 120.662C235.201 120.17 235.675 119.632 235.999 119.049C236.327 118.465 236.491 117.873 236.491 117.271C236.491 116.273 235.958 115.774 234.892 115.774H231.494V111.618H232.752V114.612H235.021C236.849 114.612 237.763 115.426 237.763 117.053C237.763 117.891 237.562 118.696 237.161 119.466C236.76 120.236 236.195 120.929 235.466 121.544C234.6 122.282 233.556 122.87 232.335 123.308V121.893ZM241.263 121.701C241.108 122.161 240.862 122.494 240.524 122.699C240.187 122.9 239.656 123 238.932 123H238.856V121.838H238.973C239.287 121.838 239.538 121.779 239.725 121.66C239.907 121.542 240.037 121.362 240.114 121.12C240.192 120.874 240.23 120.503 240.23 120.006V115.774H238.932V114.612H243.464C244.722 114.612 245.624 114.881 246.171 115.419C246.718 115.952 246.991 116.841 246.991 118.085V123H245.733V118.071C245.733 117.233 245.562 116.64 245.221 116.294C244.883 115.948 244.293 115.774 243.45 115.774H241.488V119.753C241.488 120.591 241.413 121.241 241.263 121.701Z" fill="#4856CD"/>
</svg>
