<svg width="114" height="110" viewBox="0 0 114 110" fill="none" xmlns="http://www.w3.org/2000/svg">
<path d="M17.3167 52.6881L96.8569 52.6881C108.637 52.6881 116.622 64.2192 112.097 74.6875C103.135 95.4253 81.88 110.007 57.0868 110.007C32.2936 110.007 11.0396 95.4253 2.07627 74.6875C-2.44766 64.2192 5.53645 52.6881 17.3167 52.6881Z" fill="#D9D9D9" fill-opacity="0.34"/>
<line x1="60.792" y1="41.7211" x2="25.1963" y2="77.3168" stroke="#3F55D2" stroke-width="12" stroke-linecap="round"/>
<ellipse cx="71.9283" cy="33.2408" rx="33.2652" ry="32.7535" fill="#3F55D2"/>
<ellipse cx="71.9289" cy="33.2408" rx="19.9591" ry="20.4709" fill="#E4DFD9"/>
<path d="M69.9142 24.8032L61.5459 31.6509C60.3065 32.6651 58.4524 32.1134 58.0079 30.5989C57.1272 27.5988 58.0811 24.2019 60.6896 22.0674C63.2981 19.9329 66.8164 19.6701 69.583 21.127C70.9795 21.8624 71.1536 23.789 69.9142 24.8032Z" fill="#B78BE6"/>
</svg>
