<svg width="33" height="33" viewBox="0 0 33 33" fill="none" xmlns="http://www.w3.org/2000/svg">
<circle cx="16.5" cy="16.5" r="16.5" fill="#3F55D2"/>
<g clip-path="url(#clip0_99_5)">
<path d="M21.731 12.9925L16.4903 19.5423C16.2733 19.8132 15.9508 19.9795 15.6054 19.9982C15.5831 19.9996 15.5613 20.0001 15.5395 20.0001C15.2169 20.0001 14.9057 19.8712 14.6764 19.641L12.3566 17.3113C11.8811 16.8339 11.8811 16.0568 12.3566 15.5789C12.5872 15.3472 12.8939 15.2198 13.2196 15.2198C13.5454 15.2198 13.852 15.3472 14.0822 15.5789L15.4403 16.9422L19.8288 11.4574C20.2501 10.9311 21.0194 10.8465 21.544 11.2696C21.7979 11.4748 21.9576 11.7667 21.9926 12.092C22.0281 12.4177 21.9348 12.7371 21.731 12.9925Z" fill="white"/>
</g>
<defs>
<clipPath id="clip0_99_5">
<rect width="10" height="9" fill="white" transform="translate(12 11)"/>
</clipPath>
</defs>
</svg>
