<svg width="272" height="269" viewBox="0 0 272 269" fill="none" xmlns="http://www.w3.org/2000/svg">
<path d="M156.818 70.3952L239.29 62.7963C245.906 62.1866 251.395 67.9336 250.409 74.5092C246.876 98.0665 227.675 117.065 202.912 119.348C178.153 121.63 155.804 106.458 148.025 83.9446C145.855 77.6581 150.199 71.0069 156.818 70.397L156.818 70.3952Z" fill="#5158C5"/>
<path d="M151.373 11.3146L233.845 3.71569C240.462 3.10602 245.951 8.85303 244.965 15.4286C241.432 38.9859 222.23 57.9844 197.468 60.2678C172.709 62.5491 150.359 47.3773 142.581 24.864C140.41 18.5775 144.756 11.9243 151.373 11.3146Z" fill="white"/>
<path d="M162.145 128.211L244.617 120.612C251.234 120.002 256.723 125.749 255.737 132.325C252.204 155.882 233.002 174.88 208.24 177.164C183.481 179.445 161.131 164.273 153.353 141.76C151.182 135.474 155.527 128.822 162.145 128.212L162.145 128.211Z" fill="white"/>
<path d="M167.472 186.026L249.944 178.427C256.561 177.817 262.05 183.564 261.064 190.14C257.531 213.697 238.33 232.695 213.567 234.979C188.808 237.26 166.458 222.088 158.68 199.575C156.509 193.288 160.854 186.637 167.473 186.027L167.472 186.026Z" fill="white"/>
<path d="M198.28 226.486C178.836 235.346 156.414 232.952 141.211 220.17C116.098 218.991 84.7096 196.024 62.7134 160.069C46.8059 134.067 39.184 106.782 40.1139 85.0107C31.0507 67.2823 34.2959 45.1732 48.0819 28.8349C52.5028 23.5935 60.578 23.382 64.4958 28.3563L113.332 90.3423C117.25 95.3165 114.998 102.92 108.707 105.787C100.77 109.403 92.3375 111.146 84.103 111.071C87.6333 120.216 92.1946 129.497 97.7751 138.619C106.063 152.166 115.684 163.869 125.801 173.257C127.667 164.816 131.665 156.629 137.652 149.533C142.074 144.293 150.149 144.08 154.068 149.054L202.904 211.042C206.822 216.016 204.571 223.619 198.28 226.486Z" fill="#C78CEA"/>
</svg>
