<svg width="22" height="25" viewBox="0 0 22 25" fill="none" xmlns="http://www.w3.org/2000/svg">
<path d="M10.9941 25C10.935 25 10.8167 25 10.7575 24.9393L4.47671 20.2708C1.425 17.9395 -0.313759 14.0724 0.047004 10.0777L0.407768 3.75182C0.407768 3.56969 0.585192 3.3815 0.768531 3.3815C2.3831 3.3815 3.76109 2.09446 3.82024 0.370325C3.82024 0.188198 3.99766 0 4.181 0H17.7599C17.9373 0 18.1207 0.182127 18.1207 0.370325C18.2389 2.02768 19.5578 3.3815 21.1724 3.3815C21.3498 3.3815 21.5331 3.56362 21.5331 3.75182L21.953 10.0777C22.3138 14.0056 20.575 17.9395 17.4642 20.2708L11.1834 24.9393C11.1834 25 11.0651 25 11.0059 25H10.9941Z" fill="#B78BE6"/>
<path d="M15.7577 9.77112L11.0412 15.5932C10.8459 15.8339 10.5555 15.9819 10.2448 15.9984C10.2246 15.9997 10.2051 16 10.1855 16C9.89508 16 9.61526 15.8856 9.40871 15.6807L7.32101 13.61C6.893 13.1855 6.893 12.4949 7.32101 12.07C7.52856 11.8642 7.80472 11.7507 8.0978 11.7507C8.39088 11.7507 8.66706 11.8642 8.87427 12.07L10.0963 13.2818L14.0459 8.40644C14.4252 7.9385 15.1175 7.86352 15.5896 8.23939C15.818 8.42189 15.9619 8.68135 15.9934 8.9704C16.0252 9.26011 15.9413 9.54389 15.758 9.77079L15.7577 9.77112Z" fill="white"/>
</svg>
