<svg width="250" height="172" viewBox="0 0 250 172" fill="none" xmlns="http://www.w3.org/2000/svg">
<g clip-path="url(#clip0_1_5)">
    <!-- רקע מעוגל -->
    <path d="M25 86C25 130 65 172 125 172C185 172 225 130 225 86C225 42 185 0 125 0C65 0 25 42 25 86Z" fill="#E8E8E5" fill-opacity="0.33"/>
    
    <!-- מטבעות -->
    <g transform="translate(80, 60)">
        <circle cx="0" cy="0" r="30" fill="#4855CE"/>
        <text x="0" cy="0" text-anchor="middle" dominant-baseline="middle" fill="white" font-size="24" font-weight="bold">₪</text>
    </g>
    
    <g transform="translate(130, 90)">
        <circle cx="0" cy="0" r="30" fill="#C78CEA"/>
        <text x="0" cy="0" text-anchor="middle" dominant-baseline="middle" fill="white" font-size="24" font-weight="bold">$</text>
    </g>
    
    <g transform="translate(180, 60)">
        <circle cx="0" cy="0" r="30" fill="#4855CE"/>
        <text x="0" cy="0" text-anchor="middle" dominant-baseline="middle" fill="white" font-size="24" font-weight="bold">€</text>
    </g>
    
    <!-- גרף -->
    <path d="M60 140L100 100L140 120L180 80" stroke="#C78CEA" stroke-width="4" stroke-linecap="round"/>
    
    <!-- נקודות על הגרף -->
    <circle cx="100" cy="100" r="6" fill="#4855CE"/>
    <circle cx="140" cy="120" r="6" fill="#4855CE"/>
    <circle cx="180" cy="80" r="6" fill="#4855CE"/>
</g>

<defs>
<clipPath id="clip0_1_5">
<rect width="250" height="172" fill="white"/>
</clipPath>
</defs>
</svg> 