<?xml version="1.0" encoding="UTF-8"?>
<svg width="120" height="120" viewBox="0 0 120 120" fill="none" xmlns="http://www.w3.org/2000/svg">
  <!-- רקע עיגול -->
  <circle cx="60" cy="60" r="60" fill="#F3F4F1"/>
  
  <!-- מעטפה -->
  <path d="M35 45C35 42.2386 37.2386 40 40 40H80C82.7614 40 85 42.2386 85 45V75C85 77.7614 82.7614 80 80 80H40C37.2386 80 35 77.7614 35 75V45Z" fill="white" stroke="#4754D6" stroke-width="2">
    <animate 
      attributeName="d" 
      dur="2s"
      repeatCount="indefinite"
      values="
        M35 45C35 42.2386 37.2386 40 40 40H80C82.7614 40 85 42.2386 85 45V75C85 77.7614 82.7614 80 80 80H40C37.2386 80 35 77.7614 35 75V45Z;
        M35 50C35 47.2386 37.2386 45 40 45H80C82.7614 45 85 47.2386 85 50V80C85 82.7614 82.7614 85 80 85H40C37.2386 85 35 82.7614 35 80V50Z;
        M35 45C35 42.2386 37.2386 40 40 40H80C82.7614 40 85 42.2386 85 45V75C85 77.7614 82.7614 80 80 80H40C37.2386 80 35 77.7614 35 75V45Z"
    />
  </path>
  
  <!-- קו עליון של המעטפה -->
  <path d="M35 45L60 60L85 45" stroke="#B78BE6" stroke-width="2" stroke-linecap="round">
    <animate
      attributeName="d"
      dur="2s"
      repeatCount="indefinite"
      values="
        M35 45L60 60L85 45;
        M35 50L60 65L85 50;
        M35 45L60 60L85 45"
    />
  </path>
  
  <!-- סימן V -->
  <path d="M52 58L58 64L68 54" stroke="#5158C5" stroke-width="3" stroke-linecap="round" stroke-linejoin="round">
    <animate
      attributeName="stroke-dasharray"
      values="0,150;150,0;150,150"
      dur="2s"
      repeatCount="indefinite"
    />
  </path>
  
  <!-- חצים של תנועה -->
  <g>
    <path d="M90 50L95 55L90 60" stroke="#B78BE6" stroke-width="2" stroke-linecap="round" stroke-linejoin="round">
      <animate
        attributeName="opacity"
        values="1;0;1"
        dur="2s"
        repeatCount="indefinite"
      />
    </path>
    <path d="M90 60L95 65L90 70" stroke="#B78BE6" stroke-width="2" stroke-linecap="round" stroke-linejoin="round">
      <animate
        attributeName="opacity"
        values="0.7;0;0.7"
        dur="2s"
        repeatCount="indefinite"
      />
    </path>
    <path d="M90 70L95 75L90 80" stroke="#B78BE6" stroke-width="2" stroke-linecap="round" stroke-linejoin="round">
      <animate
        attributeName="opacity"
        values="0.4;0;0.4"
        dur="2s"
        repeatCount="indefinite"
      />
    </path>
  </g>
</svg> 