<svg width="1920" height="1080" viewBox="0 0 1920 1080" fill="none" xmlns="http://www.w3.org/2000/svg">
<g clip-path="url(#clip0_100_2)">
<rect width="1920" height="1080" fill="#E4DFD9"/>
<rect x="1695" y="41" width="195" height="82" rx="41" fill="#4856CD"/>
<rect x="242" y="41" width="1435" height="82" rx="41" fill="#F4F4F1"/>
<rect x="44" y="43" width="177" height="82" rx="41" fill="#B78BE6"/>
<path d="M1845.55 67.0261C1845.55 68.8801 1844.84 70.485 1843.51 71.6642C1842.27 72.7563 1840.59 73.3106 1838.52 73.3106H1833.67V96.6652C1833.67 99.0278 1833.03 100.913 1831.79 102.269C1830.49 103.678 1828.75 104.424 1826.76 104.424C1824.77 104.424 1823 103.674 1821.69 102.256C1820.44 100.894 1819.8 99.0133 1819.8 96.6652V73.3106H1814.95C1812.86 73.3106 1811.18 72.748 1809.95 71.6352C1809.86 71.5563 1809.78 71.4753 1809.7 71.3923V96.6652C1809.7 99.0112 1809.06 100.892 1807.8 102.256C1806.49 103.674 1804.73 104.424 1802.71 104.424C1800.69 104.424 1798.99 103.666 1797.69 102.231C1797.06 101.548 1796.59 100.736 1796.28 99.8064C1795.96 98.8783 1795.8 97.8278 1795.8 96.6652V69.8829C1795.76 69.9909 1795.73 70.0967 1795.69 70.2026C1795.54 70.5909 1795.4 70.9936 1795.26 71.4068L1795.24 71.4711L1786.38 95.3593C1786.06 96.2873 1785.73 97.1884 1785.41 98.0375C1785.01 99.0797 1784.53 100.024 1783.98 100.844C1783.29 101.885 1782.37 102.74 1781.25 103.388C1780.06 104.075 1778.66 104.424 1777.09 104.424C1775.52 104.424 1774.14 104.085 1772.96 103.417C1771.83 102.773 1770.89 101.905 1770.18 100.838C1769.63 100.008 1769.15 99.0631 1768.75 98.0354C1768.43 97.1904 1768.1 96.2873 1767.77 95.3551L1759.05 71.6061C1758.91 71.2054 1758.77 70.8089 1758.62 70.4227C1758.41 69.8684 1758.23 69.2663 1758.09 68.6331C1757.93 67.9126 1757.85 67.2794 1757.85 66.7002C1757.85 65.004 1758.52 63.4199 1759.79 62.116C1761.08 60.7915 1762.78 60.0918 1764.68 60.0918C1767.83 60.0918 1769.4 61.7091 1770.05 62.6745C1770.4 63.1936 1770.74 63.8206 1771.07 64.568C1771.4 65.3154 1771.73 66.1832 1772.05 67.1818L1777.26 82.6034L1782.51 66.9908C1782.97 65.6081 1783.32 64.6406 1783.58 64.0448C1784 63.0545 1784.67 62.1742 1785.58 61.433C1786.67 60.5423 1788.05 60.0918 1789.68 60.0918C1790.89 60.0918 1792.03 60.3991 1793.07 61.0074C1794.1 61.6074 1794.91 62.4192 1795.5 63.424C1795.8 63.9306 1796.03 64.4517 1796.18 64.9832C1796.49 63.9306 1796.99 63.0233 1797.67 62.2717C1798.97 60.8454 1800.71 60.0918 1802.71 60.0918C1804.71 60.0918 1806.48 60.8309 1807.79 62.2323C1808.21 62.6787 1808.56 63.1853 1808.84 63.7437C1809.16 63.2164 1809.56 62.7389 1810.05 62.3195C1811.29 61.2544 1812.94 60.7146 1814.95 60.7146H1838.52C1840.62 60.7146 1842.32 61.2835 1843.55 62.4025C1844.86 63.5901 1845.55 65.1887 1845.55 67.0261Z" fill="#F3F4F1"/>
<path d="M1858.47 71.8926H1858.43C1858.39 71.8926 1858.36 71.8967 1858.34 71.8988C1858.33 71.9445 1858.33 72.0088 1858.33 72.094C1858.33 72.1708 1858.33 72.2165 1858.34 72.231C1858.34 72.2372 1858.34 72.2435 1858.35 72.2476C1858.43 72.1625 1858.46 72.1085 1858.48 72.0857C1858.48 72.0005 1858.47 71.9362 1858.47 71.8926ZM1858.28 90.9412C1858.17 90.6589 1858.08 90.5862 1858.08 90.5862C1858.06 90.5779 1858.06 90.5737 1858.05 90.5717H1858.02C1857.92 90.5717 1857.91 90.5717 1857.81 90.663C1857.8 90.6775 1857.79 90.69 1857.78 90.6983C1857.78 90.7108 1857.77 90.7357 1857.77 90.771C1857.77 90.8893 1857.78 90.9661 1857.79 91.0097C1857.86 91.0596 1857.93 91.0886 1858.1 91.0886H1858.34C1858.32 91.0326 1858.3 90.9827 1858.28 90.9412Z" fill="#F3F4F1"/>
<path d="M1864.27 88.4538C1863.7 87.1022 1862.87 86.0351 1861.79 85.2752C1860.66 84.4904 1859.39 84.0918 1858.02 84.0918C1856.24 84.0918 1854.62 84.7479 1853.33 85.9852C1852 87.26 1851.3 88.9147 1851.3 90.7708C1851.3 93.2538 1852.36 94.8068 1853.31 95.6975C1852.09 96.6753 1851.41 98.0746 1851.41 99.6131C1851.41 100.823 1851.83 101.945 1852.64 102.856C1853.53 103.867 1854.78 104.423 1856.17 104.423C1857.69 104.423 1859.22 103.761 1860.71 102.455C1861.94 101.382 1862.97 99.9556 1863.78 98.2179C1864.59 96.4615 1865 94.5639 1865 92.5728C1865 91.0095 1864.75 89.6247 1864.27 88.4538ZM1858.1 91.0884C1857.93 91.0884 1857.86 91.0593 1857.79 91.0095C1857.78 90.9659 1857.77 90.8891 1857.77 90.7708C1857.77 90.7355 1857.78 90.7105 1857.78 90.6981C1857.79 90.6898 1857.8 90.6773 1857.81 90.6628C1857.91 90.5715 1857.92 90.5715 1858.02 90.5715H1858.05C1858.05 90.5715 1858.06 90.5777 1858.08 90.586C1858.08 90.586 1858.17 90.6586 1858.28 90.941C1858.3 90.9825 1858.32 91.0324 1858.34 91.0884H1858.1Z" fill="#F3F4F1"/>
<path d="M1862.97 67.2068C1861.72 66.0337 1860.15 65.415 1858.43 65.415C1856.71 65.415 1855.12 66.0213 1853.88 67.1673C1852.95 68.0185 1851.85 69.5632 1851.85 72.094C1851.85 73.3335 1852.15 74.4774 1852.74 75.4927H1852.74C1853.31 76.4767 1854.1 77.274 1855.07 77.8636C1856.09 78.4823 1857.22 78.7958 1858.43 78.7958C1859.65 78.7958 1861.4 78.4366 1863.03 76.7196C1864.29 75.4034 1864.96 73.8047 1864.96 72.094C1864.96 69.6026 1863.87 68.06 1862.97 67.2068ZM1858.35 72.2476C1858.35 72.2476 1858.34 72.2373 1858.34 72.231C1858.33 72.2165 1858.33 72.1708 1858.33 72.094C1858.33 72.0089 1858.33 71.9445 1858.34 71.8988C1858.36 71.8968 1858.39 71.8926 1858.43 71.8926H1858.47C1858.47 71.9362 1858.48 72.0006 1858.48 72.0857C1858.46 72.1085 1858.43 72.1625 1858.35 72.2476Z" fill="#F3F4F1"/>
<path d="M1760.88 88.7528C1760.66 90.5923 1760.04 92.5044 1759.04 94.4352C1758.01 96.4221 1756.5 98.2346 1754.54 99.8249C1752.6 101.407 1750.16 102.624 1747.3 103.444C1745.22 104.042 1743.22 104.392 1741.36 104.49C1741.02 104.507 1740.68 104.515 1740.34 104.515C1738.75 104.515 1737.21 104.318 1735.74 103.927C1733.96 103.45 1732.2 102.646 1730.53 101.54L1730.51 101.525C1729.04 100.539 1727.68 99.3412 1726.45 97.9626C1725.24 96.5944 1724.17 95.0498 1723.28 93.3702C1722.41 91.7217 1721.68 89.8968 1721.12 87.9431C1720.21 84.7562 1719.85 81.696 1720.06 78.8496C1720.27 75.9347 1721.03 73.2274 1722.32 70.8046C1723.61 68.3775 1725.37 66.2848 1727.55 64.5844C1729.69 62.911 1732.16 61.6654 1734.89 60.8847C1738.22 59.9297 1741.45 59.747 1744.5 60.3408C1747.56 60.9387 1750.15 62.0806 1752.22 63.7374C1754.41 65.4938 1755.83 67.4661 1756.45 69.6045C1756.91 71.2011 1756.75 72.8475 1755.98 74.361C1755.18 75.9659 1753.86 77.0683 1752.16 77.5541C1750.43 78.0503 1748.87 77.9506 1747.54 77.2551C1746.62 76.7797 1745.67 76.0094 1744.54 74.8323C1743.48 73.7423 1742.44 73.0198 1741.44 72.6835C1740.56 72.3907 1739.55 72.4156 1738.35 72.7624C1736.39 73.325 1735.14 74.417 1734.42 76.2025C1733.6 78.2268 1733.68 80.959 1734.64 84.3265C1735.3 86.631 1736.15 88.4331 1737.16 89.6829C1738.03 90.7646 1738.96 91.4394 1739.99 91.7425C1741.06 92.0601 1742.21 92.0331 1743.51 91.6615C1744.9 91.2629 1745.92 90.638 1746.62 89.7515C1747.33 88.8525 1747.73 87.6857 1747.85 86.1826C1747.9 84.8331 1748.14 83.6227 1748.54 82.5888C1749 81.422 1750.07 79.8815 1752.57 79.1652C1754.23 78.6898 1755.91 78.8704 1757.43 79.6863H1757.44C1758.99 80.5209 1760.07 81.8725 1760.56 83.5936C1761 85.1299 1761.11 86.8656 1760.88 88.7528Z" fill="#F3F4F1"/>
<path d="M1140.28 85.2955V85.1974C1140.29 84.1574 1140.4 83.3298 1140.61 82.7145C1140.81 82.0992 1141.11 81.601 1141.49 81.2198C1141.87 80.8387 1142.33 80.4875 1142.86 80.1662C1143.18 79.9702 1143.47 79.7388 1143.73 79.4719C1143.98 79.1997 1144.18 78.8866 1144.33 78.5327C1144.48 78.1787 1144.56 77.7867 1144.56 77.3565C1144.56 76.8229 1144.43 76.3601 1144.18 75.968C1143.93 75.576 1143.6 75.2738 1143.18 75.0614C1142.76 74.8491 1142.29 74.7429 1141.78 74.7429C1141.34 74.7429 1140.91 74.8355 1140.49 75.0206C1140.08 75.2057 1139.73 75.497 1139.45 75.8945C1139.18 76.292 1139.02 76.812 1138.97 77.4545H1136.91C1136.96 76.5289 1137.2 75.7366 1137.63 75.0778C1138.07 74.4189 1138.65 73.9152 1139.37 73.5668C1140.1 73.2183 1140.9 73.044 1141.78 73.044C1142.74 73.044 1143.57 73.2346 1144.28 73.6158C1145 73.9969 1145.55 74.5196 1145.93 75.1839C1146.32 75.8482 1146.52 76.6051 1146.52 77.4545C1146.52 78.0535 1146.43 78.5953 1146.24 79.0799C1146.06 79.5645 1145.8 79.9974 1145.46 80.3786C1145.12 80.7597 1144.71 81.0973 1144.23 81.3913C1143.75 81.6908 1143.37 82.0066 1143.08 82.3388C1142.79 82.6655 1142.58 83.0548 1142.45 83.5067C1142.32 83.9587 1142.25 84.5223 1142.24 85.1974V85.2955H1140.28ZM1141.33 90.1307C1140.92 90.1307 1140.58 89.9864 1140.29 89.6978C1140 89.4092 1139.86 89.0634 1139.86 88.6605C1139.86 88.2576 1140 87.9118 1140.29 87.6232C1140.58 87.3346 1140.92 87.1903 1141.33 87.1903C1141.73 87.1903 1142.07 87.3346 1142.36 87.6232C1142.65 87.9118 1142.8 88.2576 1142.8 88.6605C1142.8 88.9273 1142.73 89.1723 1142.59 89.3956C1142.46 89.6188 1142.28 89.7985 1142.06 89.9347C1141.84 90.0653 1141.6 90.1307 1141.33 90.1307ZM1151.68 76.2202V90H1149.61V76.2202H1151.68ZM1160.74 81.5547V90H1154.44V88.0908H1158.67V82.1387C1158.67 80.9258 1158.61 80.0685 1158.49 79.5669C1158.37 79.0503 1158.17 78.6834 1157.87 78.4663C1157.57 78.2417 1157.15 78.1294 1156.6 78.1294H1155.08V76.2202H1156.53C1157.73 76.2202 1158.6 76.3849 1159.16 76.7144C1159.71 77.0513 1160.11 77.6016 1160.36 78.3652C1160.61 79.1214 1160.74 80.1846 1160.74 81.5547ZM1173.81 81.9028C1173.81 80.5402 1173.54 79.5706 1172.98 78.9941C1172.44 78.4176 1171.47 78.1294 1170.1 78.1294H1166.61V90H1164.55V76.2202H1170.12C1172.18 76.2202 1173.66 76.6619 1174.55 77.5454C1175.45 78.4289 1175.89 79.8888 1175.89 81.9253V90H1173.81V81.9028ZM1184.84 81.5547V90H1178.54V88.0908H1182.77V82.1387C1182.77 80.9258 1182.72 80.0685 1182.6 79.5669C1182.48 79.0503 1182.27 78.6834 1181.97 78.4663C1181.67 78.2417 1181.25 78.1294 1180.7 78.1294H1179.18V76.2202H1180.63C1181.83 76.2202 1182.7 76.3849 1183.26 76.7144C1183.81 77.0513 1184.21 77.6016 1184.46 78.3652C1184.71 79.1214 1184.84 80.1846 1184.84 81.5547ZM1190.51 85.4741L1189.61 90H1187.44L1188.38 85.519C1188.65 84.2313 1188.9 83.3254 1189.12 82.8013C1189.34 82.2697 1189.63 81.8392 1189.96 81.5098C1190.31 81.1803 1190.77 80.8996 1191.34 80.6675L1188.1 76.2202H1190.65L1195.71 83.1943C1196.27 82.6702 1196.72 82.0376 1197.05 81.2964C1197.39 80.5477 1197.61 79.6904 1197.71 78.7246L1197.97 76.2202H1200.1L1199.85 78.6797C1199.76 79.5033 1199.61 80.2257 1199.4 80.8472C1199.25 81.2739 1199.07 81.682 1198.86 82.0713C1198.65 82.4531 1198.38 82.8499 1198.05 83.2617C1197.73 83.6735 1197.31 84.134 1196.79 84.6431L1200.84 90H1198.22L1192.29 81.9478C1191.69 82.2397 1191.26 82.7451 1191.01 83.4639C1190.93 83.651 1190.85 83.9131 1190.77 84.25C1190.7 84.5869 1190.61 84.995 1190.51 85.4741ZM1211.63 76.2202V83.4639H1209.56V76.2202H1211.63ZM1222.32 75.9956C1224.13 75.9956 1225.45 76.5496 1226.28 77.6577C1227.12 78.7583 1227.54 80.5103 1227.54 82.9136V90H1220.78V88.0908H1225.45V83.1719C1225.45 81.3376 1225.21 80.0049 1224.74 79.1738C1224.27 78.3428 1223.47 77.9272 1222.34 77.9272C1221.33 77.9272 1220.5 78.384 1219.85 79.2974C1219.19 80.2257 1218.59 81.8392 1218.04 84.1377L1216.63 90H1214.41L1215.95 83.9692C1216.12 83.2655 1216.3 82.6291 1216.48 82.0601C1216.66 81.491 1216.83 80.9857 1217.01 80.5439L1214.2 76.2202H1216.63L1218.04 78.5C1218.62 77.6165 1219.25 76.9801 1219.91 76.5908C1220.58 76.194 1221.38 75.9956 1222.32 75.9956Z" fill="#4754D6"/>
<path d="M1004.64 87.8662C1004.38 88.6224 1003.98 89.1689 1003.43 89.5059C1002.87 89.8353 1002 90 1000.81 90H1000.69V88.0908H1000.88C1001.39 88.0908 1001.8 87.9935 1002.11 87.7988C1002.41 87.6042 1002.62 87.3084 1002.75 86.9116C1002.88 86.5073 1002.94 85.8971 1002.94 85.0811V78.1294H1000.81V76.2202H1008.25C1010.32 76.2202 1011.8 76.6619 1012.7 77.5454C1013.6 78.4214 1014.05 79.8813 1014.05 81.9253V90H1011.98V81.9028C1011.98 80.5252 1011.7 79.5519 1011.14 78.9829C1010.59 78.4139 1009.62 78.1294 1008.23 78.1294H1005.01V84.6655C1005.01 86.0431 1004.89 87.11 1004.64 87.8662ZM1019.92 76.2202V90H1017.86V76.2202H1019.92ZM1025.9 76.2202V83.4639H1023.83V76.2202H1025.9ZM1034.96 81.5547V90H1028.66V88.0908H1032.89V82.1387C1032.89 80.9258 1032.83 80.0685 1032.71 79.5669C1032.59 79.0503 1032.38 78.6834 1032.09 78.4663C1031.79 78.2417 1031.37 78.1294 1030.82 78.1294H1029.3V76.2202H1030.75C1031.95 76.2202 1032.82 76.3849 1033.38 76.7144C1033.93 77.0513 1034.33 77.6016 1034.58 78.3652C1034.83 79.1214 1034.96 80.1846 1034.96 81.5547ZM1049.76 88.0908V90H1037.73V88.0908H1046.2V81.9028C1046.2 80.5252 1045.92 79.5519 1045.36 78.9829C1044.81 78.4139 1043.84 78.1294 1042.47 78.1294H1038.26V76.2202H1042.5C1044.56 76.2202 1046.04 76.6619 1046.93 77.5454C1047.82 78.4289 1048.27 79.8888 1048.27 81.9253V88.0908H1049.76ZM1055.22 87.8662C1054.97 88.6224 1054.56 89.1689 1054.01 89.5059C1053.45 89.8353 1052.58 90 1051.39 90H1051.27V88.0908H1051.46C1051.97 88.0908 1052.39 87.9935 1052.69 87.7988C1052.99 87.6042 1053.21 87.3084 1053.33 86.9116C1053.46 86.5073 1053.52 85.8971 1053.52 85.0811V78.1294H1051.39V76.2202H1058.84C1060.9 76.2202 1062.39 76.6619 1063.28 77.5454C1064.18 78.4214 1064.63 79.8813 1064.63 81.9253V90H1062.56V81.9028C1062.56 80.5252 1062.28 79.5519 1061.72 78.9829C1061.17 78.4139 1060.2 78.1294 1058.81 78.1294H1055.59V84.6655C1055.59 86.0431 1055.47 87.11 1055.22 87.8662Z" fill="#4754D6"/>
<path d="M782.638 87.8662C782.384 88.6224 781.979 89.1689 781.425 89.5059C780.871 89.8353 779.999 90 778.809 90H778.685V88.0908H778.876C779.393 88.0908 779.804 87.9935 780.111 87.7988C780.411 87.6042 780.624 87.3084 780.751 86.9116C780.879 86.5073 780.942 85.8971 780.942 85.0811V78.1294H778.809V76.2202H786.254C788.321 76.2202 789.803 76.6619 790.702 77.5454C791.6 78.4214 792.049 79.8813 792.049 81.9253V90H789.983V81.9028C789.983 80.5252 789.702 79.5519 789.141 78.9829C788.587 78.4139 787.617 78.1294 786.232 78.1294H783.009V84.6655C783.009 86.0431 782.885 87.11 782.638 87.8662ZM797.923 76.2202V90H795.856V76.2202H797.923ZM812.826 88.0908V90H800.798V88.0908H809.266V81.9028C809.266 80.5252 808.985 79.5519 808.423 78.9829C807.869 78.4139 806.907 78.1294 805.537 78.1294H801.326V76.2202H805.56C807.626 76.2202 809.105 76.6619 809.996 77.5454C810.887 78.4289 811.332 79.8888 811.332 81.9253V88.0908H812.826ZM817.666 76.2202V90H815.6V76.2202H817.666ZM831.906 88.6074C831.39 88.9518 830.746 89.2326 829.975 89.4497C829.211 89.6668 828.253 89.8278 827.1 89.9326C825.947 90.0374 824.52 90.0973 822.821 90.1123L820.193 76.2202H822.338L823.719 83.3066L824.539 83.1494C824.988 83.0446 825.359 82.9098 825.651 82.7451C825.943 82.5729 826.175 82.3333 826.347 82.0264C826.489 81.7868 826.598 81.491 826.673 81.1392C826.748 80.7873 826.804 80.368 826.841 79.8813L827.122 76.2202H829.256L828.908 79.9038C828.855 80.5252 828.792 81.0643 828.717 81.521C828.642 81.9702 828.552 82.3333 828.447 82.6104C828.26 83.1719 827.979 83.6061 827.605 83.9131C827.231 84.2126 826.609 84.4784 825.741 84.7104L824.056 85.1035L824.606 88.001H824.876C826.381 88.001 827.586 87.9149 828.492 87.7427C829.398 87.563 830.113 87.286 830.637 86.9116C830.989 86.6571 831.285 86.3426 831.524 85.9683C831.764 85.5939 831.966 85.0998 832.131 84.4858C832.296 83.8719 832.434 83.082 832.546 82.1162L833.254 76.2202H835.421L834.703 82.0376C834.553 83.3403 834.358 84.4147 834.119 85.2607C833.879 86.0993 833.58 86.7806 833.22 87.3047C832.868 87.8213 832.43 88.2555 831.906 88.6074ZM840.587 87.8662C840.333 88.6224 839.929 89.1689 839.375 89.5059C838.82 89.8353 837.948 90 836.758 90H836.634V88.0908H836.825C837.342 88.0908 837.754 87.9935 838.061 87.7988C838.36 87.6042 838.573 87.3084 838.701 86.9116C838.828 86.5073 838.892 85.8971 838.892 85.0811V78.1294H836.758V76.2202H844.204C846.27 76.2202 847.752 76.6619 848.651 77.5454C849.549 78.4214 849.999 79.8813 849.999 81.9253V90H847.932V81.9028C847.932 80.5252 847.651 79.5519 847.09 78.9829C846.536 78.4139 845.566 78.1294 844.181 78.1294H840.958V84.6655C840.958 86.0431 840.834 87.11 840.587 87.8662ZM856.344 76.2202V90H854.277V76.2202H856.344ZM869.405 87.8662C869.15 88.6224 868.746 89.1689 868.192 89.5059C867.638 89.8353 866.766 90 865.575 90H865.452V88.0908H865.643C866.159 88.0908 866.571 87.9935 866.878 87.7988C867.177 87.6042 867.391 87.3084 867.518 86.9116C867.645 86.5073 867.709 85.8971 867.709 85.0811V78.1294H865.575V76.2202H873.021C875.087 76.2202 876.57 76.6619 877.468 77.5454C878.367 78.4214 878.816 79.8813 878.816 81.9253V90H876.75V81.9028C876.75 80.5252 876.469 79.5519 875.907 78.9829C875.353 78.4139 874.384 78.1294 872.999 78.1294H869.775V84.6655C869.775 86.0431 869.652 87.11 869.405 87.8662ZM884.689 76.2202V90H882.623V76.2202H884.689ZM888.811 88.1807C890.249 87.6491 891.476 86.9753 892.495 86.1592C893.52 85.3506 894.299 84.4671 894.831 83.5088C895.37 82.5505 895.639 81.5771 895.639 80.5889C895.639 78.9492 894.763 78.1294 893.011 78.1294H887.43V71.3013H889.496V76.2202H893.225C896.227 76.2202 897.728 77.5566 897.728 80.2295C897.728 81.6071 897.399 82.9285 896.74 84.1938C896.081 85.4591 895.153 86.5972 893.955 87.6079C892.532 88.8208 890.818 89.7866 888.811 90.5054V88.1807ZM902.187 85.4741L901.288 90H899.109L900.053 85.519C900.322 84.2313 900.569 83.3254 900.794 82.8013C901.019 82.2697 901.299 81.8392 901.636 81.5098C901.981 81.1803 902.441 80.8996 903.018 80.6675L899.772 76.2202H902.321L907.386 83.1943C907.948 82.6702 908.393 82.0376 908.723 81.2964C909.06 80.5477 909.28 79.6904 909.385 78.7246L909.644 76.2202H911.777L911.519 78.6797C911.437 79.5033 911.287 80.2257 911.07 80.8472C910.92 81.2739 910.74 81.682 910.531 82.0713C910.321 82.4531 910.052 82.8499 909.722 83.2617C909.4 83.6735 908.981 84.134 908.464 84.6431L912.519 90H909.891L903.961 81.9478C903.362 82.2397 902.935 82.7451 902.681 83.4639C902.606 83.651 902.527 83.9131 902.445 84.25C902.37 84.5869 902.284 84.995 902.187 85.4741ZM925.568 88.6074C925.052 88.9518 924.408 89.2326 923.637 89.4497C922.873 89.6668 921.915 89.8278 920.762 89.9326C919.609 90.0374 918.182 90.0973 916.483 90.1123L913.855 76.2202H916L917.381 83.3066L918.201 83.1494C918.65 83.0446 919.021 82.9098 919.313 82.7451C919.605 82.5729 919.837 82.3333 920.009 82.0264C920.152 81.7868 920.26 81.491 920.335 81.1392C920.41 80.7873 920.466 80.368 920.503 79.8813L920.784 76.2202H922.918L922.57 79.9038C922.517 80.5252 922.454 81.0643 922.379 81.521C922.304 81.9702 922.214 82.3333 922.109 82.6104C921.922 83.1719 921.641 83.6061 921.267 83.9131C920.893 84.2126 920.271 84.4784 919.403 84.7104L917.718 85.1035L918.269 88.001H918.538C920.043 88.001 921.248 87.9149 922.154 87.7427C923.06 87.563 923.775 87.286 924.299 86.9116C924.651 86.6571 924.947 86.3426 925.187 85.9683C925.426 85.5939 925.628 85.0998 925.793 84.4858C925.958 83.8719 926.096 83.082 926.208 82.1162L926.916 76.2202H929.083L928.365 82.0376C928.215 83.3403 928.02 84.4147 927.781 85.2607C927.541 86.0993 927.242 86.7806 926.882 87.3047C926.53 87.8213 926.092 88.2555 925.568 88.6074Z" fill="#4754D6"/>
<path d="M692.454 90V73.2727H703.725V76.1886H695.99V80.1744H703.145V83.0902H695.99V87.0842H703.758V90H692.454ZM720.528 73.2727V90H717.473L710.196 79.4719H710.073V90H706.537V73.2727H709.641L716.861 83.7926H717.008V73.2727H720.528Z" fill="#4754D6"/>
<path d="M100.41 83.9253V92H97.3667V83.9028C97.3667 82.7424 97.1159 81.9338 96.6143 81.4771C96.1201 81.0129 95.2853 80.7808 94.1099 80.7808H89.438V78.063H94.2896C95.7645 78.063 96.9474 78.2614 97.8384 78.6582C98.7368 79.0475 99.3882 79.6727 99.7925 80.5337C100.204 81.3872 100.41 82.5177 100.41 83.9253ZM115.987 90.6187C115.373 90.9631 114.617 91.2476 113.718 91.4722C112.827 91.6893 111.715 91.8503 110.383 91.9551C109.058 92.0599 107.437 92.1123 105.52 92.1123L102.892 78.063H106.07L107.294 84.7788L108.114 84.6216C108.623 84.5243 108.998 84.3595 109.237 84.1274C109.484 83.8879 109.672 83.5322 109.799 83.0605C109.859 82.8285 109.915 82.5065 109.967 82.0947C110.027 81.6755 110.083 81.1663 110.136 80.5674L110.304 78.063H113.404L113.067 81.9038C113.022 82.4279 112.958 82.8996 112.876 83.3188C112.794 83.7381 112.689 84.1012 112.562 84.4082C112.314 85.0221 111.966 85.5013 111.517 85.8457C111.075 86.1901 110.372 86.4784 109.406 86.7104L107.721 87.1035L108.182 89.4058H108.451C109.387 89.4058 110.214 89.3683 110.933 89.2935C111.659 89.2111 112.277 89.0876 112.786 88.9229C113.467 88.7132 114.029 88.4212 114.471 88.0469C114.912 87.665 115.261 87.1597 115.515 86.5308C115.77 85.8944 115.949 85.0895 116.054 84.1162L116.762 78.063H119.895L119.176 84.0376C119.027 85.3254 118.817 86.3923 118.547 87.2383C118.285 88.0843 117.945 88.7731 117.525 89.3047C117.114 89.8288 116.601 90.2668 115.987 90.6187ZM134.562 82.6899C134.562 84.1125 134.274 85.4414 133.697 86.6768C133.121 87.9121 132.275 89.0202 131.159 90.001C130.051 90.9818 128.692 91.8016 127.083 92.4604V89.2373C128.49 88.5785 129.576 87.7025 130.339 86.6094C131.111 85.5088 131.496 84.3221 131.496 83.0493C131.496 82.2108 131.286 81.623 130.867 81.2861C130.448 80.9492 129.714 80.7808 128.666 80.7808H122.164V78.063H129.104C131.006 78.063 132.391 78.4261 133.259 79.1523C134.128 79.8711 134.562 81.0503 134.562 82.6899ZM125.769 83.4424V96.3237H122.736V83.4424H125.769ZM146.141 78.063V92H143.108V78.063H146.141ZM159.505 83.9253V92H156.461V83.9028C156.461 82.7424 156.211 81.9338 155.709 81.4771C155.215 81.0129 154.38 80.7808 153.205 80.7808H148.533V78.063H153.384C154.859 78.063 156.042 78.2614 156.933 78.6582C157.832 79.0475 158.483 79.6727 158.887 80.5337C159.299 81.3872 159.505 82.5177 159.505 83.9253ZM174.138 90.0459V92H162.357V89.2822H169.904L161.459 78.063H165.098L169.354 83.8354C169.848 83.5959 170.204 83.2365 170.421 82.7573C170.646 82.2782 170.803 81.5781 170.893 80.6572L171.14 78.063H174.25L174.015 80.6797C173.917 81.7129 173.753 82.5215 173.521 83.1055C173.288 83.6745 172.955 84.1574 172.521 84.5542C172.087 84.951 171.492 85.3029 170.735 85.6099L174.138 90.0459Z" fill="white"/>
<path d="M2002 503.679V1142.32C2002 1236.9 1905.84 1301.02 1818.54 1264.69C1645.6 1192.73 1524 1022.07 1524 822.998C1524 623.93 1645.6 453.279 1818.54 381.312C1905.84 344.988 2002 409.094 2002 503.679Z" fill="white" fill-opacity="0.27"/>
<path d="M826.552 242.636L825.628 267.636H817.532L816.608 242.636H826.552ZM821.58 279.568C820.207 279.568 819.029 279.089 818.047 278.13C817.076 277.159 816.597 275.982 816.608 274.597C816.597 273.247 817.076 272.093 818.047 271.134C819.029 270.175 820.207 269.696 821.58 269.696C822.882 269.696 824.03 270.175 825.025 271.134C826.031 272.093 826.54 273.247 826.552 274.597C826.54 275.52 826.297 276.36 825.824 277.118C825.362 277.864 824.758 278.461 824.013 278.911C823.267 279.349 822.456 279.568 821.58 279.568ZM855.28 261.446V279H848.664V261.397C848.664 258.875 848.119 257.117 847.028 256.124C845.954 255.115 844.139 254.61 841.584 254.61H831.428V248.702H841.975C845.181 248.702 847.753 249.133 849.689 249.996C851.643 250.842 853.059 252.201 853.938 254.073C854.833 255.929 855.28 258.386 855.28 261.446ZM889.533 273.092V279H861.286V273.092H879.694V262.301C879.694 259.452 879.157 257.459 878.083 256.319C877.025 255.18 875.21 254.61 872.639 254.61H862.434V248.702H872.736C877.489 248.702 880.931 249.695 883.063 251.681C885.212 253.666 886.286 256.922 886.286 261.446V273.092H889.533ZM913.801 254.61V279H907.209V254.61H890.803V248.702H917.561V254.61H913.801ZM937.971 260.641V279H922.175V273.092H931.379V261.91C931.379 259.713 931.232 258.142 930.939 257.198C930.646 256.271 930.158 255.611 929.475 255.221C928.791 254.814 927.79 254.61 926.472 254.61H923.566V248.702H927.717C930.516 248.702 932.608 249.076 933.991 249.825C935.375 250.574 936.384 251.803 937.019 253.512C937.653 255.221 937.971 257.597 937.971 260.641ZM962.8 248.702V279H956.208V248.702H962.8ZM977.009 270.162L975.495 279H968.659L970.71 268.893C971.296 266.093 971.833 264.099 972.321 262.911C972.81 261.707 973.412 260.755 974.128 260.055C974.86 259.339 975.869 258.704 977.155 258.15L970.1 248.702H978.107L987.995 262.398C989.021 261.471 989.802 260.38 990.339 259.127C990.876 257.874 991.258 256.181 991.486 254.049L991.999 248.702H998.737L998.151 254.488C997.972 256.132 997.647 257.589 997.175 258.858C996.849 259.721 996.451 260.535 995.979 261.3C995.507 262.049 994.888 262.846 994.123 263.692C993.374 264.522 992.382 265.491 991.145 266.598L1000.25 279H992.292L980.109 262.105C979.247 262.61 978.628 263.342 978.254 264.303C978.075 264.791 977.88 265.523 977.668 266.5C977.456 267.477 977.237 268.697 977.009 270.162ZM1012.02 248.702V279H1005.43V248.702H1012.02ZM1046.52 273.092V279H1018.27V273.092H1036.68V262.301C1036.68 259.452 1036.14 257.459 1035.07 256.319C1034.01 255.18 1032.19 254.61 1029.62 254.61H1019.42V248.702H1029.72C1034.47 248.702 1037.91 249.695 1040.05 251.681C1042.19 253.666 1043.27 256.922 1043.27 261.446V273.092H1046.52Z" fill="#4B4553"/>
<path d="M677.185 312.875C677.185 309.922 677.568 307.207 678.333 304.73C679.107 302.246 680.208 299.961 681.638 297.875H684.076C683.513 298.648 682.986 299.602 682.494 300.734C682.009 301.859 681.583 303.098 681.216 304.449C680.849 305.793 680.56 307.184 680.349 308.621C680.146 310.059 680.044 311.477 680.044 312.875C680.044 314.734 680.224 316.621 680.583 318.535C680.943 320.449 681.427 322.227 682.037 323.867C682.646 325.508 683.326 326.844 684.076 327.875H681.638C680.208 325.789 679.107 323.508 678.333 321.031C677.568 318.547 677.185 315.828 677.185 312.875ZM690.172 323.188C689.594 323.188 689.098 322.98 688.684 322.566C688.27 322.152 688.063 321.656 688.063 321.078C688.063 320.5 688.27 320.004 688.684 319.59C689.098 319.176 689.594 318.969 690.172 318.969C690.75 318.969 691.247 319.176 691.661 319.59C692.075 320.004 692.282 320.5 692.282 321.078C692.282 321.461 692.184 321.812 691.989 322.133C691.801 322.453 691.547 322.711 691.227 322.906C690.915 323.094 690.563 323.188 690.172 323.188ZM690.172 309.828C689.594 309.828 689.098 309.621 688.684 309.207C688.27 308.793 688.063 308.297 688.063 307.719C688.063 307.141 688.27 306.645 688.684 306.23C689.098 305.816 689.594 305.609 690.172 305.609C690.75 305.609 691.247 305.816 691.661 306.23C692.075 306.645 692.282 307.141 692.282 307.719C692.282 308.102 692.184 308.453 691.989 308.773C691.801 309.094 691.547 309.352 691.227 309.547C690.915 309.734 690.563 309.828 690.172 309.828ZM722.283 311.415V323H719.302V311.382C719.302 309.406 718.899 308.009 718.094 307.193C717.299 306.376 715.918 305.968 713.953 305.968H706.444V303.229H714.001C715.978 303.229 717.573 303.508 718.787 304.067C720 304.615 720.887 305.49 721.445 306.693C722.004 307.886 722.283 309.459 722.283 311.415ZM709.731 310.158V323H706.766V310.158H709.731ZM730.001 303.229V313.622H727.037V303.229H730.001ZM734.143 320.39C737.118 320.39 739.449 320.116 741.136 319.568L735.158 303.229H738.429L743.714 318.311C744.724 317.591 745.535 316.63 746.147 315.427C746.77 314.213 747.221 312.623 747.5 310.657C747.791 308.691 747.936 306.215 747.936 303.229H751.045C751.045 308.192 750.519 312.081 749.466 314.895C748.757 316.764 747.764 318.311 746.485 319.536C745.207 320.75 743.558 321.684 741.539 322.339C739.53 322.984 737.064 323.381 734.143 323.532V320.39ZM770.591 320.261V323H753.333V320.261H765.483V311.382C765.483 309.406 765.08 308.009 764.274 307.193C763.479 306.376 762.099 305.968 760.133 305.968H754.091V303.229H760.166C763.13 303.229 765.252 303.863 766.53 305.13C767.809 306.398 768.448 308.493 768.448 311.415V320.261H770.591ZM787.494 303.229V323H784.529V303.229H787.494ZM795.776 316.506L794.487 323H791.361L792.714 316.571C793.101 314.723 793.456 313.423 793.778 312.671C794.1 311.909 794.503 311.291 794.986 310.818C795.48 310.346 796.141 309.943 796.968 309.61L792.312 303.229H795.969L803.236 313.235C804.042 312.483 804.681 311.576 805.154 310.512C805.637 309.438 805.954 308.208 806.104 306.822L806.475 303.229H809.537L809.166 306.758C809.048 307.939 808.833 308.976 808.521 309.868C808.307 310.48 808.049 311.065 807.748 311.624C807.447 312.172 807.061 312.741 806.588 313.332C806.126 313.923 805.524 314.583 804.783 315.314L810.6 323H806.83L798.322 311.447C797.462 311.866 796.85 312.591 796.485 313.622C796.377 313.891 796.265 314.267 796.146 314.75C796.039 315.233 795.916 315.819 795.776 316.506ZM838.589 311.415V323H835.608V311.382C835.608 309.406 835.205 308.009 834.399 307.193C833.604 306.376 832.224 305.968 830.258 305.968H822.75V303.229H830.307C832.283 303.229 833.878 303.508 835.092 304.067C836.306 304.615 837.192 305.49 837.751 306.693C838.31 307.886 838.589 309.459 838.589 311.415ZM826.037 310.158V323H823.072V310.158H826.037ZM843.648 320.39C845.711 319.627 847.473 318.66 848.934 317.489C850.405 316.329 851.522 315.062 852.285 313.687C853.059 312.312 853.445 310.915 853.445 309.497C853.445 307.145 852.188 305.968 849.675 305.968H841.667V296.171H844.631V303.229H849.981C854.289 303.229 856.442 305.146 856.442 308.981C856.442 310.958 855.97 312.854 855.024 314.669C854.079 316.485 852.747 318.118 851.028 319.568C848.987 321.308 846.527 322.694 843.648 323.725V320.39ZM863.516 316.506L862.227 323H859.101L860.455 316.571C860.841 314.723 861.196 313.423 861.518 312.671C861.84 311.909 862.243 311.291 862.727 310.818C863.221 310.346 863.881 309.943 864.708 309.61L860.052 303.229H863.709L870.977 313.235C871.782 312.483 872.421 311.576 872.894 310.512C873.377 309.438 873.694 308.208 873.845 306.822L874.215 303.229H877.277L876.906 306.758C876.788 307.939 876.573 308.976 876.262 309.868C876.047 310.48 875.789 311.065 875.488 311.624C875.188 312.172 874.801 312.741 874.328 313.332C873.866 313.923 873.265 314.583 872.523 315.314L878.34 323H874.57L866.062 311.447C865.203 311.866 864.59 312.591 864.225 313.622C864.118 313.891 864.005 314.267 863.887 314.75C863.779 315.233 863.656 315.819 863.516 316.506ZM897.064 321.002C896.323 321.496 895.399 321.899 894.292 322.21C893.197 322.522 891.822 322.753 890.167 322.903C888.513 323.054 886.467 323.14 884.028 323.161L880.258 303.229H883.335L885.317 313.396L886.494 313.171C887.138 313.021 887.67 312.827 888.089 312.591C888.508 312.344 888.841 312 889.088 311.56C889.292 311.216 889.448 310.792 889.555 310.287C889.663 309.782 889.743 309.18 889.797 308.482L890.2 303.229H893.261L892.762 308.514C892.687 309.406 892.595 310.179 892.488 310.834C892.38 311.479 892.251 312 892.101 312.397C891.833 313.203 891.43 313.826 890.893 314.267C890.355 314.696 889.464 315.078 888.218 315.411L885.801 315.975L886.59 320.132H886.977C889.136 320.132 890.866 320.008 892.166 319.761C893.465 319.503 894.491 319.106 895.243 318.569C895.748 318.204 896.172 317.752 896.516 317.215C896.86 316.678 897.15 315.969 897.386 315.088C897.623 314.208 897.821 313.074 897.982 311.688L898.998 303.229H902.107L901.076 311.576C900.861 313.445 900.582 314.986 900.238 316.2C899.895 317.403 899.465 318.381 898.949 319.133C898.444 319.874 897.816 320.497 897.064 321.002ZM915.933 320.39C917.995 319.627 919.757 318.66 921.218 317.489C922.689 316.329 923.807 315.062 924.569 313.687C925.343 312.312 925.729 310.915 925.729 309.497C925.729 307.145 924.473 305.968 921.959 305.968H913.951V296.171H916.916V303.229H922.265C926.573 303.229 928.727 305.146 928.727 308.981C928.727 310.958 928.254 312.854 927.309 314.669C926.363 316.485 925.031 318.118 923.312 319.568C921.271 321.308 918.812 322.694 915.933 323.725V320.39ZM945.162 313.396C945.162 319.799 942.133 323 936.074 323H930.934V320.261H936.139C938.19 320.261 939.705 319.691 940.683 318.553C941.66 317.414 942.149 315.706 942.149 313.429V312.8C942.149 310.512 941.655 308.804 940.667 307.676C939.689 306.538 938.18 305.968 936.139 305.968H930.934V303.229H936.074C942.133 303.229 945.162 306.43 945.162 312.833V313.396ZM966.238 320.261V323H948.981V320.261H961.13V311.382C961.13 309.406 960.728 308.009 959.922 307.193C959.127 306.376 957.747 305.968 955.781 305.968H949.738V303.229H955.813C958.778 303.229 960.899 303.863 962.178 305.13C963.456 306.398 964.095 308.493 964.095 311.415V320.261H966.238ZM991.681 311.415V329.204H988.7V311.382C988.7 309.427 988.303 308.036 987.508 307.209C986.724 306.382 985.343 305.968 983.367 305.968H977.324V303.229H983.399C985.375 303.229 986.971 303.508 988.185 304.067C989.398 304.615 990.285 305.49 990.843 306.693C991.402 307.886 991.681 309.459 991.681 311.415ZM996.757 320.39C998.819 319.627 1000.58 318.66 1002.04 317.489C1003.51 316.329 1004.63 315.062 1005.39 313.687C1006.17 312.312 1006.55 310.915 1006.55 309.497C1006.55 307.145 1005.3 305.968 1002.78 305.968H994.775V296.171H997.74V303.229H1003.09C1007.4 303.229 1009.55 305.146 1009.55 308.981C1009.55 310.958 1009.08 312.854 1008.13 314.669C1007.19 316.485 1005.86 318.118 1004.14 319.568C1002.1 321.308 999.636 322.694 996.757 323.725V320.39ZM1036.09 311.415V323H1033.11V311.382C1033.11 309.427 1032.71 308.036 1031.92 307.209C1031.13 306.382 1029.75 305.968 1027.77 305.968H1021.73V303.229H1027.81C1029.78 303.229 1031.38 303.508 1032.59 304.067C1033.81 304.615 1034.69 305.49 1035.25 306.693C1035.81 307.886 1036.09 309.459 1036.09 311.415ZM1044.5 303.229V323H1041.54V303.229H1044.5ZM1053.73 312.075V323H1050.77V312.204C1050.77 311.065 1050.98 310.142 1051.41 309.433C1051.85 308.724 1052.59 308.197 1053.64 307.854L1048.13 306V302.939L1057.5 306.097V309.175L1055.75 308.579C1055.09 308.933 1054.65 309.245 1054.43 309.513C1053.96 310.05 1053.73 310.904 1053.73 312.075ZM1058.63 320.39C1061.61 320.39 1063.94 320.116 1065.62 319.568L1059.65 303.229H1062.92L1068.2 318.311C1069.21 317.591 1070.02 316.63 1070.64 315.427C1071.26 314.213 1071.71 312.623 1071.99 310.657C1072.28 308.691 1072.42 306.215 1072.42 303.229H1075.53C1075.53 308.192 1075.01 312.081 1073.96 314.895C1073.25 316.764 1072.25 318.311 1070.97 319.536C1069.7 320.75 1068.05 321.684 1066.03 322.339C1064.02 322.984 1061.55 323.381 1058.63 323.532V320.39ZM1079.97 320.39C1082.03 319.627 1083.79 318.66 1085.25 317.489C1086.72 316.329 1087.84 315.062 1088.6 313.687C1089.38 312.312 1089.76 310.915 1089.76 309.497C1089.76 307.145 1088.51 305.968 1085.99 305.968H1077.98V296.171H1080.95V303.229H1086.3C1090.61 303.229 1092.76 305.146 1092.76 308.981C1092.76 310.958 1092.29 312.854 1091.34 314.669C1090.4 316.485 1089.06 318.118 1087.35 319.568C1085.3 321.308 1082.84 322.694 1079.97 323.725V320.39ZM1120.06 311.382C1120.06 309.427 1119.66 308.036 1118.86 307.209C1118.08 306.382 1116.7 305.968 1114.72 305.968H1109.73V323H1106.76V303.229H1114.75C1117.72 303.229 1119.84 303.863 1121.12 305.13C1122.4 306.398 1123.04 308.493 1123.04 311.415V323H1120.06V311.382ZM1138.22 302.907C1140.81 302.907 1142.71 303.702 1143.9 305.292C1145.11 306.871 1145.71 309.384 1145.71 312.833V323H1136.01V320.261H1142.71V313.203C1142.71 310.571 1142.37 308.659 1141.7 307.467C1141.02 306.274 1139.87 305.678 1138.25 305.678C1136.8 305.678 1135.6 306.333 1134.67 307.644C1133.73 308.976 1132.86 311.291 1132.08 314.589L1130.06 323H1126.87L1129.08 314.347C1129.33 313.337 1129.58 312.424 1129.84 311.608C1130.09 310.792 1130.35 310.066 1130.59 309.433L1126.57 303.229H1130.06L1132.08 306.5C1132.91 305.232 1133.81 304.319 1134.77 303.761C1135.72 303.191 1136.87 302.907 1138.22 302.907ZM1165.99 321.002C1165.25 321.496 1164.33 321.899 1163.22 322.21C1162.13 322.522 1160.75 322.753 1159.1 322.903C1157.44 323.054 1155.4 323.14 1152.96 323.161L1149.19 303.229H1152.27L1154.25 313.396L1155.42 313.171C1156.07 313.021 1156.6 312.827 1157.02 312.591C1157.44 312.344 1157.77 312 1158.02 311.56C1158.22 311.216 1158.38 310.792 1158.49 310.287C1158.59 309.782 1158.67 309.18 1158.73 308.482L1159.13 303.229H1162.19L1161.69 308.514C1161.62 309.406 1161.53 310.179 1161.42 310.834C1161.31 311.479 1161.18 312 1161.03 312.397C1160.76 313.203 1160.36 313.826 1159.82 314.267C1159.29 314.696 1158.39 315.078 1157.15 315.411L1154.73 315.975L1155.52 320.132H1155.91C1158.07 320.132 1159.8 320.008 1161.1 319.761C1162.4 319.503 1163.42 319.106 1164.17 318.569C1164.68 318.204 1165.1 317.752 1165.45 317.215C1165.79 316.678 1166.08 315.969 1166.32 315.088C1166.55 314.208 1166.75 313.074 1166.91 311.688L1167.93 303.229H1171.04L1170.01 311.576C1169.79 313.445 1169.51 314.986 1169.17 316.2C1168.83 317.403 1168.4 318.381 1167.88 319.133C1167.38 319.874 1166.75 320.497 1165.99 321.002ZM1182 310.883V323H1172.96V320.261H1179.03V311.721C1179.03 309.98 1178.94 308.75 1178.77 308.031C1178.6 307.29 1178.3 306.763 1177.87 306.452C1177.45 306.129 1176.84 305.968 1176.05 305.968H1173.87V303.229H1175.95C1177.67 303.229 1178.93 303.465 1179.72 303.938C1180.52 304.421 1181.09 305.211 1181.45 306.307C1181.81 307.392 1182 308.917 1182 310.883Z" fill="#4B4553"/>
<rect x="416.5" y="371.5" width="1029" height="626" rx="43.5" fill="white" fill-opacity="0.38" stroke="white"/>
<rect x="955.5" y="439.5" width="438" height="54" rx="27" fill="white" stroke="white"/>
<rect x="955.5" y="547.5" width="438" height="54" rx="27" fill="white" stroke="white"/>
<rect x="467.5" y="439.5" width="438" height="54" rx="27" fill="white" stroke="white"/>
<rect x="467.5" y="547.5" width="438" height="54" rx="27" fill="white" stroke="white"/>
<rect x="471.5" y="662.5" width="926" height="176" rx="29.5" fill="white" stroke="white"/>
<rect x="1357.5" y="862.5" width="34" height="34" rx="17" fill="white" stroke="white"/>
<path d="M1269.54 412.018V418.316H1267.74V412.018H1269.54ZM1277.67 424.195C1276.01 424.195 1274.79 423.779 1274.01 422.945C1273.23 422.105 1272.84 420.816 1272.84 419.078V412.018H1274.63V419.02C1274.63 420.23 1274.87 421.116 1275.35 421.676C1275.83 422.236 1276.61 422.516 1277.7 422.516C1278.55 422.516 1279.25 422.343 1279.78 421.998C1280.31 421.653 1280.7 421.109 1280.95 420.367C1281.21 419.618 1281.33 418.635 1281.33 417.418C1281.33 416.064 1281.19 415.074 1280.9 414.449C1280.62 413.818 1280.13 413.502 1279.44 413.502C1278.77 413.502 1278.13 413.714 1277.51 414.137V412.418C1278.01 412.021 1278.71 411.822 1279.61 411.822C1280.95 411.822 1281.88 412.262 1282.42 413.141C1282.95 414.013 1283.22 415.439 1283.22 417.418C1283.22 419.755 1282.77 421.471 1281.88 422.564C1280.99 423.652 1279.58 424.195 1277.67 424.195ZM1293.38 416.979V424H1291.58V416.959C1291.58 415.774 1291.34 414.931 1290.85 414.43C1290.38 413.928 1289.54 413.678 1288.34 413.678H1284.68V412.018H1288.36C1289.56 412.018 1290.53 412.187 1291.26 412.525C1292 412.857 1292.54 413.388 1292.88 414.117C1293.21 414.84 1293.38 415.794 1293.38 416.979ZM1304.26 417.34C1304.26 416.109 1303.99 415.191 1303.45 414.586C1302.91 413.98 1302.06 413.678 1300.9 413.678H1298.21V417.057H1300.58V418.717H1296.38V412.018H1300.92C1302.67 412.018 1303.96 412.454 1304.81 413.326C1305.66 414.192 1306.09 415.543 1306.09 417.379V418.18C1306.09 422.06 1304.25 424 1300.58 424H1296.49V422.34H1300.63C1301.87 422.34 1302.78 421.998 1303.37 421.314C1303.97 420.624 1304.26 419.586 1304.26 418.199V417.34ZM1324.78 416.979V424H1314.52V412.018H1319.76C1321.56 412.018 1322.84 412.402 1323.62 413.17C1324.39 413.938 1324.78 415.208 1324.78 416.979ZM1316.31 422.34H1322.97V416.959C1322.97 415.774 1322.73 414.931 1322.25 414.43C1321.77 413.928 1320.94 413.678 1319.74 413.678H1316.31V422.34ZM1337.07 422.789C1336.62 423.089 1336.07 423.333 1335.39 423.521C1334.73 423.71 1333.9 423.85 1332.89 423.941C1331.89 424.033 1330.65 424.085 1329.17 424.098L1326.89 412.018H1328.75L1329.96 418.18L1330.67 418.043C1331.06 417.952 1331.38 417.835 1331.63 417.691C1331.89 417.542 1332.09 417.333 1332.24 417.066C1332.36 416.858 1332.46 416.601 1332.52 416.295C1332.59 415.989 1332.64 415.624 1332.67 415.201L1332.91 412.018H1334.77L1334.47 415.221C1334.42 415.761 1334.37 416.23 1334.3 416.627C1334.24 417.018 1334.16 417.333 1334.07 417.574C1333.9 418.062 1333.66 418.44 1333.33 418.707C1333.01 418.967 1332.47 419.199 1331.71 419.4L1330.25 419.742L1330.73 422.262H1330.96C1332.27 422.262 1333.32 422.187 1334.11 422.037C1334.89 421.881 1335.51 421.64 1335.97 421.314C1336.28 421.093 1336.53 420.82 1336.74 420.494C1336.95 420.169 1337.13 419.739 1337.27 419.205C1337.41 418.671 1337.53 417.984 1337.63 417.145L1338.25 412.018H1340.13L1339.51 417.076C1339.38 418.209 1339.21 419.143 1339 419.879C1338.79 420.608 1338.53 421.201 1338.22 421.656C1337.91 422.105 1337.53 422.483 1337.07 422.789Z" fill="#4B4553"/>
<path d="M1268.87 528.678V539H1267.06V528.678H1260.23V527.018H1270.37V528.678H1268.87ZM1274.42 527.018V533.316H1272.62V527.018H1274.42ZM1279.61 527.018V533.316H1277.82V527.018H1279.61ZM1287.49 531.656V539H1282.02V537.34H1285.7V532.164C1285.7 531.109 1285.65 530.364 1285.54 529.928C1285.44 529.479 1285.25 529.16 1284.99 528.971C1284.74 528.775 1284.37 528.678 1283.89 528.678H1282.57V527.018H1283.83C1284.87 527.018 1285.64 527.161 1286.12 527.447C1286.6 527.74 1286.95 528.219 1287.16 528.883C1287.38 529.54 1287.49 530.465 1287.49 531.656ZM1298.23 527.018V542.76H1296.43V527.018H1298.23ZM1303.42 527.018V539H1301.62V527.018H1303.42ZM1314.4 532.34C1314.4 531.109 1314.13 530.191 1313.59 529.586C1313.05 528.98 1312.2 528.678 1311.04 528.678H1308.34V532.057H1310.72V533.717H1306.52V527.018H1311.06C1312.8 527.018 1314.1 527.454 1314.95 528.326C1315.8 529.192 1316.22 530.543 1316.22 532.379V533.18C1316.22 537.06 1314.39 539 1310.72 539H1306.62V537.34H1310.77C1312 537.34 1312.92 536.998 1313.51 536.314C1314.1 535.624 1314.4 534.586 1314.4 533.199V532.34ZM1318.8 537.418C1320.05 536.956 1321.12 536.37 1322.01 535.66C1322.9 534.957 1323.57 534.189 1324.04 533.355C1324.51 532.522 1324.74 531.676 1324.74 530.816C1324.74 529.391 1323.98 528.678 1322.46 528.678H1317.6V522.74H1319.4V527.018H1322.64C1325.25 527.018 1326.56 528.18 1326.56 530.504C1326.56 531.702 1326.27 532.851 1325.7 533.951C1325.12 535.051 1324.32 536.041 1323.28 536.92C1322.04 537.975 1320.55 538.814 1318.8 539.439V537.418ZM1334.37 539.195C1332.71 539.195 1331.49 538.779 1330.71 537.945C1329.93 537.105 1329.54 535.816 1329.54 534.078V527.018H1331.33V534.02C1331.33 535.23 1331.57 536.116 1332.04 536.676C1332.53 537.236 1333.31 537.516 1334.4 537.516C1335.25 537.516 1335.94 537.343 1336.48 536.998C1337.01 536.653 1337.4 536.109 1337.65 535.367C1337.9 534.618 1338.03 533.635 1338.03 532.418C1338.03 531.064 1337.89 530.074 1337.6 529.449C1337.32 528.818 1336.83 528.502 1336.14 528.502C1335.47 528.502 1334.83 528.714 1334.21 529.137V527.418C1334.71 527.021 1335.41 526.822 1336.31 526.822C1337.65 526.822 1338.58 527.262 1339.12 528.141C1339.65 529.013 1339.92 530.439 1339.92 532.418C1339.92 534.755 1339.47 536.471 1338.58 537.564C1337.69 538.652 1336.28 539.195 1334.37 539.195Z" fill="#4B4553"/>
<path d="M772.869 416.979V424H771.062V416.959C771.062 415.761 770.818 414.915 770.33 414.42C769.848 413.925 769.012 413.678 767.82 413.678H763.27V412.018H767.85C769.048 412.018 770.014 412.187 770.75 412.525C771.486 412.857 772.023 413.388 772.361 414.117C772.7 414.84 772.869 415.794 772.869 416.979ZM765.262 416.217V424H763.465V416.217H765.262ZM784.217 416.959C784.217 415.774 783.976 414.931 783.494 414.43C783.019 413.928 782.182 413.678 780.984 413.678H777.957V424H776.16V412.018H781.004C782.801 412.018 784.087 412.402 784.861 413.17C785.636 413.938 786.023 415.208 786.023 416.979V424H784.217V416.959ZM796.902 417.34C796.902 416.109 796.632 415.191 796.092 414.586C795.551 413.98 794.702 413.678 793.543 413.678H790.848V417.057H793.221V418.717H789.021V412.018H793.562C795.307 412.018 796.603 412.454 797.449 413.326C798.302 414.192 798.729 415.543 798.729 417.379V418.18C798.729 422.06 796.893 424 793.221 424H789.129V422.34H793.27C794.507 422.34 795.421 421.998 796.014 421.314C796.606 420.624 796.902 419.586 796.902 418.199V417.34ZM810.516 422.789C810.066 423.089 809.507 423.333 808.836 423.521C808.172 423.71 807.339 423.85 806.336 423.941C805.333 424.033 804.093 424.085 802.615 424.098L800.33 412.018H802.195L803.396 418.18L804.109 418.043C804.5 417.952 804.822 417.835 805.076 417.691C805.33 417.542 805.532 417.333 805.682 417.066C805.805 416.858 805.9 416.601 805.965 416.295C806.03 415.989 806.079 415.624 806.111 415.201L806.355 412.018H808.211L807.908 415.221C807.863 415.761 807.807 416.23 807.742 416.627C807.677 417.018 807.599 417.333 807.508 417.574C807.345 418.062 807.101 418.44 806.775 418.707C806.45 418.967 805.91 419.199 805.154 419.4L803.689 419.742L804.168 422.262H804.402C805.711 422.262 806.759 422.187 807.547 422.037C808.335 421.881 808.956 421.64 809.412 421.314C809.718 421.093 809.975 420.82 810.184 420.494C810.392 420.169 810.568 419.739 810.711 419.205C810.854 418.671 810.975 417.984 811.072 417.145L811.688 412.018H813.572L812.947 417.076C812.817 418.209 812.648 419.143 812.439 419.879C812.231 420.608 811.971 421.201 811.658 421.656C811.352 422.105 810.971 422.483 810.516 422.789ZM821.844 411.822C823.419 411.822 824.568 412.304 825.291 413.268C826.02 414.225 826.385 415.748 826.385 417.838V424H820.506V422.34H824.568V418.062C824.568 416.467 824.363 415.309 823.953 414.586C823.543 413.863 822.846 413.502 821.863 413.502C820.984 413.502 820.262 413.899 819.695 414.693C819.122 415.501 818.598 416.904 818.123 418.902L816.902 424H814.969L816.307 418.756C816.456 418.144 816.609 417.59 816.766 417.096C816.922 416.601 817.075 416.161 817.225 415.777L814.783 412.018H816.902L818.123 414C818.631 413.232 819.174 412.678 819.754 412.34C820.333 411.995 821.03 411.822 821.844 411.822ZM845.779 416.979V424H835.516V412.018H840.76C842.557 412.018 843.842 412.402 844.617 413.17C845.392 413.938 845.779 415.208 845.779 416.979ZM837.312 422.34H843.973V416.959C843.973 415.774 843.732 414.931 843.25 414.43C842.775 413.928 841.938 413.678 840.74 413.678H837.312V422.34ZM858.074 422.789C857.625 423.089 857.065 423.333 856.395 423.521C855.73 423.71 854.897 423.85 853.895 423.941C852.892 424.033 851.652 424.085 850.174 424.098L847.889 412.018H849.754L850.955 418.18L851.668 418.043C852.059 417.952 852.381 417.835 852.635 417.691C852.889 417.542 853.09 417.333 853.24 417.066C853.364 416.858 853.458 416.601 853.523 416.295C853.589 415.989 853.637 415.624 853.67 415.201L853.914 412.018H855.77L855.467 415.221C855.421 415.761 855.366 416.23 855.301 416.627C855.236 417.018 855.158 417.333 855.066 417.574C854.904 418.062 854.66 418.44 854.334 418.707C854.008 418.967 853.468 419.199 852.713 419.4L851.248 419.742L851.727 422.262H851.961C853.27 422.262 854.318 422.187 855.105 422.037C855.893 421.881 856.515 421.64 856.971 421.314C857.277 421.093 857.534 420.82 857.742 420.494C857.951 420.169 858.126 419.739 858.27 419.205C858.413 418.671 858.533 417.984 858.631 417.145L859.246 412.018H861.131L860.506 417.076C860.376 418.209 860.206 419.143 859.998 419.879C859.79 420.608 859.529 421.201 859.217 421.656C858.911 422.105 858.53 422.483 858.074 422.789Z" fill="#4B4553"/>
<path d="M768.182 537.418C769.432 536.956 770.499 536.37 771.385 535.66C772.277 534.957 772.954 534.189 773.416 533.355C773.885 532.522 774.119 531.676 774.119 530.816C774.119 529.391 773.357 528.678 771.834 528.678H766.98V522.74H768.777V527.018H772.02C774.63 527.018 775.936 528.18 775.936 530.504C775.936 531.702 775.649 532.851 775.076 533.951C774.503 535.051 773.696 536.041 772.654 536.92C771.417 537.975 769.926 538.814 768.182 539.439V537.418ZM780.398 527.018V533.316H778.602V527.018H780.398ZM785.594 527.018V533.316H783.797V527.018H785.594ZM794.891 526.822C796.466 526.822 797.615 527.304 798.338 528.268C799.067 529.225 799.432 530.748 799.432 532.838V539H793.553V537.34H797.615V533.062C797.615 531.467 797.41 530.309 797 529.586C796.59 528.863 795.893 528.502 794.91 528.502C794.031 528.502 793.309 528.899 792.742 529.693C792.169 530.501 791.645 531.904 791.17 533.902L789.949 539H788.016L789.354 533.756C789.503 533.144 789.656 532.59 789.812 532.096C789.969 531.601 790.122 531.161 790.271 530.777L787.83 527.018H789.949L791.17 529C791.678 528.232 792.221 527.678 792.801 527.34C793.38 526.995 794.077 526.822 794.891 526.822ZM810.701 537.145C810.48 537.802 810.128 538.277 809.646 538.57C809.165 538.857 808.406 539 807.371 539H807.264V537.34H807.43C807.879 537.34 808.237 537.255 808.504 537.086C808.764 536.917 808.95 536.66 809.061 536.314C809.171 535.963 809.227 535.432 809.227 534.723V528.678H807.371V527.018H813.846C815.643 527.018 816.932 527.402 817.713 528.17C818.494 528.932 818.885 530.201 818.885 531.979V539H817.088V531.959C817.088 530.761 816.844 529.915 816.355 529.42C815.874 528.925 815.031 528.678 813.826 528.678H811.023V534.361C811.023 535.559 810.916 536.487 810.701 537.145ZM831.756 537.34V539H821.297V537.34H828.66V531.959C828.66 530.761 828.416 529.915 827.928 529.42C827.446 528.925 826.609 528.678 825.418 528.678H821.756V527.018H825.438C827.234 527.018 828.52 527.402 829.295 528.17C830.07 528.938 830.457 530.208 830.457 531.979V537.34H831.756ZM835.965 527.018V539H834.168V527.018H835.965ZM841.697 537.145C841.476 537.802 841.124 538.277 840.643 538.57C840.161 538.857 839.402 539 838.367 539H838.26V537.34H838.426C838.875 537.34 839.233 537.255 839.5 537.086C839.76 536.917 839.946 536.66 840.057 536.314C840.167 535.963 840.223 535.432 840.223 534.723V528.678H838.367V527.018H844.842C846.639 527.018 847.928 527.402 848.709 528.17C849.49 528.932 849.881 530.201 849.881 531.979V539H848.084V531.959C848.084 530.761 847.84 529.915 847.352 529.42C846.87 528.925 846.027 528.678 844.822 528.678H842.02V534.361C842.02 535.559 841.912 536.487 841.697 537.145ZM860.896 533.18C860.896 537.06 859.061 539 855.389 539H852.273V537.34H855.428C856.671 537.34 857.589 536.995 858.182 536.305C858.774 535.615 859.07 534.579 859.07 533.199V532.818C859.07 531.432 858.771 530.396 858.172 529.713C857.579 529.023 856.665 528.678 855.428 528.678H852.273V527.018H855.389C859.061 527.018 860.896 528.958 860.896 532.838V533.18Z" fill="#4B4553"/>
<path d="M1274.19 639.979V647H1272.38V639.959C1272.38 638.761 1272.13 637.915 1271.65 637.42C1271.16 636.925 1270.33 636.678 1269.14 636.678H1264.59V635.018H1269.17C1270.36 635.018 1271.33 635.187 1272.07 635.525C1272.8 635.857 1273.34 636.388 1273.68 637.117C1274.02 637.84 1274.19 638.794 1274.19 639.979ZM1266.58 639.217V647H1264.78V639.217H1266.58ZM1278.86 635.018V641.316H1277.07V635.018H1278.86ZM1287.15 639.656V647H1281.68V645.34H1285.36V640.164C1285.36 639.109 1285.31 638.364 1285.2 637.928C1285.1 637.479 1284.91 637.16 1284.65 636.971C1284.4 636.775 1284.03 636.678 1283.55 636.678H1282.23V635.018H1283.49C1284.53 635.018 1285.3 635.161 1285.78 635.447C1286.26 635.74 1286.61 636.219 1286.82 636.883C1287.04 637.54 1287.15 638.465 1287.15 639.656ZM1298.04 640.34C1298.04 639.109 1297.77 638.191 1297.23 637.586C1296.69 636.98 1295.84 636.678 1294.68 636.678H1291.99V640.057H1294.36V641.717H1290.16V635.018H1294.7C1296.45 635.018 1297.74 635.454 1298.59 636.326C1299.44 637.192 1299.87 638.543 1299.87 640.379V641.18C1299.87 645.06 1298.03 647 1294.36 647H1290.27V645.34H1294.41C1295.65 645.34 1296.56 644.998 1297.15 644.314C1297.75 643.624 1298.04 642.586 1298.04 641.199V640.34ZM1312.06 639.979V647H1310.25V639.959C1310.25 638.761 1310.01 637.915 1309.52 637.42C1309.04 636.925 1308.2 636.678 1307.01 636.678H1302.46V635.018H1307.04C1308.24 635.018 1309.2 635.187 1309.94 635.525C1310.67 635.857 1311.21 636.388 1311.55 637.117C1311.89 637.84 1312.06 638.794 1312.06 639.979ZM1304.45 639.217V647H1302.65V639.217H1304.45ZM1322.77 635.018V650.76H1320.97V635.018H1322.77ZM1333.87 641.18C1333.87 645.06 1332.04 647 1328.37 647H1325.25V645.34H1328.4C1329.65 645.34 1330.57 644.995 1331.16 644.305C1331.75 643.615 1332.05 642.579 1332.05 641.199V640.818C1332.05 639.432 1331.75 638.396 1331.15 637.713C1330.56 637.023 1329.64 636.678 1328.4 636.678H1325.25V635.018H1328.37C1332.04 635.018 1333.87 636.958 1333.87 640.838V641.18ZM1338.47 635.018V647H1336.68V635.018H1338.47ZM1344.21 645.145C1343.98 645.802 1343.63 646.277 1343.15 646.57C1342.67 646.857 1341.91 647 1340.88 647H1340.77V645.34H1340.93C1341.38 645.34 1341.74 645.255 1342.01 645.086C1342.27 644.917 1342.45 644.66 1342.56 644.314C1342.68 643.963 1342.73 643.432 1342.73 642.723V636.678H1340.88V635.018H1347.35C1349.15 635.018 1350.44 635.402 1351.22 636.17C1352 636.932 1352.39 638.201 1352.39 639.979V647H1350.59V639.959C1350.59 638.761 1350.35 637.915 1349.86 637.42C1349.38 636.925 1348.53 636.678 1347.33 636.678H1344.53V642.361C1344.53 643.559 1344.42 644.487 1344.21 645.145Z" fill="#4B4553"/>
<path d="M1062.36 888.418C1063.61 887.956 1064.68 887.37 1065.56 886.66C1066.45 885.957 1067.13 885.189 1067.59 884.355C1068.06 883.522 1068.29 882.676 1068.29 881.816C1068.29 880.391 1067.53 879.678 1066.01 879.678H1061.16V873.74H1062.95V878.018H1066.2C1068.81 878.018 1070.11 879.18 1070.11 881.504C1070.11 882.702 1069.82 883.851 1069.25 884.951C1068.68 886.051 1067.87 887.041 1066.83 887.92C1065.59 888.975 1064.1 889.814 1062.36 890.439V888.418ZM1074.57 878.018V884.316H1072.78V878.018H1074.57ZM1079.77 878.018V884.316H1077.97V878.018H1079.77ZM1089.07 877.822C1090.64 877.822 1091.79 878.304 1092.51 879.268C1093.24 880.225 1093.61 881.748 1093.61 883.838V890H1087.73V888.34H1091.79V884.062C1091.79 882.467 1091.59 881.309 1091.18 880.586C1090.77 879.863 1090.07 879.502 1089.09 879.502C1088.21 879.502 1087.48 879.899 1086.92 880.693C1086.35 881.501 1085.82 882.904 1085.35 884.902L1084.12 890H1082.19L1083.53 884.756C1083.68 884.144 1083.83 883.59 1083.99 883.096C1084.14 882.601 1084.3 882.161 1084.45 881.777L1082.01 878.018H1084.12L1085.35 880C1085.85 879.232 1086.4 878.678 1086.98 878.34C1087.56 877.995 1088.25 877.822 1089.07 877.822ZM1106.48 888.34V890H1096.02V888.34H1103.38V882.959C1103.38 881.761 1103.14 880.915 1102.65 880.42C1102.17 879.925 1101.33 879.678 1100.14 879.678H1096.48V878.018H1100.16C1101.96 878.018 1103.24 878.402 1104.02 879.17C1104.79 879.938 1105.18 881.208 1105.18 882.979V888.34H1106.48ZM1124.78 882.979V890H1114.52V878.018H1119.76C1121.56 878.018 1122.84 878.402 1123.62 879.17C1124.39 879.938 1124.78 881.208 1124.78 882.979ZM1116.31 888.34H1122.97V882.959C1122.97 881.774 1122.73 880.931 1122.25 880.43C1121.77 879.928 1120.94 879.678 1119.74 879.678H1116.31V888.34ZM1129.48 878.018V884.316H1127.68V878.018H1129.48ZM1137.77 882.656V890H1132.29V888.34H1135.97V883.164C1135.97 882.109 1135.92 881.364 1135.81 880.928C1135.71 880.479 1135.53 880.16 1135.27 879.971C1135.01 879.775 1134.65 879.678 1134.16 879.678H1132.85V878.018H1134.11C1135.15 878.018 1135.91 878.161 1136.39 878.447C1136.87 878.74 1137.22 879.219 1137.44 879.883C1137.66 880.54 1137.77 881.465 1137.77 882.656ZM1142.88 878.018V890H1141.08V878.018H1142.88ZM1153.98 884.18C1153.98 888.06 1152.14 890 1148.47 890H1145.36V888.34H1148.51C1149.75 888.34 1150.67 887.995 1151.26 887.305C1151.86 886.615 1152.15 885.579 1152.15 884.199V883.818C1152.15 882.432 1151.85 881.396 1151.25 880.713C1150.66 880.023 1149.75 879.678 1148.51 879.678H1145.36V878.018H1148.47C1152.14 878.018 1153.98 879.958 1153.98 883.838V884.18ZM1163.52 879.678V890H1161.71V879.678H1154.88V878.018H1165.01V879.678H1163.52ZM1166.58 888.418C1168.38 888.418 1169.79 888.252 1170.81 887.92L1167.19 878.018H1169.17L1172.38 887.158C1172.99 886.722 1173.48 886.139 1173.85 885.41C1174.23 884.674 1174.5 883.711 1174.67 882.52C1174.85 881.328 1174.94 879.827 1174.94 878.018H1176.82C1176.82 881.025 1176.5 883.382 1175.86 885.088C1175.43 886.221 1174.83 887.158 1174.06 887.9C1173.28 888.636 1172.28 889.202 1171.06 889.6C1169.84 889.99 1168.35 890.231 1166.58 890.322V888.418ZM1187.47 888.145C1187.25 888.802 1186.9 889.277 1186.42 889.57C1185.94 889.857 1185.18 890 1184.14 890H1184.04V888.34H1184.2C1184.65 888.34 1185.01 888.255 1185.28 888.086C1185.54 887.917 1185.72 887.66 1185.83 887.314C1185.94 886.963 1186 886.432 1186 885.723V879.678H1184.14V878.018H1190.62C1192.42 878.018 1193.71 878.402 1194.49 879.17C1195.27 879.932 1195.66 881.201 1195.66 882.979V890H1193.86V882.959C1193.86 881.761 1193.62 880.915 1193.13 880.42C1192.65 879.925 1191.8 879.678 1190.6 879.678H1187.8V885.361C1187.8 886.559 1187.69 887.487 1187.47 888.145ZM1198.74 888.418C1199.99 887.956 1201.06 887.37 1201.95 886.66C1202.84 885.957 1203.52 885.189 1203.98 884.355C1204.45 883.522 1204.68 882.676 1204.68 881.816C1204.68 880.391 1203.92 879.678 1202.4 879.678H1197.54V873.74H1199.34V878.018H1202.58C1205.19 878.018 1206.5 879.18 1206.5 881.504C1206.5 882.702 1206.21 883.851 1205.64 884.951C1205.07 886.051 1204.26 887.041 1203.22 887.92C1201.98 888.975 1200.49 889.814 1198.74 890.439V888.418ZM1218.72 888.34V890H1208.27V888.34H1215.63V882.959C1215.63 881.761 1215.38 880.915 1214.9 880.42C1214.41 879.925 1213.58 879.678 1212.39 879.678H1208.72V878.018H1212.41C1214.2 878.018 1215.49 878.402 1216.26 879.17C1217.04 879.938 1217.43 881.208 1217.43 882.979V888.34H1218.72ZM1230.55 881.738C1230.55 882.962 1230.3 884.124 1229.81 885.225C1229.31 886.325 1228.61 887.311 1227.71 888.184C1226.8 889.049 1225.73 889.743 1224.49 890.264V888.203C1225.85 887.591 1226.89 886.742 1227.62 885.654C1228.36 884.561 1228.72 883.337 1228.72 881.982C1228.72 881.11 1228.53 880.508 1228.15 880.176C1227.77 879.844 1227.12 879.678 1226.19 879.678H1221.05V878.018H1226.11C1227.72 878.018 1228.86 878.307 1229.54 878.887C1230.21 879.46 1230.55 880.41 1230.55 881.738ZM1223.34 882.217V893.76H1221.55V882.217H1223.34ZM1241.3 888.145C1241.08 888.802 1240.73 889.277 1240.25 889.57C1239.77 889.857 1239.01 890 1237.97 890H1237.87V888.34H1238.03C1238.48 888.34 1238.84 888.255 1239.11 888.086C1239.37 887.917 1239.55 887.66 1239.66 887.314C1239.77 886.963 1239.83 886.432 1239.83 885.723V879.678H1237.97V878.018H1244.45C1246.24 878.018 1247.53 878.402 1248.31 879.17C1249.1 879.932 1249.49 881.201 1249.49 882.979V890H1247.69V882.959C1247.69 881.761 1247.45 880.915 1246.96 880.42C1246.48 879.925 1245.63 879.678 1244.43 879.678H1241.62V885.361C1241.62 886.559 1241.52 887.487 1241.3 888.145ZM1257.77 874.773L1253.09 892.188H1251.55L1256.24 874.773H1257.77ZM1267.31 882.979V890H1265.5V882.959C1265.5 881.774 1265.26 880.931 1264.78 880.43C1264.3 879.928 1263.47 879.678 1262.27 879.678H1258.61V878.018H1262.29C1263.49 878.018 1264.45 878.187 1265.19 878.525C1265.93 878.857 1266.46 879.388 1266.8 880.117C1267.14 880.84 1267.31 881.794 1267.31 882.979ZM1279.59 888.789C1279.14 889.089 1278.58 889.333 1277.91 889.521C1277.25 889.71 1276.42 889.85 1275.41 889.941C1274.41 890.033 1273.17 890.085 1271.69 890.098L1269.41 878.018H1271.27L1272.47 884.18L1273.19 884.043C1273.58 883.952 1273.9 883.835 1274.15 883.691C1274.41 883.542 1274.61 883.333 1274.76 883.066C1274.88 882.858 1274.98 882.601 1275.04 882.295C1275.11 881.989 1275.16 881.624 1275.19 881.201L1275.43 878.018H1277.29L1276.99 881.221C1276.94 881.761 1276.89 882.23 1276.82 882.627C1276.76 883.018 1276.68 883.333 1276.59 883.574C1276.42 884.062 1276.18 884.44 1275.85 884.707C1275.53 884.967 1274.99 885.199 1274.23 885.4L1272.77 885.742L1273.25 888.262H1273.48C1274.79 888.262 1275.84 888.187 1276.62 888.037C1277.41 887.881 1278.03 887.64 1278.49 887.314C1278.8 887.093 1279.05 886.82 1279.26 886.494C1279.47 886.169 1279.65 885.739 1279.79 885.205C1279.93 884.671 1280.05 883.984 1280.15 883.145L1280.77 878.018H1282.65L1282.03 883.076C1281.9 884.209 1281.73 885.143 1281.52 885.879C1281.31 886.608 1281.05 887.201 1280.74 887.656C1280.43 888.105 1280.05 888.483 1279.59 888.789ZM1286.43 886.064L1285.65 890H1283.75L1284.57 886.104C1284.81 884.984 1285.02 884.196 1285.22 883.74C1285.41 883.278 1285.66 882.904 1285.95 882.617C1286.25 882.331 1286.65 882.087 1287.15 881.885L1284.33 878.018H1286.55L1290.95 884.082C1291.44 883.626 1291.83 883.076 1292.11 882.432C1292.41 881.781 1292.6 881.035 1292.69 880.195L1292.91 878.018H1294.77L1294.54 880.156C1294.47 880.872 1294.34 881.501 1294.15 882.041C1294.02 882.412 1293.87 882.767 1293.69 883.105C1293.5 883.438 1293.27 883.783 1292.98 884.141C1292.7 884.499 1292.34 884.899 1291.89 885.342L1295.41 890H1293.13L1287.97 882.998C1287.45 883.252 1287.08 883.691 1286.86 884.316C1286.79 884.479 1286.73 884.707 1286.65 885C1286.59 885.293 1286.51 885.648 1286.43 886.064ZM1303.68 877.822C1305.25 877.822 1306.4 878.304 1307.12 879.268C1307.85 880.225 1308.22 881.748 1308.22 883.838V890H1302.34V888.34H1306.4V884.062C1306.4 882.467 1306.2 881.309 1305.79 880.586C1305.38 879.863 1304.68 879.502 1303.7 879.502C1302.82 879.502 1302.09 879.899 1301.53 880.693C1300.95 881.501 1300.43 882.904 1299.96 884.902L1298.73 890H1296.8L1298.14 884.756C1298.29 884.144 1298.44 883.59 1298.6 883.096C1298.75 882.601 1298.91 882.161 1299.06 881.777L1296.62 878.018H1298.73L1299.96 880C1300.46 879.232 1301.01 878.678 1301.59 878.34C1302.17 877.995 1302.86 877.822 1303.68 877.822ZM1318.95 878.018V884.316H1317.15V878.018H1318.95ZM1326.83 882.656V890H1321.35V888.34H1325.03V883.164C1325.03 882.109 1324.98 881.364 1324.88 880.928C1324.77 880.479 1324.59 880.16 1324.33 879.971C1324.08 879.775 1323.71 879.678 1323.23 879.678H1321.91V878.018H1323.17C1324.21 878.018 1324.97 878.161 1325.45 878.447C1325.93 878.74 1326.28 879.219 1326.5 879.883C1326.72 880.54 1326.83 881.465 1326.83 882.656ZM1331.76 886.064L1330.98 890H1329.09L1329.91 886.104C1330.14 884.984 1330.36 884.196 1330.55 883.74C1330.75 883.278 1330.99 882.904 1331.28 882.617C1331.58 882.331 1331.98 882.087 1332.48 881.885L1329.66 878.018H1331.88L1336.28 884.082C1336.77 883.626 1337.16 883.076 1337.45 882.432C1337.74 881.781 1337.93 881.035 1338.02 880.195L1338.25 878.018H1340.1L1339.88 880.156C1339.81 880.872 1339.68 881.501 1339.49 882.041C1339.36 882.412 1339.2 882.767 1339.02 883.105C1338.84 883.438 1338.6 883.783 1338.31 884.141C1338.03 884.499 1337.67 884.899 1337.22 885.342L1340.75 890H1338.46L1333.3 882.998C1332.78 883.252 1332.41 883.691 1332.19 884.316C1332.13 884.479 1332.06 884.707 1331.99 885C1331.92 885.293 1331.85 885.648 1331.76 886.064Z" fill="#4B4553"/>
<rect x="847" y="912" width="175" height="50" rx="25" fill="#4856CD"/>
<path d="M914.712 936.925V945H911.669V936.903C911.669 935.757 911.426 934.952 910.939 934.488C910.452 934.017 909.606 933.781 908.401 933.781H902.707V931.063H908.592C910.067 931.063 911.25 931.261 912.141 931.658C913.039 932.055 913.69 932.684 914.095 933.545C914.507 934.398 914.712 935.525 914.712 936.925ZM905.964 936.532V945H902.932V936.532H905.964ZM927.762 937.296C927.762 936.038 927.523 935.14 927.043 934.601C926.564 934.054 925.726 933.781 924.528 933.781H921.529V945H918.497V931.063H924.528C926.744 931.063 928.342 931.523 929.323 932.444C930.312 933.358 930.806 934.851 930.806 936.925V945H927.762V937.296ZM937.162 931.063V938.464H934.13V931.063H937.162ZM941.755 942.406C943.582 941.807 945.057 941.051 946.18 940.137C946.959 939.516 947.554 938.838 947.966 938.104C948.378 937.363 948.583 936.588 948.583 935.78C948.583 934.447 947.749 933.781 946.079 933.781H940.374V926.301H943.474V931.063H946.584C949.954 931.063 951.638 932.534 951.638 935.477C951.638 936.884 951.305 938.202 950.639 939.43C949.98 940.65 949.036 941.739 947.809 942.698C946.191 943.956 944.174 944.944 941.755 945.663V942.406ZM966.485 943.619C965.871 943.963 965.115 944.248 964.216 944.472C963.325 944.689 962.214 944.85 960.881 944.955C959.556 945.06 957.935 945.112 956.018 945.112L953.39 931.063H956.568L957.792 937.779L958.612 937.622C959.121 937.524 959.496 937.36 959.735 937.127C959.982 936.888 960.17 936.532 960.297 936.061C960.357 935.828 960.413 935.507 960.465 935.095C960.525 934.675 960.581 934.166 960.634 933.567L960.802 931.063H963.902L963.565 934.904C963.52 935.428 963.456 935.9 963.374 936.319C963.292 936.738 963.187 937.101 963.06 937.408C962.812 938.022 962.464 938.501 962.015 938.846C961.573 939.19 960.87 939.478 959.904 939.71L958.219 940.104L958.68 942.406H958.949C959.885 942.406 960.712 942.368 961.431 942.293C962.157 942.211 962.775 942.088 963.284 941.923C963.965 941.713 964.527 941.421 964.969 941.047C965.41 940.665 965.759 940.16 966.013 939.531C966.268 938.894 966.447 938.09 966.552 937.116L967.26 931.063H970.393L969.674 937.038C969.525 938.325 969.315 939.392 969.045 940.238C968.783 941.084 968.443 941.773 968.023 942.305C967.612 942.829 967.099 943.267 966.485 943.619Z" fill="white"/>
<path d="M262.818 738.395L345.29 730.796C351.906 730.187 357.395 735.934 356.409 742.509C352.876 766.066 333.675 785.065 308.912 787.348C284.153 789.63 261.804 774.458 254.025 751.945C251.855 745.658 256.199 739.007 262.818 738.397L262.818 738.395Z" fill="#5158C5"/>
<path d="M257.373 679.315L339.845 671.716C346.462 671.106 351.951 676.853 350.965 683.429C347.432 706.986 328.23 725.984 303.468 728.268C278.709 730.549 256.359 715.377 248.581 692.864C246.41 686.578 250.756 679.924 257.373 679.315Z" fill="white"/>
<path d="M268.145 796.211L350.617 788.612C357.234 788.002 362.723 793.749 361.737 800.325C358.204 823.882 339.002 842.88 314.24 845.164C289.481 847.445 267.131 832.273 259.353 809.76C257.182 803.474 261.527 796.822 268.145 796.212L268.145 796.211Z" fill="white"/>
<path d="M273.472 854.026L355.944 846.427C362.561 845.817 368.05 851.564 367.064 858.14C363.531 881.697 344.33 900.695 319.567 902.979C294.808 905.26 272.458 890.088 264.68 867.575C262.509 861.288 266.854 854.637 273.473 854.027L273.472 854.026Z" fill="white"/>
<path d="M304.28 894.486C284.836 903.346 262.414 900.952 247.211 888.17C222.098 886.991 190.71 864.024 168.713 828.069C152.806 802.067 145.184 774.782 146.114 753.011C137.051 735.282 140.296 713.173 154.082 696.835C158.503 691.593 166.578 691.382 170.496 696.356L219.332 758.342C223.25 763.317 220.998 770.92 214.707 773.787C206.77 777.403 198.338 779.146 190.103 779.071C193.633 788.216 198.195 797.497 203.775 806.619C212.063 820.166 221.684 831.869 231.801 841.257C233.667 832.816 237.665 824.629 243.652 817.533C248.074 812.293 256.149 812.08 260.068 817.054L308.904 879.042C312.822 884.016 310.571 891.619 304.28 894.486Z" fill="#C78CEA"/>
</g>
<defs>
<clipPath id="clip0_100_2">
<rect width="1920" height="1080" fill="white"/>
</clipPath>
</defs>
</svg>
