<svg width="24" height="24" viewBox="0 0 24 24" fill="none" xmlns="http://www.w3.org/2000/svg">
    <path d="M20.5 7H19L17.5 2.5C17.3 2.2 17 2 16.7 2H7.3C7 2 6.7 2.2 6.5 2.5L5 7H3.5C3.2 7 3 7.2 3 7.5V8.5C3 8.8 3.2 9 3.5 9H4V19C4 19.6 4.4 20 5 20H6C6.6 20 7 19.6 7 19V17H17V19C17 19.6 17.4 20 18 20H19C19.6 20 20 19.6 20 19V9H20.5C20.8 9 21 8.8 21 8.5V7.5C21 7.2 20.8 7 20.5 7ZM7.5 15C6.7 15 6 14.3 6 13.5C6 12.7 6.7 12 7.5 12C8.3 12 9 12.7 9 13.5C9 14.3 8.3 15 7.5 15ZM16.5 15C15.7 15 15 14.3 15 13.5C15 12.7 15.7 12 16.5 12C17.3 12 18 12.7 18 13.5C18 14.3 17.3 15 16.5 15ZM5.8 7L7 3.5H17L18.2 7H5.8Z" fill="#4754D6"/>
</svg> 