<svg width="268" height="80" viewBox="0 0 268 80" fill="none" xmlns="http://www.w3.org/2000/svg">
<path d="M267.333 11.7415L267.333 68.2582C267.333 76.6286 258.783 82.3024 251.021 79.0872C235.645 72.7191 224.833 57.6165 224.833 39.9999C224.833 22.3832 235.645 7.28135 251.021 0.912535C258.783 -2.30191 267.333 3.37114 267.333 11.7415Z" fill="#F3F4F1"/>
<path d="M212.333 11.7415L212.333 68.2582C212.333 76.6286 203.616 82.3024 195.702 79.0872C180.024 72.7191 169 57.6165 169 39.9999C169 22.3832 180.024 7.28135 195.702 0.912535C203.616 -2.30191 212.333 3.37114 212.333 11.7415Z" fill="#F3F4F1"/>
<path d="M43.9998 11.7415L43.9998 68.2582C43.9998 76.6286 35.2822 82.3024 27.3681 79.0872C11.6901 72.7191 0.666501 57.6165 0.666502 39.9999C0.666503 22.3832 11.6901 7.28135 27.3681 0.912535C35.2822 -2.30191 43.9998 3.37114 43.9998 11.7415Z" fill="#F3F4F1"/>
<path d="M155.667 11.7415L155.667 68.2582C155.667 76.6286 147.117 82.3024 139.355 79.0872C123.978 72.7191 113.167 57.6165 113.167 39.9999C113.167 22.3832 123.978 7.28135 139.355 0.912535C147.117 -2.30191 155.667 3.37114 155.667 11.7415Z" fill="#F3F4F1"/>
<path d="M99.833 11.7415L99.833 68.2582C99.833 76.6286 91.283 82.3024 83.5211 79.0872C68.1446 72.7191 57.333 57.6165 57.333 39.9999C57.333 22.3832 68.1447 7.28135 83.5211 0.912535C91.283 -2.30191 99.833 3.37114 99.833 11.7415Z" fill="#B78BE6"/>
</svg>
