<svg width="122" height="122" viewBox="0 0 122 122" fill="none" xmlns="http://www.w3.org/2000/svg">
<path d="M52.8569 12.372L109.131 68.6462C117.465 76.9806 114.928 90.8167 104.295 95.0474C83.2309 103.43 57.8409 98.7442 40.2998 81.2032C22.7588 63.6622 18.074 38.2729 26.4557 17.2083C30.6871 6.57558 44.5225 4.03759 52.8569 12.372Z" fill="#D9D9D9" fill-opacity="0.48"/>
<circle cx="84.9579" cy="36.8024" r="36.1219" fill="#E4DFD9"/>
<path d="M82.51 16.5251C83.1905 17.2654 82.8166 18.4207 82.7568 19.2732C82.5811 21.9017 84.1627 20.0734 85.1386 19.6322C86.0471 19.2209 86.3014 18.5965 87.4567 18.7984C88.6158 18.9965 89.6777 19.4677 90.7359 19.9687C92.1791 20.6529 93.4803 21.2998 94.7029 22.343C96.6211 23.9694 97.7727 25.0762 100.382 23.2665C101.646 22.3916 104.151 20.5707 102.532 18.6937C101.411 17.3925 100.08 16.8503 98.5392 16.1923C97.0099 15.538 95.8209 14.8425 94.7366 13.56C93.9178 12.5916 93.9477 11.1371 93.1513 10.0753C92.5792 9.31624 91.6781 8.35532 91.5136 7.3757C91.1621 5.2482 93.7981 4.91543 95.3648 4.98273C95.8994 5.00517 96.5799 5.39776 97.0436 5.64454C98.7672 6.56059 100.065 6.29886 101.661 5.64454C101.871 5.55854 102.073 5.47254 102.278 5.39028C91.45 -0.622042 78.6327 -0.543523 68.1896 4.83317C68.2382 5.0463 68.3728 5.24446 68.6271 5.41646C68.7991 5.51367 68.9561 5.62958 69.102 5.76419C69.3599 6.07078 69.7937 6.5419 69.7301 6.99058C69.5394 8.35532 68.2756 10.1949 69.7525 11.4176C70.1451 11.7429 70.5228 12.0906 70.7022 12.5879C71.2668 14.1583 69.4759 15.5267 69.0758 16.9214C68.313 19.5948 67.6325 22.3093 67.4717 25.0986C67.4493 25.4837 67.1016 25.7604 66.7202 25.6931C65.3218 25.4426 64.2412 24.6873 62.9363 24.2012C60.2442 23.1992 62.4091 27.9627 62.4951 28.7554C62.8578 32.1279 60.1582 32.0083 57.7503 32.4532C58.1317 34.1881 58.1915 35.6725 57.4288 37.385C56.2809 39.9724 54.5198 42.3878 55.2302 45.379C55.8733 48.0898 56.752 50.5986 57.1334 53.373C57.5708 56.5399 59.2085 58.8656 60.6967 61.5053C61.0855 59.9798 60.3751 57.7551 61.7623 56.768C63.4448 55.5678 65.52 55.7772 67.0679 54.2517C67.7297 53.6011 68.8664 53.545 69.7114 53.5113C71.3267 53.444 72.7624 53.4328 74.1646 52.3971C76.6734 50.5351 78.7374 49.3722 81.6089 48.2356C86.9482 46.1193 77.1745 39.9537 78.0905 36.1997C78.8159 33.2235 78.8682 28.946 75.8135 27.0242C74.1982 26.0072 72.1418 26.8148 70.3283 26.224C69.846 26.5344 69.3637 26.74 68.9561 26.6092C68.1448 26.3474 68.2868 25.2781 68.2719 24.6051C68.242 23.3076 68.3018 21.8569 69.3412 20.9333C70.4293 19.9649 71.7866 19.4153 72.912 18.4955C72.6577 17.8188 71.9099 16.6746 72.1006 16.2147C72.4932 15.2501 73.2261 14.4723 73.8393 13.6423C74.0337 13.3768 74.3702 13.2497 74.6918 13.3432C77.2006 14.0461 80.648 14.5135 82.5026 16.5325L82.51 16.5251Z" fill="#4856CD"/>
<path d="M82.5099 16.5251C82.9286 16.9962 82.9511 17.6692 82.8838 18.26C82.8127 18.862 82.7006 19.4714 82.7791 20.0771L82.8314 20.2977C82.8576 20.3688 82.895 20.4361 82.9286 20.4997C83.0259 20.6193 83.1792 20.6679 83.3287 20.6455C83.6241 20.5857 83.8858 20.4099 84.1363 20.2491C84.3906 20.0809 84.6374 19.9014 84.8991 19.7481C85.1683 19.5986 85.445 19.4752 85.6955 19.3032C85.946 19.1349 86.1965 18.9517 86.4844 18.8433C86.7761 18.7311 87.0939 18.7386 87.3968 18.776C87.6996 18.8283 87.995 18.9068 88.2941 18.9704L89.169 19.262C90.3094 19.7145 91.4162 20.2454 92.4968 20.8249C93.5773 21.4045 94.5719 22.1486 95.488 22.9524C95.9628 23.3338 96.4526 23.7115 97.006 23.947C97.5631 24.1788 98.1913 24.22 98.7633 24.033C99.3391 23.8648 99.8701 23.5544 100.367 23.2142C100.865 22.8664 101.354 22.5075 101.792 22.0925C102.226 21.6774 102.633 21.2175 102.854 20.6642C103.078 20.1145 103.022 19.4714 102.663 18.9891C101.945 18.0057 100.891 17.3402 99.7878 16.8317C98.6811 16.3194 97.522 15.8969 96.4788 15.2202C95.9815 14.8538 95.473 14.4948 95.0617 14.0274C94.5981 13.6199 94.2504 13.0665 94.0485 12.4795C93.8353 11.8999 93.6895 11.3054 93.4315 10.7633C93.1885 10.2211 92.7697 9.77244 92.3958 9.28263C92.0256 8.79656 91.6517 8.28057 91.476 7.66364C91.4311 7.51782 91.3938 7.34208 91.39 7.19252C91.3676 7.0467 91.3825 6.87845 91.4012 6.71393C91.4611 6.39611 91.5844 6.0783 91.8125 5.84648C92.2575 5.36789 92.8819 5.14355 93.4839 5.01268C94.0933 4.88181 94.714 4.84816 95.3347 4.86686C95.5179 4.88555 95.645 4.9192 95.802 4.94538L96.2619 5.11363C96.5461 5.2445 96.8228 5.38658 97.092 5.52866C97.6379 5.79039 98.1875 6.02595 98.7783 6.08204C99.3691 6.14186 99.9636 6.06334 100.536 5.90256C101.111 5.73431 101.665 5.49127 102.229 5.26319L102.218 5.51371L100.244 4.50418L98.2137 3.61803C97.5257 3.34882 96.8265 3.11326 96.1348 2.85901C95.4319 2.63093 94.7177 2.44024 94.0148 2.22712C93.3007 2.04017 92.579 1.89435 91.8611 1.72609C91.1395 1.58401 90.4067 1.48306 89.6813 1.35967C88.9522 1.25872 88.2156 1.20637 87.4828 1.12785C86.7499 1.0755 86.0133 1.06429 85.2767 1.03064C84.5402 1.02316 83.8036 1.05681 83.0707 1.06803C82.3379 1.10916 81.605 1.18394 80.8722 1.24002C80.1431 1.32976 79.4177 1.44567 78.6886 1.54662L76.5275 1.98408L74.4 2.55615L72.3136 3.25535L70.2758 4.08167L68.2942 5.03138L68.4101 4.7846C68.4362 4.8706 68.4699 4.95286 68.5335 5.02764C68.5671 5.06129 68.5933 5.10242 68.6344 5.13607L68.7578 5.23328L68.7391 5.22206L69.2588 5.5997L69.27 5.61092L69.2775 5.6184C69.528 5.92874 69.8533 6.24281 69.9543 6.7588C69.973 6.87471 69.9618 7.05418 69.9393 7.1327C69.9244 7.22991 69.9019 7.33087 69.8758 7.4393C69.8272 7.65242 69.7673 7.84311 69.7038 8.03754C69.4682 8.80403 69.1878 9.57427 69.3224 10.2809C69.386 10.6287 69.5729 10.9353 69.8533 11.1746C70.1412 11.4288 70.4927 11.7205 70.7395 12.1018L70.8928 12.4084L70.9302 12.487C70.9563 12.5505 70.9489 12.5468 70.9601 12.5804L71.0012 12.7263C71.0536 12.9282 71.0722 13.2011 71.0498 13.4142C71.0087 13.8667 70.8367 14.2742 70.6385 14.6444C70.2422 15.381 69.7225 16.0128 69.4308 16.7046C69.2962 17.0299 69.214 17.4524 69.1018 17.8337L68.7877 19.0003C68.6157 19.7818 68.4063 20.5557 68.2605 21.3409C68.1371 22.1299 67.9464 22.9113 67.8941 23.7077L67.7744 24.9005L67.7595 25.05L67.7445 25.1622L67.7296 25.237C67.7296 25.2706 67.6847 25.3828 67.6473 25.4538C67.6062 25.5324 67.5651 25.5735 67.5202 25.6333C67.3332 25.8352 67.079 25.9661 66.7761 25.9698L66.6602 25.9623C66.5742 25.9511 66.5929 25.9474 66.5555 25.9399L66.4097 25.8988L66.1181 25.8165C65.9236 25.7567 65.7292 25.7231 65.531 25.6408C65.1459 25.4763 64.7271 25.323 64.3719 25.1472C64.0055 24.9715 63.6354 24.7995 63.2727 24.6537C62.9137 24.4967 62.5249 24.3284 62.2519 24.3583C62.1136 24.3733 62.0463 24.4144 61.9827 24.5153C61.9229 24.62 61.893 24.7883 61.8892 24.964C61.8818 25.3192 61.9528 25.7081 62.0388 26.0895C62.2145 26.8597 62.4837 27.6038 62.7193 28.4077C62.7455 28.5123 62.7754 28.6133 62.7903 28.7666L62.8053 29.0695C62.824 29.2639 62.8165 29.4845 62.7941 29.7088C62.7642 30.15 62.6483 30.5912 62.4052 30.9801C62.1734 31.3764 61.807 31.6868 61.4181 31.8849C61.0293 32.0906 60.618 32.2214 60.2104 32.3112C59.3953 32.5019 58.5877 32.5767 57.8062 32.7225L58.0231 32.3934C58.154 33.0291 58.2587 33.6797 58.2886 34.3377C58.311 34.9995 58.24 35.6688 58.0829 36.3119C57.9259 36.9588 57.6417 37.5645 57.3725 38.1366L56.5238 39.8528C55.9741 40.9857 55.4843 42.1523 55.3535 43.3786C55.2899 43.9881 55.3123 44.605 55.4507 45.207C55.589 45.8127 55.761 46.4446 55.9143 47.0616L56.4079 48.9161C56.5761 49.5331 56.7145 50.1612 56.8715 50.7856C57.0435 51.4063 57.1183 52.0494 57.2417 52.6813C57.3576 53.3207 57.4623 53.9264 57.5931 54.5583L57.8511 55.4556C57.9483 55.751 58.0717 56.0464 58.1801 56.3418C58.4194 56.9251 58.6849 57.5009 58.9878 58.0617C59.2757 58.6263 59.601 59.1797 59.915 59.7331L60.876 61.4007L60.5021 61.4493C60.7675 60.3575 60.5058 59.1386 60.8012 57.9197C60.8797 57.6168 61.0106 57.3177 61.2013 57.0522C61.306 56.9251 61.4106 56.8017 61.5415 56.7045L61.635 56.626C61.6873 56.5811 61.706 56.5811 61.7397 56.5549L61.9304 56.4427L62.3117 56.2147L62.738 56.0277C63.0222 55.8931 63.3063 55.8108 63.5905 55.7099C64.7271 55.3547 65.875 55.0518 66.7387 54.2928L67.0865 54.0124C67.1912 53.9152 67.3332 53.8329 67.4865 53.7544C67.7782 53.6048 68.0736 53.5226 68.3764 53.4665C68.9821 53.3543 69.5841 53.3468 70.1749 53.3207C70.7656 53.2945 71.3564 53.2683 71.9247 53.1636C72.4931 53.0589 73.0427 52.8757 73.5475 52.6028C74.5308 52.0008 75.4581 51.2306 76.4863 50.6361C77.0023 50.3369 77.4921 49.993 78.0305 49.735C78.5615 49.4695 79.0887 49.1891 79.6234 48.9311L81.2648 48.2319C81.5377 48.116 81.7995 48.0038 82.0649 47.8692C82.3042 47.7271 82.5398 47.5701 82.7155 47.357C82.9099 47.155 83.0034 46.8971 83.0707 46.6353C83.1006 46.3624 83.1006 46.082 83.0221 45.8053C82.8912 45.2519 82.6183 44.7247 82.3154 44.2199C81.7022 43.2141 80.9619 42.2794 80.2515 41.3259C79.5448 40.3687 78.8232 39.4041 78.3297 38.2973C78.0904 37.7477 77.9034 37.1457 77.9483 36.525C77.9894 36.211 78.0567 35.9305 78.124 35.6389C78.1764 35.351 78.2399 35.0668 78.2736 34.7715C78.4456 33.6086 78.4717 32.4196 78.296 31.2605C78.1053 30.1089 77.694 28.961 76.9163 28.0749C76.5387 27.6337 76.0788 27.2336 75.5628 26.9794L75.1627 26.7849L74.744 26.6765C74.471 26.583 74.1644 26.5942 73.8765 26.5494C72.7062 26.4821 71.4873 26.6391 70.317 26.2802L70.3731 26.2727C70.1599 26.4073 69.9356 26.5344 69.6926 26.6204C69.4495 26.6989 69.1766 26.755 68.9074 26.6428C68.683 26.5606 68.4475 26.34 68.3615 26.0932C68.268 25.8464 68.2343 25.5884 68.2306 25.3342C68.2194 25.0799 68.2306 24.8294 68.2306 24.5827C68.2306 24.3321 68.2231 24.0816 68.2343 23.8274C68.2343 23.5731 68.268 23.3226 68.2904 23.0721C68.3316 22.8216 68.3689 22.5748 68.4512 22.3318C68.5073 22.085 68.6307 21.8569 68.7391 21.6288L68.9485 21.3073C69.0233 21.2026 69.1167 21.1203 69.2027 21.0231C69.371 20.8212 69.5916 20.7053 69.7823 20.5408C69.9842 20.3912 70.1749 20.2267 70.3917 20.1033L71.6705 19.3069C72.108 19.0601 72.4931 18.7423 72.9044 18.4582L72.8931 18.4993C72.6651 17.9197 72.3248 17.3813 72.1266 16.7756C72.078 16.6223 72.0406 16.4653 72.0593 16.3007C72.093 16.125 72.1902 16.0128 72.2538 15.867C72.3809 15.5829 72.5566 15.3174 72.7398 15.0631C72.9081 14.7977 73.1137 14.5621 73.3007 14.3116C73.4951 14.0648 73.6746 13.8143 73.884 13.575C74.0859 13.3282 74.456 13.2348 74.7589 13.332L75.6712 13.5713L77.5033 14.0349C77.8099 14.1097 78.1091 14.2069 78.4119 14.2929C78.7372 14.3864 79.0588 14.4985 79.3766 14.6145C79.6495 14.7154 79.9262 14.8089 80.1879 14.9435C80.4684 15.0893 80.7675 15.194 81.033 15.3697C81.2947 15.5455 81.5714 15.6988 81.8219 15.8895L82.5248 16.5213L82.5099 16.5251ZM82.5099 16.5251L81.8069 15.8969C81.5564 15.7062 81.2797 15.5529 81.018 15.381C80.7563 15.2052 80.4534 15.1043 80.173 14.9584C79.8926 14.8126 79.5897 14.7191 79.2943 14.6107C78.9989 14.4985 78.6998 14.4013 78.397 14.3153C78.0941 14.2293 77.795 14.1321 77.4884 14.0611L75.6563 13.6049L74.7402 13.3694C74.4374 13.2834 74.1121 13.3619 73.9064 13.6049C73.7082 13.8367 73.5213 14.0985 73.3306 14.3415C73.1474 14.592 72.938 14.8313 72.7735 15.093C72.594 15.3473 72.4258 15.6053 72.2949 15.8932C72.2351 16.0315 72.1304 16.1736 72.108 16.312C72.093 16.4578 72.1304 16.6148 72.1753 16.7606C72.3697 17.3551 72.7137 17.8898 72.9492 18.4806L72.938 18.518C72.5267 18.8059 72.1379 19.1274 71.7004 19.378L70.4329 20.1744C70.216 20.2977 70.0253 20.466 69.8272 20.6156C69.6402 20.7763 69.4046 20.9035 69.2588 21.0904C69.1766 21.1839 69.0868 21.2661 69.0158 21.3671L68.8176 21.6774C68.7092 21.898 68.5933 22.1186 68.5409 22.3617C68.4624 22.5972 68.4288 22.844 68.3876 23.087C68.3652 23.3338 68.3353 23.5806 68.3353 23.8311C68.3241 24.0779 68.3353 24.3284 68.3353 24.5789C68.339 24.8294 68.3316 25.0837 68.3428 25.3305C68.3502 25.5772 68.3839 25.824 68.4699 26.0483C68.5634 26.2764 68.7129 26.4297 68.9597 26.5344C69.1616 26.6204 69.4233 26.5793 69.6477 26.5008C69.8758 26.4185 70.0926 26.2989 70.302 26.1643L70.3544 26.1568C71.4873 26.5008 72.6912 26.3437 73.884 26.4035C74.1831 26.4484 74.4822 26.4335 74.7813 26.5307L75.2263 26.6466L75.6301 26.8373C76.1797 27.1102 76.6434 27.5103 77.0397 27.9665C77.8436 28.8788 78.2736 30.0566 78.4717 31.2306C78.655 32.4159 78.6363 33.6198 78.4643 34.8014C78.4306 35.0967 78.3671 35.3921 78.3147 35.6838C78.2511 35.9717 78.1801 36.2671 78.1465 36.54C78.1053 37.1083 78.2811 37.6767 78.5166 38.2113C79.0027 39.2807 79.7206 40.2379 80.4272 41.1839C81.1414 42.1336 81.8892 43.0683 82.5211 44.0891C82.8314 44.6013 83.1193 45.1435 83.2652 45.7454C83.3511 46.0408 83.3549 46.3624 83.3212 46.6765C83.2502 46.9868 83.1305 47.2971 82.9099 47.5252C82.708 47.7682 82.4463 47.9477 82.1771 48.1048C81.9154 48.2394 81.6312 48.3627 81.362 48.4787L79.7393 49.1816C79.2083 49.4396 78.6923 49.72 78.1651 49.9855C77.6342 50.2435 77.1556 50.5837 76.6471 50.8828C75.6264 51.4811 74.729 52.2364 73.7008 52.8757C73.1624 53.1711 72.5791 53.3655 71.9808 53.4777C71.3826 53.5899 70.7806 53.6198 70.1861 53.6497C69.0083 53.7058 67.7782 53.6834 66.9668 54.5583C66.0358 55.3846 64.8094 55.7062 63.7027 56.0614C63.4297 56.1586 63.1418 56.2446 62.8913 56.368L62.5024 56.5362L62.1211 56.768L61.9304 56.8839C61.9042 56.9026 61.8518 56.9288 61.8518 56.9363L61.7771 56.9999C61.6686 57.0784 61.5864 57.1831 61.5004 57.284C61.3471 57.5009 61.2349 57.7514 61.1676 58.0206C60.8984 59.1199 61.1676 60.3276 60.8872 61.554C60.8648 61.6624 60.7563 61.7297 60.6479 61.7035C60.5918 61.6886 60.5469 61.6549 60.5208 61.6101V61.6026L59.5524 59.9425C59.2345 59.3853 58.9018 58.832 58.6064 58.2562C58.2998 57.6878 58.0231 57.1008 57.7763 56.5026C57.6642 56.196 57.537 55.9006 57.4323 55.5902L57.1557 54.6443C57.0211 54.0273 56.9051 53.373 56.7892 52.7523C56.6621 52.1317 56.5873 51.4998 56.4153 50.8866C56.2583 50.2696 56.1199 49.649 55.948 49.032L55.4432 47.1775C55.2862 46.5531 55.1142 45.9473 54.9646 45.308C54.815 44.6611 54.7851 43.9844 54.8524 43.3263C54.987 42.0027 55.4993 40.7763 56.0489 39.6247L56.8864 37.9122C57.1594 37.3327 57.4136 36.7756 57.5557 36.1811C57.6978 35.5866 57.7614 34.9734 57.7389 34.3602C57.7053 33.7432 57.6081 33.1263 57.4735 32.5131C57.4398 32.3635 57.537 32.2177 57.6866 32.1878H57.6903C58.498 32.0345 59.3056 31.9522 60.0646 31.769C60.8124 31.5896 61.5565 31.2942 61.9042 30.681C62.0874 30.3893 62.1846 30.0266 62.2071 29.664C62.222 29.4882 62.2332 29.305 62.2108 29.0956L62.1921 28.7928C62.1884 28.7442 62.1659 28.647 62.1398 28.5572C61.9192 27.8094 61.6275 27.028 61.4443 26.2203C61.3546 25.8128 61.276 25.3978 61.2835 24.9491C61.291 24.7247 61.3172 24.4817 61.4555 24.2312C61.5864 23.9732 61.9117 23.7937 62.1771 23.7862C62.723 23.7601 63.0969 23.9769 63.4746 24.1302C63.8634 24.291 64.2299 24.463 64.5925 24.6387C64.9627 24.8257 65.3104 24.9491 65.6694 25.1099C65.8488 25.1846 66.0545 25.2258 66.2452 25.2856L66.5368 25.3678L66.6826 25.409C66.6826 25.409 66.7612 25.4351 66.7238 25.4202H66.7612C66.8621 25.4277 67.0042 25.3641 67.0865 25.2706C67.0977 25.2482 67.1313 25.2183 67.1351 25.2071C67.1351 25.1846 67.1538 25.2108 67.165 25.1435L67.1799 25.0687V25.0575C67.1799 25.0575 67.1725 25.1211 67.1799 25.0837V25.065L67.1874 25.0276L67.2024 24.8743L67.3295 23.6591C67.3856 22.844 67.5838 22.0513 67.7146 21.2475C67.8679 20.4473 68.081 19.6659 68.2605 18.8732L68.5821 17.7066C68.7017 17.314 68.769 16.9401 68.941 16.5176C69.2887 15.7249 69.8159 15.1005 70.1824 14.42C70.3656 14.0835 70.5077 13.732 70.5413 13.3768C70.5824 13.0403 70.489 12.6739 70.3095 12.371C70.1151 12.0645 69.8346 11.8289 69.5168 11.5447C69.1766 11.2531 68.9186 10.8306 68.8401 10.3819C68.683 9.46958 69.0195 8.66195 69.2476 7.90667C69.3074 7.71972 69.3673 7.52156 69.4121 7.34582C69.4383 7.25982 69.457 7.16261 69.472 7.06166C69.4981 6.94575 69.4906 6.91584 69.4869 6.83732C69.442 6.54193 69.1766 6.2316 68.9186 5.925L68.9373 5.94369L68.5073 5.62962L68.4886 5.6184L68.3203 5.4838C68.2642 5.43519 68.2156 5.37536 68.167 5.31928C68.1184 5.26319 68.0848 5.18841 68.0436 5.12111C68.01 5.05007 67.9876 4.97155 67.9651 4.89677C67.9315 4.79956 67.9801 4.6986 68.0661 4.65747L68.0773 4.65L70.0889 3.69655L72.1566 2.87023L74.2728 2.17477L76.4265 1.60644C77.1556 1.46062 77.881 1.30732 78.6101 1.17272C79.3467 1.0755 80.0795 0.959595 80.8198 0.873598C81.5602 0.817512 82.3005 0.746471 83.0446 0.709081C83.7886 0.701603 84.5327 0.671691 85.273 0.682908C86.0171 0.720298 86.7611 0.735254 87.5014 0.791339C88.2418 0.873598 88.9821 0.933422 89.7187 1.03437C90.4515 1.1615 91.1881 1.26619 91.9172 1.41575C92.6426 1.58775 93.3717 1.73731 94.0896 1.93174C94.8 2.1486 95.5216 2.34303 96.2246 2.57859C96.9238 2.83658 97.6267 3.08335 98.3184 3.3563L100.36 4.26114L102.345 5.28563C102.413 5.31928 102.439 5.40528 102.405 5.47258C102.39 5.50249 102.364 5.52492 102.334 5.53614C101.773 5.76422 101.209 6.011 100.61 6.17925C100.012 6.34377 99.3765 6.42603 98.7484 6.35872C98.1128 6.29516 97.522 6.03717 96.9686 5.76796C96.6994 5.6184 96.4302 5.48006 96.161 5.35667L95.7609 5.20337C95.6188 5.1772 95.4468 5.13981 95.3272 5.12485C94.7252 5.10242 94.1195 5.13607 93.5362 5.25945C92.9567 5.3791 92.3771 5.59597 91.9845 6.01473C91.5844 6.42976 91.5284 7.06166 91.6891 7.62251C91.8462 8.1871 92.2014 8.69186 92.5641 9.1742C92.9268 9.65653 93.3567 10.1202 93.6147 10.6997C93.8765 11.268 94.0223 11.8663 94.2279 12.4309C94.4224 12.9992 94.7327 13.5077 95.1926 13.919C95.5889 14.3789 96.09 14.7304 96.5723 15.093C97.5856 15.7586 98.7409 16.1886 99.8514 16.7083C100.958 17.2205 102.046 17.9197 102.775 18.9293C102.955 19.1873 103.071 19.4901 103.112 19.8042C103.145 20.122 103.089 20.4398 102.973 20.7277C102.738 21.311 102.315 21.7784 101.874 22.1972C101.426 22.6159 100.928 22.9749 100.431 23.3226C99.9262 23.6629 99.3878 23.9769 98.7933 24.1489C98.2025 24.3359 97.5407 24.291 96.9686 24.048C96.3965 23.8012 95.9067 23.4161 95.4319 23.031C94.5121 22.2159 93.5362 21.483 92.4594 20.896C91.3863 20.3164 90.2795 19.778 89.1466 19.3219L88.2792 19.0302C87.98 18.9629 87.6847 18.8844 87.3855 18.8283C87.0864 18.7909 86.7761 18.7834 86.4919 18.8881C86.2077 18.9928 85.961 19.1723 85.7067 19.3406C85.4525 19.5126 85.172 19.6359 84.9066 19.7818C84.6448 19.9351 84.3981 20.1145 84.1438 20.2791C83.8896 20.4398 83.6278 20.6156 83.3212 20.6754C83.1679 20.6978 83.0034 20.6492 82.9025 20.5221C82.8688 20.4548 82.8277 20.3837 82.8015 20.3127L82.7492 20.0884C82.6744 19.4752 82.7866 18.8694 82.8613 18.2675C82.9324 17.6767 82.9137 17.0074 82.4949 16.5326L82.5099 16.5251Z" fill="#4856CD"/>
<path d="M113.965 56.7493C113.367 55.923 112.884 53.9825 111.494 54.3302C111.277 54.3863 110.817 54.3751 110.72 54.1133C110.634 54.0984 110.551 54.0909 110.465 54.0759C110.417 54.0685 110.387 54.0498 110.346 54.0348C110.305 54.0647 110.267 54.0984 110.23 54.1246C109.949 54.3078 109.452 54.304 109.302 53.9488C108.895 52.958 108.674 51.9858 108.39 50.9651C108.054 49.7723 106.038 50.6248 105.253 50.8081C105.074 50.8492 104.831 50.7781 104.715 50.6323C103.739 49.4134 102.019 46.6017 100.363 48.3067C99.6596 49.0283 99.2408 49.1928 98.25 49.3872C97.2031 49.5966 95.8495 49.3723 94.7764 49.3386C93.3444 49.29 91.8301 53.115 93.5388 53.631C95.1578 54.1208 96.5338 55.1079 96.8927 56.8316C97.218 58.387 97.9322 61.0866 97.0273 62.5485C96.7693 62.9636 96.4067 63.3113 95.8982 63.4085C94.2418 63.7226 92.8284 64.2161 92.2601 65.9697C91.5235 68.2431 91.4039 68.7478 89.3063 70.1126C87.5901 71.2305 86.0197 71.8475 83.9445 71.9634C82.5761 72.0381 81.2338 72.0718 80.041 72.356C93.1051 74.1881 106.64 68.8114 114.589 57.3065C114.35 57.1793 114.137 56.9999 113.965 56.7606V56.7493Z" fill="#4856CD"/>
<path d="M113.964 56.7494C113.53 56.1175 113.283 55.3622 112.771 54.7864C112.644 54.6443 112.494 54.5172 112.326 54.4312C112.24 54.3864 112.154 54.349 112.06 54.334C111.967 54.3041 111.873 54.3116 111.78 54.3041C111.593 54.3153 111.406 54.3789 111.208 54.3677C111.021 54.3639 110.797 54.3078 110.707 54.1172L110.718 54.1284C110.595 54.1059 110.464 54.0985 110.344 54.0498H110.359C110.142 54.2443 109.791 54.334 109.507 54.1919C109.368 54.1246 109.275 53.9713 109.241 53.8292L109.095 53.4067L108.804 52.558C108.714 52.2738 108.639 51.9822 108.561 51.6943C108.475 51.4101 108.415 51.1072 108.303 50.838C108.191 50.5651 107.906 50.4193 107.615 50.3931C107.028 50.3333 106.441 50.5127 105.872 50.6735L105.442 50.8006C105.297 50.838 105.147 50.8904 104.982 50.838C104.829 50.8006 104.68 50.6847 104.605 50.5651L104.328 50.2099C103.962 49.735 103.595 49.2602 103.18 48.8339C102.765 48.4189 102.298 48.0039 101.733 47.888C101.595 47.8431 101.453 47.8655 101.315 47.8655C101.184 47.9104 101.038 47.9179 100.918 48.0001L100.735 48.1011C100.679 48.146 100.627 48.1946 100.574 48.2394C100.466 48.3292 100.35 48.4376 100.245 48.5385C100.133 48.6358 100.032 48.7442 99.9124 48.8377L99.5198 49.0919C99.2431 49.2228 98.9515 49.3424 98.6561 49.3985C98.5028 49.4322 98.3719 49.477 98.2037 49.4995L97.7587 49.5481C97.4671 49.5967 97.1567 49.5817 96.8501 49.578C96.2369 49.578 95.6462 49.507 95.0517 49.4883C94.7451 49.4471 94.4834 49.5032 94.2777 49.6378C94.0496 49.7836 93.8552 49.9968 93.6907 50.2248C93.3579 50.6847 93.1298 51.2344 93.0177 51.7877C92.9167 52.3262 92.9167 52.973 93.3056 53.2833C93.4738 53.4217 93.7804 53.504 94.0646 53.6012C94.345 53.7059 94.6441 53.833 94.9133 53.9825C95.4667 54.263 95.9565 54.6817 96.3566 55.1715C96.7754 55.6539 96.9847 56.2858 97.138 56.8803C97.2689 57.4636 97.4073 58.0468 97.5119 58.6413C97.7064 59.8229 97.8971 61.0829 97.4297 62.3168C97.3549 62.4664 97.2988 62.6084 97.1904 62.7617C97.1007 62.8814 97.0296 63.001 96.8875 63.1319C96.6482 63.4011 96.3267 63.5544 95.9864 63.6479C95.3919 63.7787 94.8386 63.8984 94.3151 64.119C93.7991 64.3471 93.3467 64.6649 93.0139 65.0911L92.7933 65.4314C92.7185 65.5436 92.6849 65.6819 92.6251 65.8053C92.5129 66.0446 92.4306 66.3512 92.3372 66.6279C92.1465 67.1925 91.9707 67.7832 91.6417 68.3329C91.3202 68.8862 90.8565 69.3611 90.363 69.7126C90.1237 69.9107 89.8657 70.0603 89.6152 70.2398C89.3385 70.4304 89.0954 70.5501 88.8337 70.7071C88.572 70.853 88.3327 71.0175 88.0485 71.1446L87.196 71.5148C86.9156 71.6531 86.6202 71.7279 86.3211 71.8064C86.0257 71.8849 85.7266 71.9709 85.4312 72.042C84.8255 72.1055 84.2086 72.2102 83.6103 72.2326C82.4176 72.2962 81.2248 72.3299 80.0919 72.5879L80.0657 72.0756L82.5223 72.3411L84.99 72.4495L87.4578 72.3897C88.2766 72.3149 89.0992 72.2513 89.918 72.1616C90.7294 72.027 91.5482 71.9148 92.3559 71.7653C93.156 71.5783 93.9674 71.4138 94.7638 71.2044C95.549 70.9614 96.3491 70.7483 97.1268 70.4791C97.8933 70.1799 98.6748 69.9182 99.4338 69.5929C100.178 69.2414 100.941 68.9274 101.673 68.5497C102.391 68.1496 103.135 67.787 103.835 67.3532C104.523 66.9008 105.24 66.4933 105.906 66.0072C106.56 65.5062 107.241 65.0388 107.873 64.5116C108.49 63.9657 109.133 63.4497 109.731 62.8814C110.311 62.2944 110.913 61.7298 111.473 61.1278C112.012 60.5034 112.565 59.8902 113.089 59.2583L114.573 57.2803C114.457 57.2056 114.341 57.127 114.229 57.0448L113.949 56.7345L113.964 56.7494ZM113.964 56.7494L114.248 57.056C114.36 57.1383 114.476 57.213 114.592 57.2916L113.119 59.2807C112.595 59.9201 112.049 60.537 111.515 61.1652C110.957 61.7709 110.359 62.343 109.783 62.9337C109.189 63.5058 108.55 64.0255 107.933 64.5789C107.301 65.1098 106.624 65.5847 105.97 66.0895C105.304 66.5793 104.597 67.0092 103.913 67.4729C103.218 67.9178 102.477 68.2955 101.763 68.7105C101.034 69.1031 100.275 69.4321 99.531 69.7985C98.7757 70.1388 97.9943 70.4192 97.224 70.7296C96.4463 71.0137 95.6462 71.2418 94.8573 71.5035C94.0571 71.7279 93.2457 71.9074 92.4381 72.1093C91.623 72.2738 90.8004 72.4046 89.9816 72.5505C89.1553 72.6552 88.3252 72.7337 87.4989 72.8234L85.0012 72.9244L82.4998 72.8533L80.0059 72.5991C79.8638 72.5841 79.7591 72.457 79.7704 72.3149C79.7816 72.2027 79.8638 72.113 79.9685 72.0906H79.976C81.18 71.8064 82.3951 71.769 83.5841 71.6942C84.1824 71.6681 84.7432 71.5596 85.3265 71.4998C85.6069 71.4325 85.8836 71.3465 86.1641 71.2717C86.4445 71.1969 86.7249 71.1259 86.9829 70.995L87.7718 70.651C88.0336 70.5314 88.2841 70.3557 88.5421 70.2136C88.7888 70.0603 89.0767 69.9107 89.2899 69.7574C89.5254 69.5892 89.7834 69.4359 90.0003 69.2527C90.4751 68.9124 90.8603 68.5161 91.1407 68.045C91.4286 67.5738 91.6043 67.013 91.795 66.4559C91.9782 65.91 92.1652 65.2706 92.569 64.7546C92.9728 64.2424 93.5187 63.8647 94.0982 63.618C94.6778 63.3749 95.2985 63.2478 95.8705 63.1282C96.0986 63.0646 96.3379 62.9562 96.4987 62.773C96.5884 62.7057 96.6744 62.5748 96.7641 62.4551C96.8314 62.3654 96.8913 62.2308 96.9474 62.1149C97.3549 61.0979 97.2091 59.8752 97.0259 58.7273C96.9324 58.1441 96.8053 57.5645 96.6856 56.9775C96.5473 56.4204 96.3828 55.8782 96.0163 55.437C95.6649 54.9996 95.2349 54.607 94.7189 54.3378C94.4684 54.1957 94.2141 54.0798 93.9375 53.9676L93.515 53.818C93.3878 53.7507 93.1822 53.6984 93.0663 53.5675C92.7709 53.3394 92.6699 52.9805 92.6251 52.6627C92.5839 52.3374 92.6213 52.0233 92.6812 51.7167C92.812 51.1072 93.0663 50.5352 93.4364 50.0379C93.6234 49.7911 93.8402 49.5593 94.1169 49.3836C94.2515 49.3088 94.4534 49.2078 94.588 49.2078L94.7002 49.1929L94.7787 49.1854H94.8348L95.0592 49.2041C95.6611 49.2377 96.2594 49.3125 96.8427 49.3237C97.1343 49.3312 97.426 49.3537 97.7251 49.3088L98.17 49.2677C98.3009 49.2527 98.4542 49.2078 98.5925 49.1817C99.1758 49.0508 99.6881 48.8339 100.111 48.389C100.223 48.2843 100.327 48.1946 100.447 48.0936C100.507 48.045 100.563 47.9927 100.627 47.9478L100.832 47.8356C100.963 47.7459 101.131 47.7347 101.281 47.6898C101.438 47.6898 101.602 47.6748 101.752 47.7234C102.376 47.8618 102.844 48.3067 103.259 48.733C103.674 49.1742 104.033 49.6565 104.388 50.1388L104.661 50.4978C104.747 50.6287 104.852 50.6997 104.99 50.7408C105.267 50.8044 105.551 50.6473 105.839 50.5838C106.411 50.423 107.002 50.2473 107.615 50.3108C107.918 50.337 108.235 50.5015 108.355 50.8006C108.467 51.0848 108.52 51.3765 108.606 51.6644C108.684 51.9523 108.755 52.2402 108.845 52.5281L109.133 53.3806L109.275 53.8068C109.312 53.9564 109.387 54.0798 109.518 54.1471C109.78 54.2817 110.112 54.2069 110.329 54.0125C110.329 54.0087 110.34 54.0087 110.344 54.0125C110.464 54.0648 110.591 54.0685 110.714 54.091C110.722 54.091 110.726 54.0947 110.726 54.1022C110.804 54.2742 111.017 54.334 111.2 54.3378C111.387 54.349 111.574 54.2854 111.769 54.2779C111.866 54.2854 111.963 54.2779 112.057 54.3078C112.154 54.3265 112.24 54.3639 112.33 54.4088C112.502 54.4985 112.651 54.6257 112.775 54.7715C113.287 55.3548 113.526 56.11 113.956 56.7457L113.964 56.7494Z" fill="#4856CD"/>
<path d="M118.763 24.4927C118.52 24.5226 118.28 24.5563 118.049 24.6124C115.345 25.2218 116.531 28.4299 116.504 30.3331C116.493 31.3501 115.977 33.9113 116.744 34.7488C117.439 35.5079 119.174 37.0296 117.828 38.0766C116.119 39.4076 113.861 39.5946 112.081 40.7686C112.074 40.7724 112.066 40.7724 112.059 40.7799C111.793 40.9668 111.531 41.1575 111.285 41.3631C110.885 41.6997 110.466 42.0137 111.498 42.4662C111.849 42.6232 112.227 42.7167 112.608 42.7653C113.465 42.8737 114.332 42.855 115.188 42.9522C115.345 42.9709 115.491 43.0494 115.577 43.1691C115.824 43.214 115.996 43.3785 115.88 43.6776C115.338 45.0909 117.518 45.7602 116.74 47.1399C116.516 47.54 116.183 47.8802 115.929 48.2167C115.813 48.6168 115.715 49.0244 115.652 49.4357C115.715 49.6002 115.82 49.7722 115.985 49.9629C116.852 50.2582 117.764 50.7705 117.735 51.7538C117.735 51.9071 117.712 52.0567 117.686 52.2025C121.836 43.3373 122.053 33.343 118.759 24.4965L118.763 24.4927Z" fill="#4856CD"/>
<path d="M118.764 24.4929C118.174 24.5938 117.549 24.7022 117.097 25.0948C116.637 25.4725 116.413 26.0632 116.368 26.654C116.263 27.8468 116.588 29.0283 116.629 30.2622C116.629 30.8828 116.551 31.4811 116.517 32.0793C116.48 32.6738 116.461 33.2795 116.555 33.8479C116.603 34.1283 116.693 34.405 116.854 34.5957C117.041 34.8088 117.269 35.0256 117.474 35.25C117.882 35.7024 118.323 36.1847 118.491 36.8578C118.574 37.1905 118.514 37.5906 118.304 37.8785C118.207 38.0355 118.084 38.129 117.942 38.2599L117.572 38.5179C117.082 38.8656 116.48 39.1423 115.926 39.3779C115.358 39.6097 114.786 39.8153 114.225 40.0247C113.672 40.2416 113.115 40.4584 112.617 40.7575L112.24 40.9781C112.143 41.038 112.004 41.1501 111.892 41.2361C111.653 41.4194 111.399 41.5951 111.215 41.7783C111.118 41.8793 111.118 41.9241 111.126 41.9129C111.111 41.9129 111.159 41.9503 111.178 41.9802L111.305 42.0737C111.436 42.1372 111.578 42.2232 111.705 42.2681C111.836 42.3055 111.944 42.3653 112.09 42.3915C112.632 42.5373 113.234 42.5336 113.848 42.5859L114.76 42.6457L115.216 42.6757L115.354 42.7018C115.41 42.7205 115.478 42.7467 115.534 42.7729C115.635 42.829 115.725 42.9075 115.803 43.0047L115.624 42.8925C115.781 42.9224 115.994 42.9972 116.121 43.2216C116.252 43.4347 116.166 43.7114 116.14 43.7861C116.11 43.9021 116.065 44.0367 116.08 44.0965C116.065 44.1675 116.091 44.2685 116.106 44.3582C116.203 44.7321 116.525 45.0911 116.816 45.5173C116.962 45.7267 117.108 45.9809 117.168 46.2801C117.209 46.4259 117.198 46.5904 117.183 46.74C117.157 46.8933 117.115 47.0391 117.048 47.1662L117.003 47.2672C116.962 47.3419 116.962 47.3307 116.94 47.3681L116.835 47.5177L116.626 47.8168C116.48 48.0112 116.315 48.2019 116.162 48.3963L116.211 48.3029L115.938 49.4881L115.923 49.3348C115.964 49.4096 115.99 49.4881 116.042 49.5629C116.102 49.6377 116.136 49.705 116.207 49.7835L116.076 49.6938C116.334 49.7873 116.592 49.8882 116.842 50.0266C116.966 50.0976 117.093 50.1649 117.209 50.2584C117.329 50.3406 117.441 50.4378 117.545 50.5537C117.658 50.6547 117.736 50.7968 117.822 50.9277C117.871 50.9912 117.886 51.0735 117.916 51.1445C117.938 51.2193 117.972 51.2941 117.987 51.3726L118.009 51.6044L118.017 51.7203V51.7502C118.017 51.7502 118.02 51.739 118.017 51.7839V51.7951L118.009 51.8437L117.964 52.2326L117.43 52.083L118.14 50.4715L118.772 48.8263L119.318 47.1513C119.482 46.5867 119.628 46.0183 119.781 45.45C119.92 44.8779 120.032 44.3021 120.159 43.7263C120.267 43.1468 120.361 42.5672 120.462 41.9877C120.544 41.4044 120.604 40.8174 120.679 40.2341C120.735 39.6471 120.765 39.06 120.806 38.473C120.832 37.8823 120.832 37.2952 120.847 36.7045C120.839 36.1137 120.813 35.5229 120.798 34.9359L120.664 33.1674L120.451 31.4063L120.155 29.6564L119.77 27.9178L119.303 26.1978L118.757 24.5003L118.764 24.4929ZM118.764 24.4929L119.381 26.1679L119.908 27.8767L120.35 29.6078L120.705 31.3614L120.97 33.13L121.139 34.9097C121.165 35.5042 121.202 36.1025 121.221 36.697C121.221 37.2952 121.228 37.8897 121.213 38.488C121.18 39.0825 121.161 39.6807 121.116 40.2752C121.053 40.8697 121.004 41.4642 120.933 42.055C120.839 42.6457 120.765 43.2365 120.66 43.8235C120.537 44.4068 120.424 44.9938 120.286 45.5734C120.133 46.1492 119.991 46.7287 119.826 47.3046L119.28 49.0095L118.652 50.6846L117.942 52.326C117.882 52.4681 117.717 52.5317 117.575 52.4681C117.459 52.4195 117.396 52.2999 117.407 52.1802V52.1727L117.448 51.7839V51.7353L117.456 51.7241C117.456 51.7615 117.456 51.7278 117.456 51.7353V51.7166L117.444 51.6381L117.433 51.481C117.422 51.4287 117.4 51.3838 117.385 51.3352C117.362 51.2903 117.362 51.2343 117.325 51.1931C117.261 51.1071 117.22 51.0099 117.13 50.9389C117.059 50.8566 116.973 50.7818 116.876 50.7183C116.79 50.6435 116.678 50.5911 116.577 50.5313C116.368 50.4154 116.132 50.3257 115.897 50.2434C115.852 50.2285 115.811 50.2023 115.781 50.1686L115.766 50.1537C115.695 50.0789 115.624 49.9667 115.553 49.8733C115.481 49.776 115.437 49.6564 115.377 49.5442C115.354 49.4994 115.347 49.447 115.358 49.4021V49.3909L115.642 48.1346C115.65 48.101 115.665 48.071 115.683 48.0449L115.691 48.0374C115.84 47.8504 115.99 47.671 116.136 47.4803L116.349 47.1849L116.454 47.0353C116.454 47.0353 116.506 46.9643 116.487 46.983L116.517 46.9157C116.566 46.8297 116.588 46.74 116.603 46.654C116.611 46.568 116.622 46.482 116.596 46.3885C116.562 46.2128 116.465 46.0258 116.338 45.8351C116.091 45.4537 115.713 45.0686 115.556 44.4928C115.53 44.3433 115.496 44.2049 115.519 44.0329C115.526 43.846 115.567 43.7525 115.601 43.6328C115.65 43.4833 115.627 43.4982 115.635 43.4908C115.646 43.4945 115.609 43.4571 115.53 43.4459C115.47 43.4347 115.418 43.4048 115.377 43.3636L115.351 43.3337C115.332 43.3113 115.306 43.2889 115.276 43.2702C115.265 43.2702 115.261 43.2627 115.246 43.2515C115.224 43.244 115.141 43.2328 115.164 43.2328L114.715 43.2029L113.814 43.1393L112.905 43.072C112.588 43.0533 112.277 42.9972 111.963 42.9187C111.81 42.8888 111.642 42.8103 111.484 42.7579C111.327 42.6981 111.208 42.6196 111.069 42.5523C110.961 42.4887 110.909 42.4364 110.826 42.3765C110.789 42.3429 110.752 42.2905 110.714 42.2457C110.677 42.2045 110.643 42.1522 110.625 42.0737C110.568 41.9391 110.602 41.7671 110.658 41.6624C110.714 41.5502 110.782 41.4792 110.841 41.4119C111.088 41.1688 111.339 41.0081 111.578 40.8249C111.705 40.7314 111.802 40.6491 111.959 40.5482L112.367 40.3126C112.909 39.9948 113.485 39.7742 114.053 39.5573C114.625 39.3442 115.197 39.1573 115.751 38.9441C116.312 38.7123 116.824 38.5029 117.325 38.1589L117.702 37.9084C117.777 37.8336 117.904 37.7439 117.96 37.643C118.11 37.4448 118.155 37.2017 118.099 36.9438C117.987 36.424 117.594 35.9454 117.205 35.5042C117.007 35.2762 116.794 35.0705 116.585 34.8237C116.36 34.5396 116.274 34.2105 116.226 33.9002C116.136 33.2721 116.169 32.6589 116.218 32.0531C116.263 31.4474 116.368 30.8454 116.383 30.2584C116.383 29.0731 116.091 27.8617 116.237 26.6353C116.3 26.0333 116.555 25.4089 117.052 25.035C117.545 24.6462 118.174 24.5714 118.768 24.4929H118.764Z" fill="#4856CD"/>
<path d="M113.241 35.9007C113.476 35.2501 113.626 34.521 113.637 33.7956C113.663 33.6984 113.682 33.6012 113.716 33.504C113.892 33.0067 114.06 32.4832 114.075 31.956C114.097 31.1185 113.035 30.853 112.43 31.2157C111.42 31.8214 110.298 32.6253 109.618 33.5862C109.128 34.2742 108.492 35.1342 108.803 36.0203C109.098 36.8578 110.392 37.1233 111.132 37.228C111.88 37.3364 112.99 36.5924 113.241 35.9007Z" fill="#4856CD"/>
<path d="M113.242 35.9005C113.331 35.5528 113.425 35.2088 113.515 34.8611L113.601 33.7955V33.788C113.668 33.4589 113.78 33.1486 113.847 32.8308C113.915 32.5242 113.963 32.1727 113.937 31.8998C113.918 31.825 113.915 31.724 113.881 31.668C113.84 31.6194 113.818 31.5707 113.78 31.5184L113.623 31.3913L113.436 31.3053C113.167 31.223 112.857 31.2529 112.632 31.3763C112.535 31.4137 112.374 31.5521 112.247 31.6343L111.84 31.911L111.084 32.4943C110.852 32.7111 110.613 32.9205 110.389 33.1411C110.187 33.3842 109.974 33.601 109.779 33.859C109.589 34.1282 109.398 34.375 109.248 34.6479C109.091 34.9134 108.987 35.1901 108.953 35.4743C108.912 35.7659 108.987 36.0351 109.17 36.2819C109.312 36.4913 109.622 36.667 109.895 36.8016C110.187 36.9325 110.501 37.026 110.823 37.1045C111.14 37.1942 111.466 37.2129 111.776 37.1194C112.086 37.0222 112.378 36.8652 112.636 36.6633C112.883 36.4502 113.115 36.2109 113.242 35.9005ZM113.242 35.9005C113.118 36.2109 112.89 36.4576 112.647 36.6782C112.389 36.8801 112.113 37.0671 111.795 37.183C111.473 37.2989 111.122 37.3064 110.793 37.2503C110.464 37.2054 110.131 37.1381 109.806 37.0334C109.484 36.9026 109.159 36.7941 108.886 36.4763C108.65 36.2221 108.489 35.822 108.512 35.4518C108.512 35.0779 108.62 34.7115 108.781 34.4049C108.934 34.0908 109.118 33.7955 109.308 33.53C109.503 33.2608 109.742 32.9953 109.959 32.7298C110.202 32.4905 110.467 32.2737 110.722 32.0493C110.995 31.8474 111.275 31.653 111.555 31.4661C111.851 31.2941 112.086 31.1258 112.442 30.9688C112.812 30.8192 113.212 30.8342 113.567 30.9762L113.818 31.1183C113.889 31.1856 113.96 31.2567 114.027 31.3277C114.083 31.41 114.128 31.5184 114.169 31.6119C114.203 31.7053 114.191 31.7801 114.203 31.8624C114.203 32.2438 114.113 32.5504 114.012 32.8757C113.915 33.1972 113.761 33.4926 113.683 33.8067V33.7992L113.541 34.8686C113.447 35.2125 113.346 35.5565 113.245 35.9005H113.242Z" fill="#4856CD"/>
<path d="M62.4209 47.2104H47.4962C44.5168 47.2104 42.1016 49.6257 42.1016 52.6051V67.5298C42.1016 70.5091 44.5168 72.9244 47.4962 72.9244H62.4209C65.4002 72.9244 67.8155 70.5091 67.8155 67.5298V52.6051C67.8155 49.6257 65.4002 47.2104 62.4209 47.2104Z" fill="#C78CEA"/>
<path d="M54.9582 63.2797C54.9582 63.5904 54.8435 63.8611 54.6268 64.0619C54.4187 64.2552 54.1317 64.3531 53.7745 64.3531H49.6185C49.1603 64.3531 48.809 64.2313 48.5746 63.9911C48.3416 63.7525 48.2236 63.3991 48.2236 62.9408V57.1941C48.2236 56.9002 48.2697 56.6577 48.3648 56.4525C48.4756 56.2136 48.6589 56.0296 48.8952 55.9201C49.0965 55.8271 49.3332 55.7818 49.6185 55.7818H53.6562C54.0167 55.7818 54.3033 55.8781 54.5079 56.0674C54.7216 56.2649 54.8347 56.532 54.8347 56.8397C54.8347 57.1474 54.7216 57.4198 54.5079 57.6173C54.3033 57.8066 54.0167 57.9025 53.6562 57.9025H50.6682V58.8532H53.383C53.733 58.8532 54.0124 58.9475 54.2138 59.1332C54.4245 59.3274 54.536 59.5908 54.536 59.8952C54.536 60.1996 54.4281 60.4584 54.2245 60.6553C54.0236 60.8495 53.7405 60.9478 53.383 60.9478H50.6682V62.196H53.7745C54.1317 62.196 54.4187 62.2939 54.6268 62.4868C54.8435 62.6877 54.9582 62.962 54.9582 63.2797Z" fill="white"/>
<path d="M62.9181 57.0917V62.9266C62.9181 63.3582 62.803 63.7012 62.5758 63.9462C62.4035 64.1318 62.0785 64.3531 61.5082 64.3531C61.3001 64.3531 61.1059 64.3245 60.9304 64.2683C60.7489 64.2102 60.5788 64.1184 60.4249 63.996C60.2922 63.89 60.1682 63.7654 60.0564 63.6264C59.9643 63.5114 59.8708 63.3923 59.7784 63.2722C59.7763 63.2693 59.7741 63.2664 59.772 63.2635L57.5409 60.2083V63.0432C57.5409 63.4405 57.4226 63.758 57.1897 63.988C56.9466 64.2269 56.6219 64.3531 56.2501 64.3531C55.8784 64.3531 55.5379 64.2237 55.2988 63.979C55.0733 63.7487 54.959 63.4337 54.959 63.0432V57.3197C54.959 57.0175 55 56.777 55.0841 56.5843L55.0895 56.5727C55.2006 56.3374 55.3847 56.144 55.6364 55.9986C55.8848 55.8547 56.1577 55.7818 56.4483 55.7818C56.6712 55.7818 56.8722 55.8178 57.0455 55.8881C57.2091 55.9549 57.3554 56.0464 57.4798 56.1601C57.5859 56.2571 57.688 56.3746 57.7926 56.5198C57.8775 56.6376 57.9648 56.7606 58.0555 56.8884L60.3645 60.0088V57.0917C60.3645 56.6961 60.4749 56.3804 60.6928 56.1537C60.9268 55.9106 61.2519 55.7818 61.6327 55.7818C62.0134 55.7818 62.3492 55.9096 62.5847 56.1514C62.8059 56.3785 62.9181 56.6948 62.9181 57.0917Z" fill="white"/>
</svg>
