<svg width="250" height="172" viewBox="0 0 250 172" fill="none" xmlns="http://www.w3.org/2000/svg">
<g clip-path="url(#clip0_54_1587)">
<path d="M186.302 0H115.235C106.342 0 99.1328 7.2316 99.1328 16.1522V155.848C99.1328 164.768 106.342 172 115.235 172H186.302C195.195 172 202.404 164.768 202.404 155.848V16.1522C202.404 7.2316 195.195 0 186.302 0Z" fill="#B78BE6"/>
<path d="M180.634 4.52319H120.901C112.008 4.52319 104.799 11.7548 104.799 20.6754V150.794C104.799 159.715 112.008 166.946 120.901 166.946H180.634C189.527 166.946 196.736 159.715 196.736 150.794V20.6754C196.736 11.7548 189.527 4.52319 180.634 4.52319Z" fill="#E8E8E5"/>
<path d="M170.342 137H132.449C127.783 137 124 140.794 124 145.474C124 150.154 127.783 153.948 132.449 153.948H170.342C175.008 153.948 178.791 150.154 178.791 145.474C178.791 140.794 175.008 137 170.342 137Z" fill="#4855CE"/>
<path d="M9.24857 113.469H83.6414C89.6101 113.469 94.0458 119.074 92.6222 124.888C87.5204 145.716 68.7802 161.162 46.4434 161.164C24.1098 161.164 5.36959 145.716 0.267813 124.89C-1.15579 119.074 3.27827 113.47 9.24857 113.47V113.469Z" fill="#E8E8E5"/>
<path d="M212.407 117.718C233.169 117.718 250 100.835 250 80.0077C250 59.1809 233.169 42.2974 212.407 42.2974C191.645 42.2974 174.814 59.1809 174.814 80.0077C174.814 100.835 191.645 117.718 212.407 117.718Z" fill="#4855CE"/>
<path d="M233.372 68.9078L210.147 97.9025C209.186 99.1013 207.756 99.8382 206.226 99.9201C206.126 99.9267 206.03 99.9283 205.934 99.9283C204.504 99.9283 203.126 99.3584 202.109 98.3381L191.828 88.0258C189.721 85.9116 189.721 82.4725 191.828 80.3567C192.85 79.3315 194.21 78.7665 195.653 78.7665C197.097 78.7665 198.457 79.3315 199.477 80.3567L205.495 86.3914L224.943 62.1115C226.811 59.7811 230.22 59.4077 232.545 61.2796C233.669 62.1885 234.378 63.4806 234.533 64.9201C234.69 66.3629 234.277 67.7762 233.374 68.9062L233.372 68.9078Z" fill="white"/>
<path d="M160.427 14.5112H141.108C138.689 14.5112 136.729 16.4773 136.729 18.9026C136.729 21.3279 138.689 23.294 141.108 23.294H160.427C162.846 23.294 164.806 21.3279 164.806 18.9026C164.806 16.4773 162.846 14.5112 160.427 14.5112Z" fill="#B78BE6"/>
</g>
<defs>
<clipPath id="clip0_54_1587">
<rect width="250" height="172" fill="white"/>
</clipPath>
</defs>
</svg>
