<svg width="254" height="164" viewBox="0 0 254 164" fill="none" xmlns="http://www.w3.org/2000/svg">
<path d="M26.6486 103L120.351 103C127.869 103 133.457 110.17 131.662 117.605C125.236 144.243 101.633 164 73.4979 164C45.3671 164 21.7644 144.243 15.3378 117.605C13.543 110.168 19.1306 103 26.6486 103Z" fill="#F4F4F2"/>
<path d="M49.0864 72H13.0278C5.83274 72 0 77.8421 0 85.0486V120.694C0 127.9 5.83274 133.743 13.0278 133.743H49.0864C56.2814 133.743 62.1142 127.9 62.1142 120.694V85.0486C62.1142 77.8421 56.2814 72 49.0864 72Z" fill="#C78CEA"/>
<path d="M31.4949 87.5809L32.8792 91.9706C34.2675 96.3761 37.7136 99.8278 42.1121 101.218L46.4948 102.605C47.9108 103.052 47.9108 105.059 46.4948 105.506L37.3794 108.389C35.9476 108.841 34.8262 109.965 34.3745 111.399L31.4963 120.529C31.0498 121.947 29.046 121.947 28.5996 120.529L25.7214 111.399C25.2697 109.965 24.1482 108.841 22.7164 108.389L13.601 105.506C12.1851 105.059 12.1851 103.052 13.601 102.605L22.7164 99.722C24.1482 99.2695 25.2697 98.1463 25.7214 96.7122L28.5996 87.5822C29.046 86.164 31.0498 86.164 31.4963 87.5822L31.4949 87.5809Z" fill="white"/>
<path d="M47.8381 84.7906C48.34 86.3808 49.5843 87.627 51.172 88.1298C52.0266 88.3997 52.0266 89.6128 51.172 89.8827L49.6015 90.3789C48.9978 90.5694 48.5249 91.043 48.3347 91.6476L47.8394 93.2207C47.5699 94.0766 46.3587 94.0766 46.0892 93.2207L45.5939 91.6476C45.4037 91.043 44.9308 90.5694 44.3272 90.3789L42.7567 89.8827C41.9021 89.6128 41.9021 88.3997 42.7567 88.1298L44.3272 87.6337C44.9308 87.4431 45.4037 86.9695 45.5939 86.3649L46.0892 84.7919C46.3587 83.9359 47.5699 83.9359 47.8394 84.7919L47.8381 84.7906Z" fill="white"/>
<path fill-rule="evenodd" clip-rule="evenodd" d="M137.523 12.2484C141.813 12.32 146.022 12.9655 150.055 14.1256L150.011 14.1123L153.585 9.15176C156.615 4.94518 162.344 3.73905 166.809 6.36715L168.967 7.63772L171.126 8.90829C175.591 11.5374 177.325 17.1373 175.13 21.836L172.323 27.8461L172.29 27.8113C174.982 30.7156 177.34 33.9708 179.281 37.5309L179.271 37.5115L186.11 36.4035C191.223 35.5749 196.126 38.78 197.428 43.8019L198.057 46.2285L198.686 48.655C199.988 53.677 197.261 58.8656 192.391 60.6334L185.185 63.2492V63.2338C185.104 64.9218 184.934 66.5954 184.68 68.2476C184.109 71.9642 185.689 75.6848 188.734 77.8853L189.874 78.7088C194.074 81.7441 195.278 87.4821 192.654 91.9547L191.385 94.1163L190.117 96.2779C187.492 100.75 181.901 102.488 177.21 100.289L169.528 96.6891L169.57 96.6492C167.053 98.9735 164.274 101.046 161.263 102.814L161.295 102.796L162.667 111.287C163.494 116.409 160.294 121.319 155.281 122.623L152.857 123.253L150.434 123.884C145.421 125.187 140.239 122.457 138.475 117.579L137.733 115.528C136.475 112.051 133.412 109.537 129.758 109.008C128.28 108.794 126.817 108.512 125.374 108.164L125.389 108.168L120.426 115.057C117.395 119.264 111.666 120.47 107.201 117.842L105.043 116.571L102.885 115.301C98.4193 112.671 96.685 107.072 98.88 102.373L102.253 95.1556L102.276 95.1781C99.7093 92.6002 97.4163 89.7184 95.4604 86.5685L95.4686 86.5808L87.9002 87.8064C82.7873 88.635 77.8847 85.4299 76.5824 80.408L75.9533 77.9815L75.3241 75.5539C74.0219 70.533 76.7489 65.3433 81.6188 63.5755L88.1331 61.2104V61.2738C88.0984 57.2053 88.5754 53.2013 89.5201 49.3415L89.5099 49.3814L84.1375 45.4991C79.9376 42.4638 78.7334 36.7258 81.3573 32.2532L82.6259 30.0916L83.8944 27.93C86.5193 23.4574 92.1103 21.7204 96.8015 23.9188L102.333 26.5111L102.326 26.5193C105.272 23.5577 108.619 20.9582 112.309 18.8151L112.298 18.8212L111.345 12.9205C110.517 7.79935 113.717 2.88894 118.73 1.58461L121.154 0.95444L123.578 0.32427C128.591 -0.979036 133.771 1.75136 135.536 6.62904L137.569 12.2484H137.522H137.523Z" fill="#5158C5"/>
<path d="M159.435 63L114.586 63C110.988 63 108.313 59.7089 109.172 56.296C112.248 44.0688 123.545 35 137.012 35C150.476 35 161.773 44.0688 164.849 56.296C165.708 59.7099 163.034 63 159.435 63Z" fill="white"/>
<path fill-rule="evenodd" clip-rule="evenodd" d="M230.684 94.8066C226.544 90.6135 220.823 88.0194 214.503 88.0194C208.184 88.0194 202.463 90.6135 198.323 94.8066C194.182 98.9997 191.621 104.793 191.621 111.193C191.621 117.593 194.182 123.387 198.323 127.581C202.463 131.774 208.184 134.368 214.503 134.368C220.823 134.368 226.544 131.774 230.684 127.581C234.824 123.388 237.386 117.593 237.386 111.193C237.386 104.793 234.824 98.9997 230.684 94.8066ZM222.65 81.5289C225.239 82.2566 227.689 83.3222 229.95 84.6764L229.925 84.6604L232.87 82.1901C235.368 80.0949 239.029 80.2691 241.323 82.5918L242.431 83.7146L243.54 84.8374C245.833 87.16 246.004 90.8676 243.937 93.3978L241.291 96.6331L241.277 96.6065C242.452 98.8148 243.369 101.185 243.987 103.677L243.984 103.664L248.303 104.075C251.532 104.382 254 107.128 254 110.412V111.999V113.586C254 116.871 251.532 119.617 248.303 119.924L243.524 120.379L243.527 120.37C243.213 121.391 242.846 122.389 242.433 123.361C241.503 125.548 241.876 128.08 243.376 129.913L243.937 130.6C246.006 133.13 245.833 136.837 243.54 139.16L242.431 140.283L241.323 141.406C239.029 143.728 235.368 143.901 232.87 141.807L228.779 138.376L228.811 138.359C226.921 139.382 224.911 140.21 222.808 140.814L222.83 140.808L222.327 146.231C222.024 149.5 219.312 152 216.069 152H212.934C209.69 152 206.979 149.5 206.676 146.231L206.548 144.855C206.332 142.523 204.871 140.496 202.739 139.588C201.877 139.221 201.035 138.815 200.214 138.372L200.222 138.378L196.132 141.809C193.633 143.904 189.972 143.73 187.679 141.407L186.57 140.284L185.461 139.161C183.168 136.839 182.996 133.13 185.065 130.601L188.242 126.715L188.253 126.732C187.102 124.744 186.165 122.612 185.474 120.37L185.477 120.379L180.697 119.924C177.468 119.617 175 116.871 175 113.586V111.999V110.412C175 107.128 177.468 104.382 180.697 104.075L185.016 103.664L185.007 103.702C185.624 101.204 186.542 98.8254 187.722 96.6105L187.71 96.6331L185.065 93.3978C182.996 90.8676 183.168 87.16 185.461 84.8374L186.57 83.7146L187.679 82.5918C189.972 80.2691 193.633 80.0949 196.132 82.1901L199.077 84.6604L199.071 84.6644C201.322 83.3195 203.758 82.2592 206.333 81.5342L206.325 81.5369L206.674 77.7695C206.978 74.4996 209.689 72 212.932 72H216.068C219.311 72 222.022 74.4996 222.326 77.7695L222.675 81.5369L222.646 81.5289H222.65Z" fill="#E8E8E5"/>
</svg>
