<svg width="211" height="162" viewBox="0 0 211 162" fill="none" xmlns="http://www.w3.org/2000/svg">
<path d="M180.761 81.0264V32.9736C180.761 29.1183 184.287 26.2528 187.944 27.1732C201.045 30.4689 210.761 42.5729 210.761 57.0011C210.761 71.4271 201.045 83.5311 187.944 86.8268C184.286 87.7472 180.761 84.8817 180.761 81.0264Z" fill="#B78BE6"/>
<rect x="49.7314" width="114.851" height="162" rx="12" fill="#D9D9D9" fill-opacity="0.4"/>
<rect x="88.418" y="27.8059" width="70.1194" height="39.8955" rx="5" fill="#4B4553" fill-opacity="0.14"/>
<rect x="88.418" y="76.1641" width="70.1194" height="21.7612" rx="5" fill="#4B4553" fill-opacity="0.14"/>
<rect x="88.418" y="105.179" width="70.1194" height="43.5224" rx="5" fill="#4B4553" fill-opacity="0.14"/>
<path d="M49.7314 12C49.7314 5.37259 55.104 0 61.7314 0H82.3732V162H61.7314C55.104 162 49.7314 156.627 49.7314 150V12Z" fill="#3F55D2"/>
<path d="M59.8725 111.651L6.62 111.651C2.34747 111.651 -0.828013 107.578 0.191951 103.355C3.84432 88.2231 17.258 77.0001 33.2475 77.0001C49.2345 77.0001 62.6482 88.2231 66.3006 103.355C67.3205 107.58 64.145 111.651 59.8725 111.651Z" fill="#F4F4F2"/>
<path d="M6.62017 114.461L59.8727 114.461C64.1452 114.461 67.3207 118.534 66.3007 122.757C62.6484 137.889 49.2347 149.112 33.2452 149.112C17.2581 149.112 3.84445 137.889 0.192093 122.757C-0.827873 118.532 2.34763 114.461 6.62017 114.461Z" fill="#F4F4F2"/>
</svg>
