<svg width="125" height="125" viewBox="0 0 125 125" fill="none" xmlns="http://www.w3.org/2000/svg">
<path fill-rule="evenodd" clip-rule="evenodd" d="M62.5235 12.2484C66.8132 12.32 71.0223 12.9655 75.0546 14.1256L75.0107 14.1123L78.5845 9.15176C81.6149 4.94518 87.3438 3.73905 91.8092 6.36715L93.9674 7.63772L96.1255 8.90829C100.591 11.5374 102.325 17.1373 100.13 21.836L97.3226 27.8461L97.2899 27.8113C99.9822 30.7156 102.34 33.9708 104.281 37.5309L104.271 37.5115L111.11 36.4035C116.223 35.5749 121.126 38.78 122.428 43.8019L123.057 46.2285L123.686 48.655C124.988 53.677 122.261 58.8656 117.391 60.6334L110.185 63.2492V63.2338C110.104 64.9218 109.934 66.5954 109.68 68.2476C109.109 71.9642 110.689 75.6848 113.734 77.8853L114.874 78.7088C119.074 81.7441 120.278 87.4821 117.654 91.9547L116.385 94.1163L115.117 96.2779C112.492 100.75 106.901 102.488 102.21 100.289L94.5281 96.6891L94.57 96.6492C92.0533 98.9735 89.2742 101.046 86.2632 102.814L86.2948 102.796L87.6665 111.287C88.4938 116.409 85.2939 121.319 80.281 122.623L77.8573 123.253L75.4336 123.884C70.4207 125.187 65.2393 122.457 63.4754 117.579L62.7328 115.528C61.4745 112.051 58.4125 109.537 54.758 109.008C53.2801 108.794 51.8175 108.512 50.3743 108.164L50.3886 108.168L45.4257 115.057C42.3953 119.264 36.6665 120.47 32.201 117.842L30.0429 116.571L27.8847 115.301C23.4193 112.671 21.685 107.072 23.88 102.373L27.2525 95.1556L27.276 95.1781C24.7093 92.6002 22.4163 89.7184 20.4604 86.5685L20.4686 86.5808L12.9002 87.8064C7.78726 88.635 2.88468 85.4299 1.58244 80.408L0.953272 77.9815L0.324108 75.5539C-0.978138 70.533 1.74892 65.3433 6.61881 63.5755L13.1331 61.2104V61.2738C13.0984 57.2053 13.5754 53.2013 14.5201 49.3415L14.5099 49.3814L9.13751 45.4991C4.93763 42.4638 3.73344 36.7258 6.35734 32.2532L7.62588 30.0916L8.89442 27.93C11.5193 23.4574 17.1103 21.7204 21.8015 23.9188L27.3332 26.5111L27.3261 26.5193C30.2717 23.5577 33.6187 20.9582 37.3089 18.8151L37.2977 18.8212L36.3447 12.9205C35.5174 7.79935 38.7174 2.88894 43.7303 1.58461L46.154 0.95444L48.5777 0.32427C53.5906 -0.979036 58.771 1.75136 60.5359 6.62904L62.5694 12.2484H62.5224H62.5235Z" fill="#5158C5"/>
<path d="M84.4354 63L39.5861 63C35.9878 63 33.3134 59.7089 34.1724 56.296C37.2484 44.0688 48.5454 35 62.0118 35C75.4761 35 86.7731 44.0688 89.8491 56.296C90.7081 59.7099 88.0337 63 84.4354 63Z" fill="white"/>
</svg>
