<svg width="79" height="80" viewBox="0 0 79 80" fill="none" xmlns="http://www.w3.org/2000/svg">
<path fill-rule="evenodd" clip-rule="evenodd" d="M55.684 22.8066C51.5436 18.6135 45.8229 16.0194 39.5033 16.0194C33.1837 16.0194 27.463 18.6135 23.3226 22.8066C19.1822 26.9997 16.6207 32.7931 16.6207 39.1932C16.6207 45.5932 19.1822 51.3867 23.3226 55.5811C27.463 59.7742 33.1837 62.3683 39.5033 62.3683C45.8229 62.3683 51.5436 59.7742 55.684 55.5811C59.8244 51.388 62.3858 45.5932 62.3858 39.1932C62.3858 32.7931 59.8244 26.9997 55.684 22.8066ZM47.6501 9.52891C50.2392 10.2566 52.689 11.3222 54.9497 12.6764L54.9247 12.6604L57.8698 10.1901C60.3682 8.09485 64.0291 8.26912 66.3226 10.5918L67.4313 11.7146L68.54 12.8374C70.8335 15.16 71.0042 18.8676 68.9367 21.3978L66.2911 24.6331L66.2767 24.6065C67.4523 26.8148 68.3692 29.1854 68.9866 31.677L68.984 31.6637L73.303 32.0748C76.5318 32.3821 79 35.1278 79 38.4123V39.9993V41.5864C79 44.8709 76.5318 47.6166 73.303 47.9239L68.5242 48.3789L68.5268 48.3696C68.2129 49.3912 67.8464 50.3889 67.4326 51.3614C66.5026 53.5484 66.8757 56.0799 68.3758 57.9131L68.9367 58.5995C71.0056 61.1298 70.8335 64.8373 68.54 67.16L67.4313 68.2827L66.3226 69.4055C64.0291 71.7282 60.3682 71.9012 57.8698 69.8073L53.7793 66.3764L53.8108 66.3591C51.9206 67.3821 49.9108 68.2096 47.8077 68.8135L47.8301 68.8082L47.327 74.2305C47.0235 77.5004 44.3123 80 41.0691 80H37.9336C34.6903 80 31.9791 77.5004 31.6757 74.2305L31.5482 72.855C31.3315 70.523 29.8708 68.4956 27.7389 67.5883C26.8772 67.2212 26.0352 66.8154 25.2142 66.3724L25.222 66.3778L21.1316 69.8086C18.6331 71.9038 14.9722 71.7295 12.6787 69.4069L11.57 68.2841L10.4614 67.1613C8.16784 64.8386 7.99576 61.1298 10.0646 58.6009L13.2422 54.7151L13.2527 54.7324C12.102 52.7436 11.1654 50.6124 10.4745 48.3696L10.4771 48.3789L5.69699 47.9239C2.46822 47.6166 0 44.8709 0 41.5864V39.9993V38.4123C0 35.1278 2.46822 32.3821 5.69699 32.0748L10.016 31.6637L10.0068 31.7023C10.6242 29.204 11.5424 26.8254 12.722 24.6105L12.7102 24.6331L10.0646 21.3978C7.99576 18.8676 8.16784 15.16 10.4614 12.8374L11.57 11.7146L12.6787 10.5918C14.9722 8.26912 18.6331 8.09485 21.1316 10.1901L24.0766 12.6604L24.0713 12.6644C26.3215 11.3195 28.7582 10.2592 31.3328 9.53424L31.3249 9.53689L31.6743 5.76949C31.9778 2.49962 34.689 0 37.9322 0H41.0678C44.311 0 47.0222 2.49962 47.3257 5.76949L47.6751 9.53689L47.6462 9.52891H47.6501Z" fill="#E8E8E5"/>
</svg>
