<svg width="606" height="57" viewBox="0 0 606 57" fill="none" xmlns="http://www.w3.org/2000/svg">
<path d="M454 0H577.5C593.24 0 606 12.7599 606 28.5V28.5C606 44.2401 593.24 57 577.5 57H454V0Z" fill="#4856CD"/>
<path d="M490.031 20.603V28.0039H486.999V20.603H490.031ZM493.479 27.4985C493.479 27.0044 493.527 26.4915 493.625 25.9599C493.729 25.4209 493.872 24.9192 494.051 24.455C494.231 23.9834 494.441 23.6053 494.68 23.3208H492.558V20.603H500.352C502.605 20.603 504.237 21.0784 505.248 22.0293C506.266 22.9801 506.775 24.5112 506.775 26.6225V27.521C506.775 29.9093 506.199 31.7137 505.046 32.9341C503.893 34.1544 502.193 34.7646 499.947 34.7646C497.746 34.7646 496.118 34.1919 495.062 33.0464C494.006 31.8934 493.479 30.1601 493.479 27.8466V27.4985ZM497.319 23.3208C496.863 24.1144 496.634 25.4471 496.634 27.3188V27.8242C496.634 29.2317 496.915 30.2911 497.477 31.0024C498.038 31.7062 498.884 32.0581 500.015 32.0581C501.272 32.0581 502.182 31.695 502.744 30.9687C503.313 30.2425 503.597 29.0633 503.597 27.4311V26.6001C503.597 25.4321 503.324 24.5936 502.777 24.0844C502.238 23.5753 501.355 23.3208 500.127 23.3208H497.319ZM512.626 30.4746L511.93 34.54H508.786L509.729 29.8906C509.999 28.6028 510.246 27.6857 510.47 27.1391C510.695 26.5851 510.972 26.1471 511.301 25.8252C511.638 25.4957 512.102 25.2037 512.694 24.9492L509.448 20.603H513.132L517.68 26.9033C518.152 26.4765 518.511 25.9749 518.758 25.3984C519.005 24.8219 519.181 24.0433 519.286 23.0625L519.522 20.603H522.622L522.352 23.2646C522.27 24.0208 522.12 24.6909 521.903 25.2749C521.753 25.6717 521.57 26.046 521.353 26.3979C521.135 26.7423 520.851 27.1092 520.499 27.4985C520.155 27.8803 519.698 28.3258 519.129 28.8349L523.318 34.54H519.657L514.053 26.7685C513.656 27.0006 513.371 27.3375 513.199 27.7793C513.117 28.0039 513.027 28.3408 512.93 28.79C512.832 29.2392 512.731 29.8008 512.626 30.4746ZM525.912 31.9458C527.739 31.3468 529.214 30.5906 530.337 29.6772C531.116 29.0558 531.711 28.3782 532.123 27.6445C532.534 26.9033 532.74 26.1284 532.74 25.3198C532.74 23.9871 531.905 23.3208 530.236 23.3208H524.531V15.8413H527.63V20.603H530.741C534.11 20.603 535.795 22.0742 535.795 25.0166C535.795 26.4241 535.462 27.7418 534.795 28.9697C534.137 30.1901 533.193 31.2794 531.965 32.2378C530.348 33.4956 528.33 34.4839 525.912 35.2026V31.9458ZM550.687 25.2299C550.687 26.6525 550.398 27.9814 549.822 29.2168C549.245 30.4521 548.399 31.5602 547.284 32.541C546.176 33.5218 544.817 34.3416 543.207 35.0005V31.7773C544.615 31.1185 545.7 30.2425 546.464 29.1494C547.235 28.0488 547.621 26.8621 547.621 25.5893C547.621 24.7508 547.411 24.1631 546.992 23.8261C546.572 23.4892 545.839 23.3208 544.791 23.3208H538.288V20.603H545.229C547.13 20.603 548.515 20.9661 549.384 21.6924C550.252 22.4111 550.687 23.5903 550.687 25.2299ZM541.893 25.9824V38.8637H538.861V25.9824H541.893Z" fill="white"/>
<path d="M28.5 0.5H151.5V56.5H28.5C13.036 56.5 0.5 43.964 0.5 28.5C0.5 13.036 13.036 0.5 28.5 0.5Z" stroke="#4754D6"/>
<path d="M26.3501 20.603V28.0039H23.3179V20.603H26.3501ZM42.2188 31.8222V34.54H29.2251V31.8222H37.6929V26.8584C37.6929 25.5481 37.4458 24.631 36.9517 24.1069C36.465 23.5828 35.6302 23.3208 34.4473 23.3208H29.7529V20.603H34.4922C36.6784 20.603 38.2619 21.0597 39.2427 21.9731C40.231 22.8865 40.7251 24.3839 40.7251 26.4653V31.8222H42.2188ZM47.5532 20.603V28.0039H44.521V20.603H47.5532ZM57.8403 34.7646C55.7739 34.7646 54.2541 34.2855 53.2808 33.3271C52.3075 32.3613 51.8208 30.8789 51.8208 28.8799V20.603H54.853V28.8125C54.853 29.928 55.0926 30.7441 55.5718 31.2607C56.0509 31.7773 56.8146 32.0356 57.8628 32.0356C58.6265 32.0356 59.2741 31.8896 59.8057 31.5976C60.3372 31.2981 60.7415 30.7815 61.0186 30.0478C61.2956 29.3066 61.4341 28.2809 61.4341 26.9707C61.4341 25.6754 61.2881 24.7096 60.9961 24.0732C60.7041 23.4293 60.2212 23.1074 59.5474 23.1074C58.896 23.1074 58.2147 23.3208 57.5034 23.7475V20.9961C58.2072 20.5768 59.057 20.3672 60.0527 20.3672C61.6549 20.3672 62.8042 20.8912 63.5005 21.9394C64.2043 22.9801 64.5562 24.6497 64.5562 26.9482C64.5562 29.6585 64.0171 31.6388 62.939 32.8891C61.8683 34.1395 60.1688 34.7646 57.8403 34.7646ZM70.8003 20.603V28.0039H67.7681V20.603H70.8003ZM77.7407 20.603V28.0039H74.7085V20.603H77.7407ZM84.2769 30.4746L83.5806 34.54H80.436L81.3794 29.8906C81.6489 28.6028 81.896 27.6857 82.1206 27.1391C82.3452 26.5851 82.6222 26.1471 82.9517 25.8252C83.2886 25.4957 83.7528 25.2037 84.3442 24.9492L81.0986 20.603H84.7822L89.3306 26.9033C89.8022 26.4765 90.1616 25.9749 90.4087 25.3984C90.6558 24.8219 90.8317 24.0433 90.9365 23.0625L91.1724 20.603H94.272L94.0024 23.2646C93.9201 24.0208 93.7703 24.6909 93.5532 25.2749C93.4035 25.6717 93.2201 26.046 93.0029 26.3979C92.7858 26.7423 92.5013 27.1092 92.1494 27.4985C91.805 27.8803 91.3483 28.3258 90.7793 28.8349L94.9683 34.54H91.3071L85.7031 26.7685C85.3063 27.0006 85.0218 27.3375 84.8496 27.7793C84.7673 28.0039 84.6774 28.3408 84.5801 28.79C84.4827 29.2392 84.3817 29.8008 84.2769 30.4746ZM100.381 20.603V28.0039H97.3491V20.603H100.381ZM113.746 26.4653V34.54H110.702V26.4428C110.702 25.2824 110.451 24.4738 109.95 24.0171C109.456 23.5529 108.621 23.3208 107.445 23.3208H102.773V20.603H107.625C109.1 20.603 110.283 20.8014 111.174 21.1982C112.072 21.5875 112.724 22.2127 113.128 23.0737C113.54 23.9272 113.746 25.0577 113.746 26.4653ZM129.367 25.2299C129.367 26.6525 129.079 27.9814 128.502 29.2168C127.926 30.4521 127.08 31.5602 125.964 32.541C124.856 33.5218 123.497 34.3416 121.888 35.0005V31.7773C123.295 31.1185 124.381 30.2425 125.145 29.1494C125.916 28.0488 126.301 26.8621 126.301 25.5893C126.301 24.7508 126.092 24.1631 125.672 23.8261C125.253 23.4892 124.519 23.3208 123.471 23.3208H116.969V20.603H123.909C125.811 20.603 127.196 20.9661 128.064 21.6924C128.933 22.4111 129.367 23.5903 129.367 25.2299ZM120.574 25.9824V38.8637H117.542V25.9824H120.574Z" fill="#4856CD"/>
<path d="M151.5 0.5H302.5V56.5H151.5V0.5Z" stroke="#4754D6"/>
<path d="M208.986 20.603V28.0039H205.954V20.603H208.986ZM213.108 31.9458C214.935 31.3468 216.41 30.5906 217.533 29.6772C218.311 29.0558 218.907 28.3782 219.318 27.6445C219.73 26.9033 219.936 26.1284 219.936 25.3198C219.936 23.9871 219.101 23.3208 217.432 23.3208H211.727V15.8413H214.826V20.603H217.937C221.306 20.603 222.991 22.0742 222.991 25.0166C222.991 26.4241 222.658 27.7418 221.991 28.9697C221.332 30.1901 220.389 31.2794 219.161 32.2378C217.544 33.4956 215.526 34.4839 213.108 35.2026V31.9458ZM226.045 31.9458C227.872 31.3468 229.347 30.5906 230.47 29.6772C231.249 29.0558 231.844 28.3782 232.256 27.6445C232.668 26.9033 232.874 26.1284 232.874 25.3198C232.874 23.9871 232.039 23.3208 230.369 23.3208H224.664V15.8413H227.764V20.603H230.875C234.244 20.603 235.928 22.0742 235.928 25.0166C235.928 26.4241 235.595 27.7418 234.929 28.9697C234.27 30.1901 233.326 31.2794 232.099 32.2378C230.481 33.4956 228.464 34.4839 226.045 35.2026V31.9458ZM248.248 27.8466C248.248 32.3089 245.972 34.54 241.42 34.54H237.691V31.8222H241.251C242.592 31.8222 243.584 31.4853 244.228 30.8115C244.871 30.1377 245.193 29.1119 245.193 27.7343V27.4311C245.193 26.0311 244.871 24.9979 244.228 24.3315C243.584 23.6577 242.607 23.3208 241.296 23.3208H237.691V20.603H241.577C246.024 20.603 248.248 22.8266 248.248 27.2739V27.8466Z" fill="#4856CD"/>
<path d="M302.5 0.5H453.5V56.5H302.5V0.5Z" stroke="#4754D6"/>
<path d="M347.049 20.603V28.0039H344.017V20.603H347.049ZM349.464 32.0805C351.403 32.0431 352.904 31.8522 353.967 31.5078L349.992 20.603H353.282L356.595 30.1489C357.164 29.6922 357.617 29.0708 357.954 28.2846C358.299 27.491 358.549 26.469 358.707 25.2187C358.864 23.9609 358.942 22.4223 358.942 20.603H362.064C362.064 24.1893 361.668 26.9819 360.874 28.9809C360.342 30.3286 359.597 31.4367 358.639 32.3051C357.681 33.1661 356.453 33.8175 354.956 34.2592C353.458 34.701 351.628 34.9705 349.464 35.0678V32.0805ZM368.208 20.603V34.54H365.175V20.603H368.208ZM382.953 32.5859V34.54H371.172V31.8222H378.719L370.274 20.603H373.913L378.169 26.3755C378.663 26.1359 379.019 25.7765 379.236 25.2973C379.46 24.8182 379.618 24.1181 379.708 23.1972L379.955 20.603H383.065L382.83 23.2197C382.732 24.2529 382.568 25.0615 382.335 25.6455C382.103 26.2145 381.77 26.6974 381.336 27.0942C380.902 27.491 380.306 27.8429 379.55 28.1499L382.953 32.5859ZM397.957 25.2299C397.957 26.6525 397.669 27.9814 397.092 29.2168C396.516 30.4521 395.67 31.5602 394.554 32.541C393.446 33.5218 392.087 34.3416 390.478 35.0005V31.7773C391.885 31.1185 392.971 30.2425 393.734 29.1494C394.506 28.0488 394.891 26.8621 394.891 25.5893C394.891 24.7508 394.681 24.1631 394.262 23.8261C393.843 23.4892 393.109 23.3208 392.061 23.3208H385.559V20.603H392.499C394.401 20.603 395.786 20.9661 396.654 21.6924C397.523 22.4111 397.957 23.5903 397.957 25.2299ZM389.164 25.9824V38.8637H386.131V25.9824H389.164ZM408.39 20.5356C410.299 20.5356 411.688 21.0971 412.557 22.2202C413.425 23.3357 413.859 25.0802 413.859 27.4536V34.54H406.616V31.8222H410.805V27.6894C410.805 26.1097 410.614 24.9791 410.232 24.2978C409.858 23.609 409.195 23.2646 408.244 23.2646C407.368 23.2646 406.631 23.7026 406.032 24.5786C405.433 25.477 404.875 26.9744 404.358 29.0708L403 34.54H399.765L401.281 28.7226C401.468 28.0188 401.648 27.3899 401.82 26.8359C402 26.2819 402.172 25.8064 402.337 25.4096L399.552 20.7602H402.91L403.965 22.7368C404.415 22.048 405.028 21.5089 405.807 21.1196C406.593 20.7303 407.454 20.5356 408.39 20.5356Z" fill="#4754D6"/>
</svg>
