<svg width="1030" height="627" viewBox="0 0 1030 627" fill="none" xmlns="http://www.w3.org/2000/svg">
<rect x="0.5" y="0.5" width="1029" height="626" rx="43.5" fill="white" fill-opacity="0.38" stroke="white"/>
<rect x="539.5" y="68.5" width="438" height="54" rx="27" fill="white" stroke="white"/>
<rect x="539.5" y="176.5" width="438" height="54" rx="27" fill="white" stroke="white"/>
<rect x="51.5" y="68.5" width="438" height="54" rx="27" fill="white" stroke="white"/>
<rect x="51.5" y="176.5" width="438" height="54" rx="27" fill="white" stroke="white"/>
<rect x="55.5" y="291.5" width="926" height="176" rx="29.5" fill="white" stroke="white"/>
<rect x="941.5" y="491.5" width="34" height="34" rx="17" fill="white" stroke="white"/>
<path d="M853.535 41.0176V47.3164H851.738V41.0176H853.535ZM861.67 53.1953C860.01 53.1953 858.789 52.7786 858.008 51.9453C857.227 51.1055 856.836 49.8164 856.836 48.0781V41.0176H858.633V48.0195C858.633 49.2305 858.87 50.1159 859.346 50.6758C859.827 51.2357 860.612 51.5156 861.699 51.5156C862.552 51.5156 863.245 51.3431 863.779 50.998C864.313 50.653 864.704 50.1094 864.951 49.3672C865.205 48.6185 865.332 47.6354 865.332 46.418C865.332 45.0638 865.189 44.0742 864.902 43.4492C864.616 42.8177 864.128 42.502 863.438 42.502C862.773 42.502 862.132 42.7135 861.514 43.1367V41.418C862.015 41.0208 862.715 40.8223 863.613 40.8223C864.948 40.8223 865.882 41.2617 866.416 42.1406C866.95 43.013 867.217 44.4388 867.217 46.418C867.217 48.7552 866.771 50.4707 865.879 51.5645C864.987 52.6517 863.584 53.1953 861.67 53.1953ZM877.383 45.9785V53H875.576V45.959C875.576 44.7741 875.335 43.931 874.854 43.4297C874.378 42.9284 873.542 42.6777 872.344 42.6777H868.682V41.0176H872.363C873.561 41.0176 874.528 41.1868 875.264 41.5254C875.999 41.8574 876.536 42.388 876.875 43.1172C877.214 43.8398 877.383 44.7936 877.383 45.9785ZM888.262 46.3398C888.262 45.1094 887.992 44.1914 887.451 43.5859C886.911 42.9805 886.061 42.6777 884.902 42.6777H882.207V46.0566H884.58V47.7168H880.381V41.0176H884.922C886.667 41.0176 887.962 41.4538 888.809 42.3262C889.661 43.1921 890.088 44.543 890.088 46.3789V47.1797C890.088 51.0599 888.252 53 884.58 53H880.488V51.3398H884.629C885.866 51.3398 886.781 50.998 887.373 50.3145C887.965 49.6243 888.262 48.5859 888.262 47.1992V46.3398ZM908.779 45.9785V53H898.516V41.0176H903.76C905.557 41.0176 906.842 41.4017 907.617 42.1699C908.392 42.9382 908.779 44.2077 908.779 45.9785ZM900.312 51.3398H906.973V45.959C906.973 44.7741 906.732 43.931 906.25 43.4297C905.775 42.9284 904.938 42.6777 903.74 42.6777H900.312V51.3398ZM921.074 51.7891C920.625 52.0885 920.065 52.3327 919.395 52.5215C918.73 52.7103 917.897 52.8503 916.895 52.9414C915.892 53.0326 914.652 53.0846 913.174 53.0977L910.889 41.0176H912.754L913.955 47.1797L914.668 47.043C915.059 46.9518 915.381 46.8346 915.635 46.6914C915.889 46.5417 916.09 46.3333 916.24 46.0664C916.364 45.8581 916.458 45.6009 916.523 45.2949C916.589 44.9889 916.637 44.6243 916.67 44.2012L916.914 41.0176H918.77L918.467 44.2207C918.421 44.7611 918.366 45.2298 918.301 45.627C918.236 46.0176 918.158 46.3333 918.066 46.5742C917.904 47.0625 917.66 47.4401 917.334 47.707C917.008 47.9674 916.468 48.1986 915.713 48.4004L914.248 48.7422L914.727 51.2617H914.961C916.27 51.2617 917.318 51.1868 918.105 51.0371C918.893 50.8809 919.515 50.64 919.971 50.3145C920.277 50.0931 920.534 49.8197 920.742 49.4941C920.951 49.1686 921.126 48.7389 921.27 48.2051C921.413 47.6712 921.533 46.9844 921.631 46.1445L922.246 41.0176H924.131L923.506 46.0762C923.376 47.209 923.206 48.1432 922.998 48.8789C922.79 49.6081 922.529 50.2005 922.217 50.6562C921.911 51.1055 921.53 51.4831 921.074 51.7891Z" fill="#4B4553"/>
<path d="M852.871 157.678V168H851.064V157.678H844.229V156.018H854.365V157.678H852.871ZM858.418 156.018V162.316H856.621V156.018H858.418ZM863.613 156.018V162.316H861.816V156.018H863.613ZM871.494 160.656V168H866.016V166.34H869.697V161.164C869.697 160.109 869.645 159.364 869.541 158.928C869.437 158.479 869.255 158.16 868.994 157.971C868.74 157.775 868.372 157.678 867.891 157.678H866.572V156.018H867.832C868.874 156.018 869.635 156.161 870.117 156.447C870.599 156.74 870.947 157.219 871.162 157.883C871.383 158.54 871.494 159.465 871.494 160.656ZM882.227 156.018V171.76H880.43V156.018H882.227ZM887.422 156.018V168H885.625V156.018H887.422ZM898.398 161.34C898.398 160.109 898.128 159.191 897.588 158.586C897.048 157.98 896.198 157.678 895.039 157.678H892.344V161.057H894.717V162.717H890.518V156.018H895.059C896.803 156.018 898.099 156.454 898.945 157.326C899.798 158.192 900.225 159.543 900.225 161.379V162.18C900.225 166.06 898.389 168 894.717 168H890.625V166.34H894.766C896.003 166.34 896.917 165.998 897.51 165.314C898.102 164.624 898.398 163.586 898.398 162.199V161.34ZM902.803 166.418C904.053 165.956 905.12 165.37 906.006 164.66C906.898 163.957 907.575 163.189 908.037 162.355C908.506 161.522 908.74 160.676 908.74 159.816C908.74 158.391 907.979 157.678 906.455 157.678H901.602V151.74H903.398V156.018H906.641C909.251 156.018 910.557 157.18 910.557 159.504C910.557 160.702 910.27 161.851 909.697 162.951C909.124 164.051 908.317 165.041 907.275 165.92C906.038 166.975 904.548 167.814 902.803 168.439V166.418ZM918.369 168.195C916.709 168.195 915.488 167.779 914.707 166.945C913.926 166.105 913.535 164.816 913.535 163.078V156.018H915.332V163.02C915.332 164.23 915.57 165.116 916.045 165.676C916.527 166.236 917.311 166.516 918.398 166.516C919.251 166.516 919.945 166.343 920.479 165.998C921.012 165.653 921.403 165.109 921.65 164.367C921.904 163.618 922.031 162.635 922.031 161.418C922.031 160.064 921.888 159.074 921.602 158.449C921.315 157.818 920.827 157.502 920.137 157.502C919.473 157.502 918.831 157.714 918.213 158.137V156.418C918.714 156.021 919.414 155.822 920.312 155.822C921.647 155.822 922.581 156.262 923.115 157.141C923.649 158.013 923.916 159.439 923.916 161.418C923.916 163.755 923.47 165.471 922.578 166.564C921.686 167.652 920.283 168.195 918.369 168.195Z" fill="#4B4553"/>
<path d="M356.869 45.9785V53H355.062V45.959C355.062 44.7611 354.818 43.9147 354.33 43.4199C353.848 42.9251 353.012 42.6777 351.82 42.6777H347.27V41.0176H351.85C353.048 41.0176 354.014 41.1868 354.75 41.5254C355.486 41.8574 356.023 42.388 356.361 43.1172C356.7 43.8398 356.869 44.7936 356.869 45.9785ZM349.262 45.2168V53H347.465V45.2168H349.262ZM368.217 45.959C368.217 44.7741 367.976 43.931 367.494 43.4297C367.019 42.9284 366.182 42.6777 364.984 42.6777H361.957V53H360.16V41.0176H365.004C366.801 41.0176 368.087 41.4017 368.861 42.1699C369.636 42.9382 370.023 44.2077 370.023 45.9785V53H368.217V45.959ZM380.902 46.3398C380.902 45.1094 380.632 44.1914 380.092 43.5859C379.551 42.9805 378.702 42.6777 377.543 42.6777H374.848V46.0566H377.221V47.7168H373.021V41.0176H377.562C379.307 41.0176 380.603 41.4538 381.449 42.3262C382.302 43.1921 382.729 44.543 382.729 46.3789V47.1797C382.729 51.0599 380.893 53 377.221 53H373.129V51.3398H377.27C378.507 51.3398 379.421 50.998 380.014 50.3145C380.606 49.6243 380.902 48.5859 380.902 47.1992V46.3398ZM394.516 51.7891C394.066 52.0885 393.507 52.3327 392.836 52.5215C392.172 52.7103 391.339 52.8503 390.336 52.9414C389.333 53.0326 388.093 53.0846 386.615 53.0977L384.33 41.0176H386.195L387.396 47.1797L388.109 47.043C388.5 46.9518 388.822 46.8346 389.076 46.6914C389.33 46.5417 389.532 46.3333 389.682 46.0664C389.805 45.8581 389.9 45.6009 389.965 45.2949C390.03 44.9889 390.079 44.6243 390.111 44.2012L390.355 41.0176H392.211L391.908 44.2207C391.863 44.7611 391.807 45.2298 391.742 45.627C391.677 46.0176 391.599 46.3333 391.508 46.5742C391.345 47.0625 391.101 47.4401 390.775 47.707C390.45 47.9674 389.91 48.1986 389.154 48.4004L387.689 48.7422L388.168 51.2617H388.402C389.711 51.2617 390.759 51.1868 391.547 51.0371C392.335 50.8809 392.956 50.64 393.412 50.3145C393.718 50.0931 393.975 49.8197 394.184 49.4941C394.392 49.1686 394.568 48.7389 394.711 48.2051C394.854 47.6712 394.975 46.9844 395.072 46.1445L395.688 41.0176H397.572L396.947 46.0762C396.817 47.209 396.648 48.1432 396.439 48.8789C396.231 49.6081 395.971 50.2005 395.658 50.6562C395.352 51.1055 394.971 51.4831 394.516 51.7891ZM405.844 40.8223C407.419 40.8223 408.568 41.304 409.291 42.2676C410.02 43.2246 410.385 44.748 410.385 46.8379V53H404.506V51.3398H408.568V47.0625C408.568 45.4674 408.363 44.3086 407.953 43.5859C407.543 42.8633 406.846 42.502 405.863 42.502C404.984 42.502 404.262 42.8991 403.695 43.6934C403.122 44.5007 402.598 45.9036 402.123 47.9023L400.902 53H398.969L400.307 47.7559C400.456 47.1439 400.609 46.5905 400.766 46.0957C400.922 45.6009 401.075 45.1615 401.225 44.7773L398.783 41.0176H400.902L402.123 43C402.631 42.2318 403.174 41.6784 403.754 41.3398C404.333 40.9948 405.03 40.8223 405.844 40.8223ZM429.779 45.9785V53H419.516V41.0176H424.76C426.557 41.0176 427.842 41.4017 428.617 42.1699C429.392 42.9382 429.779 44.2077 429.779 45.9785ZM421.312 51.3398H427.973V45.959C427.973 44.7741 427.732 43.931 427.25 43.4297C426.775 42.9284 425.938 42.6777 424.74 42.6777H421.312V51.3398ZM442.074 51.7891C441.625 52.0885 441.065 52.3327 440.395 52.5215C439.73 52.7103 438.897 52.8503 437.895 52.9414C436.892 53.0326 435.652 53.0846 434.174 53.0977L431.889 41.0176H433.754L434.955 47.1797L435.668 47.043C436.059 46.9518 436.381 46.8346 436.635 46.6914C436.889 46.5417 437.09 46.3333 437.24 46.0664C437.364 45.8581 437.458 45.6009 437.523 45.2949C437.589 44.9889 437.637 44.6243 437.67 44.2012L437.914 41.0176H439.77L439.467 44.2207C439.421 44.7611 439.366 45.2298 439.301 45.627C439.236 46.0176 439.158 46.3333 439.066 46.5742C438.904 47.0625 438.66 47.4401 438.334 47.707C438.008 47.9674 437.468 48.1986 436.713 48.4004L435.248 48.7422L435.727 51.2617H435.961C437.27 51.2617 438.318 51.1868 439.105 51.0371C439.893 50.8809 440.515 50.64 440.971 50.3145C441.277 50.0931 441.534 49.8197 441.742 49.4941C441.951 49.1686 442.126 48.7389 442.27 48.2051C442.413 47.6712 442.533 46.9844 442.631 46.1445L443.246 41.0176H445.131L444.506 46.0762C444.376 47.209 444.206 48.1432 443.998 48.8789C443.79 49.6081 443.529 50.2005 443.217 50.6562C442.911 51.1055 442.53 51.4831 442.074 51.7891Z" fill="#4B4553"/>
<path d="M352.182 166.418C353.432 165.956 354.499 165.37 355.385 164.66C356.277 163.957 356.954 163.189 357.416 162.355C357.885 161.522 358.119 160.676 358.119 159.816C358.119 158.391 357.357 157.678 355.834 157.678H350.98V151.74H352.777V156.018H356.02C358.63 156.018 359.936 157.18 359.936 159.504C359.936 160.702 359.649 161.851 359.076 162.951C358.503 164.051 357.696 165.041 356.654 165.92C355.417 166.975 353.926 167.814 352.182 168.439V166.418ZM364.398 156.018V162.316H362.602V156.018H364.398ZM369.594 156.018V162.316H367.797V156.018H369.594ZM378.891 155.822C380.466 155.822 381.615 156.304 382.338 157.268C383.067 158.225 383.432 159.748 383.432 161.838V168H377.553V166.34H381.615V162.062C381.615 160.467 381.41 159.309 381 158.586C380.59 157.863 379.893 157.502 378.91 157.502C378.031 157.502 377.309 157.899 376.742 158.693C376.169 159.501 375.645 160.904 375.17 162.902L373.949 168H372.016L373.354 162.756C373.503 162.144 373.656 161.59 373.812 161.096C373.969 160.601 374.122 160.161 374.271 159.777L371.83 156.018H373.949L375.17 158C375.678 157.232 376.221 156.678 376.801 156.34C377.38 155.995 378.077 155.822 378.891 155.822ZM394.701 166.145C394.48 166.802 394.128 167.277 393.646 167.57C393.165 167.857 392.406 168 391.371 168H391.264V166.34H391.43C391.879 166.34 392.237 166.255 392.504 166.086C392.764 165.917 392.95 165.66 393.061 165.314C393.171 164.963 393.227 164.432 393.227 163.723V157.678H391.371V156.018H397.846C399.643 156.018 400.932 156.402 401.713 157.17C402.494 157.932 402.885 159.201 402.885 160.979V168H401.088V160.959C401.088 159.761 400.844 158.915 400.355 158.42C399.874 157.925 399.031 157.678 397.826 157.678H395.023V163.361C395.023 164.559 394.916 165.487 394.701 166.145ZM415.756 166.34V168H405.297V166.34H412.66V160.959C412.66 159.761 412.416 158.915 411.928 158.42C411.446 157.925 410.609 157.678 409.418 157.678H405.756V156.018H409.438C411.234 156.018 412.52 156.402 413.295 157.17C414.07 157.938 414.457 159.208 414.457 160.979V166.34H415.756ZM419.965 156.018V168H418.168V156.018H419.965ZM425.697 166.145C425.476 166.802 425.124 167.277 424.643 167.57C424.161 167.857 423.402 168 422.367 168H422.26V166.34H422.426C422.875 166.34 423.233 166.255 423.5 166.086C423.76 165.917 423.946 165.66 424.057 165.314C424.167 164.963 424.223 164.432 424.223 163.723V157.678H422.367V156.018H428.842C430.639 156.018 431.928 156.402 432.709 157.17C433.49 157.932 433.881 159.201 433.881 160.979V168H432.084V160.959C432.084 159.761 431.84 158.915 431.352 158.42C430.87 157.925 430.027 157.678 428.822 157.678H426.02V163.361C426.02 164.559 425.912 165.487 425.697 166.145ZM444.896 162.18C444.896 166.06 443.061 168 439.389 168H436.273V166.34H439.428C440.671 166.34 441.589 165.995 442.182 165.305C442.774 164.615 443.07 163.579 443.07 162.199V161.818C443.07 160.432 442.771 159.396 442.172 158.713C441.579 158.023 440.665 157.678 439.428 157.678H436.273V156.018H439.389C443.061 156.018 444.896 157.958 444.896 161.838V162.18Z" fill="#4B4553"/>
<path d="M858.186 268.979V276H856.379V268.959C856.379 267.761 856.135 266.915 855.646 266.42C855.165 265.925 854.328 265.678 853.137 265.678H848.586V264.018H853.166C854.364 264.018 855.331 264.187 856.066 264.525C856.802 264.857 857.339 265.388 857.678 266.117C858.016 266.84 858.186 267.794 858.186 268.979ZM850.578 268.217V276H848.781V268.217H850.578ZM862.863 264.018V270.316H861.066V264.018H862.863ZM871.154 268.656V276H865.676V274.34H869.357V269.164C869.357 268.109 869.305 267.364 869.201 266.928C869.097 266.479 868.915 266.16 868.654 265.971C868.4 265.775 868.033 265.678 867.551 265.678H866.232V264.018H867.492C868.534 264.018 869.296 264.161 869.777 264.447C870.259 264.74 870.607 265.219 870.822 265.883C871.044 266.54 871.154 267.465 871.154 268.656ZM882.043 269.34C882.043 268.109 881.773 267.191 881.232 266.586C880.692 265.98 879.842 265.678 878.684 265.678H875.988V269.057H878.361V270.717H874.162V264.018H878.703C880.448 264.018 881.743 264.454 882.59 265.326C883.443 266.192 883.869 267.543 883.869 269.379V270.18C883.869 274.06 882.033 276 878.361 276H874.27V274.34H878.41C879.647 274.34 880.562 273.998 881.154 273.314C881.747 272.624 882.043 271.586 882.043 270.199V269.34ZM896.057 268.979V276H894.25V268.959C894.25 267.761 894.006 266.915 893.518 266.42C893.036 265.925 892.199 265.678 891.008 265.678H886.457V264.018H891.037C892.235 264.018 893.202 264.187 893.938 264.525C894.673 264.857 895.21 265.388 895.549 266.117C895.887 266.84 896.057 267.794 896.057 268.979ZM888.449 268.217V276H886.652V268.217H888.449ZM906.77 264.018V279.76H904.973V264.018H906.77ZM917.873 270.18C917.873 274.06 916.037 276 912.365 276H909.25V274.34H912.404C913.648 274.34 914.566 273.995 915.158 273.305C915.751 272.615 916.047 271.579 916.047 270.199V269.818C916.047 268.432 915.747 267.396 915.148 266.713C914.556 266.023 913.641 265.678 912.404 265.678H909.25V264.018H912.365C916.037 264.018 917.873 265.958 917.873 269.838V270.18ZM922.473 264.018V276H920.676V264.018H922.473ZM928.205 274.145C927.984 274.802 927.632 275.277 927.15 275.57C926.669 275.857 925.91 276 924.875 276H924.768V274.34H924.934C925.383 274.34 925.741 274.255 926.008 274.086C926.268 273.917 926.454 273.66 926.564 273.314C926.675 272.963 926.73 272.432 926.73 271.723V265.678H924.875V264.018H931.35C933.146 264.018 934.436 264.402 935.217 265.17C935.998 265.932 936.389 267.201 936.389 268.979V276H934.592V268.959C934.592 267.761 934.348 266.915 933.859 266.42C933.378 265.925 932.535 265.678 931.33 265.678H928.527V271.361C928.527 272.559 928.42 273.487 928.205 274.145Z" fill="#4B4553"/>
<path d="M646.357 517.418C647.607 516.956 648.675 516.37 649.561 515.66C650.452 514.957 651.13 514.189 651.592 513.355C652.061 512.522 652.295 511.676 652.295 510.816C652.295 509.391 651.533 508.678 650.01 508.678H645.156V502.74H646.953V507.018H650.195C652.806 507.018 654.111 508.18 654.111 510.504C654.111 511.702 653.825 512.851 653.252 513.951C652.679 515.051 651.872 516.041 650.83 516.92C649.593 517.975 648.102 518.814 646.357 519.439V517.418ZM658.574 507.018V513.316H656.777V507.018H658.574ZM663.77 507.018V513.316H661.973V507.018H663.77ZM673.066 506.822C674.642 506.822 675.791 507.304 676.514 508.268C677.243 509.225 677.607 510.748 677.607 512.838V519H671.729V517.34H675.791V513.062C675.791 511.467 675.586 510.309 675.176 509.586C674.766 508.863 674.069 508.502 673.086 508.502C672.207 508.502 671.484 508.899 670.918 509.693C670.345 510.501 669.821 511.904 669.346 513.902L668.125 519H666.191L667.529 513.756C667.679 513.144 667.832 512.59 667.988 512.096C668.145 511.601 668.298 511.161 668.447 510.777L666.006 507.018H668.125L669.346 509C669.854 508.232 670.397 507.678 670.977 507.34C671.556 506.995 672.253 506.822 673.066 506.822ZM690.479 517.34V519H680.02V517.34H687.383V511.959C687.383 510.761 687.139 509.915 686.65 509.42C686.169 508.925 685.332 508.678 684.141 508.678H680.479V507.018H684.16C685.957 507.018 687.243 507.402 688.018 508.17C688.792 508.938 689.18 510.208 689.18 511.979V517.34H690.479ZM708.779 511.979V519H698.516V507.018H703.76C705.557 507.018 706.842 507.402 707.617 508.17C708.392 508.938 708.779 510.208 708.779 511.979ZM700.312 517.34H706.973V511.959C706.973 510.774 706.732 509.931 706.25 509.43C705.775 508.928 704.938 508.678 703.74 508.678H700.312V517.34ZM713.477 507.018V513.316H711.68V507.018H713.477ZM721.768 511.656V519H716.289V517.34H719.971V512.164C719.971 511.109 719.919 510.364 719.814 509.928C719.71 509.479 719.528 509.16 719.268 508.971C719.014 508.775 718.646 508.678 718.164 508.678H716.846V507.018H718.105C719.147 507.018 719.909 507.161 720.391 507.447C720.872 507.74 721.221 508.219 721.436 508.883C721.657 509.54 721.768 510.465 721.768 511.656ZM726.875 507.018V519H725.078V507.018H726.875ZM737.979 513.18C737.979 517.06 736.143 519 732.471 519H729.355V517.34H732.51C733.753 517.34 734.671 516.995 735.264 516.305C735.856 515.615 736.152 514.579 736.152 513.199V512.818C736.152 511.432 735.853 510.396 735.254 509.713C734.661 509.023 733.747 508.678 732.51 508.678H729.355V507.018H732.471C736.143 507.018 737.979 508.958 737.979 512.838V513.18ZM747.52 508.678V519H745.713V508.678H738.877V507.018H749.014V508.678H747.52ZM750.576 517.418C752.38 517.418 753.792 517.252 754.814 516.92L751.191 507.018H753.174L756.377 516.158C756.989 515.722 757.48 515.139 757.852 514.41C758.229 513.674 758.503 512.711 758.672 511.52C758.848 510.328 758.936 508.827 758.936 507.018H760.82C760.82 510.025 760.501 512.382 759.863 514.088C759.434 515.221 758.831 516.158 758.057 516.9C757.282 517.636 756.283 518.202 755.059 518.6C753.841 518.99 752.347 519.231 750.576 519.322V517.418ZM771.475 517.145C771.253 517.802 770.902 518.277 770.42 518.57C769.938 518.857 769.18 519 768.145 519H768.037V517.34H768.203C768.652 517.34 769.01 517.255 769.277 517.086C769.538 516.917 769.723 516.66 769.834 516.314C769.945 515.963 770 515.432 770 514.723V508.678H768.145V507.018H774.619C776.416 507.018 777.705 507.402 778.486 508.17C779.268 508.932 779.658 510.201 779.658 511.979V519H777.861V511.959C777.861 510.761 777.617 509.915 777.129 509.42C776.647 508.925 775.804 508.678 774.6 508.678H771.797V514.361C771.797 515.559 771.689 516.487 771.475 517.145ZM782.744 517.418C783.994 516.956 785.062 516.37 785.947 515.66C786.839 514.957 787.516 514.189 787.979 513.355C788.447 512.522 788.682 511.676 788.682 510.816C788.682 509.391 787.92 508.678 786.396 508.678H781.543V502.74H783.34V507.018H786.582C789.193 507.018 790.498 508.18 790.498 510.504C790.498 511.702 790.212 512.851 789.639 513.951C789.066 515.051 788.258 516.041 787.217 516.92C785.98 517.975 784.489 518.814 782.744 519.439V517.418ZM802.725 517.34V519H792.266V517.34H799.629V511.959C799.629 510.761 799.385 509.915 798.896 509.42C798.415 508.925 797.578 508.678 796.387 508.678H792.725V507.018H796.406C798.203 507.018 799.489 507.402 800.264 508.17C801.038 508.938 801.426 510.208 801.426 511.979V517.34H802.725ZM814.551 510.738C814.551 511.962 814.303 513.124 813.809 514.225C813.314 515.325 812.614 516.311 811.709 517.184C810.804 518.049 809.73 518.743 808.486 519.264V517.203C809.847 516.591 810.892 515.742 811.621 514.654C812.357 513.561 812.725 512.337 812.725 510.982C812.725 510.11 812.533 509.508 812.148 509.176C811.771 508.844 811.117 508.678 810.186 508.678H805.049V507.018H810.107C811.715 507.018 812.858 507.307 813.535 507.887C814.212 508.46 814.551 509.41 814.551 510.738ZM807.344 511.217V522.76H805.547V511.217H807.344ZM825.303 517.145C825.081 517.802 824.73 518.277 824.248 518.57C823.766 518.857 823.008 519 821.973 519H821.865V517.34H822.031C822.48 517.34 822.839 517.255 823.105 517.086C823.366 516.917 823.551 516.66 823.662 516.314C823.773 515.963 823.828 515.432 823.828 514.723V508.678H821.973V507.018H828.447C830.244 507.018 831.533 507.402 832.314 508.17C833.096 508.932 833.486 510.201 833.486 511.979V519H831.689V511.959C831.689 510.761 831.445 509.915 830.957 509.42C830.475 508.925 829.632 508.678 828.428 508.678H825.625V514.361C825.625 515.559 825.518 516.487 825.303 517.145ZM841.774 503.773L837.086 521.188H835.552L840.24 503.773H841.774ZM851.309 511.979V519H849.502V511.959C849.502 510.774 849.261 509.931 848.779 509.43C848.304 508.928 847.467 508.678 846.27 508.678H842.607V507.018H846.289C847.487 507.018 848.454 507.187 849.189 507.525C849.925 507.857 850.462 508.388 850.801 509.117C851.139 509.84 851.309 510.794 851.309 511.979ZM863.594 517.789C863.145 518.089 862.585 518.333 861.914 518.521C861.25 518.71 860.417 518.85 859.414 518.941C858.411 519.033 857.171 519.085 855.693 519.098L853.408 507.018H855.273L856.475 513.18L857.188 513.043C857.578 512.952 857.9 512.835 858.154 512.691C858.408 512.542 858.61 512.333 858.76 512.066C858.883 511.858 858.978 511.601 859.043 511.295C859.108 510.989 859.157 510.624 859.189 510.201L859.434 507.018H861.289L860.986 510.221C860.941 510.761 860.885 511.23 860.82 511.627C860.755 512.018 860.677 512.333 860.586 512.574C860.423 513.062 860.179 513.44 859.854 513.707C859.528 513.967 858.988 514.199 858.232 514.4L856.768 514.742L857.246 517.262H857.48C858.789 517.262 859.837 517.187 860.625 517.037C861.413 516.881 862.035 516.64 862.49 516.314C862.796 516.093 863.053 515.82 863.262 515.494C863.47 515.169 863.646 514.739 863.789 514.205C863.932 513.671 864.053 512.984 864.15 512.145L864.766 507.018H866.65L866.025 512.076C865.895 513.209 865.726 514.143 865.518 514.879C865.309 515.608 865.049 516.201 864.736 516.656C864.43 517.105 864.049 517.483 863.594 517.789ZM870.43 515.064L869.648 519H867.754L868.574 515.104C868.809 513.984 869.023 513.196 869.219 512.74C869.414 512.278 869.658 511.904 869.951 511.617C870.251 511.331 870.651 511.087 871.152 510.885L868.33 507.018H870.547L874.951 513.082C875.439 512.626 875.827 512.076 876.113 511.432C876.406 510.781 876.598 510.035 876.689 509.195L876.914 507.018H878.77L878.545 509.156C878.473 509.872 878.343 510.501 878.154 511.041C878.024 511.412 877.868 511.767 877.686 512.105C877.503 512.438 877.269 512.783 876.982 513.141C876.702 513.499 876.338 513.899 875.889 514.342L879.414 519H877.129L871.973 511.998C871.452 512.252 871.081 512.691 870.859 513.316C870.794 513.479 870.726 513.707 870.654 514C870.589 514.293 870.514 514.648 870.43 515.064ZM887.676 506.822C889.251 506.822 890.4 507.304 891.123 508.268C891.852 509.225 892.217 510.748 892.217 512.838V519H886.338V517.34H890.4V513.062C890.4 511.467 890.195 510.309 889.785 509.586C889.375 508.863 888.678 508.502 887.695 508.502C886.816 508.502 886.094 508.899 885.527 509.693C884.954 510.501 884.43 511.904 883.955 513.902L882.734 519H880.801L882.139 513.756C882.288 513.144 882.441 512.59 882.598 512.096C882.754 511.601 882.907 511.161 883.057 510.777L880.615 507.018H882.734L883.955 509C884.463 508.232 885.007 507.678 885.586 507.34C886.165 506.995 886.862 506.822 887.676 506.822ZM902.949 507.018V513.316H901.152V507.018H902.949ZM910.83 511.656V519H905.352V517.34H909.033V512.164C909.033 511.109 908.981 510.364 908.877 509.928C908.773 509.479 908.59 509.16 908.33 508.971C908.076 508.775 907.708 508.678 907.227 508.678H905.908V507.018H907.168C908.21 507.018 908.971 507.161 909.453 507.447C909.935 507.74 910.283 508.219 910.498 508.883C910.719 509.54 910.83 510.465 910.83 511.656ZM915.762 515.064L914.98 519H913.086L913.906 515.104C914.141 513.984 914.355 513.196 914.551 512.74C914.746 512.278 914.99 511.904 915.283 511.617C915.583 511.331 915.983 511.087 916.484 510.885L913.662 507.018H915.879L920.283 513.082C920.771 512.626 921.159 512.076 921.445 511.432C921.738 510.781 921.93 510.035 922.021 509.195L922.246 507.018H924.102L923.877 509.156C923.805 509.872 923.675 510.501 923.486 511.041C923.356 511.412 923.2 511.767 923.018 512.105C922.835 512.438 922.601 512.783 922.314 513.141C922.035 513.499 921.67 513.899 921.221 514.342L924.746 519H922.461L917.305 511.998C916.784 512.252 916.413 512.691 916.191 513.316C916.126 513.479 916.058 513.707 915.986 514C915.921 514.293 915.846 514.648 915.762 515.064Z" fill="#4B4553"/>
<rect x="431" y="541" width="175" height="50" rx="25" fill="#4856CD"/>
<path d="M498.712 565.925V574H495.669V565.903C495.669 564.757 495.426 563.952 494.939 563.488C494.452 563.017 493.606 562.781 492.401 562.781H486.707V560.063H492.592C494.067 560.063 495.25 560.261 496.141 560.658C497.039 561.055 497.69 561.684 498.095 562.545C498.507 563.398 498.712 564.525 498.712 565.925ZM489.964 565.532V574H486.932V565.532H489.964ZM511.762 566.296C511.762 565.038 511.523 564.14 511.043 563.601C510.564 563.054 509.726 562.781 508.528 562.781H505.529V574H502.497V560.063H508.528C510.744 560.063 512.342 560.523 513.323 561.444C514.312 562.358 514.806 563.851 514.806 565.925V574H511.762V566.296ZM521.162 560.063V567.464H518.13V560.063H521.162ZM525.755 571.406C527.582 570.807 529.057 570.051 530.18 569.137C530.959 568.516 531.554 567.838 531.966 567.104C532.378 566.363 532.583 565.588 532.583 564.78C532.583 563.447 531.749 562.781 530.079 562.781H524.374V555.301H527.474V560.063H530.584C533.954 560.063 535.638 561.534 535.638 564.477C535.638 565.884 535.305 567.202 534.639 568.43C533.98 569.65 533.036 570.739 531.809 571.698C530.191 572.956 528.174 573.944 525.755 574.663V571.406ZM550.485 572.619C549.871 572.963 549.115 573.248 548.216 573.472C547.325 573.689 546.214 573.85 544.881 573.955C543.556 574.06 541.935 574.112 540.018 574.112L537.39 560.063H540.568L541.792 566.779L542.612 566.622C543.121 566.524 543.496 566.36 543.735 566.127C543.982 565.888 544.17 565.532 544.297 565.061C544.357 564.828 544.413 564.507 544.465 564.095C544.525 563.675 544.581 563.166 544.634 562.567L544.802 560.063H547.902L547.565 563.904C547.52 564.428 547.456 564.9 547.374 565.319C547.292 565.738 547.187 566.101 547.06 566.408C546.812 567.022 546.464 567.501 546.015 567.846C545.573 568.19 544.87 568.478 543.904 568.71L542.219 569.104L542.68 571.406H542.949C543.885 571.406 544.712 571.368 545.431 571.293C546.157 571.211 546.775 571.088 547.284 570.923C547.965 570.713 548.527 570.421 548.969 570.047C549.41 569.665 549.759 569.16 550.013 568.531C550.268 567.894 550.447 567.09 550.552 566.116L551.26 560.063H554.393L553.674 566.038C553.525 567.325 553.315 568.392 553.045 569.238C552.783 570.084 552.443 570.773 552.023 571.305C551.612 571.829 551.099 572.267 550.485 572.619Z" fill="white"/>
</svg>
