<svg width="12" height="35" viewBox="0 0 12 35" fill="none" xmlns="http://www.w3.org/2000/svg">
<path d="M11.3583 20.2602C10.8656 19.0706 10.1348 18.1314 9.18587 17.4626C8.20239 16.7719 7.08983 16.421 5.88456 16.421C4.33025 16.421 2.91228 16.9984 1.77973 18.0875C0.616266 19.2095 0 20.6658 0 22.2994C0 24.4849 0.934398 25.8517 1.767 26.6356C0.699889 27.4963 0.0963432 28.7279 0.0963432 30.0819C0.0963432 31.1472 0.469013 32.134 1.17436 32.9361C1.95606 33.826 3.05408 34.3158 4.2648 34.3158C5.59733 34.3158 6.93531 33.7329 8.2442 32.5835C9.31858 31.6388 10.2221 30.3834 10.9274 28.854C11.6382 27.3081 12 25.6379 12 23.8855C12 22.5096 11.7837 21.2908 11.3583 20.2602ZM5.96091 22.579C5.81184 22.579 5.7464 22.5534 5.68822 22.5096C5.68095 22.4712 5.67186 22.4036 5.67186 22.2994C5.67186 22.2684 5.6755 22.2464 5.67732 22.2355C5.68277 22.2282 5.69186 22.2172 5.7064 22.2044C5.79002 22.124 5.80457 22.124 5.88456 22.124H5.91728C5.91728 22.124 5.92637 22.1295 5.93728 22.1368C5.93728 22.1368 6.01726 22.2008 6.11907 22.4493C6.13543 22.4858 6.15179 22.5297 6.16815 22.579H5.96091Z" fill="white"/>
<path d="M10.2433 1.57864C9.14132 0.545116 7.75699 0 6.2388 0C4.72061 0 3.3161 0.53414 2.21413 1.54388C1.39636 2.29387 0.420898 3.65483 0.420898 5.88467C0.420898 6.97673 0.686763 7.98465 1.20933 8.87915H1.21116C1.71723 9.74621 2.40848 10.4486 3.26475 10.9681C4.16503 11.5133 5.16616 11.7895 6.2388 11.7895C7.31143 11.7895 8.85712 11.473 10.302 9.96023C11.4131 8.80049 11.9998 7.39197 11.9998 5.88467C11.9998 3.68958 11.0446 2.33046 10.2433 1.57864ZM6.16362 6.02004C6.16362 6.02004 6.15628 6.01089 6.15445 6.00541C6.15078 5.9926 6.14345 5.95236 6.14345 5.88467C6.14345 5.80968 6.14711 5.75297 6.15261 5.71273C6.17095 5.7109 6.20029 5.70724 6.2388 5.70724H6.26813C6.2718 5.74565 6.2773 5.80236 6.2773 5.87736C6.26629 5.89748 6.23512 5.94504 6.16362 6.02004Z" fill="white"/>
</svg>
