<svg width="427" height="525" viewBox="0 0 427 525" fill="none" xmlns="http://www.w3.org/2000/svg">
<rect x="0.5" y="0.5" width="426" height="499" rx="43.5" fill="white" fill-opacity="0.38" stroke="white"/>
<rect x="14.5" y="14.5" width="398" height="219" rx="43.5" fill="white" stroke="white"/>
<path d="M326.659 261.003V271.622H322.308V261.003H326.659ZM349.233 267.642C349.233 269.683 348.82 271.59 347.993 273.362C347.166 275.135 345.952 276.725 344.351 278.132C342.761 279.539 340.812 280.715 338.502 281.661V277.036C340.521 276.091 342.079 274.834 343.175 273.266C344.281 271.687 344.834 269.984 344.834 268.158C344.834 266.955 344.534 266.111 343.932 265.628C343.331 265.145 342.278 264.903 340.774 264.903H331.444V261.003H341.402C344.131 261.003 346.118 261.524 347.364 262.566C348.61 263.598 349.233 265.29 349.233 267.642ZM336.617 268.722V287.204H332.266V268.722H336.617ZM353.197 270.897C353.197 270.188 353.267 269.452 353.407 268.689C353.557 267.916 353.761 267.196 354.019 266.53C354.277 265.854 354.578 265.311 354.921 264.903H351.876V261.003H363.059C366.292 261.003 368.634 261.686 370.084 263.05C371.545 264.414 372.275 266.611 372.275 269.64V270.929C372.275 274.356 371.448 276.945 369.794 278.696C368.14 280.447 365.701 281.322 362.479 281.322C359.32 281.322 356.984 280.5 355.469 278.857C353.955 277.203 353.197 274.716 353.197 271.396V270.897ZM358.708 264.903C358.053 266.042 357.725 267.954 357.725 270.639V271.364C357.725 273.384 358.128 274.904 358.934 275.924C359.739 276.934 360.953 277.439 362.575 277.439C364.38 277.439 365.685 276.918 366.491 275.876C367.307 274.834 367.715 273.142 367.715 270.8V269.608C367.715 267.932 367.323 266.729 366.539 265.999C365.766 265.268 364.498 264.903 362.736 264.903H358.708ZM374.757 277.471C377.539 277.417 379.693 277.144 381.218 276.649L375.514 261.003H380.235L384.989 274.7C385.805 274.044 386.455 273.153 386.938 272.025C387.433 270.886 387.792 269.42 388.018 267.626C388.244 265.821 388.356 263.614 388.356 261.003H392.836C392.836 266.149 392.267 270.156 391.128 273.024C390.365 274.958 389.296 276.547 387.921 277.793C386.546 279.029 384.785 279.963 382.636 280.597C380.488 281.231 377.861 281.618 374.757 281.757V277.471Z" fill="#4856CD"/>
<path d="M37.9766 300.018V306.316H36.1797V300.018H37.9766ZM50.3789 303.738C50.3789 304.962 50.1315 306.124 49.6367 307.225C49.1419 308.325 48.4421 309.311 47.5371 310.184C46.6322 311.049 45.5579 311.743 44.3145 312.264V310.203C45.6751 309.591 46.7201 308.742 47.4492 307.654C48.1849 306.561 48.5527 305.337 48.5527 303.982C48.5527 303.11 48.3607 302.508 47.9766 302.176C47.599 301.844 46.9447 301.678 46.0137 301.678H40.877V300.018H45.9355C47.5436 300.018 48.6862 300.307 49.3633 300.887C50.0404 301.46 50.3789 302.41 50.3789 303.738ZM43.1719 304.217V315.76H41.375V304.217H43.1719ZM52.7715 305.721C52.7715 305.193 52.8138 304.663 52.8984 304.129C52.9896 303.589 53.1068 303.1 53.25 302.664C53.3997 302.228 53.5592 301.899 53.7285 301.678H51.9707V300.018H58.4551C60.252 300.018 61.541 300.402 62.3223 301.17C63.1035 301.932 63.4941 303.201 63.4941 304.979V305.838C63.4941 307.921 63.0254 309.503 62.0879 310.584C61.1569 311.658 59.793 312.195 57.9961 312.195C56.2122 312.195 54.8939 311.694 54.041 310.691C53.1947 309.682 52.7715 308.139 52.7715 306.062V305.721ZM55.3301 301.678C54.8939 302.446 54.6758 303.768 54.6758 305.643V306.16C54.6758 307.592 54.9622 308.68 55.5352 309.422C56.1146 310.164 56.9479 310.535 58.0352 310.535C59.2786 310.535 60.1771 310.167 60.7305 309.432C61.2904 308.696 61.5703 307.492 61.5703 305.818V304.959C61.5703 303.748 61.3392 302.898 60.877 302.41C60.4147 301.922 59.6009 301.678 58.4355 301.678H55.3301ZM64.998 310.418C66.8014 310.418 68.2142 310.252 69.2363 309.92L65.6133 300.018H67.5957L70.7988 309.158C71.4108 308.722 71.9023 308.139 72.2734 307.41C72.651 306.674 72.9245 305.711 73.0938 304.52C73.2695 303.328 73.3574 301.827 73.3574 300.018H75.2422C75.2422 303.025 74.9232 305.382 74.2852 307.088C73.8555 308.221 73.2533 309.158 72.4785 309.9C71.7038 310.636 70.7044 311.202 69.4805 311.6C68.263 311.99 66.7689 312.231 64.998 312.322V310.418ZM87.3223 304.979V312H85.5156V304.959C85.5156 303.761 85.2715 302.915 84.7832 302.42C84.3014 301.925 83.4648 301.678 82.2734 301.678H77.7227V300.018H82.3027C83.5007 300.018 84.4674 300.187 85.2031 300.525C85.9388 300.857 86.4759 301.388 86.8145 302.117C87.153 302.84 87.3223 303.794 87.3223 304.979ZM79.7148 304.217V312H77.918V304.217H79.7148ZM98.0352 300.018V315.76H96.2383V300.018H98.0352ZM103.23 300.018V312H101.434V300.018H103.23ZM108.426 300.018V306.316H106.629V300.018H108.426ZM111.424 305.721C111.424 305.193 111.466 304.663 111.551 304.129C111.642 303.589 111.759 303.1 111.902 302.664C112.052 302.228 112.212 301.899 112.381 301.678H110.623V300.018H117.107C118.904 300.018 120.193 300.402 120.975 301.17C121.756 301.932 122.146 303.201 122.146 304.979V305.838C122.146 307.921 121.678 309.503 120.74 310.584C119.809 311.658 118.445 312.195 116.648 312.195C114.865 312.195 113.546 311.694 112.693 310.691C111.847 309.682 111.424 308.139 111.424 306.062V305.721ZM113.982 301.678C113.546 302.446 113.328 303.768 113.328 305.643V306.16C113.328 307.592 113.615 308.68 114.188 309.422C114.767 310.164 115.6 310.535 116.688 310.535C117.931 310.535 118.829 310.167 119.383 309.432C119.943 308.696 120.223 307.492 120.223 305.818V304.959C120.223 303.748 119.992 302.898 119.529 302.41C119.067 301.922 118.253 301.678 117.088 301.678H113.982ZM126.336 300.018V306.316H124.539V300.018H126.336ZM134.627 304.656V312H129.148V310.34H132.83V305.164C132.83 304.109 132.778 303.364 132.674 302.928C132.57 302.479 132.387 302.16 132.127 301.971C131.873 301.775 131.505 301.678 131.023 301.678H129.705V300.018H130.965C132.007 300.018 132.768 300.161 133.25 300.447C133.732 300.74 134.08 301.219 134.295 301.883C134.516 302.54 134.627 303.465 134.627 304.656ZM147.322 304.979V312H145.516V304.959C145.516 303.761 145.271 302.915 144.783 302.42C144.301 301.925 143.465 301.678 142.273 301.678H137.723V300.018H142.303C143.501 300.018 144.467 300.187 145.203 300.525C145.939 300.857 146.476 301.388 146.814 302.117C147.153 302.84 147.322 303.794 147.322 304.979ZM139.715 304.217V312H137.918V304.217H139.715ZM158.572 310.145C158.351 310.802 157.999 311.277 157.518 311.57C157.036 311.857 156.277 312 155.242 312H155.135V310.34H155.301C155.75 310.34 156.108 310.255 156.375 310.086C156.635 309.917 156.821 309.66 156.932 309.314C157.042 308.963 157.098 308.432 157.098 307.723V301.678H155.242V300.018H161.717C163.514 300.018 164.803 300.402 165.584 301.17C166.365 301.932 166.756 303.201 166.756 304.979V312H164.959V304.959C164.959 303.761 164.715 302.915 164.227 302.42C163.745 301.925 162.902 301.678 161.697 301.678H158.895V307.361C158.895 308.559 158.787 309.487 158.572 310.145ZM171.688 308.064L170.906 312H169.012L169.832 308.104C170.066 306.984 170.281 306.196 170.477 305.74C170.672 305.278 170.916 304.904 171.209 304.617C171.508 304.331 171.909 304.087 172.41 303.885L169.588 300.018H171.805L176.209 306.082C176.697 305.626 177.085 305.076 177.371 304.432C177.664 303.781 177.856 303.035 177.947 302.195L178.172 300.018H180.027L179.803 302.156C179.731 302.872 179.601 303.501 179.412 304.041C179.282 304.412 179.126 304.767 178.943 305.105C178.761 305.438 178.527 305.783 178.24 306.141C177.96 306.499 177.596 306.899 177.146 307.342L180.672 312H178.387L173.23 304.998C172.71 305.252 172.339 305.691 172.117 306.316C172.052 306.479 171.984 306.707 171.912 307C171.847 307.293 171.772 307.648 171.688 308.064ZM192.986 312.195C191.326 312.195 190.105 311.779 189.324 310.945C188.543 310.105 188.152 308.816 188.152 307.078V300.018H189.949V307.02C189.949 308.23 190.187 309.116 190.662 309.676C191.144 310.236 191.928 310.516 193.016 310.516C193.868 310.516 194.562 310.343 195.096 309.998C195.63 309.653 196.02 309.109 196.268 308.367C196.521 307.618 196.648 306.635 196.648 305.418C196.648 304.064 196.505 303.074 196.219 302.449C195.932 301.818 195.444 301.502 194.754 301.502C194.09 301.502 193.449 301.714 192.83 302.137V300.418C193.331 300.021 194.031 299.822 194.93 299.822C196.264 299.822 197.199 300.262 197.732 301.141C198.266 302.013 198.533 303.439 198.533 305.418C198.533 307.755 198.087 309.471 197.195 310.564C196.303 311.652 194.9 312.195 192.986 312.195ZM203.113 300.018V306.316H201.316V300.018H203.113ZM206.697 310.418C207.947 309.956 209.015 309.37 209.9 308.66C210.792 307.957 211.469 307.189 211.932 306.355C212.4 305.522 212.635 304.676 212.635 303.816C212.635 302.391 211.873 301.678 210.35 301.678H205.496V295.74H207.293V300.018H210.535C213.146 300.018 214.451 301.18 214.451 303.504C214.451 304.702 214.165 305.851 213.592 306.951C213.019 308.051 212.212 309.041 211.17 309.92C209.933 310.975 208.442 311.814 206.697 312.439V310.418ZM226.268 310.34V312H215.809V310.34H223.172V304.959C223.172 303.761 222.928 302.915 222.439 302.42C221.958 301.925 221.121 301.678 219.93 301.678H216.268V300.018H219.949C221.746 300.018 223.032 300.402 223.807 301.17C224.581 301.938 224.969 303.208 224.969 304.979V310.34H226.268ZM231.424 310.145C231.202 310.802 230.851 311.277 230.369 311.57C229.887 311.857 229.129 312 228.094 312H227.986V310.34H228.152C228.602 310.34 228.96 310.255 229.227 310.086C229.487 309.917 229.673 309.66 229.783 309.314C229.894 308.963 229.949 308.432 229.949 307.723V301.678H228.094V300.018H234.568C236.365 300.018 237.654 300.402 238.436 301.17C239.217 301.932 239.607 303.201 239.607 304.979V312H237.811V304.959C237.811 303.761 237.566 302.915 237.078 302.42C236.596 301.925 235.753 301.678 234.549 301.678H231.746V307.361C231.746 308.559 231.639 309.487 231.424 310.145ZM251.902 310.789C251.453 311.089 250.893 311.333 250.223 311.521C249.559 311.71 248.725 311.85 247.723 311.941C246.72 312.033 245.48 312.085 244.002 312.098L241.717 300.018H243.582L244.783 306.18L245.496 306.043C245.887 305.952 246.209 305.835 246.463 305.691C246.717 305.542 246.919 305.333 247.068 305.066C247.192 304.858 247.286 304.601 247.352 304.295C247.417 303.989 247.465 303.624 247.498 303.201L247.742 300.018H249.598L249.295 303.221C249.249 303.761 249.194 304.23 249.129 304.627C249.064 305.018 248.986 305.333 248.895 305.574C248.732 306.062 248.488 306.44 248.162 306.707C247.837 306.967 247.296 307.199 246.541 307.4L245.076 307.742L245.555 310.262H245.789C247.098 310.262 248.146 310.187 248.934 310.037C249.721 309.881 250.343 309.64 250.799 309.314C251.105 309.093 251.362 308.82 251.57 308.494C251.779 308.169 251.954 307.739 252.098 307.205C252.241 306.671 252.361 305.984 252.459 305.145L253.074 300.018H254.959L254.334 305.076C254.204 306.209 254.035 307.143 253.826 307.879C253.618 308.608 253.357 309.201 253.045 309.656C252.739 310.105 252.358 310.483 251.902 310.789ZM265.486 310.145C265.265 310.802 264.913 311.277 264.432 311.57C263.95 311.857 263.191 312 262.156 312H262.049V310.34H262.215C262.664 310.34 263.022 310.255 263.289 310.086C263.549 309.917 263.735 309.66 263.846 309.314C263.956 308.963 264.012 308.432 264.012 307.723V301.678H262.156V300.018H268.631C270.428 300.018 271.717 300.402 272.498 301.17C273.279 301.932 273.67 303.201 273.67 304.979V312H271.873V304.959C271.873 303.761 271.629 302.915 271.141 302.42C270.659 301.925 269.816 301.678 268.611 301.678H265.809V307.361C265.809 308.559 265.701 309.487 265.486 310.145ZM278.367 300.018V306.316H276.57V300.018H278.367ZM280.877 310.418C282.68 310.418 284.093 310.252 285.115 309.92L281.492 300.018H283.475L286.678 309.158C287.29 308.722 287.781 308.139 288.152 307.41C288.53 306.674 288.803 305.711 288.973 304.52C289.148 303.328 289.236 301.827 289.236 300.018H291.121C291.121 303.025 290.802 305.382 290.164 307.088C289.734 308.221 289.132 309.158 288.357 309.9C287.583 310.636 286.583 311.202 285.359 311.6C284.142 311.99 282.648 312.231 280.877 312.322V310.418ZM295.613 300.018V312H293.816V300.018H295.613ZM307.352 310.457V312H298.133V310.34H305.115L297.41 300.018H299.656L303.377 305.076C303.878 304.861 304.243 304.546 304.471 304.129C304.699 303.706 304.852 303.061 304.93 302.195L305.154 300.018H307.01L306.814 302.156C306.73 303.055 306.596 303.745 306.414 304.227C306.232 304.702 305.975 305.096 305.643 305.408C305.311 305.721 304.842 305.997 304.236 306.238L307.352 310.457ZM318.914 303.738C318.914 304.962 318.667 306.124 318.172 307.225C317.677 308.325 316.977 309.311 316.072 310.184C315.167 311.049 314.093 311.743 312.85 312.264V310.203C314.21 309.591 315.255 308.742 315.984 307.654C316.72 306.561 317.088 305.337 317.088 303.982C317.088 303.11 316.896 302.508 316.512 302.176C316.134 301.844 315.48 301.678 314.549 301.678H309.412V300.018H314.471C316.079 300.018 317.221 300.307 317.898 300.887C318.576 301.46 318.914 302.41 318.914 303.738ZM311.707 304.217V315.76H309.91V304.217H311.707ZM327.41 299.822C328.986 299.822 330.135 300.304 330.857 301.268C331.587 302.225 331.951 303.748 331.951 305.838V312H326.072V310.34H330.135V306.062C330.135 304.467 329.93 303.309 329.52 302.586C329.109 301.863 328.413 301.502 327.43 301.502C326.551 301.502 325.828 301.899 325.262 302.693C324.689 303.501 324.165 304.904 323.689 306.902L322.469 312H320.535L321.873 306.756C322.023 306.144 322.176 305.59 322.332 305.096C322.488 304.601 322.641 304.161 322.791 303.777L320.35 300.018H322.469L323.689 302C324.197 301.232 324.741 300.678 325.32 300.34C325.9 299.995 326.596 299.822 327.41 299.822ZM343.416 310.145C343.195 310.802 342.843 311.277 342.361 311.57C341.88 311.857 341.121 312 340.086 312H339.979V310.34H340.145C340.594 310.34 340.952 310.255 341.219 310.086C341.479 309.917 341.665 309.66 341.775 309.314C341.886 308.963 341.941 308.432 341.941 307.723V301.678H340.086V300.018H346.561C348.357 300.018 349.646 300.402 350.428 301.17C351.209 301.932 351.6 303.201 351.6 304.979V312H349.803V304.959C349.803 303.761 349.559 302.915 349.07 302.42C348.589 301.925 347.745 301.678 346.541 301.678H343.738V307.361C343.738 308.559 343.631 309.487 343.416 310.145ZM356.297 300.018V306.316H354.5V300.018H356.297ZM364.588 304.656V312H359.109V310.34H362.791V305.164C362.791 304.109 362.739 303.364 362.635 302.928C362.531 302.479 362.348 302.16 362.088 301.971C361.834 301.775 361.466 301.678 360.984 301.678H359.666V300.018H360.926C361.967 300.018 362.729 300.161 363.211 300.447C363.693 300.74 364.041 301.219 364.256 301.883C364.477 302.54 364.588 303.465 364.588 304.656ZM377.459 310.34V312H367V310.34H374.363V304.959C374.363 303.761 374.119 302.915 373.631 302.42C373.149 301.925 372.312 301.678 371.121 301.678H367.459V300.018H371.141C372.938 300.018 374.223 300.402 374.998 301.17C375.773 301.938 376.16 303.208 376.16 304.979V310.34H377.459ZM382.205 310.145C381.984 310.802 381.632 311.277 381.15 311.57C380.669 311.857 379.91 312 378.875 312H378.768V310.34H378.934C379.383 310.34 379.741 310.255 380.008 310.086C380.268 309.917 380.454 309.66 380.564 309.314C380.675 308.963 380.73 308.432 380.73 307.723V301.678H378.875V300.018H385.35C387.146 300.018 388.436 300.402 389.217 301.17C389.998 301.932 390.389 303.201 390.389 304.979V312H388.592V304.959C388.592 303.761 388.348 302.915 387.859 302.42C387.378 301.925 386.535 301.678 385.33 301.678H382.527V307.361C382.527 308.559 382.42 309.487 382.205 310.145ZM365.184 328.979V339.76H363.377V328.959C363.377 327.774 363.136 326.931 362.654 326.43C362.179 325.928 361.342 325.678 360.145 325.678H356.482V324.018H360.164C361.362 324.018 362.329 324.187 363.064 324.525C363.8 324.857 364.337 325.388 364.676 326.117C365.014 326.84 365.184 327.794 365.184 328.979ZM368.26 334.418C369.51 333.956 370.577 333.37 371.463 332.66C372.355 331.957 373.032 331.189 373.494 330.355C373.963 329.522 374.197 328.676 374.197 327.816C374.197 326.391 373.436 325.678 371.912 325.678H367.059V319.74H368.855V324.018H372.098C374.708 324.018 376.014 325.18 376.014 327.504C376.014 328.702 375.727 329.851 375.154 330.951C374.581 332.051 373.774 333.041 372.732 333.92C371.495 334.975 370.005 335.814 368.26 336.439V334.418ZM388.074 334.789C387.625 335.089 387.065 335.333 386.395 335.521C385.73 335.71 384.897 335.85 383.895 335.941C382.892 336.033 381.652 336.085 380.174 336.098L377.889 324.018H379.754L380.955 330.18L381.668 330.043C382.059 329.952 382.381 329.835 382.635 329.691C382.889 329.542 383.09 329.333 383.24 329.066C383.364 328.858 383.458 328.601 383.523 328.295C383.589 327.989 383.637 327.624 383.67 327.201L383.914 324.018H385.77L385.467 327.221C385.421 327.761 385.366 328.23 385.301 328.627C385.236 329.018 385.158 329.333 385.066 329.574C384.904 330.062 384.66 330.44 384.334 330.707C384.008 330.967 383.468 331.199 382.713 331.4L381.248 331.742L381.727 334.262H381.961C383.27 334.262 384.318 334.187 385.105 334.037C385.893 333.881 386.515 333.64 386.971 333.314C387.277 333.093 387.534 332.82 387.742 332.494C387.951 332.169 388.126 331.739 388.27 331.205C388.413 330.671 388.533 329.984 388.631 329.145L389.246 324.018H391.131L390.506 329.076C390.376 330.209 390.206 331.143 389.998 331.879C389.79 332.608 389.529 333.201 389.217 333.656C388.911 334.105 388.53 334.483 388.074 334.789Z" fill="#4B4553"/>
<rect x="130" y="475" width="175" height="50" rx="25" fill="#4856CD"/>
<path d="M197.712 499.925V508H194.669V499.903C194.669 498.757 194.426 497.952 193.939 497.488C193.452 497.017 192.606 496.781 191.401 496.781H185.707V494.063H191.592C193.067 494.063 194.25 494.261 195.141 494.658C196.039 495.055 196.69 495.684 197.095 496.545C197.507 497.398 197.712 498.525 197.712 499.925ZM188.964 499.532V508H185.932V499.532H188.964ZM210.257 499.925V508H207.213V499.903C207.213 498.742 206.963 497.934 206.461 497.477C205.967 497.013 205.132 496.781 203.957 496.781H199.285V494.063H204.136C205.611 494.063 206.794 494.261 207.685 494.658C208.583 495.048 209.235 495.673 209.639 496.534C210.051 497.387 210.257 498.518 210.257 499.925ZM217.781 494.063V501.464H214.749V494.063H217.781ZM230.955 500.296C230.955 499.038 230.715 498.14 230.236 497.601C229.757 497.054 228.918 496.781 227.72 496.781H224.722V508H221.689V494.063H227.72C229.936 494.063 231.535 494.523 232.516 495.444C233.504 496.358 233.998 497.851 233.998 499.925V508H230.955V500.296ZM249.754 505.282V508H236.761V505.282H245.229V500.318C245.229 499.008 244.981 498.091 244.487 497.567C244.001 497.043 243.166 496.781 241.983 496.781H237.289V494.063H242.028C244.214 494.063 245.798 494.52 246.778 495.433C247.767 496.347 248.261 497.844 248.261 499.925V505.282H249.754Z" fill="white"/>
<rect x="316.5" y="351.5" width="76" height="35.2195" rx="17.6097" stroke="#4754D6"/>
<path d="M335.885 374.418C337.135 373.956 338.202 373.37 339.088 372.66C339.98 371.957 340.657 371.189 341.119 370.355C341.588 369.522 341.822 368.676 341.822 367.816C341.822 366.391 341.061 365.678 339.537 365.678H334.684V359.74H336.48V364.018H339.723C342.333 364.018 343.639 365.18 343.639 367.504C343.639 368.702 343.352 369.851 342.779 370.951C342.206 372.051 341.399 373.041 340.357 373.92C339.12 374.975 337.63 375.814 335.885 376.439V374.418ZM348.102 364.018V376H346.305V364.018H348.102ZM360.885 368.979V376H359.078V368.959C359.078 367.761 358.834 366.915 358.346 366.42C357.864 365.925 357.027 365.678 355.836 365.678H351.285V364.018H355.865C357.063 364.018 358.03 364.187 358.766 364.525C359.501 364.857 360.038 365.388 360.377 366.117C360.715 366.84 360.885 367.794 360.885 368.979ZM353.277 368.217V376H351.48V368.217H353.277ZM365.562 364.018V370.316H363.766V364.018H365.562ZM373.854 368.656V376H368.375V374.34H372.057V369.164C372.057 368.109 372.005 367.364 371.9 366.928C371.796 366.479 371.614 366.16 371.354 365.971C371.1 365.775 370.732 365.678 370.25 365.678H368.932V364.018H370.191C371.233 364.018 371.995 364.161 372.477 364.447C372.958 364.74 373.307 365.219 373.521 365.883C373.743 366.54 373.854 367.465 373.854 368.656Z" fill="#4856CD"/>
<rect x="29.5" y="351.5" width="76" height="35.2195" rx="17.6097" stroke="#4754D6"/>
<path d="M57.7031 367.738C57.7031 368.962 57.4557 370.124 56.9609 371.225C56.4661 372.325 55.7663 373.311 54.8613 374.184C53.9564 375.049 52.8822 375.743 51.6387 376.264V374.203C52.9993 373.591 54.0443 372.742 54.7734 371.654C55.5091 370.561 55.877 369.337 55.877 367.982C55.877 367.11 55.6849 366.508 55.3008 366.176C54.9232 365.844 54.2689 365.678 53.3379 365.678H48.2012V364.018H53.2598C54.8678 364.018 56.0104 364.307 56.6875 364.887C57.3646 365.46 57.7031 366.41 57.7031 367.738ZM50.4961 368.217V379.76H48.6992V368.217H50.4961ZM62.293 364.018V376H60.4961V364.018H62.293ZM67.4883 364.018V376H65.6914V364.018H67.4883ZM72.6836 364.018V370.316H70.8867V364.018H72.6836ZM85.0664 374.789C84.6172 375.089 84.0573 375.333 83.3867 375.521C82.7227 375.71 81.8893 375.85 80.8867 375.941C79.8841 376.033 78.6439 376.085 77.166 376.098L74.8809 364.018H76.7461L77.9473 370.18L78.6602 370.043C79.0508 369.952 79.373 369.835 79.627 369.691C79.8809 369.542 80.0827 369.333 80.2324 369.066C80.3561 368.858 80.4505 368.601 80.5156 368.295C80.5807 367.989 80.6296 367.624 80.6621 367.201L80.9062 364.018H82.7617L82.459 367.221C82.4134 367.761 82.3581 368.23 82.293 368.627C82.2279 369.018 82.1497 369.333 82.0586 369.574C81.8958 370.062 81.6517 370.44 81.3262 370.707C81.0007 370.967 80.4603 371.199 79.7051 371.4L78.2402 371.742L78.7188 374.262H78.9531C80.2617 374.262 81.3099 374.187 82.0977 374.037C82.8854 373.881 83.5072 373.64 83.9629 373.314C84.2689 373.093 84.526 372.82 84.7344 372.494C84.9427 372.169 85.1185 371.739 85.2617 371.205C85.4049 370.671 85.5254 369.984 85.623 369.145L86.2383 364.018H88.123L87.498 369.076C87.3678 370.209 87.1986 371.143 86.9902 371.879C86.7819 372.608 86.5215 373.201 86.209 373.656C85.903 374.105 85.5221 374.483 85.0664 374.789Z" fill="#4856CD"/>
<rect x="216.5" y="351.5" width="89" height="35" rx="17.5" stroke="#4754D6"/>
<path d="M245.963 368.979V376H235.699V364.018H240.943C242.74 364.018 244.026 364.402 244.801 365.17C245.576 365.938 245.963 367.208 245.963 368.979ZM237.496 374.34H244.156V368.959C244.156 367.774 243.915 366.931 243.434 366.43C242.958 365.928 242.122 365.678 240.924 365.678H237.496V374.34ZM250.66 364.018V370.316H248.863V364.018H250.66ZM263.473 367.738C263.473 368.962 263.225 370.124 262.73 371.225C262.236 372.325 261.536 373.311 260.631 374.184C259.726 375.049 258.652 375.743 257.408 376.264V374.203C258.769 373.591 259.814 372.742 260.543 371.654C261.279 370.561 261.646 369.337 261.646 367.982C261.646 367.11 261.454 366.508 261.07 366.176C260.693 365.844 260.038 365.678 259.107 365.678H253.971V364.018H259.029C260.637 364.018 261.78 364.307 262.457 364.887C263.134 365.46 263.473 366.41 263.473 367.738ZM256.266 368.217V379.76H254.469V368.217H256.266ZM265.865 369.721C265.865 369.193 265.908 368.663 265.992 368.129C266.083 367.589 266.201 367.1 266.344 366.664C266.493 366.228 266.653 365.899 266.822 365.678H265.064V364.018H271.549C273.346 364.018 274.635 364.402 275.416 365.17C276.197 365.932 276.588 367.201 276.588 368.979V369.838C276.588 371.921 276.119 373.503 275.182 374.584C274.251 375.658 272.887 376.195 271.09 376.195C269.306 376.195 267.988 375.694 267.135 374.691C266.288 373.682 265.865 372.139 265.865 370.062V369.721ZM268.424 365.678C267.988 366.446 267.77 367.768 267.77 369.643V370.16C267.77 371.592 268.056 372.68 268.629 373.422C269.208 374.164 270.042 374.535 271.129 374.535C272.372 374.535 273.271 374.167 273.824 373.432C274.384 372.696 274.664 371.492 274.664 369.818V368.959C274.664 367.748 274.433 366.898 273.971 366.41C273.508 365.922 272.695 365.678 271.529 365.678H268.424ZM278.092 374.418C279.895 374.418 281.308 374.252 282.33 373.92L278.707 364.018H280.689L283.893 373.158C284.505 372.722 284.996 372.139 285.367 371.41C285.745 370.674 286.018 369.711 286.188 368.52C286.363 367.328 286.451 365.827 286.451 364.018H288.336C288.336 367.025 288.017 369.382 287.379 371.088C286.949 372.221 286.347 373.158 285.572 373.9C284.798 374.636 283.798 375.202 282.574 375.6C281.357 375.99 279.863 376.231 278.092 376.322V374.418Z" fill="#4856CD"/>
<rect x="116.5" y="351.5" width="89" height="35" rx="17.5" stroke="#4754D6"/>
<path d="M135.033 374.145C134.812 374.802 134.46 375.277 133.979 375.57C133.497 375.857 132.738 376 131.703 376H131.596V374.34H131.762C132.211 374.34 132.569 374.255 132.836 374.086C133.096 373.917 133.282 373.66 133.393 373.314C133.503 372.963 133.559 372.432 133.559 371.723V365.678H131.703V364.018H138.178C139.975 364.018 141.264 364.402 142.045 365.17C142.826 365.932 143.217 367.201 143.217 368.979V376H141.42V368.959C141.42 367.761 141.176 366.915 140.688 366.42C140.206 365.925 139.363 365.678 138.158 365.678H135.355V371.361C135.355 372.559 135.248 373.487 135.033 374.145ZM148.324 364.018V376H146.527V364.018H148.324ZM159.105 368.979V376H157.299V368.959C157.299 367.774 157.058 366.931 156.576 366.43C156.101 365.928 155.264 365.678 154.066 365.678H150.404V364.018H154.086C155.284 364.018 156.251 364.187 156.986 364.525C157.722 364.857 158.259 365.388 158.598 366.117C158.936 366.84 159.105 367.794 159.105 368.979ZM164.203 364.018V370.316H162.406V364.018H164.203ZM175.307 370.18C175.307 374.06 173.471 376 169.799 376H166.684V374.34H169.838C171.081 374.34 171.999 373.995 172.592 373.305C173.184 372.615 173.48 371.579 173.48 370.199V369.818C173.48 368.432 173.181 367.396 172.582 366.713C171.99 366.023 171.075 365.678 169.838 365.678H166.684V364.018H169.799C173.471 364.018 175.307 365.958 175.307 369.838V370.18ZM184.008 363.822C185.583 363.822 186.732 364.304 187.455 365.268C188.184 366.225 188.549 367.748 188.549 369.838V376H182.67V374.34H186.732V370.062C186.732 368.467 186.527 367.309 186.117 366.586C185.707 365.863 185.01 365.502 184.027 365.502C183.148 365.502 182.426 365.899 181.859 366.693C181.286 367.501 180.762 368.904 180.287 370.902L179.066 376H177.133L178.471 370.756C178.62 370.144 178.773 369.59 178.93 369.096C179.086 368.601 179.239 368.161 179.389 367.777L176.947 364.018H179.066L180.287 366C180.795 365.232 181.339 364.678 181.918 364.34C182.497 363.995 183.194 363.822 184.008 363.822Z" fill="#4856CD"/>
<rect x="315.5" y="402.5" width="76" height="35.2195" rx="17.6097" stroke="#4754D6"/>
<path d="M334.885 425.418C336.135 424.956 337.202 424.37 338.088 423.66C338.98 422.957 339.657 422.189 340.119 421.355C340.588 420.522 340.822 419.676 340.822 418.816C340.822 417.391 340.061 416.678 338.537 416.678H333.684V410.74H335.48V415.018H338.723C341.333 415.018 342.639 416.18 342.639 418.504C342.639 419.702 342.352 420.851 341.779 421.951C341.206 423.051 340.399 424.041 339.357 424.92C338.12 425.975 336.63 426.814 334.885 427.439V425.418ZM347.102 415.018V427H345.305V415.018H347.102ZM359.885 419.979V427H358.078V419.959C358.078 418.761 357.834 417.915 357.346 417.42C356.864 416.925 356.027 416.678 354.836 416.678H350.285V415.018H354.865C356.063 415.018 357.03 415.187 357.766 415.525C358.501 415.857 359.038 416.388 359.377 417.117C359.715 417.84 359.885 418.794 359.885 419.979ZM352.277 419.217V427H350.48V419.217H352.277ZM364.562 415.018V421.316H362.766V415.018H364.562ZM372.854 419.656V427H367.375V425.34H371.057V420.164C371.057 419.109 371.005 418.364 370.9 417.928C370.796 417.479 370.614 417.16 370.354 416.971C370.1 416.775 369.732 416.678 369.25 416.678H367.932V415.018H369.191C370.233 415.018 370.995 415.161 371.477 415.447C371.958 415.74 372.307 416.219 372.521 416.883C372.743 417.54 372.854 418.465 372.854 419.656Z" fill="#4856CD"/>
<rect x="28.5" y="402.5" width="76" height="35.2195" rx="17.6097" stroke="#4754D6"/>
<path d="M56.7031 418.738C56.7031 419.962 56.4557 421.124 55.9609 422.225C55.4661 423.325 54.7663 424.311 53.8613 425.184C52.9564 426.049 51.8822 426.743 50.6387 427.264V425.203C51.9993 424.591 53.0443 423.742 53.7734 422.654C54.5091 421.561 54.877 420.337 54.877 418.982C54.877 418.11 54.6849 417.508 54.3008 417.176C53.9232 416.844 53.2689 416.678 52.3379 416.678H47.2012V415.018H52.2598C53.8678 415.018 55.0104 415.307 55.6875 415.887C56.3646 416.46 56.7031 417.41 56.7031 418.738ZM49.4961 419.217V430.76H47.6992V419.217H49.4961ZM61.293 415.018V427H59.4961V415.018H61.293ZM66.4883 415.018V427H64.6914V415.018H66.4883ZM71.6836 415.018V421.316H69.8867V415.018H71.6836ZM84.0664 425.789C83.6172 426.089 83.0573 426.333 82.3867 426.521C81.7227 426.71 80.8893 426.85 79.8867 426.941C78.8841 427.033 77.6439 427.085 76.166 427.098L73.8809 415.018H75.7461L76.9473 421.18L77.6602 421.043C78.0508 420.952 78.373 420.835 78.627 420.691C78.8809 420.542 79.0827 420.333 79.2324 420.066C79.3561 419.858 79.4505 419.601 79.5156 419.295C79.5807 418.989 79.6296 418.624 79.6621 418.201L79.9062 415.018H81.7617L81.459 418.221C81.4134 418.761 81.3581 419.23 81.293 419.627C81.2279 420.018 81.1497 420.333 81.0586 420.574C80.8958 421.062 80.6517 421.44 80.3262 421.707C80.0007 421.967 79.4603 422.199 78.7051 422.4L77.2402 422.742L77.7188 425.262H77.9531C79.2617 425.262 80.3099 425.187 81.0977 425.037C81.8854 424.881 82.5072 424.64 82.9629 424.314C83.2689 424.093 83.526 423.82 83.7344 423.494C83.9427 423.169 84.1185 422.739 84.2617 422.205C84.4049 421.671 84.5254 420.984 84.623 420.145L85.2383 415.018H87.123L86.498 420.076C86.3678 421.209 86.1986 422.143 85.9902 422.879C85.7819 423.608 85.5215 424.201 85.209 424.656C84.903 425.105 84.5221 425.483 84.0664 425.789Z" fill="#4856CD"/>
<rect x="215.5" y="402.5" width="89" height="35" rx="17.5" stroke="#4754D6"/>
<path d="M244.963 419.979V427H234.699V415.018H239.943C241.74 415.018 243.026 415.402 243.801 416.17C244.576 416.938 244.963 418.208 244.963 419.979ZM236.496 425.34H243.156V419.959C243.156 418.774 242.915 417.931 242.434 417.43C241.958 416.928 241.122 416.678 239.924 416.678H236.496V425.34ZM249.66 415.018V421.316H247.863V415.018H249.66ZM262.473 418.738C262.473 419.962 262.225 421.124 261.73 422.225C261.236 423.325 260.536 424.311 259.631 425.184C258.726 426.049 257.652 426.743 256.408 427.264V425.203C257.769 424.591 258.814 423.742 259.543 422.654C260.279 421.561 260.646 420.337 260.646 418.982C260.646 418.11 260.454 417.508 260.07 417.176C259.693 416.844 259.038 416.678 258.107 416.678H252.971V415.018H258.029C259.637 415.018 260.78 415.307 261.457 415.887C262.134 416.46 262.473 417.41 262.473 418.738ZM255.266 419.217V430.76H253.469V419.217H255.266ZM264.865 420.721C264.865 420.193 264.908 419.663 264.992 419.129C265.083 418.589 265.201 418.1 265.344 417.664C265.493 417.228 265.653 416.899 265.822 416.678H264.064V415.018H270.549C272.346 415.018 273.635 415.402 274.416 416.17C275.197 416.932 275.588 418.201 275.588 419.979V420.838C275.588 422.921 275.119 424.503 274.182 425.584C273.251 426.658 271.887 427.195 270.09 427.195C268.306 427.195 266.988 426.694 266.135 425.691C265.288 424.682 264.865 423.139 264.865 421.062V420.721ZM267.424 416.678C266.988 417.446 266.77 418.768 266.77 420.643V421.16C266.77 422.592 267.056 423.68 267.629 424.422C268.208 425.164 269.042 425.535 270.129 425.535C271.372 425.535 272.271 425.167 272.824 424.432C273.384 423.696 273.664 422.492 273.664 420.818V419.959C273.664 418.748 273.433 417.898 272.971 417.41C272.508 416.922 271.695 416.678 270.529 416.678H267.424ZM277.092 425.418C278.895 425.418 280.308 425.252 281.33 424.92L277.707 415.018H279.689L282.893 424.158C283.505 423.722 283.996 423.139 284.367 422.41C284.745 421.674 285.018 420.711 285.188 419.52C285.363 418.328 285.451 416.827 285.451 415.018H287.336C287.336 418.025 287.017 420.382 286.379 422.088C285.949 423.221 285.347 424.158 284.572 424.9C283.798 425.636 282.798 426.202 281.574 426.6C280.357 426.99 278.863 427.231 277.092 427.322V425.418Z" fill="#4856CD"/>
<rect x="115.5" y="402.5" width="89" height="35" rx="17.5" stroke="#4754D6"/>
<path d="M134.033 425.145C133.812 425.802 133.46 426.277 132.979 426.57C132.497 426.857 131.738 427 130.703 427H130.596V425.34H130.762C131.211 425.34 131.569 425.255 131.836 425.086C132.096 424.917 132.282 424.66 132.393 424.314C132.503 423.963 132.559 423.432 132.559 422.723V416.678H130.703V415.018H137.178C138.975 415.018 140.264 415.402 141.045 416.17C141.826 416.932 142.217 418.201 142.217 419.979V427H140.42V419.959C140.42 418.761 140.176 417.915 139.688 417.42C139.206 416.925 138.363 416.678 137.158 416.678H134.355V422.361C134.355 423.559 134.248 424.487 134.033 425.145ZM147.324 415.018V427H145.527V415.018H147.324ZM158.105 419.979V427H156.299V419.959C156.299 418.774 156.058 417.931 155.576 417.43C155.101 416.928 154.264 416.678 153.066 416.678H149.404V415.018H153.086C154.284 415.018 155.251 415.187 155.986 415.525C156.722 415.857 157.259 416.388 157.598 417.117C157.936 417.84 158.105 418.794 158.105 419.979ZM163.203 415.018V421.316H161.406V415.018H163.203ZM174.307 421.18C174.307 425.06 172.471 427 168.799 427H165.684V425.34H168.838C170.081 425.34 170.999 424.995 171.592 424.305C172.184 423.615 172.48 422.579 172.48 421.199V420.818C172.48 419.432 172.181 418.396 171.582 417.713C170.99 417.023 170.075 416.678 168.838 416.678H165.684V415.018H168.799C172.471 415.018 174.307 416.958 174.307 420.838V421.18ZM183.008 414.822C184.583 414.822 185.732 415.304 186.455 416.268C187.184 417.225 187.549 418.748 187.549 420.838V427H181.67V425.34H185.732V421.062C185.732 419.467 185.527 418.309 185.117 417.586C184.707 416.863 184.01 416.502 183.027 416.502C182.148 416.502 181.426 416.899 180.859 417.693C180.286 418.501 179.762 419.904 179.287 421.902L178.066 427H176.133L177.471 421.756C177.62 421.144 177.773 420.59 177.93 420.096C178.086 419.601 178.239 419.161 178.389 418.777L175.947 415.018H178.066L179.287 417C179.795 416.232 180.339 415.678 180.918 415.34C181.497 414.995 182.194 414.822 183.008 414.822Z" fill="#4856CD"/>
</svg>
