<svg width="1920" height="1080" viewBox="0 0 1920 1080" fill="none" xmlns="http://www.w3.org/2000/svg">
<g clip-path="url(#clip0_49_561)">
<rect width="1920" height="1080" fill="#E4DFD9"/>
<rect x="1695" y="41" width="195" height="82" rx="41" fill="#4856CD"/>
<rect x="242" y="41" width="1435" height="82" rx="41" fill="#F4F4F1"/>
<rect x="44" y="43" width="177" height="82" rx="41" fill="#B78BE6"/>
<path d="M1845.55 67.026C1845.55 68.88 1844.84 70.4849 1843.51 71.6641C1842.27 72.7562 1840.59 73.3105 1838.52 73.3105H1833.67V96.6651C1833.67 99.0277 1833.03 100.913 1831.79 102.269C1830.49 103.678 1828.75 104.424 1826.76 104.424C1824.77 104.424 1823 103.674 1821.69 102.256C1820.44 100.894 1819.8 99.0132 1819.8 96.6651V73.3105H1814.95C1812.86 73.3105 1811.18 72.7479 1809.95 71.635C1809.86 71.5562 1809.78 71.4752 1809.7 71.3921V96.6651C1809.7 99.0111 1809.06 100.892 1807.8 102.256C1806.49 103.674 1804.73 104.424 1802.71 104.424C1800.69 104.424 1798.99 103.666 1797.69 102.231C1797.06 101.548 1796.59 100.736 1796.28 99.8063C1795.96 98.8782 1795.8 97.8277 1795.8 96.6651V69.8828C1795.76 69.9907 1795.73 70.0966 1795.69 70.2025C1795.54 70.5907 1795.4 70.9935 1795.26 71.4067L1795.24 71.471L1786.38 95.3592C1786.06 96.2872 1785.73 97.1882 1785.41 98.0374C1785.01 99.0796 1784.53 100.024 1783.98 100.844C1783.29 101.884 1782.37 102.74 1781.25 103.388C1780.06 104.075 1778.66 104.424 1777.09 104.424C1775.52 104.424 1774.14 104.085 1772.96 103.417C1771.83 102.773 1770.89 101.905 1770.18 100.838C1769.63 100.008 1769.15 99.063 1768.75 98.0353C1768.43 97.1903 1768.1 96.2872 1767.77 95.355L1759.05 71.606C1758.91 71.2053 1758.77 70.8087 1758.62 70.4226C1758.41 69.8682 1758.23 69.2662 1758.09 68.6329C1757.93 67.9125 1757.85 67.2793 1757.85 66.7C1757.85 65.0038 1758.52 63.4197 1759.79 62.1159C1761.08 60.7913 1762.78 60.0917 1764.68 60.0917C1767.83 60.0917 1769.4 61.709 1770.05 62.6744C1770.4 63.1934 1770.74 63.8204 1771.07 64.5678C1771.4 65.3153 1771.73 66.1831 1772.05 67.1817L1777.26 82.6033L1782.51 66.9907C1782.97 65.608 1783.32 64.6405 1783.58 64.0447C1784 63.0543 1784.67 62.1741 1785.58 61.4329C1786.67 60.5422 1788.05 60.0917 1789.68 60.0917C1790.89 60.0917 1792.03 60.3989 1793.07 61.0073C1794.1 61.6073 1794.91 62.419 1795.5 63.4239C1795.8 63.9305 1796.03 64.4516 1796.18 64.9831C1796.49 63.9305 1796.99 63.0232 1797.67 62.2716C1798.97 60.8453 1800.71 60.0917 1802.71 60.0917C1804.71 60.0917 1806.48 60.8308 1807.79 62.2322C1808.21 62.6786 1808.56 63.1851 1808.84 63.7436C1809.16 63.2163 1809.56 62.7388 1810.05 62.3194C1811.29 61.2543 1812.94 60.7145 1814.95 60.7145H1838.52C1840.62 60.7145 1842.32 61.2834 1843.55 62.4024C1844.86 63.59 1845.55 65.1886 1845.55 67.026Z" fill="#F3F4F1"/>
<path d="M1858.47 71.8925H1858.43C1858.39 71.8925 1858.36 71.8966 1858.34 71.8987C1858.33 71.9444 1858.33 72.0087 1858.33 72.0938C1858.33 72.1707 1858.33 72.2163 1858.34 72.2309C1858.34 72.2371 1858.34 72.2433 1858.35 72.2475C1858.43 72.1624 1858.46 72.1084 1858.48 72.0855C1858.48 72.0004 1858.47 71.9361 1858.47 71.8925ZM1858.28 90.9411C1858.17 90.6587 1858.08 90.5861 1858.08 90.5861C1858.06 90.5778 1858.06 90.5736 1858.05 90.5715H1858.02C1857.92 90.5715 1857.91 90.5715 1857.81 90.6629C1857.8 90.6774 1857.79 90.6899 1857.78 90.6982C1857.78 90.7106 1857.77 90.7355 1857.77 90.7708C1857.77 90.8892 1857.78 90.966 1857.79 91.0096C1857.86 91.0594 1857.93 91.0885 1858.1 91.0885H1858.34C1858.32 91.0324 1858.3 90.9826 1858.28 90.9411Z" fill="#F3F4F1"/>
<path d="M1864.27 88.4539C1863.7 87.1023 1862.87 86.0352 1861.79 85.2753C1860.66 84.4905 1859.39 84.0919 1858.02 84.0919C1856.24 84.0919 1854.62 84.748 1853.33 85.9854C1852 87.2601 1851.3 88.9148 1851.3 90.7709C1851.3 93.2539 1852.36 94.8069 1853.31 95.6976C1852.09 96.6754 1851.41 98.0748 1851.41 99.6132C1851.41 100.824 1851.83 101.945 1852.64 102.856C1853.53 103.867 1854.78 104.424 1856.17 104.424C1857.69 104.424 1859.22 103.761 1860.71 102.455C1861.94 101.382 1862.97 99.9557 1863.78 98.218C1864.59 96.4616 1865 94.564 1865 92.573C1865 91.0096 1864.75 89.6248 1864.27 88.4539ZM1858.1 91.0885C1857.93 91.0885 1857.86 91.0595 1857.79 91.0096C1857.78 90.966 1857.77 90.8892 1857.77 90.7709C1857.77 90.7356 1857.78 90.7107 1857.78 90.6982C1857.79 90.6899 1857.8 90.6775 1857.81 90.6629C1857.91 90.5716 1857.92 90.5716 1858.02 90.5716H1858.05C1858.05 90.5716 1858.06 90.5778 1858.08 90.5861C1858.08 90.5861 1858.17 90.6588 1858.28 90.9411C1858.3 90.9826 1858.32 91.0325 1858.34 91.0885H1858.1Z" fill="#F3F4F1"/>
<path d="M1862.97 67.2066C1861.72 66.0336 1860.15 65.4149 1858.43 65.4149C1856.71 65.4149 1855.12 66.0212 1853.88 67.1672C1852.95 68.0184 1851.85 69.5631 1851.85 72.0939C1851.85 73.3333 1852.15 74.4773 1852.74 75.4925H1852.74C1853.31 76.4766 1854.1 77.2739 1855.07 77.8635C1856.09 78.4822 1857.22 78.7957 1858.43 78.7957C1859.65 78.7957 1861.4 78.4365 1863.03 76.7195C1864.29 75.4032 1864.96 73.8046 1864.96 72.0939C1864.96 69.6025 1863.87 68.0599 1862.97 67.2066ZM1858.35 72.2475C1858.35 72.2475 1858.34 72.2371 1858.34 72.2309C1858.33 72.2164 1858.33 72.1707 1858.33 72.0939C1858.33 72.0088 1858.33 71.9444 1858.34 71.8987C1858.36 71.8966 1858.39 71.8925 1858.43 71.8925H1858.47C1858.47 71.9361 1858.48 72.0005 1858.48 72.0856C1858.46 72.1084 1858.43 72.1624 1858.35 72.2475Z" fill="#F3F4F1"/>
<path d="M1760.88 88.7528C1760.66 90.5923 1760.04 92.5044 1759.04 94.4352C1758.01 96.4221 1756.5 98.2346 1754.54 99.8249C1752.6 101.407 1750.16 102.624 1747.3 103.444C1745.22 104.042 1743.22 104.392 1741.36 104.49C1741.02 104.507 1740.68 104.515 1740.34 104.515C1738.75 104.515 1737.21 104.318 1735.74 103.927C1733.96 103.45 1732.2 102.646 1730.53 101.54L1730.51 101.525C1729.04 100.539 1727.68 99.3412 1726.45 97.9626C1725.24 96.5944 1724.17 95.0498 1723.28 93.3702C1722.41 91.7217 1721.68 89.8968 1721.12 87.9431C1720.21 84.7562 1719.85 81.696 1720.06 78.8496C1720.27 75.9347 1721.03 73.2274 1722.32 70.8046C1723.61 68.3775 1725.37 66.2848 1727.55 64.5844C1729.69 62.911 1732.16 61.6654 1734.89 60.8847C1738.22 59.9297 1741.45 59.747 1744.5 60.3408C1747.56 60.9387 1750.15 62.0806 1752.22 63.7374C1754.41 65.4938 1755.83 67.4661 1756.45 69.6045C1756.91 71.2011 1756.75 72.8475 1755.98 74.361C1755.18 75.9659 1753.86 77.0683 1752.16 77.5541C1750.43 78.0503 1748.87 77.9506 1747.54 77.2551C1746.62 76.7797 1745.67 76.0094 1744.54 74.8323C1743.48 73.7423 1742.44 73.0198 1741.44 72.6835C1740.56 72.3907 1739.55 72.4156 1738.35 72.7624C1736.39 73.325 1735.14 74.417 1734.42 76.2025C1733.6 78.2268 1733.68 80.959 1734.64 84.3265C1735.3 86.631 1736.15 88.4331 1737.16 89.6829C1738.03 90.7646 1738.96 91.4394 1739.99 91.7425C1741.06 92.0601 1742.21 92.0331 1743.51 91.6615C1744.9 91.2629 1745.92 90.638 1746.62 89.7515C1747.33 88.8525 1747.73 87.6857 1747.85 86.1826C1747.9 84.8331 1748.14 83.6227 1748.54 82.5888C1749 81.422 1750.07 79.8815 1752.57 79.1652C1754.23 78.6898 1755.91 78.8704 1757.43 79.6863H1757.44C1758.99 80.5209 1760.07 81.8725 1760.56 83.5936C1761 85.1299 1761.11 86.8656 1760.88 88.7528Z" fill="#F3F4F1"/>
<path d="M1140.28 85.2955V85.1974C1140.29 84.1574 1140.4 83.3298 1140.61 82.7145C1140.81 82.0992 1141.11 81.601 1141.49 81.2198C1141.87 80.8387 1142.33 80.4875 1142.86 80.1662C1143.18 79.9702 1143.47 79.7388 1143.73 79.4719C1143.98 79.1997 1144.18 78.8866 1144.33 78.5327C1144.48 78.1787 1144.56 77.7867 1144.56 77.3565C1144.56 76.8229 1144.43 76.3601 1144.18 75.968C1143.93 75.576 1143.6 75.2738 1143.18 75.0614C1142.76 74.8491 1142.29 74.7429 1141.78 74.7429C1141.34 74.7429 1140.91 74.8355 1140.49 75.0206C1140.08 75.2057 1139.73 75.497 1139.45 75.8945C1139.18 76.292 1139.02 76.812 1138.97 77.4545H1136.91C1136.96 76.5289 1137.2 75.7366 1137.63 75.0778C1138.07 74.4189 1138.65 73.9152 1139.37 73.5668C1140.1 73.2183 1140.9 73.044 1141.78 73.044C1142.74 73.044 1143.57 73.2346 1144.28 73.6158C1145 73.9969 1145.55 74.5196 1145.93 75.1839C1146.32 75.8482 1146.52 76.6051 1146.52 77.4545C1146.52 78.0535 1146.43 78.5953 1146.24 79.0799C1146.06 79.5645 1145.8 79.9974 1145.46 80.3786C1145.12 80.7597 1144.71 81.0973 1144.23 81.3913C1143.75 81.6908 1143.37 82.0066 1143.08 82.3388C1142.79 82.6655 1142.58 83.0548 1142.45 83.5067C1142.32 83.9587 1142.25 84.5223 1142.24 85.1974V85.2955H1140.28ZM1141.33 90.1307C1140.92 90.1307 1140.58 89.9864 1140.29 89.6978C1140 89.4092 1139.86 89.0634 1139.86 88.6605C1139.86 88.2576 1140 87.9118 1140.29 87.6232C1140.58 87.3346 1140.92 87.1903 1141.33 87.1903C1141.73 87.1903 1142.07 87.3346 1142.36 87.6232C1142.65 87.9118 1142.8 88.2576 1142.8 88.6605C1142.8 88.9273 1142.73 89.1723 1142.59 89.3956C1142.46 89.6188 1142.28 89.7985 1142.06 89.9347C1141.84 90.0653 1141.6 90.1307 1141.33 90.1307ZM1151.68 76.2202V90H1149.61V76.2202H1151.68ZM1160.74 81.5547V90H1154.44V88.0908H1158.67V82.1387C1158.67 80.9258 1158.61 80.0685 1158.49 79.5669C1158.37 79.0503 1158.17 78.6834 1157.87 78.4663C1157.57 78.2417 1157.15 78.1294 1156.6 78.1294H1155.08V76.2202H1156.53C1157.73 76.2202 1158.6 76.3849 1159.16 76.7144C1159.71 77.0513 1160.11 77.6016 1160.36 78.3652C1160.61 79.1214 1160.74 80.1846 1160.74 81.5547ZM1173.81 81.9028C1173.81 80.5402 1173.54 79.5706 1172.98 78.9941C1172.44 78.4176 1171.47 78.1294 1170.1 78.1294H1166.61V90H1164.55V76.2202H1170.12C1172.18 76.2202 1173.66 76.6619 1174.55 77.5454C1175.45 78.4289 1175.89 79.8888 1175.89 81.9253V90H1173.81V81.9028ZM1184.84 81.5547V90H1178.54V88.0908H1182.77V82.1387C1182.77 80.9258 1182.72 80.0685 1182.6 79.5669C1182.48 79.0503 1182.27 78.6834 1181.97 78.4663C1181.67 78.2417 1181.25 78.1294 1180.7 78.1294H1179.18V76.2202H1180.63C1181.83 76.2202 1182.7 76.3849 1183.26 76.7144C1183.81 77.0513 1184.21 77.6016 1184.46 78.3652C1184.71 79.1214 1184.84 80.1846 1184.84 81.5547ZM1190.51 85.4741L1189.61 90H1187.44L1188.38 85.519C1188.65 84.2313 1188.9 83.3254 1189.12 82.8013C1189.34 82.2697 1189.63 81.8392 1189.96 81.5098C1190.31 81.1803 1190.77 80.8996 1191.34 80.6675L1188.1 76.2202H1190.65L1195.71 83.1943C1196.27 82.6702 1196.72 82.0376 1197.05 81.2964C1197.39 80.5477 1197.61 79.6904 1197.71 78.7246L1197.97 76.2202H1200.1L1199.85 78.6797C1199.76 79.5033 1199.61 80.2257 1199.4 80.8472C1199.25 81.2739 1199.07 81.682 1198.86 82.0713C1198.65 82.4531 1198.38 82.8499 1198.05 83.2617C1197.73 83.6735 1197.31 84.134 1196.79 84.6431L1200.84 90H1198.22L1192.29 81.9478C1191.69 82.2397 1191.26 82.7451 1191.01 83.4639C1190.93 83.651 1190.85 83.9131 1190.77 84.25C1190.7 84.5869 1190.61 84.995 1190.51 85.4741ZM1211.63 76.2202V83.4639H1209.56V76.2202H1211.63ZM1222.32 75.9956C1224.13 75.9956 1225.45 76.5496 1226.28 77.6577C1227.12 78.7583 1227.54 80.5103 1227.54 82.9136V90H1220.78V88.0908H1225.45V83.1719C1225.45 81.3376 1225.21 80.0049 1224.74 79.1738C1224.27 78.3428 1223.47 77.9272 1222.34 77.9272C1221.33 77.9272 1220.5 78.384 1219.85 79.2974C1219.19 80.2257 1218.59 81.8392 1218.04 84.1377L1216.63 90H1214.41L1215.95 83.9692C1216.12 83.2655 1216.3 82.6291 1216.48 82.0601C1216.66 81.491 1216.83 80.9857 1217.01 80.5439L1214.2 76.2202H1216.63L1218.04 78.5C1218.62 77.6165 1219.25 76.9801 1219.91 76.5908C1220.58 76.194 1221.38 75.9956 1222.32 75.9956Z" fill="#4754D6"/>
<path d="M1004.64 87.8662C1004.38 88.6224 1003.98 89.1689 1003.43 89.5059C1002.87 89.8353 1002 90 1000.81 90H1000.69V88.0908H1000.88C1001.39 88.0908 1001.8 87.9935 1002.11 87.7988C1002.41 87.6042 1002.62 87.3084 1002.75 86.9116C1002.88 86.5073 1002.94 85.8971 1002.94 85.0811V78.1294H1000.81V76.2202H1008.25C1010.32 76.2202 1011.8 76.6619 1012.7 77.5454C1013.6 78.4214 1014.05 79.8813 1014.05 81.9253V90H1011.98V81.9028C1011.98 80.5252 1011.7 79.5519 1011.14 78.9829C1010.59 78.4139 1009.62 78.1294 1008.23 78.1294H1005.01V84.6655C1005.01 86.0431 1004.89 87.11 1004.64 87.8662ZM1019.92 76.2202V90H1017.86V76.2202H1019.92ZM1025.9 76.2202V83.4639H1023.83V76.2202H1025.9ZM1034.96 81.5547V90H1028.66V88.0908H1032.89V82.1387C1032.89 80.9258 1032.83 80.0685 1032.71 79.5669C1032.59 79.0503 1032.38 78.6834 1032.09 78.4663C1031.79 78.2417 1031.37 78.1294 1030.82 78.1294H1029.3V76.2202H1030.75C1031.95 76.2202 1032.82 76.3849 1033.38 76.7144C1033.93 77.0513 1034.33 77.6016 1034.58 78.3652C1034.83 79.1214 1034.96 80.1846 1034.96 81.5547ZM1049.76 88.0908V90H1037.73V88.0908H1046.2V81.9028C1046.2 80.5252 1045.92 79.5519 1045.36 78.9829C1044.81 78.4139 1043.84 78.1294 1042.47 78.1294H1038.26V76.2202H1042.5C1044.56 76.2202 1046.04 76.6619 1046.93 77.5454C1047.82 78.4289 1048.27 79.8888 1048.27 81.9253V88.0908H1049.76ZM1055.22 87.8662C1054.97 88.6224 1054.56 89.1689 1054.01 89.5059C1053.45 89.8353 1052.58 90 1051.39 90H1051.27V88.0908H1051.46C1051.97 88.0908 1052.39 87.9935 1052.69 87.7988C1052.99 87.6042 1053.21 87.3084 1053.33 86.9116C1053.46 86.5073 1053.52 85.8971 1053.52 85.0811V78.1294H1051.39V76.2202H1058.84C1060.9 76.2202 1062.39 76.6619 1063.28 77.5454C1064.18 78.4214 1064.63 79.8813 1064.63 81.9253V90H1062.56V81.9028C1062.56 80.5252 1062.28 79.5519 1061.72 78.9829C1061.17 78.4139 1060.2 78.1294 1058.81 78.1294H1055.59V84.6655C1055.59 86.0431 1055.47 87.11 1055.22 87.8662Z" fill="#4754D6"/>
<path d="M782.638 87.8662C782.384 88.6224 781.979 89.1689 781.425 89.5059C780.871 89.8353 779.999 90 778.809 90H778.685V88.0908H778.876C779.393 88.0908 779.804 87.9935 780.111 87.7988C780.411 87.6042 780.624 87.3084 780.751 86.9116C780.879 86.5073 780.942 85.8971 780.942 85.0811V78.1294H778.809V76.2202H786.254C788.321 76.2202 789.803 76.6619 790.702 77.5454C791.6 78.4214 792.049 79.8813 792.049 81.9253V90H789.983V81.9028C789.983 80.5252 789.702 79.5519 789.141 78.9829C788.587 78.4139 787.617 78.1294 786.232 78.1294H783.009V84.6655C783.009 86.0431 782.885 87.11 782.638 87.8662ZM797.923 76.2202V90H795.856V76.2202H797.923ZM812.826 88.0908V90H800.798V88.0908H809.266V81.9028C809.266 80.5252 808.985 79.5519 808.423 78.9829C807.869 78.4139 806.907 78.1294 805.537 78.1294H801.326V76.2202H805.56C807.626 76.2202 809.105 76.6619 809.996 77.5454C810.887 78.4289 811.332 79.8888 811.332 81.9253V88.0908H812.826ZM817.666 76.2202V90H815.6V76.2202H817.666ZM831.906 88.6074C831.39 88.9518 830.746 89.2326 829.975 89.4497C829.211 89.6668 828.253 89.8278 827.1 89.9326C825.947 90.0374 824.52 90.0973 822.821 90.1123L820.193 76.2202H822.338L823.719 83.3066L824.539 83.1494C824.988 83.0446 825.359 82.9098 825.651 82.7451C825.943 82.5729 826.175 82.3333 826.347 82.0264C826.489 81.7868 826.598 81.491 826.673 81.1392C826.748 80.7873 826.804 80.368 826.841 79.8813L827.122 76.2202H829.256L828.908 79.9038C828.855 80.5252 828.792 81.0643 828.717 81.521C828.642 81.9702 828.552 82.3333 828.447 82.6104C828.26 83.1719 827.979 83.6061 827.605 83.9131C827.231 84.2126 826.609 84.4784 825.741 84.7104L824.056 85.1035L824.606 88.001H824.876C826.381 88.001 827.586 87.9149 828.492 87.7427C829.398 87.563 830.113 87.286 830.637 86.9116C830.989 86.6571 831.285 86.3426 831.524 85.9683C831.764 85.5939 831.966 85.0998 832.131 84.4858C832.296 83.8719 832.434 83.082 832.546 82.1162L833.254 76.2202H835.421L834.703 82.0376C834.553 83.3403 834.358 84.4147 834.119 85.2607C833.879 86.0993 833.58 86.7806 833.22 87.3047C832.868 87.8213 832.43 88.2555 831.906 88.6074ZM840.587 87.8662C840.333 88.6224 839.929 89.1689 839.375 89.5059C838.82 89.8353 837.948 90 836.758 90H836.634V88.0908H836.825C837.342 88.0908 837.754 87.9935 838.061 87.7988C838.36 87.6042 838.573 87.3084 838.701 86.9116C838.828 86.5073 838.892 85.8971 838.892 85.0811V78.1294H836.758V76.2202H844.204C846.27 76.2202 847.752 76.6619 848.651 77.5454C849.549 78.4214 849.999 79.8813 849.999 81.9253V90H847.932V81.9028C847.932 80.5252 847.651 79.5519 847.09 78.9829C846.536 78.4139 845.566 78.1294 844.181 78.1294H840.958V84.6655C840.958 86.0431 840.834 87.11 840.587 87.8662ZM856.344 76.2202V90H854.277V76.2202H856.344ZM869.405 87.8662C869.15 88.6224 868.746 89.1689 868.192 89.5059C867.638 89.8353 866.766 90 865.575 90H865.452V88.0908H865.643C866.159 88.0908 866.571 87.9935 866.878 87.7988C867.177 87.6042 867.391 87.3084 867.518 86.9116C867.645 86.5073 867.709 85.8971 867.709 85.0811V78.1294H865.575V76.2202H873.021C875.087 76.2202 876.57 76.6619 877.468 77.5454C878.367 78.4214 878.816 79.8813 878.816 81.9253V90H876.75V81.9028C876.75 80.5252 876.469 79.5519 875.907 78.9829C875.353 78.4139 874.384 78.1294 872.999 78.1294H869.775V84.6655C869.775 86.0431 869.652 87.11 869.405 87.8662ZM884.689 76.2202V90H882.623V76.2202H884.689ZM888.811 88.1807C890.249 87.6491 891.476 86.9753 892.495 86.1592C893.52 85.3506 894.299 84.4671 894.831 83.5088C895.37 82.5505 895.639 81.5771 895.639 80.5889C895.639 78.9492 894.763 78.1294 893.011 78.1294H887.43V71.3013H889.496V76.2202H893.225C896.227 76.2202 897.728 77.5566 897.728 80.2295C897.728 81.6071 897.399 82.9285 896.74 84.1938C896.081 85.4591 895.153 86.5972 893.955 87.6079C892.532 88.8208 890.818 89.7866 888.811 90.5054V88.1807ZM902.187 85.4741L901.288 90H899.109L900.053 85.519C900.322 84.2313 900.569 83.3254 900.794 82.8013C901.019 82.2697 901.299 81.8392 901.636 81.5098C901.981 81.1803 902.441 80.8996 903.018 80.6675L899.772 76.2202H902.321L907.386 83.1943C907.948 82.6702 908.393 82.0376 908.723 81.2964C909.06 80.5477 909.28 79.6904 909.385 78.7246L909.644 76.2202H911.777L911.519 78.6797C911.437 79.5033 911.287 80.2257 911.07 80.8472C910.92 81.2739 910.74 81.682 910.531 82.0713C910.321 82.4531 910.052 82.8499 909.722 83.2617C909.4 83.6735 908.981 84.134 908.464 84.6431L912.519 90H909.891L903.961 81.9478C903.362 82.2397 902.935 82.7451 902.681 83.4639C902.606 83.651 902.527 83.9131 902.445 84.25C902.37 84.5869 902.284 84.995 902.187 85.4741ZM925.568 88.6074C925.052 88.9518 924.408 89.2326 923.637 89.4497C922.873 89.6668 921.915 89.8278 920.762 89.9326C919.609 90.0374 918.182 90.0973 916.483 90.1123L913.855 76.2202H916L917.381 83.3066L918.201 83.1494C918.65 83.0446 919.021 82.9098 919.313 82.7451C919.605 82.5729 919.837 82.3333 920.009 82.0264C920.152 81.7868 920.26 81.491 920.335 81.1392C920.41 80.7873 920.466 80.368 920.503 79.8813L920.784 76.2202H922.918L922.57 79.9038C922.517 80.5252 922.454 81.0643 922.379 81.521C922.304 81.9702 922.214 82.3333 922.109 82.6104C921.922 83.1719 921.641 83.6061 921.267 83.9131C920.893 84.2126 920.271 84.4784 919.403 84.7104L917.718 85.1035L918.269 88.001H918.538C920.043 88.001 921.248 87.9149 922.154 87.7427C923.06 87.563 923.775 87.286 924.299 86.9116C924.651 86.6571 924.947 86.3426 925.187 85.9683C925.426 85.5939 925.628 85.0998 925.793 84.4858C925.958 83.8719 926.096 83.082 926.208 82.1162L926.916 76.2202H929.083L928.365 82.0376C928.215 83.3403 928.02 84.4147 927.781 85.2607C927.541 86.0993 927.242 86.7806 926.882 87.3047C926.53 87.8213 926.092 88.2555 925.568 88.6074Z" fill="#4754D6"/>
<path d="M692.454 90V73.2727H703.725V76.1886H695.99V80.1744H703.145V83.0902H695.99V87.0842H703.758V90H692.454ZM720.528 73.2727V90H717.473L710.196 79.4719H710.073V90H706.537V73.2727H709.641L716.861 83.7926H717.008V73.2727H720.528Z" fill="#4754D6"/>
<path d="M100.41 83.9253V92H97.3667V83.9028C97.3667 82.7424 97.1159 81.9338 96.6143 81.4771C96.1201 81.0129 95.2853 80.7808 94.1099 80.7808H89.438V78.063H94.2896C95.7645 78.063 96.9474 78.2614 97.8384 78.6582C98.7368 79.0475 99.3882 79.6727 99.7925 80.5337C100.204 81.3872 100.41 82.5177 100.41 83.9253ZM115.987 90.6187C115.373 90.9631 114.617 91.2476 113.718 91.4722C112.827 91.6893 111.715 91.8503 110.383 91.9551C109.058 92.0599 107.437 92.1123 105.52 92.1123L102.892 78.063H106.07L107.294 84.7788L108.114 84.6216C108.623 84.5243 108.998 84.3595 109.237 84.1274C109.484 83.8879 109.672 83.5322 109.799 83.0605C109.859 82.8285 109.915 82.5065 109.967 82.0947C110.027 81.6755 110.083 81.1663 110.136 80.5674L110.304 78.063H113.404L113.067 81.9038C113.022 82.4279 112.958 82.8996 112.876 83.3188C112.794 83.7381 112.689 84.1012 112.562 84.4082C112.314 85.0221 111.966 85.5013 111.517 85.8457C111.075 86.1901 110.372 86.4784 109.406 86.7104L107.721 87.1035L108.182 89.4058H108.451C109.387 89.4058 110.214 89.3683 110.933 89.2935C111.659 89.2111 112.277 89.0876 112.786 88.9229C113.467 88.7132 114.029 88.4212 114.471 88.0469C114.912 87.665 115.261 87.1597 115.515 86.5308C115.77 85.8944 115.949 85.0895 116.054 84.1162L116.762 78.063H119.895L119.176 84.0376C119.027 85.3254 118.817 86.3923 118.547 87.2383C118.285 88.0843 117.945 88.7731 117.525 89.3047C117.114 89.8288 116.601 90.2668 115.987 90.6187ZM134.562 82.6899C134.562 84.1125 134.274 85.4414 133.697 86.6768C133.121 87.9121 132.275 89.0202 131.159 90.001C130.051 90.9818 128.692 91.8016 127.083 92.4604V89.2373C128.49 88.5785 129.576 87.7025 130.339 86.6094C131.111 85.5088 131.496 84.3221 131.496 83.0493C131.496 82.2108 131.286 81.623 130.867 81.2861C130.448 80.9492 129.714 80.7808 128.666 80.7808H122.164V78.063H129.104C131.006 78.063 132.391 78.4261 133.259 79.1523C134.128 79.8711 134.562 81.0503 134.562 82.6899ZM125.769 83.4424V96.3237H122.736V83.4424H125.769ZM146.141 78.063V92H143.108V78.063H146.141ZM159.505 83.9253V92H156.461V83.9028C156.461 82.7424 156.211 81.9338 155.709 81.4771C155.215 81.0129 154.38 80.7808 153.205 80.7808H148.533V78.063H153.384C154.859 78.063 156.042 78.2614 156.933 78.6582C157.832 79.0475 158.483 79.6727 158.887 80.5337C159.299 81.3872 159.505 82.5177 159.505 83.9253ZM174.138 90.0459V92H162.357V89.2822H169.904L161.459 78.063H165.098L169.354 83.8354C169.848 83.5959 170.204 83.2365 170.421 82.7573C170.646 82.2782 170.803 81.5781 170.893 80.6572L171.14 78.063H174.25L174.015 80.6797C173.917 81.7129 173.753 82.5215 173.521 83.1055C173.288 83.6745 172.955 84.1574 172.521 84.5542C172.087 84.951 171.492 85.3029 170.735 85.6099L174.138 90.0459Z" fill="white"/>
<path d="M2002 503.679V1142.32C2002 1236.9 1905.84 1301.02 1818.54 1264.69C1645.6 1192.73 1524 1022.07 1524 822.998C1524 623.93 1645.6 453.279 1818.54 381.312C1905.84 344.988 2002 409.094 2002 503.679Z" fill="white" fill-opacity="0.27"/>
<circle cx="998.5" cy="230.5" r="14" fill="white" stroke="#4855CE" stroke-width="5"/>
<circle cx="952.5" cy="230.5" r="16.5" fill="#4856CD" fill-opacity="0.2"/>
<circle cx="906.5" cy="230.5" r="16.5" fill="#4856CD" fill-opacity="0.2"/>
<circle cx="860.5" cy="230.5" r="16.5" fill="#4856CD" fill-opacity="0.2"/>
<circle cx="814.5" cy="230.5" r="16.5" fill="#4856CD" fill-opacity="0.2"/>
<circle cx="768.5" cy="230.5" r="16.5" fill="#4856CD" fill-opacity="0.2"/>
<rect x="369.5" y="288.5" width="1029" height="548" rx="43.5" fill="white" fill-opacity="0.38" stroke="white"/>
<rect x="422.5" y="339.5" width="208" height="49" rx="24.5" stroke="#4856CD"/>
<path d="M488.453 363.925V372H485.41V363.903C485.41 362.757 485.167 361.952 484.68 361.488C484.193 361.017 483.347 360.781 482.142 360.781H476.448V358.063H482.333C483.808 358.063 484.991 358.261 485.882 358.658C486.78 359.055 487.431 359.684 487.836 360.545C488.248 361.398 488.453 362.525 488.453 363.925ZM479.705 363.532V372H476.673V363.532H479.705ZM504.199 369.282V372H491.205V369.282H499.673V364.318C499.673 363.008 499.426 362.091 498.931 361.567C498.445 361.043 497.61 360.781 496.427 360.781H491.733V358.063H496.472C498.658 358.063 500.242 358.52 501.222 359.433C502.211 360.347 502.705 361.844 502.705 363.925V369.282H504.199ZM509.533 358.063V365.464H506.501V358.063H509.533ZM517.495 369.776C517.196 370.548 516.735 371.113 516.114 371.472C515.493 371.824 514.59 372 513.408 372H512.644V369.282H512.835C513.351 369.282 513.763 369.185 514.07 368.99C514.37 368.796 514.583 368.5 514.71 368.103C514.838 367.699 514.901 367.089 514.901 366.272V360.781H512.767V358.063H520.584C522.74 358.063 524.286 358.52 525.222 359.433C526.165 360.339 526.637 361.844 526.637 363.948V372H523.594V363.993C523.594 362.795 523.35 361.96 522.864 361.488C522.377 361.017 521.557 360.781 520.404 360.781H517.933V366.666C517.933 367.961 517.787 368.998 517.495 369.776ZM539.923 365.307C539.923 369.769 537.647 372 533.095 372H529.366V369.282H532.926C534.266 369.282 535.258 368.945 535.902 368.271C536.546 367.598 536.868 366.572 536.868 365.194V364.891C536.868 363.491 536.546 362.458 535.902 361.792C535.258 361.118 534.281 360.781 532.971 360.781H529.366V358.063H533.252C537.699 358.063 539.923 360.287 539.923 364.734V365.307ZM554.915 363.925V372H551.872V363.903C551.872 362.757 551.629 361.952 551.142 361.488C550.655 361.017 549.809 360.781 548.604 360.781H542.91V358.063H548.795C550.27 358.063 551.453 358.261 552.344 358.658C553.242 359.055 553.893 359.684 554.298 360.545C554.709 361.398 554.915 362.525 554.915 363.925ZM546.167 363.532V372H543.135V363.532H546.167ZM567.055 358.063V365.464H564.023V358.063H567.055ZM577.084 363.555V372H569.818V369.282H574.052V364.139C574.052 363.128 573.985 362.405 573.85 361.971C573.715 361.544 573.491 361.241 573.176 361.062C572.862 360.874 572.401 360.781 571.795 360.781H570.458V358.063H572.367C573.655 358.063 574.617 358.235 575.254 358.58C575.89 358.924 576.354 359.489 576.646 360.275C576.938 361.062 577.084 362.155 577.084 363.555ZM583.924 358.063V365.464H580.891V358.063H583.924ZM592.919 353.301L590.314 360.433H588.292L589.831 353.301H592.919ZM598.95 358.063C599.616 358.063 600.17 358.115 600.612 358.22C601.061 358.325 601.436 358.508 601.735 358.771C602.042 359.025 602.308 359.377 602.533 359.826C602.705 360.163 602.884 360.635 603.072 361.241C603.259 361.84 603.457 362.574 603.667 363.442L605.643 372H602.622L601.499 366.991C600.953 367.133 600.567 367.324 600.343 367.564C600.118 367.804 599.927 368.182 599.77 368.698C599.74 368.803 599.691 368.986 599.624 369.249C599.564 369.503 599.489 369.833 599.399 370.237L599.017 372H595.929L596.389 369.979C596.524 369.357 596.659 368.822 596.794 368.373C596.929 367.916 597.067 367.542 597.209 367.25C597.486 366.666 597.842 366.201 598.276 365.857C598.718 365.505 599.324 365.213 600.095 364.981L600.994 364.711C600.889 364.21 600.784 363.761 600.679 363.364C600.575 362.967 600.477 362.626 600.387 362.342C600.2 361.765 599.983 361.361 599.736 361.129C599.489 360.897 599.088 360.781 598.534 360.781H597.018V358.063H598.95Z" fill="#4754D6"/>
<rect x="415.5" y="449.5" width="937" height="278" rx="43.5" fill="white" stroke="white"/>
<path d="M1021.95 363.003V373.622H1017.59V363.003H1021.95ZM1044.46 381.018C1043.57 381.512 1042.49 381.92 1041.2 382.243C1039.92 382.554 1038.33 382.785 1036.42 382.936C1034.51 383.086 1032.19 383.161 1029.44 383.161L1025.67 363.003H1030.23L1031.98 372.639L1033.16 372.414C1033.89 372.274 1034.43 372.038 1034.77 371.705C1035.13 371.361 1035.39 370.851 1035.58 370.174C1035.66 369.841 1035.74 369.379 1035.82 368.788C1035.9 368.187 1035.99 367.456 1036.06 366.597L1036.3 363.003H1040.75L1040.27 368.514C1040.2 369.266 1040.11 369.943 1039.99 370.544C1039.87 371.146 1039.72 371.667 1039.54 372.107C1039.19 372.988 1038.69 373.676 1038.04 374.17C1037.41 374.664 1036.4 375.078 1035.01 375.411L1032.6 375.975L1033.26 379.278H1033.64C1034.99 379.278 1036.17 379.224 1037.2 379.117C1038.25 378.999 1039.13 378.821 1039.86 378.585C1040.84 378.284 1041.65 377.865 1042.28 377.328C1042.91 376.78 1043.41 376.055 1043.78 375.153C1044.14 374.24 1044.4 373.085 1044.55 371.688L1045.57 363.003H1050.06L1049.03 371.576C1048.82 373.423 1048.52 374.954 1048.13 376.168C1047.75 377.382 1047.26 378.37 1046.66 379.133C1046.07 379.885 1045.34 380.513 1044.46 381.018ZM1058.49 363.003V373.622H1054.14V363.003H1058.49ZM1067.87 377.167L1066.87 383H1062.36L1063.71 376.329C1064.1 374.481 1064.45 373.166 1064.77 372.381C1065.1 371.586 1065.49 370.958 1065.97 370.496C1066.45 370.023 1067.12 369.604 1067.96 369.239L1063.31 363.003H1068.59L1075.12 372.043C1075.8 371.431 1076.31 370.711 1076.67 369.884C1077.02 369.057 1077.27 367.939 1077.42 366.532L1077.76 363.003H1082.21L1081.82 366.822C1081.7 367.907 1081.49 368.869 1081.18 369.707C1080.96 370.276 1080.7 370.813 1080.39 371.318C1080.08 371.812 1079.67 372.338 1079.16 372.897C1078.67 373.445 1078.01 374.084 1077.2 374.814L1083.21 383H1077.96L1069.91 371.85C1069.35 372.183 1068.94 372.666 1068.69 373.3C1068.57 373.622 1068.44 374.105 1068.3 374.75C1068.16 375.395 1068.02 376.2 1067.87 377.167ZM1091.57 379.471C1094.35 379.417 1096.51 379.144 1098.03 378.649L1092.33 363.003H1097.05L1101.8 376.7C1102.62 376.044 1103.27 375.153 1103.75 374.025C1104.25 372.886 1104.61 371.42 1104.83 369.626C1105.06 367.821 1105.17 365.614 1105.17 363.003H1109.65C1109.65 368.149 1109.08 372.156 1107.94 375.024C1107.18 376.958 1106.11 378.547 1104.74 379.793C1103.36 381.029 1101.6 381.963 1099.45 382.597C1097.3 383.231 1094.68 383.618 1091.57 383.757V379.471ZM1127.15 366.903V383H1122.8V366.903H1111.97V363.003H1129.63V366.903H1127.15ZM1137.67 363.003V373.622H1133.32V363.003H1137.67ZM1153.95 362.907C1156.68 362.907 1158.68 363.712 1159.92 365.324C1161.17 366.924 1161.79 369.427 1161.79 372.833V383H1151.4V379.101H1157.41V373.171C1157.41 370.904 1157.14 369.282 1156.59 368.305C1156.05 367.316 1155.1 366.822 1153.74 366.822C1152.48 366.822 1151.42 367.451 1150.56 368.708C1149.7 369.997 1148.9 372.145 1148.16 375.153L1146.21 383H1141.57L1143.75 374.653C1144.01 373.644 1144.27 372.741 1144.52 371.946C1144.78 371.151 1145.02 370.469 1145.26 369.9L1141.26 363.229H1146.08L1147.6 366.065C1148.24 365.077 1149.12 364.303 1150.24 363.745C1151.37 363.186 1152.6 362.907 1153.95 362.907ZM1171.61 363.003V383H1167.25V363.003H1171.61ZM1197.87 371.415V383H1193.5V371.382C1193.5 369.717 1193.14 368.557 1192.42 367.902C1191.71 367.236 1190.52 366.903 1188.83 366.903H1182.13V363.003H1189.09C1191.2 363.003 1192.9 363.288 1194.18 363.857C1195.47 364.416 1196.4 365.313 1196.98 366.548C1197.57 367.773 1197.87 369.395 1197.87 371.415ZM1220.22 381.018C1219.34 381.512 1218.25 381.92 1216.96 382.243C1215.69 382.554 1214.09 382.785 1212.18 382.936C1210.28 383.086 1207.95 383.161 1205.2 383.161L1201.43 363.003H1205.99L1207.75 372.639L1208.92 372.414C1209.65 372.274 1210.19 372.038 1210.54 371.705C1210.89 371.361 1211.16 370.851 1211.34 370.174C1211.43 369.841 1211.51 369.379 1211.58 368.788C1211.67 368.187 1211.75 367.456 1211.82 366.597L1212.07 363.003H1216.51L1216.03 368.514C1215.97 369.266 1215.87 369.943 1215.76 370.544C1215.64 371.146 1215.49 371.667 1215.3 372.107C1214.95 372.988 1214.45 373.676 1213.81 374.17C1213.17 374.664 1212.16 375.078 1210.78 375.411L1208.36 375.975L1209.02 379.278H1209.41C1210.75 379.278 1211.94 379.224 1212.97 379.117C1214.01 378.999 1214.9 378.821 1215.63 378.585C1216.6 378.284 1217.41 377.865 1218.04 377.328C1218.68 376.78 1219.18 376.055 1219.54 375.153C1219.91 374.24 1220.17 373.085 1220.32 371.688L1221.33 363.003H1225.83L1224.8 371.576C1224.58 373.423 1224.28 374.954 1223.89 376.168C1223.52 377.382 1223.03 378.37 1222.43 379.133C1221.84 379.885 1221.1 380.513 1220.22 381.018ZM1246.87 369.642C1246.87 371.683 1246.46 373.59 1245.63 375.362C1244.8 377.135 1243.59 378.725 1241.99 380.132C1240.4 381.539 1238.45 382.715 1236.14 383.661V379.036C1238.16 378.091 1239.72 376.834 1240.81 375.266C1241.92 373.687 1242.47 371.984 1242.47 370.158C1242.47 368.955 1242.17 368.111 1241.57 367.628C1240.97 367.145 1239.92 366.903 1238.41 366.903H1229.08V363.003H1239.04C1241.77 363.003 1243.76 363.524 1245 364.566C1246.25 365.598 1246.87 367.29 1246.87 369.642ZM1234.25 370.722V389.204H1229.9V370.722H1234.25ZM1262.94 363.003V373.622H1258.58V363.003H1262.94ZM1277.02 383.322C1274.05 383.322 1271.87 382.635 1270.48 381.26C1269.08 379.874 1268.38 377.747 1268.38 374.879V363.003H1272.73V374.782C1272.73 376.383 1273.08 377.554 1273.76 378.295C1274.45 379.036 1275.55 379.407 1277.05 379.407C1278.15 379.407 1279.08 379.197 1279.84 378.778C1280.6 378.349 1281.18 377.607 1281.58 376.555C1281.98 375.491 1282.17 374.02 1282.17 372.14C1282.17 370.281 1281.97 368.896 1281.55 367.982C1281.13 367.059 1280.43 366.597 1279.47 366.597C1278.53 366.597 1277.56 366.903 1276.54 367.515V363.567C1277.54 362.966 1278.76 362.665 1280.19 362.665C1282.49 362.665 1284.14 363.417 1285.14 364.921C1286.15 366.414 1286.65 368.81 1286.65 372.107C1286.65 375.996 1285.88 378.837 1284.33 380.631C1282.8 382.425 1280.36 383.322 1277.02 383.322ZM1304.83 371.415V383H1300.46V371.382C1300.46 369.717 1300.1 368.557 1299.38 367.902C1298.67 367.236 1297.48 366.903 1295.79 366.903H1289.09V363.003H1296.05C1298.16 363.003 1299.86 363.288 1301.14 363.857C1302.43 364.416 1303.36 365.313 1303.94 366.548C1304.53 367.773 1304.83 369.395 1304.83 371.415ZM1322.78 372.011C1322.78 370.292 1322.39 369.014 1321.6 368.176C1320.82 367.327 1319.58 366.903 1317.9 366.903H1314.18V371.221H1318.09V375.121H1309.78V363.003H1317.93C1321.09 363.003 1323.42 363.739 1324.92 365.211C1326.43 366.683 1327.18 368.971 1327.18 372.075V373.396C1327.18 379.799 1323.89 383 1317.3 383H1309.95V379.101H1317.21C1319.06 379.101 1320.45 378.623 1321.38 377.667C1322.31 376.71 1322.78 375.276 1322.78 373.364V372.011Z" fill="#4856CD"/>
<path d="M447.041 402.612V411H445.783V402.612H447.041ZM455.989 406.085V411H454.725V406.071C454.725 405.233 454.554 404.64 454.212 404.294C453.875 403.948 453.289 403.774 452.455 403.774H449.27V402.612H452.476C453.314 402.612 453.991 402.731 454.506 402.968C455.021 403.2 455.397 403.572 455.634 404.082C455.871 404.588 455.989 405.256 455.989 406.085ZM450.664 405.552V411H449.406V405.552H450.664ZM464.582 410.152C464.268 410.362 463.876 410.533 463.406 410.665C462.941 410.797 462.358 410.895 461.656 410.959C460.954 411.023 460.086 411.059 459.052 411.068L457.452 402.612H458.758L459.599 406.926L460.098 406.83C460.371 406.766 460.597 406.684 460.774 406.584C460.952 406.479 461.093 406.333 461.198 406.146C461.285 406.001 461.351 405.821 461.396 405.606C461.442 405.392 461.476 405.137 461.499 404.841L461.67 402.612H462.969L462.757 404.854C462.725 405.233 462.686 405.561 462.641 405.839C462.595 406.112 462.54 406.333 462.477 406.502C462.363 406.844 462.192 407.108 461.964 407.295C461.736 407.477 461.358 407.639 460.829 407.78L459.804 408.02L460.139 409.783H460.303C461.219 409.783 461.952 409.731 462.504 409.626C463.055 409.517 463.491 409.348 463.81 409.12C464.024 408.965 464.204 408.774 464.35 408.546C464.495 408.318 464.618 408.017 464.719 407.644C464.819 407.27 464.903 406.789 464.972 406.201L465.402 402.612H466.722L466.284 406.153C466.193 406.946 466.075 407.6 465.929 408.115C465.783 408.626 465.601 409.04 465.382 409.359C465.168 409.674 464.901 409.938 464.582 410.152ZM472.512 402.476C473.615 402.476 474.419 402.813 474.925 403.487C475.435 404.157 475.69 405.224 475.69 406.687V411H471.575V409.838H474.419V406.844C474.419 405.727 474.275 404.916 473.988 404.41C473.701 403.904 473.214 403.651 472.525 403.651C471.91 403.651 471.404 403.929 471.008 404.485C470.607 405.05 470.24 406.033 469.907 407.432L469.053 411H467.699L468.636 407.329C468.741 406.901 468.848 406.513 468.957 406.167C469.066 405.821 469.174 405.513 469.278 405.244L467.569 402.612H469.053L469.907 404C470.263 403.462 470.643 403.075 471.049 402.838C471.454 402.596 471.942 402.476 472.512 402.476ZM489.267 406.085V411H482.082V402.612H485.753C487.011 402.612 487.911 402.881 488.453 403.419C488.995 403.957 489.267 404.845 489.267 406.085ZM483.34 409.838H488.002V406.071C488.002 405.242 487.833 404.652 487.496 404.301C487.163 403.95 486.578 403.774 485.739 403.774H483.34V409.838ZM493.218 409.701C493.063 410.161 492.817 410.494 492.479 410.699C492.142 410.9 491.611 411 490.887 411H490.812V409.838H490.928C491.242 409.838 491.493 409.779 491.68 409.66C491.862 409.542 491.992 409.362 492.069 409.12C492.147 408.874 492.186 408.503 492.186 408.006V403.774H490.887V402.612H495.419C496.677 402.612 497.579 402.881 498.126 403.419C498.673 403.952 498.946 404.841 498.946 406.085V411H497.688V406.071C497.688 405.233 497.518 404.64 497.176 404.294C496.839 403.948 496.248 403.774 495.405 403.774H493.443V407.753C493.443 408.591 493.368 409.241 493.218 409.701ZM506.903 406.071C506.903 405.242 506.735 404.652 506.397 404.301C506.065 403.95 505.479 403.774 504.641 403.774H502.521V411H501.264V402.612H504.654C505.912 402.612 506.812 402.881 507.354 403.419C507.897 403.957 508.168 404.845 508.168 406.085V411H506.903V406.071ZM515.872 406.926C515.872 409.642 514.587 411 512.017 411H509.836V409.838H512.044C512.914 409.838 513.557 409.596 513.972 409.113C514.386 408.63 514.594 407.906 514.594 406.939V406.673C514.594 405.702 514.384 404.978 513.965 404.499C513.55 404.016 512.91 403.774 512.044 403.774H509.836V402.612H512.017C514.587 402.612 515.872 403.97 515.872 406.687V406.926ZM524.123 410.152C523.809 410.362 523.417 410.533 522.947 410.665C522.482 410.797 521.899 410.895 521.197 410.959C520.495 411.023 519.627 411.059 518.593 411.068L516.993 402.612H518.299L519.14 406.926L519.639 406.83C519.912 406.766 520.138 406.684 520.315 406.584C520.493 406.479 520.634 406.333 520.739 406.146C520.826 406.001 520.892 405.821 520.938 405.606C520.983 405.392 521.017 405.137 521.04 404.841L521.211 402.612H522.51L522.298 404.854C522.266 405.233 522.227 405.561 522.182 405.839C522.136 406.112 522.081 406.333 522.018 406.502C521.904 406.844 521.733 407.108 521.505 407.295C521.277 407.477 520.899 407.639 520.37 407.78L519.345 408.02L519.68 409.783H519.844C520.76 409.783 521.493 409.731 522.045 409.626C522.596 409.517 523.032 409.348 523.351 409.12C523.565 408.965 523.745 408.774 523.891 408.546C524.036 408.318 524.16 408.017 524.26 407.644C524.36 407.27 524.444 406.789 524.513 406.201L524.943 402.612H526.263L525.825 406.153C525.734 406.946 525.616 407.6 525.47 408.115C525.324 408.626 525.142 409.04 524.923 409.359C524.709 409.674 524.442 409.938 524.123 410.152ZM539.183 406.085V411H531.998V402.612H535.669C536.927 402.612 537.827 402.881 538.369 403.419C538.911 403.957 539.183 404.845 539.183 406.085ZM533.256 409.838H537.918V406.071C537.918 405.242 537.749 404.652 537.412 404.301C537.079 403.95 536.494 403.774 535.655 403.774H533.256V409.838ZM542.635 408.245L542.088 411H540.762L541.336 408.272C541.5 407.489 541.65 406.937 541.787 406.618C541.924 406.295 542.095 406.033 542.3 405.832C542.509 405.632 542.79 405.461 543.141 405.319L541.165 402.612H542.717L545.8 406.857C546.142 406.538 546.413 406.153 546.613 405.702C546.818 405.246 546.953 404.725 547.017 404.137L547.174 402.612H548.473L548.315 404.109C548.265 404.611 548.174 405.05 548.042 405.429C547.951 405.688 547.841 405.937 547.714 406.174C547.586 406.406 547.422 406.648 547.222 406.898C547.026 407.149 546.771 407.429 546.456 407.739L548.924 411H547.324L543.715 406.099C543.35 406.276 543.09 406.584 542.936 407.021C542.89 407.135 542.842 407.295 542.792 407.5C542.746 407.705 542.694 407.953 542.635 408.245ZM555.486 402.612V407.021H554.229V402.612H555.486ZM559.123 402.612V407.021H557.865V402.612H559.123ZM561.632 409.893C562.507 409.569 563.254 409.159 563.874 408.662C564.498 408.17 564.972 407.632 565.296 407.049C565.624 406.465 565.788 405.873 565.788 405.271C565.788 404.273 565.255 403.774 564.188 403.774H560.791V399.618H562.049V402.612H564.318C566.146 402.612 567.06 403.426 567.06 405.053C567.06 405.891 566.859 406.696 566.458 407.466C566.057 408.236 565.492 408.929 564.763 409.544C563.897 410.282 562.853 410.87 561.632 411.308V409.893ZM568.017 409.893C569.279 409.893 570.268 409.776 570.983 409.544L568.447 402.612H569.835L572.077 409.011C572.506 408.705 572.85 408.298 573.109 407.787C573.374 407.272 573.565 406.598 573.684 405.764C573.807 404.93 573.868 403.879 573.868 402.612H575.188C575.188 404.718 574.964 406.368 574.518 407.562C574.217 408.354 573.795 409.011 573.253 409.53C572.711 410.045 572.011 410.442 571.154 410.72C570.302 410.993 569.256 411.162 568.017 411.226V409.893ZM582.27 402.612V411H581.012V402.612H582.27ZM590.486 409.92V411H584.033V409.838H588.921L583.527 402.612H585.1L587.704 406.153C588.055 406.003 588.31 405.782 588.47 405.49C588.629 405.194 588.736 404.743 588.791 404.137L588.948 402.612H590.247L590.11 404.109C590.051 404.738 589.958 405.221 589.83 405.559C589.702 405.891 589.522 406.167 589.29 406.386C589.058 406.604 588.729 406.798 588.306 406.967L590.486 409.92ZM597.917 406.071C597.917 405.242 597.748 404.652 597.411 404.301C597.078 403.95 596.493 403.774 595.654 403.774H593.535V411H592.277V402.612H595.668C596.926 402.612 597.826 402.881 598.368 403.419C598.91 403.957 599.182 404.845 599.182 406.085V411H597.917V406.071ZM601.335 409.893C602.21 409.569 602.957 409.159 603.577 408.662C604.201 408.17 604.675 407.632 604.999 407.049C605.327 406.465 605.491 405.873 605.491 405.271C605.491 404.273 604.958 403.774 603.892 403.774H600.494V399.618H601.752V402.612H604.021C605.849 402.612 606.763 403.426 606.763 405.053C606.763 405.891 606.562 406.696 606.161 407.466C605.76 408.236 605.195 408.929 604.466 409.544C603.6 410.282 602.556 410.87 601.335 411.308V409.893ZM610.263 409.701C610.108 410.161 609.862 410.494 609.524 410.699C609.187 410.9 608.656 411 607.932 411H607.856V409.838H607.973C608.287 409.838 608.538 409.779 608.725 409.66C608.907 409.542 609.037 409.362 609.114 409.12C609.192 408.874 609.23 408.503 609.23 408.006V403.774H607.932V402.612H612.464C613.722 402.612 614.624 402.881 615.171 403.419C615.718 403.952 615.991 404.841 615.991 406.085V411H614.733V406.071C614.733 405.233 614.562 404.64 614.221 404.294C613.883 403.948 613.293 403.774 612.45 403.774H610.488V407.753C610.488 408.591 610.413 409.241 610.263 409.701Z" fill="#4856CD"/>
<path d="M759.689 502.114C759.339 502.114 759.038 501.988 758.787 501.737C758.536 501.486 758.411 501.186 758.411 500.835C758.411 500.485 758.536 500.184 758.787 499.933C759.038 499.682 759.339 499.557 759.689 499.557C760.04 499.557 760.34 499.682 760.591 499.933C760.842 500.184 760.968 500.485 760.968 500.835C760.968 501.067 760.908 501.28 760.79 501.474C760.676 501.669 760.523 501.825 760.328 501.943C760.139 502.057 759.926 502.114 759.689 502.114ZM765.197 502.114C764.847 502.114 764.546 501.988 764.295 501.737C764.044 501.486 763.919 501.186 763.919 500.835C763.919 500.485 764.044 500.184 764.295 499.933C764.546 499.682 764.847 499.557 765.197 499.557C765.547 499.557 765.848 499.682 766.099 499.933C766.35 500.184 766.475 500.485 766.475 500.835C766.475 501.067 766.416 501.28 766.298 501.474C766.184 501.669 766.03 501.825 765.836 501.943C765.647 502.057 765.434 502.114 765.197 502.114ZM770.705 502.114C770.355 502.114 770.054 501.988 769.803 501.737C769.552 501.486 769.426 501.186 769.426 500.835C769.426 500.485 769.552 500.184 769.803 499.933C770.054 499.682 770.355 499.557 770.705 499.557C771.055 499.557 771.356 499.682 771.607 499.933C771.858 500.184 771.983 500.485 771.983 500.835C771.983 501.067 771.924 501.28 771.806 501.474C771.692 501.669 771.538 501.825 771.344 501.943C771.155 502.057 770.942 502.114 770.705 502.114ZM784.141 500.789C783.691 501.089 783.132 501.333 782.461 501.521C781.797 501.71 780.964 501.85 779.961 501.941C778.958 502.033 777.718 502.085 776.24 502.098L773.955 490.018H775.82L777.021 496.18L777.734 496.043C778.125 495.952 778.447 495.835 778.701 495.691C778.955 495.542 779.157 495.333 779.307 495.066C779.43 494.858 779.525 494.601 779.59 494.295C779.655 493.989 779.704 493.624 779.736 493.201L779.98 490.018H781.836L781.533 493.221C781.488 493.761 781.432 494.23 781.367 494.627C781.302 495.018 781.224 495.333 781.133 495.574C780.97 496.062 780.726 496.44 780.4 496.707C780.075 496.967 779.535 497.199 778.779 497.4L777.314 497.742L777.793 500.262H778.027C779.336 500.262 780.384 500.187 781.172 500.037C781.96 499.881 782.581 499.64 783.037 499.314C783.343 499.093 783.6 498.82 783.809 498.494C784.017 498.169 784.193 497.739 784.336 497.205C784.479 496.671 784.6 495.984 784.697 495.145L785.312 490.018H787.197L786.572 495.076C786.442 496.209 786.273 497.143 786.064 497.879C785.856 498.608 785.596 499.201 785.283 499.656C784.977 500.105 784.596 500.483 784.141 500.789ZM791.562 490.018V496.316H789.766V490.018H791.562ZM810.85 494.979V502H800.586V490.018H805.83C807.627 490.018 808.913 490.402 809.688 491.17C810.462 491.938 810.85 493.208 810.85 494.979ZM802.383 500.34H809.043V494.959C809.043 493.774 808.802 492.931 808.32 492.43C807.845 491.928 807.008 491.678 805.811 491.678H802.383V500.34ZM815.781 498.064L815 502H813.105L813.926 498.104C814.16 496.984 814.375 496.196 814.57 495.74C814.766 495.278 815.01 494.904 815.303 494.617C815.602 494.331 816.003 494.087 816.504 493.885L813.682 490.018H815.898L820.303 496.082C820.791 495.626 821.178 495.076 821.465 494.432C821.758 493.781 821.95 493.035 822.041 492.195L822.266 490.018H824.121L823.896 492.156C823.825 492.872 823.695 493.501 823.506 494.041C823.376 494.412 823.219 494.767 823.037 495.105C822.855 495.438 822.62 495.783 822.334 496.141C822.054 496.499 821.689 496.899 821.24 497.342L824.766 502H822.48L817.324 494.998C816.803 495.252 816.432 495.691 816.211 496.316C816.146 496.479 816.077 496.707 816.006 497C815.941 497.293 815.866 497.648 815.781 498.064ZM830.133 495.864C830.133 497.653 829.899 499.301 829.43 500.807C828.966 502.308 828.301 503.69 827.434 504.955H825.957C826.298 504.486 826.615 503.908 826.909 503.222C827.207 502.54 827.467 501.792 827.69 500.977C827.913 500.158 828.085 499.313 828.208 498.442C828.336 497.566 828.4 496.706 828.4 495.864C828.4 494.737 828.291 493.593 828.074 492.433C827.856 491.273 827.562 490.196 827.193 489.202C826.824 488.207 826.412 487.398 825.957 486.773H827.434C828.301 488.037 828.966 489.422 829.43 490.928C829.899 492.429 830.133 494.074 830.133 495.864ZM841.387 490.018V505.76H839.59V490.018H841.387ZM846.582 490.018V496.316H844.785V490.018H846.582ZM851.602 498.064L850.82 502H848.926L849.746 498.104C849.98 496.984 850.195 496.196 850.391 495.74C850.586 495.278 850.83 494.904 851.123 494.617C851.423 494.331 851.823 494.087 852.324 493.885L849.502 490.018H851.719L856.123 496.082C856.611 495.626 856.999 495.076 857.285 494.432C857.578 493.781 857.77 493.035 857.861 492.195L858.086 490.018H859.941L859.717 492.156C859.645 492.872 859.515 493.501 859.326 494.041C859.196 494.412 859.04 494.767 858.857 495.105C858.675 495.438 858.441 495.783 858.154 496.141C857.874 496.499 857.51 496.899 857.061 497.342L860.586 502H858.301L853.145 494.998C852.624 495.252 852.253 495.691 852.031 496.316C851.966 496.479 851.898 496.707 851.826 497C851.761 497.293 851.686 497.648 851.602 498.064ZM875.508 491.678V502H873.701V491.678H866.865V490.018H877.002V491.678H875.508ZM888.262 493.738C888.262 494.962 888.014 496.124 887.52 497.225C887.025 498.325 886.325 499.311 885.42 500.184C884.515 501.049 883.441 501.743 882.197 502.264V500.203C883.558 499.591 884.603 498.742 885.332 497.654C886.068 496.561 886.436 495.337 886.436 493.982C886.436 493.11 886.243 492.508 885.859 492.176C885.482 491.844 884.827 491.678 883.896 491.678H878.76V490.018H883.818C885.426 490.018 886.569 490.307 887.246 490.887C887.923 491.46 888.262 492.41 888.262 493.738ZM881.055 494.217V505.76H879.258V494.217H881.055ZM895.127 494.656V502H889.648V500.34H893.33V495.164C893.33 494.109 893.278 493.364 893.174 492.928C893.07 492.479 892.887 492.16 892.627 491.971C892.373 491.775 892.005 491.678 891.523 491.678H890.205V490.018H891.465C892.507 490.018 893.268 490.161 893.75 490.447C894.232 490.74 894.58 491.219 894.795 491.883C895.016 492.54 895.127 493.465 895.127 494.656ZM900.645 490.018V496.316H898.848V490.018H900.645ZM904.229 500.418C905.479 499.956 906.546 499.37 907.432 498.66C908.324 497.957 909.001 497.189 909.463 496.355C909.932 495.522 910.166 494.676 910.166 493.816C910.166 492.391 909.404 491.678 907.881 491.678H903.027V485.74H904.824V490.018H908.066C910.677 490.018 911.982 491.18 911.982 493.504C911.982 494.702 911.696 495.851 911.123 496.951C910.55 498.051 909.743 499.041 908.701 499.92C907.464 500.975 905.973 501.814 904.229 502.439V500.418ZM914.639 500.418C915.889 499.956 916.956 499.37 917.842 498.66C918.734 497.957 919.411 497.189 919.873 496.355C920.342 495.522 920.576 494.676 920.576 493.816C920.576 492.391 919.814 491.678 918.291 491.678H913.438V485.74H915.234V490.018H918.477C921.087 490.018 922.393 491.18 922.393 493.504C922.393 494.702 922.106 495.851 921.533 496.951C920.96 498.051 920.153 499.041 919.111 499.92C917.874 500.975 916.383 501.814 914.639 502.439V500.418ZM938.262 494.979V502H936.455V494.959C936.455 493.774 936.214 492.931 935.732 492.43C935.257 491.928 934.421 491.678 933.223 491.678H929.561V490.018H933.242C934.44 490.018 935.407 490.187 936.143 490.525C936.878 490.857 937.415 491.388 937.754 492.117C938.092 492.84 938.262 493.794 938.262 494.979ZM943.359 490.018V502H941.562V490.018H943.359ZM955.742 500.789C955.293 501.089 954.733 501.333 954.062 501.521C953.398 501.71 952.565 501.85 951.562 501.941C950.56 502.033 949.32 502.085 947.842 502.098L945.557 490.018H947.422L948.623 496.18L949.336 496.043C949.727 495.952 950.049 495.835 950.303 495.691C950.557 495.542 950.758 495.333 950.908 495.066C951.032 494.858 951.126 494.601 951.191 494.295C951.257 493.989 951.305 493.624 951.338 493.201L951.582 490.018H953.438L953.135 493.221C953.089 493.761 953.034 494.23 952.969 494.627C952.904 495.018 952.826 495.333 952.734 495.574C952.572 496.062 952.327 496.44 952.002 496.707C951.676 496.967 951.136 497.199 950.381 497.4L948.916 497.742L949.395 500.262H949.629C950.938 500.262 951.986 500.187 952.773 500.037C953.561 499.881 954.183 499.64 954.639 499.314C954.945 499.093 955.202 498.82 955.41 498.494C955.618 498.169 955.794 497.739 955.938 497.205C956.081 496.671 956.201 495.984 956.299 495.145L956.914 490.018H958.799L958.174 495.076C958.044 496.209 957.874 497.143 957.666 497.879C957.458 498.608 957.197 499.201 956.885 499.656C956.579 500.105 956.198 500.483 955.742 500.789ZM963.164 490.018V496.316H961.367V490.018H963.164ZM975.566 493.738C975.566 494.962 975.319 496.124 974.824 497.225C974.329 498.325 973.63 499.311 972.725 500.184C971.82 501.049 970.745 501.743 969.502 502.264V500.203C970.863 499.591 971.908 498.742 972.637 497.654C973.372 496.561 973.74 495.337 973.74 493.982C973.74 493.11 973.548 492.508 973.164 492.176C972.786 491.844 972.132 491.678 971.201 491.678H966.064V490.018H971.123C972.731 490.018 973.874 490.307 974.551 490.887C975.228 491.46 975.566 492.41 975.566 493.738ZM968.359 494.217V505.76H966.562V494.217H968.359ZM986.319 500.011L986.206 500.778C986.125 501.318 986.002 501.896 985.836 502.511C985.675 503.127 985.507 503.707 985.332 504.251C985.157 504.796 985.012 505.229 984.899 505.551H983.62C983.682 505.248 983.762 504.848 983.862 504.351C983.961 503.854 984.061 503.297 984.16 502.682C984.264 502.071 984.35 501.446 984.416 500.807L984.501 500.011H986.319ZM999.854 494.979V502H989.59V490.018H994.834C996.631 490.018 997.917 490.402 998.691 491.17C999.466 491.938 999.854 493.208 999.854 494.979ZM991.387 500.34H998.047V494.959C998.047 493.774 997.806 492.931 997.324 492.43C996.849 491.928 996.012 491.678 994.814 491.678H991.387V500.34ZM1004.55 490.018V496.316H1002.75V490.018H1004.55ZM1015.74 494.979V502H1013.94V494.959C1013.94 493.774 1013.69 492.931 1013.21 492.43C1012.74 491.928 1011.9 491.678 1010.7 491.678H1007.04V490.018H1010.72C1011.92 490.018 1012.89 490.187 1013.62 490.525C1014.36 490.857 1014.9 491.388 1015.23 492.117C1015.57 492.84 1015.74 493.794 1015.74 494.979ZM1020.84 490.018V502H1019.04V490.018H1020.84ZM1025.08 490.018C1025.64 490.018 1026.11 490.063 1026.46 490.154C1026.83 490.239 1027.13 490.402 1027.36 490.643C1027.6 490.877 1027.81 491.222 1027.99 491.678C1028.09 491.906 1028.2 492.26 1028.33 492.742C1028.46 493.217 1028.61 493.823 1028.78 494.559L1030.48 502H1028.7L1027.6 497.078C1027.05 497.215 1026.65 497.381 1026.4 497.576C1026.15 497.771 1025.94 498.061 1025.78 498.445C1025.7 498.634 1025.62 498.882 1025.54 499.188C1025.47 499.487 1025.39 499.839 1025.32 500.242L1025 502H1023.15L1023.5 500.223C1023.65 499.448 1023.8 498.823 1023.95 498.348C1024.1 497.866 1024.3 497.475 1024.53 497.176C1024.72 496.928 1024.95 496.714 1025.22 496.531C1025.5 496.342 1025.89 496.173 1026.41 496.023L1027.29 495.76C1027.13 495.07 1026.99 494.493 1026.87 494.031C1026.74 493.562 1026.64 493.208 1026.55 492.967C1026.38 492.485 1026.2 492.15 1026 491.961C1025.79 491.772 1025.51 491.678 1025.14 491.678H1023.82V490.018H1025.08ZM1038.59 489.822C1040.17 489.822 1041.32 490.304 1042.04 491.268C1042.77 492.225 1043.13 493.748 1043.13 495.838V502H1037.26V500.34H1041.32V496.062C1041.32 494.467 1041.11 493.309 1040.7 492.586C1040.29 491.863 1039.6 491.502 1038.61 491.502C1037.73 491.502 1037.01 491.899 1036.45 492.693C1035.87 493.501 1035.35 494.904 1034.87 496.902L1033.65 502H1031.72L1033.06 496.756C1033.21 496.144 1033.36 495.59 1033.52 495.096C1033.67 494.601 1033.82 494.161 1033.97 493.777L1031.53 490.018H1033.65L1034.87 492C1035.38 491.232 1035.92 490.678 1036.5 490.34C1037.08 489.995 1037.78 489.822 1038.59 489.822ZM1059.45 494.979V502H1057.65V494.959C1057.65 493.774 1057.41 492.931 1056.92 492.43C1056.45 491.928 1055.61 491.678 1054.41 491.678H1050.75V490.018H1054.43C1055.63 490.018 1056.6 490.187 1057.33 490.525C1058.07 490.857 1058.61 491.388 1058.95 492.117C1059.28 492.84 1059.45 493.794 1059.45 494.979ZM1064.55 490.018V496.316H1062.75V490.018H1064.55ZM1066.65 500.418C1068.45 500.418 1069.87 500.252 1070.89 499.92L1067.27 490.018H1069.25L1072.45 499.158C1073.06 498.722 1073.55 498.139 1073.93 497.41C1074.3 496.674 1074.58 495.711 1074.75 494.52C1074.92 493.328 1075.01 491.827 1075.01 490.018H1076.89C1076.89 493.025 1076.58 495.382 1075.94 497.088C1075.51 498.221 1074.91 499.158 1074.13 499.9C1073.36 500.636 1072.36 501.202 1071.13 501.6C1069.92 501.99 1068.42 502.231 1066.65 502.322V500.418ZM1087.55 500.011L1087.44 500.778C1087.36 501.318 1087.23 501.896 1087.07 502.511C1086.91 503.127 1086.74 503.707 1086.56 504.251C1086.39 504.796 1086.24 505.229 1086.13 505.551H1084.85C1084.91 505.248 1084.99 504.848 1085.09 504.351C1085.19 503.854 1085.29 503.297 1085.39 502.682C1085.49 502.071 1085.58 501.446 1085.65 500.807L1085.73 500.011H1087.55ZM1091.01 500.418C1092.26 499.956 1093.32 499.37 1094.21 498.66C1095.1 497.957 1095.78 497.189 1096.24 496.355C1096.71 495.522 1096.94 494.676 1096.94 493.816C1096.94 492.391 1096.18 491.678 1094.66 491.678H1089.8V485.74H1091.6V490.018H1094.84C1097.45 490.018 1098.76 491.18 1098.76 493.504C1098.76 494.702 1098.47 495.851 1097.9 496.951C1097.33 498.051 1096.52 499.041 1095.48 499.92C1094.24 500.975 1092.75 501.814 1091.01 502.439V500.418ZM1105.43 485.74L1103.16 491.941H1101.83L1103.16 485.74H1105.43ZM1109.79 485.74L1107.53 491.941H1106.19L1107.53 485.74H1109.79ZM1115.12 498.064L1114.34 502H1112.44L1113.26 498.104C1113.5 496.984 1113.71 496.196 1113.91 495.74C1114.1 495.278 1114.35 494.904 1114.64 494.617C1114.94 494.331 1115.34 494.087 1115.84 493.885L1113.02 490.018H1115.23L1119.64 496.082C1120.13 495.626 1120.51 495.076 1120.8 494.432C1121.09 493.781 1121.29 493.035 1121.38 492.195L1121.6 490.018H1123.46L1123.23 492.156C1123.16 492.872 1123.03 493.501 1122.84 494.041C1122.71 494.412 1122.56 494.767 1122.37 495.105C1122.19 495.438 1121.96 495.783 1121.67 496.141C1121.39 496.499 1121.03 496.899 1120.58 497.342L1124.1 502H1121.82L1116.66 494.998C1116.14 495.252 1115.77 495.691 1115.55 496.316C1115.48 496.479 1115.41 496.707 1115.34 497C1115.28 497.293 1115.2 497.648 1115.12 498.064ZM1127.85 490.018V502H1126.05V490.018H1127.85ZM1138.59 491.678V502H1136.79V491.678H1129.95V490.018H1140.09V491.678H1138.59ZM1150.3 500.011L1150.19 500.778C1150.11 501.318 1149.99 501.896 1149.82 502.511C1149.66 503.127 1149.49 503.707 1149.32 504.251C1149.14 504.796 1149 505.229 1148.88 505.551H1147.6C1147.67 505.248 1147.75 504.848 1147.85 504.351C1147.95 503.854 1148.05 503.297 1148.14 502.682C1148.25 502.071 1148.33 501.446 1148.4 500.807L1148.49 500.011H1150.3ZM1160.92 491.678V502H1159.11V491.678H1152.28V490.018H1162.41V491.678H1160.92ZM1166.46 490.018V496.316H1164.67V490.018H1166.46ZM1171.66 490.018V496.316H1169.86V490.018H1171.66ZM1179.54 494.656V502H1174.06V500.34H1177.74V495.164C1177.74 494.109 1177.69 493.364 1177.59 492.928C1177.48 492.479 1177.3 492.16 1177.04 491.971C1176.79 491.775 1176.42 491.678 1175.94 491.678H1174.62V490.018H1175.88C1176.92 490.018 1177.68 490.161 1178.16 490.447C1178.65 490.74 1178.99 491.219 1179.21 491.883C1179.43 492.54 1179.54 493.465 1179.54 494.656ZM1190.27 490.018V505.76H1188.48V490.018H1190.27ZM1195.47 490.018V502H1193.67V490.018H1195.47ZM1206.45 495.34C1206.45 494.109 1206.18 493.191 1205.63 492.586C1205.09 491.98 1204.24 491.678 1203.09 491.678H1200.39V495.057H1202.76V496.717H1198.56V490.018H1203.11C1204.85 490.018 1206.15 490.454 1206.99 491.326C1207.85 492.192 1208.27 493.543 1208.27 495.379V496.18C1208.27 500.06 1206.44 502 1202.76 502H1198.67V500.34H1202.81C1204.05 500.34 1204.96 499.998 1205.56 499.314C1206.15 498.624 1206.45 497.586 1206.45 496.199V495.34ZM1210.85 500.418C1212.1 499.956 1213.17 499.37 1214.05 498.66C1214.94 497.957 1215.62 497.189 1216.08 496.355C1216.55 495.522 1216.79 494.676 1216.79 493.816C1216.79 492.391 1216.03 491.678 1214.5 491.678H1209.65V485.74H1211.45V490.018H1214.69C1217.3 490.018 1218.6 491.18 1218.6 493.504C1218.6 494.702 1218.32 495.851 1217.74 496.951C1217.17 498.051 1216.36 499.041 1215.32 499.92C1214.09 500.975 1212.59 501.814 1210.85 502.439V500.418ZM1226.42 502.195C1224.76 502.195 1223.54 501.779 1222.75 500.945C1221.97 500.105 1221.58 498.816 1221.58 497.078V490.018H1223.38V497.02C1223.38 498.23 1223.62 499.116 1224.09 499.676C1224.57 500.236 1225.36 500.516 1226.45 500.516C1227.3 500.516 1227.99 500.343 1228.53 499.998C1229.06 499.653 1229.45 499.109 1229.7 498.367C1229.95 497.618 1230.08 496.635 1230.08 495.418C1230.08 494.064 1229.93 493.074 1229.65 492.449C1229.36 491.818 1228.87 491.502 1228.18 491.502C1227.52 491.502 1226.88 491.714 1226.26 492.137V490.418C1226.76 490.021 1227.46 489.822 1228.36 489.822C1229.69 489.822 1230.63 490.262 1231.16 491.141C1231.7 492.013 1231.96 493.439 1231.96 495.418C1231.96 497.755 1231.52 499.471 1230.62 500.564C1229.73 501.652 1228.33 502.195 1226.42 502.195ZM1242.71 500.011L1242.59 500.778C1242.51 501.318 1242.39 501.896 1242.22 502.511C1242.06 503.127 1241.89 503.707 1241.72 504.251C1241.54 504.796 1241.4 505.229 1241.29 505.551H1240.01C1240.07 505.248 1240.15 504.848 1240.25 504.351C1240.35 503.854 1240.45 503.297 1240.55 502.682C1240.65 502.071 1240.74 501.446 1240.8 500.807L1240.89 500.011H1242.71ZM1247.6 498.064L1246.82 502H1244.92L1245.74 498.104C1245.98 496.984 1246.19 496.196 1246.39 495.74C1246.58 495.278 1246.83 494.904 1247.12 494.617C1247.42 494.331 1247.82 494.087 1248.32 493.885L1245.5 490.018H1247.71L1252.12 496.082C1252.61 495.626 1252.99 495.076 1253.28 494.432C1253.57 493.781 1253.77 493.035 1253.86 492.195L1254.08 490.018H1255.94L1255.71 492.156C1255.64 492.872 1255.51 493.501 1255.32 494.041C1255.19 494.412 1255.04 494.767 1254.85 495.105C1254.67 495.438 1254.44 495.783 1254.15 496.141C1253.87 496.499 1253.51 496.899 1253.06 497.342L1256.58 502H1254.3L1249.14 494.998C1248.62 495.252 1248.25 495.691 1248.03 496.316C1247.96 496.479 1247.89 496.707 1247.82 497C1247.76 497.293 1247.68 497.648 1247.6 498.064ZM1258.72 500.418C1259.97 499.956 1261.04 499.37 1261.92 498.66C1262.82 497.957 1263.49 497.189 1263.96 496.355C1264.42 495.522 1264.66 494.676 1264.66 493.816C1264.66 492.391 1263.9 491.678 1262.37 491.678H1257.52V485.74H1259.32V490.018H1262.56C1265.17 490.018 1266.47 491.18 1266.47 493.504C1266.47 494.702 1266.19 495.851 1265.62 496.951C1265.04 498.051 1264.24 499.041 1263.19 499.92C1261.96 500.975 1260.47 501.814 1258.72 502.439V500.418ZM1274.84 489.822C1276.42 489.822 1277.57 490.304 1278.29 491.268C1279.02 492.225 1279.38 493.748 1279.38 495.838V502H1273.51V500.34H1277.57V496.062C1277.57 494.467 1277.36 493.309 1276.95 492.586C1276.54 491.863 1275.85 491.502 1274.86 491.502C1273.98 491.502 1273.26 491.899 1272.7 492.693C1272.12 493.501 1271.6 494.904 1271.12 496.902L1269.9 502H1267.97L1269.31 496.756C1269.46 496.144 1269.61 495.59 1269.77 495.096C1269.92 494.601 1270.07 494.161 1270.22 493.777L1267.78 490.018H1269.9L1271.12 492C1271.63 491.232 1272.17 490.678 1272.75 490.34C1273.33 489.995 1274.03 489.822 1274.84 489.822ZM1298.78 494.979V502H1288.52V490.018H1293.76C1295.56 490.018 1296.84 490.402 1297.62 491.17C1298.39 491.938 1298.78 493.208 1298.78 494.979ZM1290.31 500.34H1296.97V494.959C1296.97 493.774 1296.73 492.931 1296.25 492.43C1295.77 491.928 1294.94 491.678 1293.74 491.678H1290.31V500.34ZM1311.07 500.789C1310.62 501.089 1310.07 501.333 1309.39 501.521C1308.73 501.71 1307.9 501.85 1306.89 501.941C1305.89 502.033 1304.65 502.085 1303.17 502.098L1300.89 490.018H1302.75L1303.96 496.18L1304.67 496.043C1305.06 495.952 1305.38 495.835 1305.63 495.691C1305.89 495.542 1306.09 495.333 1306.24 495.066C1306.36 494.858 1306.46 494.601 1306.52 494.295C1306.59 493.989 1306.64 493.624 1306.67 493.201L1306.91 490.018H1308.77L1308.47 493.221C1308.42 493.761 1308.37 494.23 1308.3 494.627C1308.24 495.018 1308.16 495.333 1308.07 495.574C1307.9 496.062 1307.66 496.44 1307.33 496.707C1307.01 496.967 1306.47 497.199 1305.71 497.4L1304.25 497.742L1304.73 500.262H1304.96C1306.27 500.262 1307.32 500.187 1308.11 500.037C1308.89 499.881 1309.51 499.64 1309.97 499.314C1310.28 499.093 1310.53 498.82 1310.74 498.494C1310.95 498.169 1311.13 497.739 1311.27 497.205C1311.41 496.671 1311.53 495.984 1311.63 495.145L1312.25 490.018H1314.13L1313.51 495.076C1313.38 496.209 1313.21 497.143 1313 497.879C1312.79 498.608 1312.53 499.201 1312.22 499.656C1311.91 500.105 1311.53 500.483 1311.07 500.789Z" fill="#4B4553" fill-opacity="0.56"/>
<g clip-path="url(#clip1_49_561)">
<path d="M454.231 355.169L455.358 358.737C455.945 360.598 457.403 362.054 459.262 362.642L462.83 363.769C463.057 363.84 463.057 364.161 462.83 364.231L457.111 366.037C456.599 366.199 456.198 366.599 456.037 367.111L454.231 372.83C454.159 373.057 453.838 373.057 453.768 372.83L451.962 367.111C451.801 366.599 451.4 366.199 450.888 366.037L445.169 364.231C444.942 364.159 444.942 363.838 445.169 363.769L450.888 361.962C451.4 361.801 451.801 361.4 451.962 360.889L453.768 355.169C453.84 354.942 454.161 354.942 454.231 355.169Z" fill="#4754D6"/>
</g>
<g clip-path="url(#clip2_49_561)">
<path d="M460.495 355.048L460.817 356.067C460.984 356.599 461.401 357.015 461.932 357.183L462.951 357.505C463.016 357.526 463.016 357.617 462.951 357.637L461.317 358.153C461.171 358.199 461.057 358.314 461.011 358.46L460.495 360.094C460.474 360.159 460.382 360.159 460.362 360.094L459.846 358.46C459.8 358.314 459.686 358.199 459.54 358.153L457.906 357.637C457.841 357.617 457.841 357.525 457.906 357.505L459.54 356.989C459.686 356.943 459.8 356.828 459.846 356.682L460.362 355.048C460.383 354.983 460.475 354.983 460.495 355.048Z" fill="#4754D6"/>
</g>
<rect x="768" y="757" width="175" height="50" rx="25" fill="#4856CD"/>
<path d="M833.41 781.925V794.324H830.367V781.903C830.367 780.742 830.116 779.934 829.614 779.477C829.12 779.013 828.285 778.781 827.11 778.781H822.438V776.063H827.29C828.764 776.063 829.947 776.261 830.838 776.658C831.737 777.048 832.388 777.673 832.792 778.534C833.204 779.387 833.41 780.518 833.41 781.925ZM848.987 788.619C848.373 788.963 847.617 789.248 846.718 789.472C845.827 789.689 844.715 789.85 843.383 789.955C842.058 790.06 840.437 790.112 838.52 790.112L835.892 776.063H839.07L840.294 782.779L841.114 782.622C841.623 782.524 841.998 782.36 842.237 782.127C842.484 781.888 842.672 781.532 842.799 781.061C842.859 780.828 842.915 780.507 842.967 780.095C843.027 779.675 843.083 779.166 843.136 778.567L843.304 776.063H846.404L846.067 779.904C846.022 780.428 845.958 780.9 845.876 781.319C845.794 781.738 845.689 782.101 845.562 782.408C845.314 783.022 844.966 783.501 844.517 783.846C844.075 784.19 843.372 784.478 842.406 784.71L840.721 785.104L841.182 787.406H841.451C842.387 787.406 843.214 787.368 843.933 787.293C844.659 787.211 845.277 787.088 845.786 786.923C846.467 786.713 847.029 786.421 847.471 786.047C847.912 785.665 848.261 785.16 848.515 784.531C848.77 783.894 848.949 783.09 849.054 782.116L849.762 776.063H852.895L852.176 782.038C852.027 783.325 851.817 784.392 851.547 785.238C851.285 786.084 850.945 786.773 850.525 787.305C850.114 787.829 849.601 788.267 848.987 788.619ZM862.946 775.996C864.855 775.996 866.244 776.557 867.113 777.68C867.981 778.796 868.416 780.54 868.416 782.914V790H861.172V787.282H865.361V783.149C865.361 781.57 865.17 780.439 864.788 779.758C864.414 779.069 863.751 778.725 862.8 778.725C861.924 778.725 861.187 779.163 860.588 780.039C859.989 780.937 859.431 782.434 858.915 784.531L857.556 790H854.321L855.837 784.183C856.025 783.479 856.204 782.85 856.376 782.296C856.556 781.742 856.728 781.266 856.893 780.87L854.108 776.22H857.466L858.521 778.197C858.971 777.508 859.585 776.969 860.363 776.58C861.149 776.19 862.01 775.996 862.946 775.996ZM884.206 781.925V790H881.162V781.903C881.162 780.757 880.919 779.952 880.432 779.488C879.945 779.017 879.099 778.781 877.894 778.781H872.2V776.063H878.085C879.56 776.063 880.743 776.261 881.634 776.658C882.532 777.055 883.184 777.684 883.588 778.545C884 779.398 884.206 780.525 884.206 781.925ZM875.457 781.532V790H872.425V781.532H875.457Z" fill="white"/>
<rect x="950" y="757" width="50" height="50" rx="25" fill="#B88AE6" fill-opacity="0.5"/>
<path d="M982.707 782.707C983.098 782.317 983.098 781.683 982.707 781.293L976.343 774.929C975.953 774.538 975.319 774.538 974.929 774.929C974.538 775.319 974.538 775.953 974.929 776.343L980.586 782L974.929 787.657C974.538 788.047 974.538 788.681 974.929 789.071C975.319 789.462 975.953 789.462 976.343 789.071L982.707 782.707ZM982 781L968 781L968 783L982 783L982 781Z" fill="white"/>
</g>
<defs>
<clipPath id="clip0_49_561">
<rect width="1920" height="1080" fill="white"/>
</clipPath>
<clipPath id="clip1_49_561">
<rect width="18" height="18" fill="white" transform="translate(445 355)"/>
</clipPath>
<clipPath id="clip2_49_561">
<rect width="5.14286" height="5.14286" fill="white" transform="translate(457.857 355)"/>
</clipPath>
</defs>
</svg>
