<svg width="57" height="163" viewBox="0 0 57 163" fill="none" xmlns="http://www.w3.org/2000/svg">
<path d="M53.9518 96.236C51.6117 90.5855 48.1404 86.1242 43.6329 82.9474C38.9613 79.6665 33.6767 78 27.9517 78C20.5687 78 13.8333 80.7428 8.4537 85.9159C2.92726 91.2452 0 98.1629 0 105.922C0 116.303 4.43839 122.796 8.39325 126.519C3.32447 130.608 0.45763 136.458 0.45763 142.889C0.45763 147.949 2.22781 152.636 5.57821 156.447C9.29128 160.674 14.5069 163 20.2578 163C26.5873 163 32.9427 160.231 39.16 154.772C44.2633 150.284 48.5549 144.321 51.9053 137.056C55.2816 129.713 57 121.78 57 113.456C57 106.921 55.9724 101.131 53.9518 96.236ZM28.3143 107.25C27.6062 107.25 27.2954 107.129 27.0191 106.921C26.9845 106.738 26.9413 106.417 26.9413 105.922C26.9413 105.775 26.9586 105.671 26.9673 105.619C26.9932 105.584 27.0363 105.532 27.1054 105.471C27.5026 105.089 27.5717 105.089 27.9517 105.089H28.1071C28.1071 105.089 28.1503 105.115 28.2021 105.15C28.2021 105.15 28.582 105.454 29.0656 106.634C29.1433 106.808 29.221 107.016 29.2987 107.25H28.3143Z" fill="#F3F4F1"/>
<path d="M48.6564 7.49853C43.422 2.5893 36.8464 0 29.635 0C22.4236 0 15.7522 2.53716 10.5178 7.33344C6.63344 10.8959 2 17.3604 2 27.9522C2 33.1395 3.26286 37.9271 5.74504 42.176H5.75376C8.15756 46.2945 11.441 49.631 15.5083 52.0987C19.7846 54.688 24.54 56 29.635 56C34.73 56 42.072 54.4968 48.9351 47.3111C54.213 41.8023 57 35.1119 57 27.9522C57 17.5255 52.4624 11.0697 48.6564 7.49853ZM29.2779 28.5952C29.2779 28.5952 29.2431 28.5517 29.2344 28.5257C29.217 28.4649 29.1821 28.2737 29.1821 27.9522C29.1821 27.596 29.1995 27.3266 29.2257 27.1354C29.3127 27.1268 29.4521 27.1094 29.635 27.1094H29.7743C29.7918 27.2918 29.8179 27.5612 29.8179 27.9175C29.7656 28.013 29.6176 28.239 29.2779 28.5952Z" fill="#F3F4F1"/>
</svg>
