<svg width="1030" height="549" viewBox="0 0 1030 549" fill="none" xmlns="http://www.w3.org/2000/svg">
<rect x="0.5" y="0.5" width="1029" height="548" rx="43.5" fill="white" fill-opacity="0.38" stroke="white"/>
<rect x="53.5" y="51.5" width="208" height="49" rx="24.5" stroke="#4856CD"/>
<path d="M119.453 75.9253V84H116.41V75.9028C116.41 74.7573 116.167 73.9525 115.68 73.4883C115.193 73.0166 114.347 72.7808 113.142 72.7808H107.448V70.063H113.333C114.808 70.063 115.991 70.2614 116.882 70.6582C117.78 71.055 118.431 71.6839 118.836 72.5449C119.248 73.3984 119.453 74.5252 119.453 75.9253ZM110.705 75.5322V84H107.673V75.5322H110.705ZM135.199 81.2822V84H122.205V81.2822H130.673V76.3184C130.673 75.0081 130.426 74.091 129.931 73.5669C129.445 73.0428 128.61 72.7808 127.427 72.7808H122.733V70.063H127.472C129.658 70.063 131.242 70.5197 132.222 71.4331C133.211 72.3465 133.705 73.8439 133.705 75.9253V81.2822H135.199ZM140.533 70.063V77.4639H137.501V70.063H140.533ZM148.495 81.7764C148.196 82.5475 147.735 83.1128 147.114 83.4722C146.493 83.8241 145.59 84 144.408 84H143.644V81.2822H143.835C144.351 81.2822 144.763 81.1849 145.07 80.9902C145.37 80.7956 145.583 80.4998 145.71 80.103C145.838 79.6987 145.901 79.0885 145.901 78.2725V72.7808H143.767V70.063H151.584C153.74 70.063 155.286 70.5197 156.222 71.4331C157.165 72.339 157.637 73.8439 157.637 75.9478V84H154.594V75.9927C154.594 74.7948 154.35 73.96 153.864 73.4883C153.377 73.0166 152.557 72.7808 151.404 72.7808H148.933V78.6655C148.933 79.9608 148.787 80.9977 148.495 81.7764ZM170.923 77.3066C170.923 81.7689 168.647 84 164.095 84H160.366V81.2822H163.926C165.266 81.2822 166.258 80.9453 166.902 80.2715C167.546 79.5977 167.868 78.5719 167.868 77.1943V76.8911C167.868 75.491 167.546 74.4578 166.902 73.7915C166.258 73.1177 165.281 72.7808 163.971 72.7808H160.366V70.063H164.252C168.699 70.063 170.923 72.2866 170.923 76.7339V77.3066ZM185.915 75.9253V84H182.872V75.9028C182.872 74.7573 182.629 73.9525 182.142 73.4883C181.655 73.0166 180.809 72.7808 179.604 72.7808H173.91V70.063H179.795C181.27 70.063 182.453 70.2614 183.344 70.6582C184.242 71.055 184.893 71.6839 185.298 72.5449C185.709 73.3984 185.915 74.5252 185.915 75.9253ZM177.167 75.5322V84H174.135V75.5322H177.167ZM198.055 70.063V77.4639H195.023V70.063H198.055ZM208.084 75.5547V84H200.818V81.2822H205.052V76.1387C205.052 75.1279 204.985 74.4054 204.85 73.9712C204.715 73.5444 204.491 73.2412 204.176 73.0615C203.862 72.8743 203.401 72.7808 202.795 72.7808H201.458V70.063H203.367C204.655 70.063 205.617 70.2352 206.254 70.5796C206.89 70.924 207.354 71.4893 207.646 72.2754C207.938 73.0615 208.084 74.1546 208.084 75.5547ZM214.924 70.063V77.4639H211.891V70.063H214.924ZM223.919 65.3013L221.314 72.4326H219.292L220.831 65.3013H223.919ZM229.95 70.063C230.616 70.063 231.17 70.1154 231.612 70.2202C232.061 70.325 232.436 70.5085 232.735 70.7705C233.042 71.0251 233.308 71.377 233.533 71.8262C233.705 72.1631 233.884 72.6348 234.072 73.2412C234.259 73.8402 234.457 74.5739 234.667 75.4424L236.643 84H233.622L232.499 78.9912C231.953 79.1335 231.567 79.3244 231.343 79.564C231.118 79.8035 230.927 80.1816 230.77 80.6982C230.74 80.8031 230.691 80.9865 230.624 81.2485C230.564 81.5031 230.489 81.8325 230.399 82.2368L230.017 84H226.929L227.389 81.9785C227.524 81.3571 227.659 80.8218 227.794 80.3726C227.929 79.9159 228.067 79.5415 228.209 79.2495C228.486 78.6655 228.842 78.2013 229.276 77.8569C229.718 77.505 230.324 77.2131 231.095 76.981L231.994 76.7114C231.889 76.2098 231.784 75.7606 231.679 75.3638C231.575 74.967 231.477 74.6263 231.387 74.3418C231.2 73.7653 230.983 73.361 230.736 73.1289C230.489 72.8968 230.088 72.7808 229.534 72.7808H228.018V70.063H229.95Z" fill="#4754D6"/>
<rect x="46.5" y="161.5" width="937" height="278" rx="43.5" fill="white" stroke="white"/>
<path d="M652.945 75.0034V85.6221H648.595V75.0034H652.945ZM675.456 93.0181C674.575 93.5122 673.49 93.9204 672.201 94.2427C670.922 94.5542 669.327 94.7852 667.415 94.9355C665.514 95.0859 663.188 95.1611 660.438 95.1611L656.667 75.0034H661.228L662.984 84.6392L664.16 84.4136C664.891 84.2739 665.428 84.0376 665.771 83.7046C666.126 83.3608 666.395 82.8506 666.577 82.1738C666.663 81.8408 666.744 81.3789 666.819 80.7881C666.905 80.1865 666.985 79.4561 667.061 78.5967L667.302 75.0034H671.75L671.266 80.5142C671.202 81.2661 671.11 81.9429 670.992 82.5444C670.874 83.146 670.724 83.667 670.541 84.1074C670.187 84.9883 669.687 85.6758 669.042 86.1699C668.409 86.6641 667.399 87.0776 666.013 87.4106L663.596 87.9746L664.257 91.2778H664.644C665.986 91.2778 667.173 91.2241 668.205 91.1167C669.247 90.9985 670.133 90.8213 670.863 90.585C671.841 90.2842 672.646 89.8652 673.28 89.3281C673.914 88.7803 674.414 88.0552 674.779 87.1528C675.144 86.2397 675.402 85.085 675.552 83.6885L676.567 75.0034H681.063L680.032 83.5757C679.817 85.4233 679.516 86.9541 679.129 88.168C678.753 89.3818 678.265 90.3701 677.663 91.1328C677.072 91.8848 676.336 92.5132 675.456 93.0181ZM689.49 75.0034V85.6221H685.14V75.0034H689.49ZM698.868 89.167L697.869 95H693.357L694.711 88.3291C695.098 86.4814 695.452 85.1655 695.774 84.3813C696.097 83.5864 696.494 82.958 696.967 82.4961C697.45 82.0234 698.116 81.6045 698.965 81.2393L694.308 75.0034H699.593L706.119 84.043C706.796 83.4307 707.312 82.7109 707.666 81.8838C708.021 81.0566 708.273 79.9395 708.423 78.5322L708.762 75.0034H713.209L712.822 78.8223C712.704 79.9072 712.489 80.8687 712.178 81.7065C711.963 82.2759 711.7 82.813 711.388 83.3179C711.077 83.812 710.668 84.3384 710.164 84.897C709.669 85.4448 709.014 86.084 708.198 86.8145L714.208 95H708.955L700.915 83.8496C700.345 84.1826 699.937 84.666 699.69 85.2998C699.572 85.6221 699.443 86.1055 699.303 86.75C699.164 87.3945 699.019 88.2002 698.868 89.167ZM722.571 91.4712C725.353 91.4175 727.507 91.1436 729.032 90.6494L723.328 75.0034H728.049L732.803 88.6997C733.619 88.0444 734.269 87.1528 734.752 86.0249C735.247 84.8862 735.606 83.4199 735.832 81.626C736.058 79.8213 736.17 77.6138 736.17 75.0034H740.65C740.65 80.1489 740.081 84.1558 738.942 87.0239C738.179 88.9575 737.11 90.5474 735.735 91.7935C734.36 93.0288 732.599 93.9634 730.45 94.5972C728.302 95.231 725.675 95.6177 722.571 95.7573V91.4712ZM758.149 78.9028V95H753.798V78.9028H742.97V75.0034H760.63V78.9028H758.149ZM768.671 75.0034V85.6221H764.32V75.0034H768.671ZM784.945 74.9067C787.685 74.9067 789.677 75.7124 790.923 77.3237C792.169 78.9243 792.792 81.4272 792.792 84.8325V95H782.399V91.1006H788.41V85.1709C788.41 82.9043 788.136 81.2822 787.588 80.3047C787.051 79.3164 786.1 78.8223 784.736 78.8223C783.479 78.8223 782.421 79.4507 781.562 80.7075C780.702 81.9966 779.902 84.145 779.161 87.1528L777.211 95H772.57L774.746 86.6533C775.014 85.6436 775.272 84.7412 775.519 83.9463C775.777 83.1514 776.024 82.4692 776.26 81.8999L772.264 75.229H777.082L778.597 78.0649C779.241 77.0767 780.122 76.3032 781.239 75.7446C782.367 75.186 783.603 74.9067 784.945 74.9067ZM802.605 75.0034V95H798.255V75.0034H802.605ZM828.87 83.4146V95H824.503V83.3823C824.503 81.7173 824.144 80.5571 823.424 79.9019C822.715 79.2358 821.517 78.9028 819.831 78.9028H813.127V75.0034H820.088C822.205 75.0034 823.902 75.2881 825.18 75.8574C826.469 76.416 827.404 77.313 827.984 78.5483C828.575 79.7729 828.87 81.395 828.87 83.4146ZM851.219 93.0181C850.338 93.5122 849.253 93.9204 847.964 94.2427C846.686 94.5542 845.091 94.7852 843.179 94.9355C841.277 95.0859 838.952 95.1611 836.202 95.1611L832.431 75.0034H836.991L838.748 84.6392L839.924 84.4136C840.654 84.2739 841.191 84.0376 841.535 83.7046C841.89 83.3608 842.158 82.8506 842.341 82.1738C842.427 81.8408 842.507 81.3789 842.583 80.7881C842.668 80.1865 842.749 79.4561 842.824 78.5967L843.066 75.0034H847.513L847.03 80.5142C846.965 81.2661 846.874 81.9429 846.756 82.5444C846.638 83.146 846.487 83.667 846.305 84.1074C845.95 84.9883 845.451 85.6758 844.806 86.1699C844.172 86.6641 843.163 87.0776 841.777 87.4106L839.36 87.9746L840.021 91.2778H840.407C841.75 91.2778 842.937 91.2241 843.968 91.1167C845.01 90.9985 845.896 90.8213 846.627 90.585C847.604 90.2842 848.41 89.8652 849.044 89.3281C849.678 88.7803 850.177 88.0552 850.542 87.1528C850.908 86.2397 851.166 85.085 851.316 83.6885L852.331 75.0034H856.827L855.795 83.5757C855.581 85.4233 855.28 86.9541 854.893 88.168C854.517 89.3818 854.028 90.3701 853.427 91.1328C852.836 91.8848 852.1 92.5132 851.219 93.0181ZM877.871 81.6421C877.871 83.6831 877.457 85.5898 876.63 87.3623C875.803 89.1348 874.589 90.7246 872.988 92.1318C871.398 93.5391 869.449 94.7153 867.139 95.6606V91.0361C869.159 90.0908 870.716 88.834 871.812 87.2656C872.918 85.6865 873.472 83.9839 873.472 82.1577C873.472 80.9546 873.171 80.1113 872.569 79.6279C871.968 79.1445 870.915 78.9028 869.411 78.9028H860.082V75.0034H870.04C872.768 75.0034 874.755 75.5244 876.001 76.5664C877.248 77.5977 877.871 79.2896 877.871 81.6421ZM865.254 82.7217V101.204H860.903V82.7217H865.254ZM893.936 75.0034V85.6221H889.585V75.0034H893.936ZM908.019 95.3223C905.054 95.3223 902.873 94.6348 901.477 93.2598C900.08 91.874 899.382 89.7471 899.382 86.8789V75.0034H903.732V86.7822C903.732 88.3828 904.076 89.5537 904.764 90.2949C905.451 91.0361 906.547 91.4067 908.051 91.4067C909.146 91.4067 910.076 91.1973 910.838 90.7783C911.601 90.3486 912.181 89.6074 912.579 88.5547C912.976 87.4912 913.175 86.0195 913.175 84.1396C913.175 82.2812 912.965 80.8955 912.546 79.9824C912.127 79.0586 911.435 78.5967 910.468 78.5967C909.533 78.5967 908.556 78.9028 907.535 79.5151V75.5674C908.545 74.9658 909.764 74.665 911.193 74.665C913.492 74.665 915.141 75.417 916.14 76.9209C917.149 78.4141 917.654 80.8096 917.654 84.1074C917.654 87.9961 916.881 90.8374 915.334 92.6313C913.798 94.4253 911.359 95.3223 908.019 95.3223ZM935.83 83.4146V95H931.463V83.3823C931.463 81.7173 931.104 80.5571 930.384 79.9019C929.675 79.2358 928.477 78.9028 926.791 78.9028H920.087V75.0034H927.048C929.165 75.0034 930.862 75.2881 932.14 75.8574C933.429 76.416 934.364 77.313 934.944 78.5483C935.535 79.7729 935.83 81.395 935.83 83.4146ZM953.78 84.0107C953.78 82.292 953.388 81.0137 952.604 80.1758C951.82 79.3271 950.584 78.9028 948.898 78.9028H945.176V83.2212H949.091V87.1206H940.777V75.0034H948.93C952.088 75.0034 954.419 75.7393 955.923 77.2109C957.427 78.6826 958.179 80.9707 958.179 84.0752V85.3965C958.179 91.7988 954.887 95 948.302 95H940.954V91.1006H948.205C950.063 91.1006 951.455 90.6226 952.378 89.6665C953.313 88.7104 953.78 87.2764 953.78 85.3643V84.0107Z" fill="#4856CD"/>
<path d="M78.041 114.612V123H76.7832V114.612H78.041ZM86.9893 118.085V123H85.7246V118.071C85.7246 117.233 85.5537 116.64 85.2119 116.294C84.8747 115.948 84.2891 115.774 83.4551 115.774H80.2695V114.612H83.4756C84.3141 114.612 84.9909 114.731 85.5059 114.968C86.0208 115.2 86.3968 115.572 86.6338 116.082C86.8708 116.588 86.9893 117.256 86.9893 118.085ZM81.6641 117.552V123H80.4062V117.552H81.6641ZM95.582 122.152C95.2676 122.362 94.8757 122.533 94.4062 122.665C93.9414 122.797 93.3581 122.895 92.6562 122.959C91.9544 123.023 91.0863 123.059 90.0518 123.068L88.4521 114.612H89.7578L90.5986 118.926L91.0977 118.83C91.3711 118.766 91.5967 118.684 91.7744 118.584C91.9521 118.479 92.0934 118.333 92.1982 118.146C92.2848 118.001 92.3509 117.821 92.3965 117.606C92.4421 117.392 92.4762 117.137 92.499 116.841L92.6699 114.612H93.9688L93.7568 116.854C93.7249 117.233 93.6862 117.561 93.6406 117.839C93.5951 118.112 93.5404 118.333 93.4766 118.502C93.3626 118.844 93.1917 119.108 92.9639 119.295C92.736 119.477 92.3577 119.639 91.8291 119.78L90.8037 120.02L91.1387 121.783H91.3027C92.2188 121.783 92.9525 121.731 93.5039 121.626C94.0553 121.517 94.4906 121.348 94.8096 121.12C95.0238 120.965 95.2038 120.774 95.3496 120.546C95.4954 120.318 95.6185 120.017 95.7188 119.644C95.819 119.27 95.9033 118.789 95.9717 118.201L96.4023 114.612H97.7217L97.2842 118.153C97.193 118.946 97.0745 119.6 96.9287 120.115C96.7829 120.626 96.6006 121.04 96.3818 121.359C96.1676 121.674 95.901 121.938 95.582 122.152ZM103.512 114.476C104.615 114.476 105.419 114.813 105.925 115.487C106.435 116.157 106.69 117.224 106.69 118.687V123H102.575V121.838H105.419V118.844C105.419 117.727 105.275 116.916 104.988 116.41C104.701 115.904 104.214 115.651 103.525 115.651C102.91 115.651 102.404 115.929 102.008 116.485C101.607 117.05 101.24 118.033 100.907 119.432L100.053 123H98.6992L99.6357 119.329C99.7406 118.901 99.8477 118.513 99.957 118.167C100.066 117.821 100.174 117.513 100.278 117.244L98.5693 114.612H100.053L100.907 116C101.263 115.462 101.643 115.075 102.049 114.838C102.454 114.596 102.942 114.476 103.512 114.476ZM120.267 118.085V123H113.082V114.612H116.753C118.011 114.612 118.911 114.881 119.453 115.419C119.995 115.957 120.267 116.845 120.267 118.085ZM114.34 121.838H119.002V118.071C119.002 117.242 118.833 116.652 118.496 116.301C118.163 115.95 117.578 115.774 116.739 115.774H114.34V121.838ZM124.218 121.701C124.063 122.161 123.817 122.494 123.479 122.699C123.142 122.9 122.611 123 121.887 123H121.812V121.838H121.928C122.242 121.838 122.493 121.779 122.68 121.66C122.862 121.542 122.992 121.362 123.069 121.12C123.147 120.874 123.186 120.503 123.186 120.006V115.774H121.887V114.612H126.419C127.677 114.612 128.579 114.881 129.126 115.419C129.673 115.952 129.946 116.841 129.946 118.085V123H128.688V118.071C128.688 117.233 128.518 116.64 128.176 116.294C127.839 115.948 127.248 115.774 126.405 115.774H124.443V119.753C124.443 120.591 124.368 121.241 124.218 121.701ZM137.903 118.071C137.903 117.242 137.735 116.652 137.397 116.301C137.065 115.95 136.479 115.774 135.641 115.774H133.521V123H132.264V114.612H135.654C136.912 114.612 137.812 114.881 138.354 115.419C138.897 115.957 139.168 116.845 139.168 118.085V123H137.903V118.071ZM146.872 118.926C146.872 121.642 145.587 123 143.017 123H140.836V121.838H143.044C143.914 121.838 144.557 121.596 144.972 121.113C145.386 120.63 145.594 119.906 145.594 118.939V118.673C145.594 117.702 145.384 116.978 144.965 116.499C144.55 116.016 143.91 115.774 143.044 115.774H140.836V114.612H143.017C145.587 114.612 146.872 115.97 146.872 118.687V118.926ZM155.123 122.152C154.809 122.362 154.417 122.533 153.947 122.665C153.482 122.797 152.899 122.895 152.197 122.959C151.495 123.023 150.627 123.059 149.593 123.068L147.993 114.612H149.299L150.14 118.926L150.639 118.83C150.912 118.766 151.138 118.684 151.315 118.584C151.493 118.479 151.634 118.333 151.739 118.146C151.826 118.001 151.892 117.821 151.938 117.606C151.983 117.392 152.017 117.137 152.04 116.841L152.211 114.612H153.51L153.298 116.854C153.266 117.233 153.227 117.561 153.182 117.839C153.136 118.112 153.081 118.333 153.018 118.502C152.904 118.844 152.733 119.108 152.505 119.295C152.277 119.477 151.899 119.639 151.37 119.78L150.345 120.02L150.68 121.783H150.844C151.76 121.783 152.493 121.731 153.045 121.626C153.596 121.517 154.032 121.348 154.351 121.12C154.565 120.965 154.745 120.774 154.891 120.546C155.036 120.318 155.16 120.017 155.26 119.644C155.36 119.27 155.444 118.789 155.513 118.201L155.943 114.612H157.263L156.825 118.153C156.734 118.946 156.616 119.6 156.47 120.115C156.324 120.626 156.142 121.04 155.923 121.359C155.709 121.674 155.442 121.938 155.123 122.152ZM170.183 118.085V123H162.998V114.612H166.669C167.927 114.612 168.827 114.881 169.369 115.419C169.911 115.957 170.183 116.845 170.183 118.085ZM164.256 121.838H168.918V118.071C168.918 117.242 168.749 116.652 168.412 116.301C168.079 115.95 167.494 115.774 166.655 115.774H164.256V121.838ZM173.635 120.245L173.088 123H171.762L172.336 120.272C172.5 119.489 172.65 118.937 172.787 118.618C172.924 118.295 173.095 118.033 173.3 117.832C173.509 117.632 173.79 117.461 174.141 117.319L172.165 114.612H173.717L176.8 118.857C177.142 118.538 177.413 118.153 177.613 117.702C177.818 117.246 177.953 116.725 178.017 116.137L178.174 114.612H179.473L179.315 116.109C179.265 116.611 179.174 117.05 179.042 117.429C178.951 117.688 178.841 117.937 178.714 118.174C178.586 118.406 178.422 118.648 178.222 118.898C178.026 119.149 177.771 119.429 177.456 119.739L179.924 123H178.324L174.715 118.099C174.35 118.276 174.09 118.584 173.936 119.021C173.89 119.135 173.842 119.295 173.792 119.5C173.746 119.705 173.694 119.953 173.635 120.245ZM186.486 114.612V119.021H185.229V114.612H186.486ZM190.123 114.612V119.021H188.865V114.612H190.123ZM192.632 121.893C193.507 121.569 194.254 121.159 194.874 120.662C195.498 120.17 195.972 119.632 196.296 119.049C196.624 118.465 196.788 117.873 196.788 117.271C196.788 116.273 196.255 115.774 195.188 115.774H191.791V111.618H193.049V114.612H195.318C197.146 114.612 198.06 115.426 198.06 117.053C198.06 117.891 197.859 118.696 197.458 119.466C197.057 120.236 196.492 120.929 195.763 121.544C194.897 122.282 193.853 122.87 192.632 123.308V121.893ZM199.017 121.893C200.279 121.893 201.268 121.776 201.983 121.544L199.447 114.612H200.835L203.077 121.011C203.506 120.705 203.85 120.298 204.109 119.787C204.374 119.272 204.565 118.598 204.684 117.764C204.807 116.93 204.868 115.879 204.868 114.612H206.188C206.188 116.718 205.964 118.368 205.518 119.562C205.217 120.354 204.795 121.011 204.253 121.53C203.711 122.045 203.011 122.442 202.154 122.72C201.302 122.993 200.256 123.162 199.017 123.226V121.893ZM213.27 114.612V123H212.012V114.612H213.27ZM221.486 121.92V123H215.033V121.838H219.921L214.527 114.612H216.1L218.704 118.153C219.055 118.003 219.31 117.782 219.47 117.49C219.629 117.194 219.736 116.743 219.791 116.137L219.948 114.612H221.247L221.11 116.109C221.051 116.738 220.958 117.221 220.83 117.559C220.702 117.891 220.522 118.167 220.29 118.386C220.058 118.604 219.729 118.798 219.306 118.967L221.486 121.92ZM228.917 118.071C228.917 117.242 228.748 116.652 228.411 116.301C228.078 115.95 227.493 115.774 226.654 115.774H224.535V123H223.277V114.612H226.668C227.926 114.612 228.826 114.881 229.368 115.419C229.91 115.957 230.182 116.845 230.182 118.085V123H228.917V118.071ZM232.335 121.893C233.21 121.569 233.957 121.159 234.577 120.662C235.201 120.17 235.675 119.632 235.999 119.049C236.327 118.465 236.491 117.873 236.491 117.271C236.491 116.273 235.958 115.774 234.892 115.774H231.494V111.618H232.752V114.612H235.021C236.849 114.612 237.763 115.426 237.763 117.053C237.763 117.891 237.562 118.696 237.161 119.466C236.76 120.236 236.195 120.929 235.466 121.544C234.6 122.282 233.556 122.87 232.335 123.308V121.893ZM241.263 121.701C241.108 122.161 240.862 122.494 240.524 122.699C240.187 122.9 239.656 123 238.932 123H238.856V121.838H238.973C239.287 121.838 239.538 121.779 239.725 121.66C239.907 121.542 240.037 121.362 240.114 121.12C240.192 120.874 240.23 120.503 240.23 120.006V115.774H238.932V114.612H243.464C244.722 114.612 245.624 114.881 246.171 115.419C246.718 115.952 246.991 116.841 246.991 118.085V123H245.733V118.071C245.733 117.233 245.562 116.64 245.221 116.294C244.883 115.948 244.293 115.774 243.45 115.774H241.488V119.753C241.488 120.591 241.413 121.241 241.263 121.701Z" fill="#4856CD"/>
<path d="M390.689 214.114C390.339 214.114 390.038 213.988 389.787 213.737C389.536 213.486 389.411 213.186 389.411 212.835C389.411 212.485 389.536 212.184 389.787 211.933C390.038 211.682 390.339 211.557 390.689 211.557C391.04 211.557 391.34 211.682 391.591 211.933C391.842 212.184 391.968 212.485 391.968 212.835C391.968 213.067 391.908 213.28 391.79 213.474C391.676 213.669 391.523 213.825 391.328 213.943C391.139 214.057 390.926 214.114 390.689 214.114ZM396.197 214.114C395.847 214.114 395.546 213.988 395.295 213.737C395.044 213.486 394.919 213.186 394.919 212.835C394.919 212.485 395.044 212.184 395.295 211.933C395.546 211.682 395.847 211.557 396.197 211.557C396.547 211.557 396.848 211.682 397.099 211.933C397.35 212.184 397.475 212.485 397.475 212.835C397.475 213.067 397.416 213.28 397.298 213.474C397.184 213.669 397.03 213.825 396.836 213.943C396.647 214.057 396.434 214.114 396.197 214.114ZM401.705 214.114C401.355 214.114 401.054 213.988 400.803 213.737C400.552 213.486 400.426 213.186 400.426 212.835C400.426 212.485 400.552 212.184 400.803 211.933C401.054 211.682 401.355 211.557 401.705 211.557C402.055 211.557 402.356 211.682 402.607 211.933C402.858 212.184 402.983 212.485 402.983 212.835C402.983 213.067 402.924 213.28 402.806 213.474C402.692 213.669 402.538 213.825 402.344 213.943C402.155 214.057 401.942 214.114 401.705 214.114ZM415.141 212.789C414.691 213.089 414.132 213.333 413.461 213.521C412.797 213.71 411.964 213.85 410.961 213.941C409.958 214.033 408.718 214.085 407.24 214.098L404.955 202.018H406.82L408.021 208.18L408.734 208.043C409.125 207.952 409.447 207.835 409.701 207.691C409.955 207.542 410.157 207.333 410.307 207.066C410.43 206.858 410.525 206.601 410.59 206.295C410.655 205.989 410.704 205.624 410.736 205.201L410.98 202.018H412.836L412.533 205.221C412.488 205.761 412.432 206.23 412.367 206.627C412.302 207.018 412.224 207.333 412.133 207.574C411.97 208.062 411.726 208.44 411.4 208.707C411.075 208.967 410.535 209.199 409.779 209.4L408.314 209.742L408.793 212.262H409.027C410.336 212.262 411.384 212.187 412.172 212.037C412.96 211.881 413.581 211.64 414.037 211.314C414.343 211.093 414.6 210.82 414.809 210.494C415.017 210.169 415.193 209.739 415.336 209.205C415.479 208.671 415.6 207.984 415.697 207.145L416.312 202.018H418.197L417.572 207.076C417.442 208.209 417.273 209.143 417.064 209.879C416.856 210.608 416.596 211.201 416.283 211.656C415.977 212.105 415.596 212.483 415.141 212.789ZM422.562 202.018V208.316H420.766V202.018H422.562ZM441.85 206.979V214H431.586V202.018H436.83C438.627 202.018 439.913 202.402 440.688 203.17C441.462 203.938 441.85 205.208 441.85 206.979ZM433.383 212.34H440.043V206.959C440.043 205.774 439.802 204.931 439.32 204.43C438.845 203.928 438.008 203.678 436.811 203.678H433.383V212.34ZM446.781 210.064L446 214H444.105L444.926 210.104C445.16 208.984 445.375 208.196 445.57 207.74C445.766 207.278 446.01 206.904 446.303 206.617C446.602 206.331 447.003 206.087 447.504 205.885L444.682 202.018H446.898L451.303 208.082C451.791 207.626 452.178 207.076 452.465 206.432C452.758 205.781 452.95 205.035 453.041 204.195L453.266 202.018H455.121L454.896 204.156C454.825 204.872 454.695 205.501 454.506 206.041C454.376 206.412 454.219 206.767 454.037 207.105C453.855 207.438 453.62 207.783 453.334 208.141C453.054 208.499 452.689 208.899 452.24 209.342L455.766 214H453.48L448.324 206.998C447.803 207.252 447.432 207.691 447.211 208.316C447.146 208.479 447.077 208.707 447.006 209C446.941 209.293 446.866 209.648 446.781 210.064ZM461.133 207.864C461.133 209.653 460.899 211.301 460.43 212.807C459.966 214.308 459.301 215.69 458.434 216.955H456.957C457.298 216.486 457.615 215.908 457.909 215.222C458.207 214.54 458.467 213.792 458.69 212.977C458.913 212.158 459.085 211.313 459.208 210.442C459.336 209.566 459.4 208.706 459.4 207.864C459.4 206.737 459.291 205.593 459.074 204.433C458.856 203.273 458.562 202.196 458.193 201.202C457.824 200.207 457.412 199.398 456.957 198.773H458.434C459.301 200.037 459.966 201.422 460.43 202.928C460.899 204.429 461.133 206.074 461.133 207.864ZM472.387 202.018V217.76H470.59V202.018H472.387ZM477.582 202.018V208.316H475.785V202.018H477.582ZM482.602 210.064L481.82 214H479.926L480.746 210.104C480.98 208.984 481.195 208.196 481.391 207.74C481.586 207.278 481.83 206.904 482.123 206.617C482.423 206.331 482.823 206.087 483.324 205.885L480.502 202.018H482.719L487.123 208.082C487.611 207.626 487.999 207.076 488.285 206.432C488.578 205.781 488.77 205.035 488.861 204.195L489.086 202.018H490.941L490.717 204.156C490.645 204.872 490.515 205.501 490.326 206.041C490.196 206.412 490.04 206.767 489.857 207.105C489.675 207.438 489.441 207.783 489.154 208.141C488.874 208.499 488.51 208.899 488.061 209.342L491.586 214H489.301L484.145 206.998C483.624 207.252 483.253 207.691 483.031 208.316C482.966 208.479 482.898 208.707 482.826 209C482.761 209.293 482.686 209.648 482.602 210.064ZM506.508 203.678V214H504.701V203.678H497.865V202.018H508.002V203.678H506.508ZM519.262 205.738C519.262 206.962 519.014 208.124 518.52 209.225C518.025 210.325 517.325 211.311 516.42 212.184C515.515 213.049 514.441 213.743 513.197 214.264V212.203C514.558 211.591 515.603 210.742 516.332 209.654C517.068 208.561 517.436 207.337 517.436 205.982C517.436 205.11 517.243 204.508 516.859 204.176C516.482 203.844 515.827 203.678 514.896 203.678H509.76V202.018H514.818C516.426 202.018 517.569 202.307 518.246 202.887C518.923 203.46 519.262 204.41 519.262 205.738ZM512.055 206.217V217.76H510.258V206.217H512.055ZM526.127 206.656V214H520.648V212.34H524.33V207.164C524.33 206.109 524.278 205.364 524.174 204.928C524.07 204.479 523.887 204.16 523.627 203.971C523.373 203.775 523.005 203.678 522.523 203.678H521.205V202.018H522.465C523.507 202.018 524.268 202.161 524.75 202.447C525.232 202.74 525.58 203.219 525.795 203.883C526.016 204.54 526.127 205.465 526.127 206.656ZM531.645 202.018V208.316H529.848V202.018H531.645ZM535.229 212.418C536.479 211.956 537.546 211.37 538.432 210.66C539.324 209.957 540.001 209.189 540.463 208.355C540.932 207.522 541.166 206.676 541.166 205.816C541.166 204.391 540.404 203.678 538.881 203.678H534.027V197.74H535.824V202.018H539.066C541.677 202.018 542.982 203.18 542.982 205.504C542.982 206.702 542.696 207.851 542.123 208.951C541.55 210.051 540.743 211.041 539.701 211.92C538.464 212.975 536.973 213.814 535.229 214.439V212.418ZM545.639 212.418C546.889 211.956 547.956 211.37 548.842 210.66C549.734 209.957 550.411 209.189 550.873 208.355C551.342 207.522 551.576 206.676 551.576 205.816C551.576 204.391 550.814 203.678 549.291 203.678H544.438V197.74H546.234V202.018H549.477C552.087 202.018 553.393 203.18 553.393 205.504C553.393 206.702 553.106 207.851 552.533 208.951C551.96 210.051 551.153 211.041 550.111 211.92C548.874 212.975 547.383 213.814 545.639 214.439V212.418ZM569.262 206.979V214H567.455V206.959C567.455 205.774 567.214 204.931 566.732 204.43C566.257 203.928 565.421 203.678 564.223 203.678H560.561V202.018H564.242C565.44 202.018 566.407 202.187 567.143 202.525C567.878 202.857 568.415 203.388 568.754 204.117C569.092 204.84 569.262 205.794 569.262 206.979ZM574.359 202.018V214H572.562V202.018H574.359ZM586.742 212.789C586.293 213.089 585.733 213.333 585.062 213.521C584.398 213.71 583.565 213.85 582.562 213.941C581.56 214.033 580.32 214.085 578.842 214.098L576.557 202.018H578.422L579.623 208.18L580.336 208.043C580.727 207.952 581.049 207.835 581.303 207.691C581.557 207.542 581.758 207.333 581.908 207.066C582.032 206.858 582.126 206.601 582.191 206.295C582.257 205.989 582.305 205.624 582.338 205.201L582.582 202.018H584.438L584.135 205.221C584.089 205.761 584.034 206.23 583.969 206.627C583.904 207.018 583.826 207.333 583.734 207.574C583.572 208.062 583.327 208.44 583.002 208.707C582.676 208.967 582.136 209.199 581.381 209.4L579.916 209.742L580.395 212.262H580.629C581.938 212.262 582.986 212.187 583.773 212.037C584.561 211.881 585.183 211.64 585.639 211.314C585.945 211.093 586.202 210.82 586.41 210.494C586.618 210.169 586.794 209.739 586.938 209.205C587.081 208.671 587.201 207.984 587.299 207.145L587.914 202.018H589.799L589.174 207.076C589.044 208.209 588.874 209.143 588.666 209.879C588.458 210.608 588.197 211.201 587.885 211.656C587.579 212.105 587.198 212.483 586.742 212.789ZM594.164 202.018V208.316H592.367V202.018H594.164ZM606.566 205.738C606.566 206.962 606.319 208.124 605.824 209.225C605.329 210.325 604.63 211.311 603.725 212.184C602.82 213.049 601.745 213.743 600.502 214.264V212.203C601.863 211.591 602.908 210.742 603.637 209.654C604.372 208.561 604.74 207.337 604.74 205.982C604.74 205.11 604.548 204.508 604.164 204.176C603.786 203.844 603.132 203.678 602.201 203.678H597.064V202.018H602.123C603.731 202.018 604.874 202.307 605.551 202.887C606.228 203.46 606.566 204.41 606.566 205.738ZM599.359 206.217V217.76H597.562V206.217H599.359ZM617.319 212.011L617.206 212.778C617.125 213.318 617.002 213.896 616.836 214.511C616.675 215.127 616.507 215.707 616.332 216.251C616.157 216.796 616.012 217.229 615.899 217.551H614.62C614.682 217.248 614.762 216.848 614.862 216.351C614.961 215.854 615.061 215.297 615.16 214.682C615.264 214.071 615.35 213.446 615.416 212.807L615.501 212.011H617.319ZM630.854 206.979V214H620.59V202.018H625.834C627.631 202.018 628.917 202.402 629.691 203.17C630.466 203.938 630.854 205.208 630.854 206.979ZM622.387 212.34H629.047V206.959C629.047 205.774 628.806 204.931 628.324 204.43C627.849 203.928 627.012 203.678 625.814 203.678H622.387V212.34ZM635.551 202.018V208.316H633.754V202.018H635.551ZM646.742 206.979V214H644.936V206.959C644.936 205.774 644.695 204.931 644.213 204.43C643.738 203.928 642.901 203.678 641.703 203.678H638.041V202.018H641.723C642.921 202.018 643.887 202.187 644.623 202.525C645.359 202.857 645.896 203.388 646.234 204.117C646.573 204.84 646.742 205.794 646.742 206.979ZM651.84 202.018V214H650.043V202.018H651.84ZM656.078 202.018C656.645 202.018 657.107 202.063 657.465 202.154C657.829 202.239 658.129 202.402 658.363 202.643C658.598 202.877 658.806 203.222 658.988 203.678C659.086 203.906 659.2 204.26 659.33 204.742C659.46 205.217 659.61 205.823 659.779 206.559L661.479 214H659.701L658.598 209.078C658.051 209.215 657.65 209.381 657.396 209.576C657.149 209.771 656.944 210.061 656.781 210.445C656.697 210.634 656.615 210.882 656.537 211.188C656.465 211.487 656.394 211.839 656.322 212.242L656 214H654.154L654.496 212.223C654.646 211.448 654.796 210.823 654.945 210.348C655.102 209.866 655.297 209.475 655.531 209.176C655.72 208.928 655.951 208.714 656.225 208.531C656.498 208.342 656.892 208.173 657.406 208.023L658.295 207.76C658.132 207.07 657.989 206.493 657.865 206.031C657.742 205.562 657.637 205.208 657.553 204.967C657.383 204.485 657.198 204.15 656.996 203.961C656.794 203.772 656.508 203.678 656.137 203.678H654.818V202.018H656.078ZM669.594 201.822C671.169 201.822 672.318 202.304 673.041 203.268C673.77 204.225 674.135 205.748 674.135 207.838V214H668.256V212.34H672.318V208.062C672.318 206.467 672.113 205.309 671.703 204.586C671.293 203.863 670.596 203.502 669.613 203.502C668.734 203.502 668.012 203.899 667.445 204.693C666.872 205.501 666.348 206.904 665.873 208.902L664.652 214H662.719L664.057 208.756C664.206 208.144 664.359 207.59 664.516 207.096C664.672 206.601 664.825 206.161 664.975 205.777L662.533 202.018H664.652L665.873 204C666.381 203.232 666.924 202.678 667.504 202.34C668.083 201.995 668.78 201.822 669.594 201.822ZM690.453 206.979V214H688.646V206.959C688.646 205.774 688.406 204.931 687.924 204.43C687.449 203.928 686.612 203.678 685.414 203.678H681.752V202.018H685.434C686.632 202.018 687.598 202.187 688.334 202.525C689.07 202.857 689.607 203.388 689.945 204.117C690.284 204.84 690.453 205.794 690.453 206.979ZM695.551 202.018V208.316H693.754V202.018H695.551ZM697.65 212.418C699.454 212.418 700.867 212.252 701.889 211.92L698.266 202.018H700.248L703.451 211.158C704.063 210.722 704.555 210.139 704.926 209.41C705.303 208.674 705.577 207.711 705.746 206.52C705.922 205.328 706.01 203.827 706.01 202.018H707.895C707.895 205.025 707.576 207.382 706.938 209.088C706.508 210.221 705.906 211.158 705.131 211.9C704.356 212.636 703.357 213.202 702.133 213.6C700.915 213.99 699.421 214.231 697.65 214.322V212.418ZM718.55 212.011L718.436 212.778C718.356 213.318 718.232 213.896 718.067 214.511C717.906 215.127 717.738 215.707 717.562 216.251C717.387 216.796 717.243 217.229 717.129 217.551H715.851C715.912 217.248 715.993 216.848 716.092 216.351C716.192 215.854 716.291 215.297 716.391 214.682C716.495 214.071 716.58 213.446 716.646 212.807L716.732 212.011H718.55ZM722.006 212.418C723.256 211.956 724.324 211.37 725.209 210.66C726.101 209.957 726.778 209.189 727.24 208.355C727.709 207.522 727.943 206.676 727.943 205.816C727.943 204.391 727.182 203.678 725.658 203.678H720.805V197.74H722.602V202.018H725.844C728.454 202.018 729.76 203.18 729.76 205.504C729.76 206.702 729.473 207.851 728.9 208.951C728.327 210.051 727.52 211.041 726.479 211.92C725.242 212.975 723.751 213.814 722.006 214.439V212.418ZM736.43 197.74L734.164 203.941H732.826L734.164 197.74H736.43ZM740.785 197.74L738.529 203.941H737.191L738.529 197.74H740.785ZM746.117 210.064L745.336 214H743.441L744.262 210.104C744.496 208.984 744.711 208.196 744.906 207.74C745.102 207.278 745.346 206.904 745.639 206.617C745.938 206.331 746.339 206.087 746.84 205.885L744.018 202.018H746.234L750.639 208.082C751.127 207.626 751.514 207.076 751.801 206.432C752.094 205.781 752.286 205.035 752.377 204.195L752.602 202.018H754.457L754.232 204.156C754.161 204.872 754.031 205.501 753.842 206.041C753.712 206.412 753.555 206.767 753.373 207.105C753.191 207.438 752.956 207.783 752.67 208.141C752.39 208.499 752.025 208.899 751.576 209.342L755.102 214H752.816L747.66 206.998C747.139 207.252 746.768 207.691 746.547 208.316C746.482 208.479 746.413 208.707 746.342 209C746.277 209.293 746.202 209.648 746.117 210.064ZM758.852 202.018V214H757.055V202.018H758.852ZM769.594 203.678V214H767.787V203.678H760.951V202.018H771.088V203.678H769.594ZM781.304 212.011L781.19 212.778C781.109 213.318 780.986 213.896 780.821 214.511C780.66 215.127 780.492 215.707 780.316 216.251C780.141 216.796 779.997 217.229 779.883 217.551H778.605C778.666 217.248 778.747 216.848 778.846 216.351C778.946 215.854 779.045 215.297 779.145 214.682C779.249 214.071 779.334 213.446 779.4 212.807L779.485 212.011H781.304ZM791.918 203.678V214H790.111V203.678H783.275V202.018H793.412V203.678H791.918ZM797.465 202.018V208.316H795.668V202.018H797.465ZM802.66 202.018V208.316H800.863V202.018H802.66ZM810.541 206.656V214H805.062V212.34H808.744V207.164C808.744 206.109 808.692 205.364 808.588 204.928C808.484 204.479 808.301 204.16 808.041 203.971C807.787 203.775 807.419 203.678 806.938 203.678H805.619V202.018H806.879C807.921 202.018 808.682 202.161 809.164 202.447C809.646 202.74 809.994 203.219 810.209 203.883C810.43 204.54 810.541 205.465 810.541 206.656ZM821.273 202.018V217.76H819.477V202.018H821.273ZM826.469 202.018V214H824.672V202.018H826.469ZM837.445 207.34C837.445 206.109 837.175 205.191 836.635 204.586C836.094 203.98 835.245 203.678 834.086 203.678H831.391V207.057H833.764V208.717H829.564V202.018H834.105C835.85 202.018 837.146 202.454 837.992 203.326C838.845 204.192 839.271 205.543 839.271 207.379V208.18C839.271 212.06 837.436 214 833.764 214H829.672V212.34H833.812C835.049 212.34 835.964 211.998 836.557 211.314C837.149 210.624 837.445 209.586 837.445 208.199V207.34ZM841.85 212.418C843.1 211.956 844.167 211.37 845.053 210.66C845.945 209.957 846.622 209.189 847.084 208.355C847.553 207.522 847.787 206.676 847.787 205.816C847.787 204.391 847.025 203.678 845.502 203.678H840.648V197.74H842.445V202.018H845.688C848.298 202.018 849.604 203.18 849.604 205.504C849.604 206.702 849.317 207.851 848.744 208.951C848.171 210.051 847.364 211.041 846.322 211.92C845.085 212.975 843.594 213.814 841.85 214.439V212.418ZM857.416 214.195C855.756 214.195 854.535 213.779 853.754 212.945C852.973 212.105 852.582 210.816 852.582 209.078V202.018H854.379V209.02C854.379 210.23 854.617 211.116 855.092 211.676C855.574 212.236 856.358 212.516 857.445 212.516C858.298 212.516 858.992 212.343 859.525 211.998C860.059 211.653 860.45 211.109 860.697 210.367C860.951 209.618 861.078 208.635 861.078 207.418C861.078 206.064 860.935 205.074 860.648 204.449C860.362 203.818 859.874 203.502 859.184 203.502C858.52 203.502 857.878 203.714 857.26 204.137V202.418C857.761 202.021 858.461 201.822 859.359 201.822C860.694 201.822 861.628 202.262 862.162 203.141C862.696 204.013 862.963 205.439 862.963 207.418C862.963 209.755 862.517 211.471 861.625 212.564C860.733 213.652 859.33 214.195 857.416 214.195ZM873.706 212.011L873.592 212.778C873.512 213.318 873.389 213.896 873.223 214.511C873.062 215.127 872.894 215.707 872.719 216.251C872.544 216.796 872.399 217.229 872.286 217.551H871.007C871.069 217.248 871.149 216.848 871.249 216.351C871.348 215.854 871.447 215.297 871.547 214.682C871.651 214.071 871.736 213.446 871.803 212.807L871.888 212.011H873.706ZM878.598 210.064L877.816 214H875.922L876.742 210.104C876.977 208.984 877.191 208.196 877.387 207.74C877.582 207.278 877.826 206.904 878.119 206.617C878.419 206.331 878.819 206.087 879.32 205.885L876.498 202.018H878.715L883.119 208.082C883.607 207.626 883.995 207.076 884.281 206.432C884.574 205.781 884.766 205.035 884.857 204.195L885.082 202.018H886.938L886.713 204.156C886.641 204.872 886.511 205.501 886.322 206.041C886.192 206.412 886.036 206.767 885.854 207.105C885.671 207.438 885.437 207.783 885.15 208.141C884.87 208.499 884.506 208.899 884.057 209.342L887.582 214H885.297L880.141 206.998C879.62 207.252 879.249 207.691 879.027 208.316C878.962 208.479 878.894 208.707 878.822 209C878.757 209.293 878.682 209.648 878.598 210.064ZM889.721 212.418C890.971 211.956 892.038 211.37 892.924 210.66C893.816 209.957 894.493 209.189 894.955 208.355C895.424 207.522 895.658 206.676 895.658 205.816C895.658 204.391 894.896 203.678 893.373 203.678H888.52V197.74H890.316V202.018H893.559C896.169 202.018 897.475 203.18 897.475 205.504C897.475 206.702 897.188 207.851 896.615 208.951C896.042 210.051 895.235 211.041 894.193 211.92C892.956 212.975 891.465 213.814 889.721 214.439V212.418ZM905.844 201.822C907.419 201.822 908.568 202.304 909.291 203.268C910.02 204.225 910.385 205.748 910.385 207.838V214H904.506V212.34H908.568V208.062C908.568 206.467 908.363 205.309 907.953 204.586C907.543 203.863 906.846 203.502 905.863 203.502C904.984 203.502 904.262 203.899 903.695 204.693C903.122 205.501 902.598 206.904 902.123 208.902L900.902 214H898.969L900.307 208.756C900.456 208.144 900.609 207.59 900.766 207.096C900.922 206.601 901.075 206.161 901.225 205.777L898.783 202.018H900.902L902.123 204C902.631 203.232 903.174 202.678 903.754 202.34C904.333 201.995 905.03 201.822 905.844 201.822ZM929.779 206.979V214H919.516V202.018H924.76C926.557 202.018 927.842 202.402 928.617 203.17C929.392 203.938 929.779 205.208 929.779 206.979ZM921.312 212.34H927.973V206.959C927.973 205.774 927.732 204.931 927.25 204.43C926.775 203.928 925.938 203.678 924.74 203.678H921.312V212.34ZM942.074 212.789C941.625 213.089 941.065 213.333 940.395 213.521C939.73 213.71 938.897 213.85 937.895 213.941C936.892 214.033 935.652 214.085 934.174 214.098L931.889 202.018H933.754L934.955 208.18L935.668 208.043C936.059 207.952 936.381 207.835 936.635 207.691C936.889 207.542 937.09 207.333 937.24 207.066C937.364 206.858 937.458 206.601 937.523 206.295C937.589 205.989 937.637 205.624 937.67 205.201L937.914 202.018H939.77L939.467 205.221C939.421 205.761 939.366 206.23 939.301 206.627C939.236 207.018 939.158 207.333 939.066 207.574C938.904 208.062 938.66 208.44 938.334 208.707C938.008 208.967 937.468 209.199 936.713 209.4L935.248 209.742L935.727 212.262H935.961C937.27 212.262 938.318 212.187 939.105 212.037C939.893 211.881 940.515 211.64 940.971 211.314C941.277 211.093 941.534 210.82 941.742 210.494C941.951 210.169 942.126 209.739 942.27 209.205C942.413 208.671 942.533 207.984 942.631 207.145L943.246 202.018H945.131L944.506 207.076C944.376 208.209 944.206 209.143 943.998 209.879C943.79 210.608 943.529 211.201 943.217 211.656C942.911 212.105 942.53 212.483 942.074 212.789Z" fill="#4B4553" fill-opacity="0.56"/>
<g clip-path="url(#clip0_49_698)">
<path d="M85.2307 67.1695L86.3577 70.7368C86.9448 72.5981 88.4032 74.0545 90.2625 74.6415L93.8298 75.7686C94.0568 75.8402 94.0568 76.1613 93.8298 76.2309L88.1107 78.037C87.5993 78.1986 87.1984 78.5995 87.0368 79.1109L85.2307 84.8299C85.1591 85.057 84.8379 85.057 84.7684 84.8299L82.9623 79.1109C82.8007 78.5995 82.3998 78.1986 81.8884 78.037L76.1693 76.2309C75.9423 76.1593 75.9423 75.8381 76.1693 75.7686L81.8884 73.9624C82.3998 73.8009 82.8007 73.3999 82.9623 72.8886L84.7684 67.1695C84.84 66.9424 85.1611 66.9424 85.2307 67.1695Z" fill="#4754D6"/>
</g>
<g clip-path="url(#clip1_49_698)">
<path d="M91.4945 67.0482L91.8166 68.0674C91.9843 68.5992 92.401 69.0153 92.9322 69.183L93.9514 69.505C94.0163 69.5255 94.0163 69.6173 93.9514 69.6371L92.3174 70.1532C92.1713 70.1993 92.0568 70.3139 92.0106 70.46L91.4945 72.094C91.4741 72.1589 91.3823 72.1589 91.3625 72.094L90.8464 70.46C90.8003 70.3139 90.6857 70.1993 90.5396 70.1532L88.9056 69.6371C88.8407 69.6167 88.8407 69.5249 88.9056 69.505L90.5396 68.989C90.6857 68.9428 90.8003 68.8283 90.8464 68.6822L91.3625 67.0482C91.3829 66.9833 91.4747 66.9833 91.4945 67.0482Z" fill="#4754D6"/>
</g>
<rect x="399" y="469" width="175" height="50" rx="25" fill="#4856CD"/>
<path d="M464.41 493.925V506.324H461.367V493.903C461.367 492.742 461.116 491.934 460.614 491.477C460.12 491.013 459.285 490.781 458.11 490.781H453.438V488.063H458.29C459.764 488.063 460.947 488.261 461.838 488.658C462.737 489.048 463.388 489.673 463.792 490.534C464.204 491.387 464.41 492.518 464.41 493.925ZM479.987 500.619C479.373 500.963 478.617 501.248 477.718 501.472C476.827 501.689 475.715 501.85 474.383 501.955C473.058 502.06 471.437 502.112 469.52 502.112L466.892 488.063H470.07L471.294 494.779L472.114 494.622C472.623 494.524 472.998 494.36 473.237 494.127C473.484 493.888 473.672 493.532 473.799 493.061C473.859 492.828 473.915 492.507 473.967 492.095C474.027 491.675 474.083 491.166 474.136 490.567L474.304 488.063H477.404L477.067 491.904C477.022 492.428 476.958 492.9 476.876 493.319C476.794 493.738 476.689 494.101 476.562 494.408C476.314 495.022 475.966 495.501 475.517 495.846C475.075 496.19 474.372 496.478 473.406 496.71L471.721 497.104L472.182 499.406H472.451C473.387 499.406 474.214 499.368 474.933 499.293C475.659 499.211 476.277 499.088 476.786 498.923C477.467 498.713 478.029 498.421 478.471 498.047C478.912 497.665 479.261 497.16 479.515 496.531C479.77 495.894 479.949 495.09 480.054 494.116L480.762 488.063H483.895L483.176 494.038C483.027 495.325 482.817 496.392 482.547 497.238C482.285 498.084 481.945 498.773 481.525 499.305C481.114 499.829 480.601 500.267 479.987 500.619ZM493.946 487.996C495.855 487.996 497.244 488.557 498.113 489.68C498.981 490.796 499.416 492.54 499.416 494.914V502H492.172V499.282H496.361V495.149C496.361 493.57 496.17 492.439 495.788 491.758C495.414 491.069 494.751 490.725 493.8 490.725C492.924 490.725 492.187 491.163 491.588 492.039C490.989 492.937 490.431 494.434 489.915 496.531L488.556 502H485.321L486.837 496.183C487.025 495.479 487.204 494.85 487.376 494.296C487.556 493.742 487.728 493.266 487.893 492.87L485.108 488.22H488.466L489.521 490.197C489.971 489.508 490.585 488.969 491.363 488.58C492.149 488.19 493.01 487.996 493.946 487.996ZM515.206 493.925V502H512.162V493.903C512.162 492.757 511.919 491.952 511.432 491.488C510.945 491.017 510.099 490.781 508.894 490.781H503.2V488.063H509.085C510.56 488.063 511.743 488.261 512.634 488.658C513.532 489.055 514.184 489.684 514.588 490.545C515 491.398 515.206 492.525 515.206 493.925ZM506.457 493.532V502H503.425V493.532H506.457Z" fill="white"/>
<rect x="581" y="469" width="50" height="50" rx="25" fill="#B88AE6" fill-opacity="0.5"/>
<path d="M613.707 494.707C614.098 494.317 614.098 493.683 613.707 493.293L607.343 486.929C606.953 486.538 606.319 486.538 605.929 486.929C605.538 487.319 605.538 487.953 605.929 488.343L611.586 494L605.929 499.657C605.538 500.047 605.538 500.681 605.929 501.071C606.319 501.462 606.953 501.462 607.343 501.071L613.707 494.707ZM613 493L599 493L599 495L613 495L613 493Z" fill="white"/>
<defs>
<clipPath id="clip0_49_698">
<rect width="18" height="18" fill="white" transform="translate(76 67)"/>
</clipPath>
<clipPath id="clip1_49_698">
<rect width="5.14286" height="5.14286" fill="white" transform="translate(88.8574 67)"/>
</clipPath>
</defs>
</svg>
