<svg width="24" height="24" viewBox="0 0 24 24" fill="none" xmlns="http://www.w3.org/2000/svg">
  <path d="M4 14C4 14 6.5 15.5 12 15.5C17.5 15.5 20 14 20 14C20 14 19.5 8.5 12 8.5C4.5 8.5 4 14 4 14Z" fill="#722F37"/>
  <path d="M4 14C4 14 6.5 15.5 12 15.5C17.5 15.5 20 14 20 14C20 14 19.5 8.5 12 8.5C4.5 8.5 4 14 4 14Z" stroke="#5A252B" stroke-width="1.5" stroke-linecap="round" stroke-linejoin="round"/>
  <path d="M12 8.5C12 8.5 13 6 16 6" stroke="#5A252B" stroke-width="1.5" stroke-linecap="round"/>
  <circle cx="16.5" cy="5.5" r="1.5" fill="#FFD700"/>
</svg> 