<?xml version="1.0" encoding="UTF-8"?>
<svg xmlns="http://www.w3.org/2000/svg" version="1.1" viewBox="0 0 1080 1080">
  <defs>
    <style>
      .cls-1 {
        fill: #f6f5f0;
      }
    </style>
  </defs>
  <!-- Generator: Adobe Illustrator 28.7.1, SVG Export Plug-In . SVG Version: 1.2.0 Build 142)  -->
  <g>
    <g id="Layer_1">
      <g>
        <path class="cls-1" d="M806.53,465.96c0,8.93-3.41,16.66-9.86,22.34-5.96,5.26-14.05,7.93-24.03,7.93h-23.36v112.49c0,11.38-3.05,20.46-9.06,26.99-6.26,6.79-14.64,10.38-24.22,10.38s-18.11-3.61-24.4-10.44c-6.05-6.56-9.12-15.62-9.12-26.93v-112.49h-23.37c-10.06,0-18.16-2.71-24.07-8.07-.42-.38-.83-.77-1.22-1.17v121.73c0,11.3-3.07,20.36-9.12,26.93-6.3,6.83-14.78,10.44-24.52,10.44s-17.91-3.65-24.21-10.56c-3.01-3.29-5.28-7.2-6.79-11.68-1.52-4.47-2.28-9.53-2.28-15.13v-129c-.18.52-.36,1.03-.55,1.54-.69,1.87-1.38,3.81-2.06,5.8l-.12.31-42.63,115.06c-1.55,4.47-3.13,8.81-4.7,12.9-1.93,5.02-4.24,9.57-6.87,13.52-3.33,5.01-7.77,9.13-13.17,12.25-5.72,3.31-12.46,4.99-20.02,4.99s-14.21-1.63-19.89-4.85c-5.47-3.1-9.98-7.28-13.38-12.42-2.66-4-4.97-8.55-6.89-13.5-1.58-4.07-3.17-8.42-4.72-12.91l-42.02-114.39c-.67-1.93-1.37-3.84-2.07-5.7-1.02-2.67-1.88-5.57-2.57-8.62-.77-3.47-1.15-6.52-1.15-9.31,0-8.17,3.24-15.8,9.37-22.08,6.22-6.38,14.37-9.75,23.55-9.75,15.15,0,22.7,7.79,25.84,12.44,1.69,2.5,3.33,5.52,4.93,9.12,1.6,3.6,3.17,7.78,4.73,12.59l25.08,74.28,25.3-75.2c2.21-6.66,3.9-11.32,5.12-14.19,2.03-4.77,5.28-9.01,9.66-12.58,5.25-4.29,11.88-6.46,19.73-6.46,5.83,0,11.33,1.48,16.35,4.41,4.93,2.89,8.87,6.8,11.71,11.64,1.43,2.44,2.52,4.95,3.25,7.51,1.49-5.07,3.89-9.44,7.19-13.06,6.26-6.87,14.65-10.5,24.28-10.5s18.16,3.56,24.45,10.31c2.01,2.15,3.7,4.59,5.05,7.28,1.55-2.54,3.51-4.84,5.87-6.86,5.97-5.13,13.9-7.73,23.56-7.73h113.53c10.14,0,18.3,2.74,24.25,8.13,6.31,5.72,9.64,13.42,9.64,22.27Z"/>
        <path class="cls-1" d="M868.73,489.4h-.16c-.21,0-.37.02-.47.03-.03.22-.05.53-.05.94,0,.37.04.59.06.66.01.03.03.06.05.08.39-.41.56-.67.62-.78,0-.41-.03-.72-.05-.93ZM867.85,581.15c-.56-1.36-1-1.71-1-1.71-.06-.04-.1-.06-.11-.07h-.18c-.44,0-.52,0-.98.44-.08.07-.13.13-.16.17-.01.06-.03.18-.03.35,0,.57.05.94.09,1.15.32.24.68.38,1.5.38h1.14c-.09-.27-.18-.51-.27-.71Z"/>
        <path class="cls-1" d="M896.67,569.17c-2.71-6.51-6.73-11.65-11.95-15.31-5.41-3.78-11.53-5.7-18.16-5.7-8.55,0-16.35,3.16-22.58,9.12-6.4,6.14-9.79,14.11-9.79,23.05,0,11.96,5.14,19.44,9.72,23.73-5.87,4.71-9.19,11.45-9.19,18.86,0,5.83,2.05,11.23,5.93,15.62,4.3,4.87,10.34,7.55,17,7.55,7.33,0,14.69-3.19,21.89-9.48,5.91-5.17,10.88-12.04,14.76-20.41,3.91-8.46,5.9-17.6,5.9-27.19,0-7.53-1.19-14.2-3.53-19.84ZM866.98,581.86c-.82,0-1.18-.14-1.5-.38-.04-.21-.09-.58-.09-1.15,0-.17.02-.29.03-.35.03-.04.08-.1.16-.17.46-.44.54-.44.98-.44h.18s.05.03.11.07c0,0,.44.35,1,1.71.09.2.18.44.27.71h-1.14Z"/>
        <path class="cls-1" d="M890.41,466.83c-6.01-5.65-13.56-8.63-21.84-8.63s-15.94,2.92-21.95,8.44c-4.46,4.1-9.78,11.54-9.78,23.73,0,5.97,1.45,11.48,4.3,16.37h.01c2.76,4.74,6.53,8.58,11.2,11.42,4.91,2.98,10.37,4.49,16.22,4.49s14.28-1.73,22.16-10c6.06-6.34,9.26-14.04,9.26-22.28,0-12-5.21-19.43-9.58-23.54ZM868.16,491.11s-.04-.05-.05-.08c-.02-.07-.06-.29-.06-.66,0-.41.02-.72.05-.94.1-.01.26-.03.47-.03h.16c.02.21.05.52.05.93-.06.11-.23.37-.62.78Z"/>
        <path class="cls-1" d="M398.69,570.61c-1.08,8.86-4.06,18.07-8.86,27.37-4.94,9.57-12.23,18.3-21.65,25.96-9.39,7.62-21.13,13.48-34.9,17.43-10.03,2.88-19.65,4.57-28.61,5.04-1.64.08-3.28.12-4.9.12-7.67,0-15.1-.95-22.15-2.83-8.6-2.3-17.05-6.17-25.11-11.5l-.11-.07c-7.06-4.75-13.62-10.52-19.52-17.16-5.85-6.59-11-14.03-15.28-22.12-4.21-7.94-7.72-16.73-10.41-26.14-4.4-15.35-6.13-30.09-5.12-43.8,1.03-14.04,4.7-27.08,10.89-38.75,6.21-11.69,14.68-21.77,25.18-29.96,10.34-8.06,22.24-14.06,35.36-17.82,16.05-4.6,31.62-5.48,46.3-2.62,14.72,2.88,27.23,8.38,37.2,16.36,10.55,8.46,17.39,17.96,20.35,28.26,2.2,7.69,1.43,15.62-2.24,22.91-3.89,7.73-10.25,13.04-18.4,15.38-8.34,2.39-15.84,1.91-22.28-1.44-4.41-2.29-9-6-14.46-11.67-5.08-5.25-10.1-8.73-14.91-10.35-4.22-1.41-9.09-1.29-14.9.38-9.44,2.71-15.46,7.97-18.93,16.57-3.93,9.75-3.57,22.91,1.08,39.13,3.19,11.1,7.26,19.78,12.12,25.8,4.22,5.21,8.67,8.46,13.63,9.92,5.16,1.53,10.71,1.4,16.95-.39,6.71-1.92,11.61-4.93,14.99-9.2,3.42-4.33,5.36-9.95,5.91-17.19.27-6.5,1.4-12.33,3.36-17.31,2.21-5.62,7.38-13.04,19.41-16.49,7.99-2.29,16.09-1.42,23.42,2.51h.01c7.47,4.02,12.68,10.53,15.06,18.82,2.12,7.4,2.63,15.76,1.52,24.85Z"/>
      </g>
    </g>
  </g>
</svg>