<?xml version="1.0" encoding="UTF-8"?>
<svg width="24" height="24" viewBox="0 0 24 24" fill="none" xmlns="http://www.w3.org/2000/svg">
  <path d="M12 13C13.6569 13 15 11.6569 15 10C15 8.34315 13.6569 7 12 7C10.3431 7 9 8.34315 9 10C9 11.6569 10.3431 13 12 13Z" stroke="white" stroke-width="1" fill="none"/>
  <path d="M19 10C19 17 12 23 12 23C12 23 5 17 5 10C5 7.61305 5.94821 5.32387 7.63604 3.63604C9.32387 1.94821 11.6131 1 14 1C16.3869 1 18.6761 1.94821 20.364 3.63604C22.0518 5.32387 23 7.61305 23 10Z" stroke="white" stroke-width="1" fill="none"/>
</svg> 