<svg width="171" height="13" viewBox="0 0 171 13" fill="none" xmlns="http://www.w3.org/2000/svg">
<path d="M2.04102 3.6123V12H0.783203V3.6123H2.04102ZM10.9893 7.08496V12H9.72461V7.07129C9.72461 6.23275 9.55371 5.6403 9.21191 5.29395C8.87467 4.94759 8.28906 4.77441 7.45508 4.77441H4.26953V3.6123H7.47559C8.31413 3.6123 8.99089 3.73079 9.50586 3.96777C10.0208 4.2002 10.3968 4.57161 10.6338 5.08203C10.8708 5.58789 10.9893 6.25553 10.9893 7.08496ZM5.66406 6.55176V12H4.40625V6.55176H5.66406ZM19.582 11.1523C19.2676 11.362 18.8757 11.5329 18.4062 11.665C17.9414 11.7972 17.3581 11.8952 16.6562 11.959C15.9544 12.0228 15.0863 12.0592 14.0518 12.0684L12.4521 3.6123H13.7578L14.5986 7.92578L15.0977 7.83008C15.3711 7.76628 15.5967 7.68424 15.7744 7.58398C15.9521 7.47917 16.0934 7.33333 16.1982 7.14648C16.2848 7.00065 16.3509 6.82064 16.3965 6.60645C16.4421 6.39225 16.4762 6.13704 16.499 5.84082L16.6699 3.6123H17.9688L17.7568 5.85449C17.7249 6.23275 17.6862 6.56087 17.6406 6.83887C17.5951 7.1123 17.5404 7.33333 17.4766 7.50195C17.3626 7.84375 17.1917 8.10807 16.9639 8.29492C16.736 8.47721 16.3577 8.639 15.8291 8.78027L14.8037 9.01953L15.1387 10.7832H15.3027C16.2188 10.7832 16.9525 10.7308 17.5039 10.626C18.0553 10.5166 18.4906 10.348 18.8096 10.1201C19.0238 9.96517 19.2038 9.77376 19.3496 9.5459C19.4954 9.31803 19.6185 9.01725 19.7188 8.64355C19.819 8.26986 19.9033 7.78906 19.9717 7.20117L20.4023 3.6123H21.7217L21.2842 7.15332C21.193 7.94629 21.0745 8.60026 20.9287 9.11523C20.7829 9.62565 20.6006 10.0404 20.3818 10.3594C20.1676 10.6738 19.901 10.9382 19.582 11.1523ZM27.5117 3.47559C28.6146 3.47559 29.4189 3.81283 29.9248 4.4873C30.4352 5.15723 30.6904 6.22363 30.6904 7.68652V12H26.5752V10.8379H29.4189V7.84375C29.4189 6.72721 29.2754 5.91602 28.9883 5.41016C28.7012 4.9043 28.2135 4.65137 27.5254 4.65137C26.9102 4.65137 26.4043 4.92936 26.0078 5.48535C25.6068 6.05046 25.2399 7.03255 24.9072 8.43164L24.0527 12H22.6992L23.6357 8.3291C23.7406 7.90072 23.8477 7.51335 23.957 7.16699C24.0664 6.82064 24.1735 6.51302 24.2783 6.24414L22.5693 3.6123H24.0527L24.9072 5C25.2627 4.46224 25.6432 4.07487 26.0488 3.83789C26.4544 3.59635 26.9421 3.47559 27.5117 3.47559ZM44.2666 7.08496V12H37.082V3.6123H40.7529C42.0107 3.6123 42.9108 3.88118 43.4531 4.41895C43.9954 4.95671 44.2666 5.84538 44.2666 7.08496ZM38.3398 10.8379H43.002V7.07129C43.002 6.24186 42.8333 5.65169 42.4961 5.30078C42.1634 4.94987 41.5778 4.77441 40.7393 4.77441H38.3398V10.8379ZM48.2178 10.7012C48.0628 11.1615 47.8167 11.4941 47.4795 11.6992C47.1423 11.8997 46.6113 12 45.8867 12H45.8115V10.8379H45.9277C46.2422 10.8379 46.4928 10.7786 46.6797 10.6602C46.862 10.5417 46.9919 10.3617 47.0693 10.1201C47.1468 9.87402 47.1855 9.5026 47.1855 9.00586V4.77441H45.8867V3.6123H50.4189C51.6768 3.6123 52.5791 3.88118 53.126 4.41895C53.6729 4.95215 53.9463 5.84082 53.9463 7.08496V12H52.6885V7.07129C52.6885 6.23275 52.5176 5.6403 52.1758 5.29395C51.8385 4.94759 51.2484 4.77441 50.4053 4.77441H48.4434V8.75293C48.4434 9.59147 48.3682 10.2409 48.2178 10.7012ZM61.9033 7.07129C61.9033 6.24186 61.7347 5.65169 61.3975 5.30078C61.0648 4.94987 60.4792 4.77441 59.6406 4.77441H57.5215V12H56.2637V3.6123H59.6543C60.9121 3.6123 61.8122 3.88118 62.3545 4.41895C62.8968 4.95671 63.168 5.84538 63.168 7.08496V12H61.9033V7.07129ZM70.8721 7.92578C70.8721 10.6419 69.5869 12 67.0166 12H64.8359V10.8379H67.0439C67.9144 10.8379 68.557 10.5964 68.9717 10.1133C69.3864 9.63021 69.5938 8.9056 69.5938 7.93945V7.67285C69.5938 6.70215 69.3841 5.97754 68.9648 5.49902C68.5501 5.01595 67.9098 4.77441 67.0439 4.77441H64.8359V3.6123H67.0166C69.5869 3.6123 70.8721 4.97038 70.8721 7.68652V7.92578ZM79.123 11.1523C78.8086 11.362 78.4167 11.5329 77.9473 11.665C77.4824 11.7972 76.8991 11.8952 76.1973 11.959C75.4954 12.0228 74.6273 12.0592 73.5928 12.0684L71.9932 3.6123H73.2988L74.1396 7.92578L74.6387 7.83008C74.9121 7.76628 75.1377 7.68424 75.3154 7.58398C75.4932 7.47917 75.6344 7.33333 75.7393 7.14648C75.8258 7.00065 75.8919 6.82064 75.9375 6.60645C75.9831 6.39225 76.0173 6.13704 76.04 5.84082L76.2109 3.6123H77.5098L77.2979 5.85449C77.266 6.23275 77.2272 6.56087 77.1816 6.83887C77.1361 7.1123 77.0814 7.33333 77.0176 7.50195C76.9036 7.84375 76.7327 8.10807 76.5049 8.29492C76.277 8.47721 75.8988 8.639 75.3701 8.78027L74.3447 9.01953L74.6797 10.7832H74.8438C75.7598 10.7832 76.4935 10.7308 77.0449 10.626C77.5964 10.5166 78.0316 10.348 78.3506 10.1201C78.5648 9.96517 78.7448 9.77376 78.8906 9.5459C79.0365 9.31803 79.1595 9.01725 79.2598 8.64355C79.36 8.26986 79.4443 7.78906 79.5127 7.20117L79.9434 3.6123H81.2627L80.8252 7.15332C80.734 7.94629 80.6156 8.60026 80.4697 9.11523C80.3239 9.62565 80.1416 10.0404 79.9229 10.3594C79.7087 10.6738 79.4421 10.9382 79.123 11.1523ZM94.1826 7.08496V12H86.998V3.6123H90.6689C91.9268 3.6123 92.8268 3.88118 93.3691 4.41895C93.9115 4.95671 94.1826 5.84538 94.1826 7.08496ZM88.2559 10.8379H92.918V7.07129C92.918 6.24186 92.7493 5.65169 92.4121 5.30078C92.0794 4.94987 91.4938 4.77441 90.6553 4.77441H88.2559V10.8379ZM97.6348 9.24512L97.0879 12H95.7617L96.3359 9.27246C96.5 8.48861 96.6504 7.93717 96.7871 7.61816C96.9238 7.2946 97.0947 7.03255 97.2998 6.83203C97.5094 6.63151 97.7897 6.46061 98.1406 6.31934L96.165 3.6123H97.7168L100.8 7.85742C101.142 7.53841 101.413 7.15332 101.613 6.70215C101.818 6.24642 101.953 5.72461 102.017 5.13672L102.174 3.6123H103.473L103.315 5.10938C103.265 5.61068 103.174 6.05046 103.042 6.42871C102.951 6.68848 102.841 6.93685 102.714 7.17383C102.586 7.40625 102.422 7.64779 102.222 7.89844C102.026 8.14909 101.771 8.42936 101.456 8.73926L103.924 12H102.324L98.7148 7.09863C98.3503 7.27637 98.0905 7.58398 97.9355 8.02148C97.89 8.13542 97.8421 8.29492 97.792 8.5C97.7464 8.70508 97.694 8.95345 97.6348 9.24512ZM110.486 3.6123V8.02148H109.229V3.6123H110.486ZM114.123 3.6123V8.02148H112.865V3.6123H114.123ZM116.632 10.8926C117.507 10.569 118.254 10.1589 118.874 9.66211C119.498 9.16992 119.972 8.63216 120.296 8.04883C120.624 7.46549 120.788 6.87305 120.788 6.27148C120.788 5.27344 120.255 4.77441 119.188 4.77441H115.791V0.618164H117.049V3.6123H119.318C121.146 3.6123 122.06 4.42578 122.06 6.05273C122.06 6.89128 121.859 7.69564 121.458 8.46582C121.057 9.236 120.492 9.92871 119.763 10.5439C118.897 11.2822 117.853 11.8701 116.632 12.3076V10.8926ZM123.017 10.8926C124.279 10.8926 125.268 10.7764 125.983 10.5439L123.447 3.6123H124.835L127.077 10.0107C127.506 9.7054 127.85 9.29753 128.109 8.78711C128.374 8.27214 128.565 7.59766 128.684 6.76367C128.807 5.92969 128.868 4.87923 128.868 3.6123H130.188C130.188 5.71777 129.964 7.36751 129.518 8.56152C129.217 9.35449 128.795 10.0107 128.253 10.5303C127.711 11.0452 127.011 11.4417 126.154 11.7197C125.302 11.9932 124.256 12.1618 123.017 12.2256V10.8926ZM137.27 3.6123V12H136.012V3.6123H137.27ZM145.486 10.9199V12H139.033V10.8379H143.921L138.527 3.6123H140.1L142.704 7.15332C143.055 7.00293 143.31 6.7819 143.47 6.49023C143.629 6.19401 143.736 5.74284 143.791 5.13672L143.948 3.6123H145.247L145.11 5.10938C145.051 5.73828 144.958 6.22135 144.83 6.55859C144.702 6.89128 144.522 7.16699 144.29 7.38574C144.058 7.60449 143.729 7.79818 143.306 7.9668L145.486 10.9199ZM152.917 7.07129C152.917 6.24186 152.748 5.65169 152.411 5.30078C152.078 4.94987 151.493 4.77441 150.654 4.77441H148.535V12H147.277V3.6123H150.668C151.926 3.6123 152.826 3.88118 153.368 4.41895C153.91 4.95671 154.182 5.84538 154.182 7.08496V12H152.917V7.07129ZM156.335 10.8926C157.21 10.569 157.957 10.1589 158.577 9.66211C159.201 9.16992 159.675 8.63216 159.999 8.04883C160.327 7.46549 160.491 6.87305 160.491 6.27148C160.491 5.27344 159.958 4.77441 158.892 4.77441H155.494V0.618164H156.752V3.6123H159.021C160.849 3.6123 161.763 4.42578 161.763 6.05273C161.763 6.89128 161.562 7.69564 161.161 8.46582C160.76 9.236 160.195 9.92871 159.466 10.5439C158.6 11.2822 157.556 11.8701 156.335 12.3076V10.8926ZM165.263 10.7012C165.108 11.1615 164.862 11.4941 164.524 11.6992C164.187 11.8997 163.656 12 162.932 12H162.856V10.8379H162.973C163.287 10.8379 163.538 10.7786 163.725 10.6602C163.907 10.5417 164.037 10.3617 164.114 10.1201C164.192 9.87402 164.23 9.5026 164.23 9.00586V4.77441H162.932V3.6123H167.464C168.722 3.6123 169.624 3.88118 170.171 4.41895C170.718 4.95215 170.991 5.84082 170.991 7.08496V12H169.733V7.07129C169.733 6.23275 169.562 5.6403 169.221 5.29395C168.883 4.94759 168.293 4.77441 167.45 4.77441H165.488V8.75293C165.488 9.59147 165.413 10.2409 165.263 10.7012Z" fill="#4856CD"/>
</svg>
