<svg width="12" height="35" viewBox="0 0 12 35" fill="none" xmlns="http://www.w3.org/2000/svg">
<path d="M11.3583 20.6021C10.8656 19.4125 10.1348 18.4733 9.18587 17.8045C8.20239 17.1138 7.08983 16.7629 5.88456 16.7629C4.33025 16.7629 2.91228 17.3404 1.77973 18.4294C0.616266 19.5514 0 21.0078 0 22.6414C0 24.8268 0.934398 26.1936 1.767 26.9775C0.699889 27.8382 0.0963432 29.0698 0.0963432 30.4238C0.0963432 31.4891 0.469013 32.4759 1.17436 33.2781C1.95606 34.168 3.05408 34.6577 4.2648 34.6577C5.59733 34.6577 6.93531 34.0748 8.2442 32.9254C9.31858 31.9807 10.2221 30.7253 10.9274 29.1959C11.6382 27.65 12 25.9798 12 24.2275C12 22.8515 11.7837 21.6327 11.3583 20.6021ZM5.96091 22.9209C5.81184 22.9209 5.7464 22.8954 5.68822 22.8515C5.68095 22.8131 5.67186 22.7455 5.67186 22.6414C5.67186 22.6103 5.6755 22.5884 5.67732 22.5774C5.68277 22.5701 5.69186 22.5591 5.7064 22.5463C5.79002 22.4659 5.80457 22.4659 5.88456 22.4659H5.91728C5.91728 22.4659 5.92637 22.4714 5.93728 22.4787C5.93728 22.4787 6.01726 22.5427 6.11907 22.7912C6.13543 22.8277 6.15179 22.8716 6.16815 22.9209H5.96091Z" fill="#4856CD"/>
<path d="M10.2433 1.92068C9.14132 0.887157 7.75699 0.342041 6.2388 0.342041C4.72061 0.342041 3.3161 0.876181 2.21413 1.88592C1.39636 2.63591 0.420898 3.99687 0.420898 6.22672C0.420898 7.31877 0.686763 8.32669 1.20933 9.22119H1.21116C1.71723 10.0883 2.40848 10.7907 3.26475 11.3102C4.16503 11.8553 5.16616 12.1315 6.2388 12.1315C7.31143 12.1315 8.85712 11.8151 10.302 10.3023C11.4131 9.14253 11.9998 7.73401 11.9998 6.22672C11.9998 4.03162 11.0446 2.6725 10.2433 1.92068ZM6.16362 6.36208C6.16362 6.36208 6.15628 6.35293 6.15445 6.34745C6.15078 6.33464 6.14345 6.2944 6.14345 6.22672C6.14345 6.15172 6.14711 6.09501 6.15261 6.05477C6.17095 6.05294 6.20029 6.04928 6.2388 6.04928H6.26813C6.2718 6.08769 6.2773 6.1444 6.2773 6.2194C6.26629 6.23952 6.23512 6.28708 6.16362 6.36208Z" fill="#4856CD"/>
</svg>
