<svg width="119" height="30" viewBox="0 0 119 30" fill="none" xmlns="http://www.w3.org/2000/svg">
<path d="M98.0076 4.31533V25.0868C98.0076 28.1632 94.8653 30.2485 92.0126 29.0668C86.3613 26.7263 82.3877 21.1757 82.3877 14.7011C82.3877 8.22647 86.3613 2.6761 92.0126 0.335382C94.8653 -0.846016 98.0076 1.23899 98.0076 4.31533Z" fill="white"/>
<path d="M118.62 4.31533V25.0868C118.62 28.1632 115.478 30.2485 112.625 29.0668C106.974 26.7263 103 21.1757 103 14.7011C103 8.22647 106.974 2.6761 112.625 0.335382C115.478 -0.846016 118.62 1.23899 118.62 4.31533Z" fill="white"/>
<path d="M77.7934 4.31508V25.0866C77.7934 28.1629 74.5894 30.2482 71.6808 29.0665C65.9187 26.7261 61.8672 21.1754 61.8672 14.7008C61.8672 8.22622 65.9187 2.67586 71.6808 0.335138C74.5894 -0.84626 77.7934 1.23875 77.7934 4.31508Z" fill="white"/>
<path d="M15.9262 4.31533V25.0868C15.9262 28.1632 12.7223 30.2485 9.8136 29.0668C4.0515 26.7263 0 21.1757 0 14.7011C0 8.22647 4.0515 2.6761 9.8136 0.335382C12.7223 -0.846016 15.9262 1.23899 15.9262 4.31533Z" fill="white"/>
<path d="M56.9666 4.31508V25.0866C56.9666 28.1629 53.8243 30.2482 50.9716 29.0665C45.3203 26.7261 41.3467 21.1754 41.3467 14.7008C41.3467 8.22622 45.3203 2.67586 50.9716 0.335138C53.8243 -0.84626 56.9666 1.23875 56.9666 4.31508Z" fill="white"/>
<path d="M36.4461 4.31508V25.0866C36.4461 28.1629 33.3038 30.2482 30.4511 29.0665C24.7998 26.7261 20.8262 21.1754 20.8262 14.7008C20.8262 8.22622 24.7998 2.67586 30.4511 0.335138C33.3038 -0.84626 36.4461 1.23875 36.4461 4.31508Z" fill="#B78BE6"/>
</svg>
